<svg xmlns="http://www.w3.org/2000/svg" width="1197.065" height="656.204" viewBox="0 0 1197.065 656.204">
  <g id="Grupo_150890" data-name="Grupo 150890" transform="translate(-179.5 -492.022)">
    <text id="Estructurado_en_" data-name="Estructurado en " transform="translate(732.399 634.945)" fill="#12263f" font-size="17" font-family="Roboto-Regular, Roboto"><tspan x="-59.737" y="18">Estructurado en </tspan></text>
    <text id="a_partir_de_" data-name="a partir de " transform="translate(732.399 829.449)" fill="#12263f" font-size="17" font-family="Roboto-Regular, Roboto"><tspan x="-38.321" y="18">a partir de </tspan></text>
    <text id="Considera_" data-name="Considera " transform="translate(1139.826 831.449)" fill="#12263f" font-size="17" font-family="Roboto-Regular, Roboto"><tspan x="-38.146" y="18">Considera </tspan></text>
    <text id="se_consideran_" data-name="se consideran " transform="translate(390 913.043)" fill="#12263f" font-size="17" font-family="Roboto-Regular, Roboto"><tspan x="-52.743" y="18">se consideran </tspan></text>
    <path id="Trazado_220951" data-name="Trazado 220951" d="M-1751-10430.062h335.1l17.024,21.337v74.939H-1734.75l-16.25-20.366Z" transform="translate(2382.03 10924.102)" fill="#dccee3" stroke="#8f52f5" stroke-width="1"/>
    <text id="Fundamentos_de_hacking_ético_y_seguridad_informática_" data-name="Fundamentos de hacking ético y seguridad informática " transform="translate(659.751 519.539)" fill="#12263f" font-size="17" font-family="Roboto-Bold, Roboto" font-weight="700"><tspan x="-123.296" y="18">Fundamentos de hacking ético y </tspan><tspan x="-84.178" y="42">seguridad informática </tspan></text>
    <path id="Trazado_220952" data-name="Trazado 220952" d="M0,0V44.344L2.508,46.91V2.266H44.876L42.661,0Z" transform="translate(628.927 492.022)" fill="#8f52f5"/>
    <path id="Trazado_220953" data-name="Trazado 220953" d="M0,0V44.344L2.508,46.91V2.266H44.876L42.661,0Z" transform="translate(985.154 592.315) rotate(180)" fill="#8f52f5"/>
    <path id="Trazado_220954" data-name="Trazado 220954" d="M-1916.37-10506.159H-1961" transform="translate(11302.358 -1326.055) rotate(-90)" fill="none" stroke="#500c75" stroke-width="2"/>
    <path id="Trazado_220977" data-name="Trazado 220977" d="M-1939.847-10506.159H-1961" transform="translate(11302.358 -1134.521) rotate(-90)" fill="none" stroke="#500c75" stroke-width="2"/>
    <path id="Trazado_220998" data-name="Trazado 220998" d="M-1939.847-10506.159H-1961" transform="translate(11709.785 -1132.521) rotate(-90)" fill="none" stroke="#500c75" stroke-width="2"/>
    <path id="Trazado_220982" data-name="Trazado 220982" d="M-1939.847-10506.159H-1961" transform="translate(11302.358 -1087.793) rotate(-90)" fill="none" stroke="#500c75" stroke-width="2"/>
    <path id="Trazado_220996" data-name="Trazado 220996" d="M-1939.847-10506.159H-1961" transform="translate(11709.785 -1085.793) rotate(-90)" fill="none" stroke="#500c75" stroke-width="2"/>
    <path id="Trazado_220992" data-name="Trazado 220992" d="M-1774.97-10506.159H-1961" transform="translate(2664.969 11379.366)" fill="none" stroke="#500c75" stroke-width="2"/>
    <path id="Trazado_220995" data-name="Trazado 220995" d="M-1774.97-10506.159H-1961" transform="translate(3072.396 11381.367)" fill="none" stroke="#500c75" stroke-width="2"/>
    <path id="Trazado_220955" data-name="Trazado 220955" d="M-1629.97-10506.159H-1961" transform="translate(-769.571 -9860.215) rotate(180)" fill="none" stroke="#500c75" stroke-width="2"/>
    <path id="Trazado_220975" data-name="Trazado 220975" d="M325.023,0H0" transform="translate(407.375 645.945)" fill="none" stroke="#500c75" stroke-width="2"/>
    <path id="Trazado_220972" data-name="Trazado 220972" d="M-1888.114-10506.159H-1961" transform="translate(10958.475 -949.005) rotate(-90)" fill="none" stroke="#500c75" stroke-width="2"/>
    <path id="Trazado_220983" data-name="Trazado 220983" d="M-1855.764-10506.159H-1961" transform="translate(10958.475 -1050.438) rotate(-90)" fill="none" stroke="#500c75" stroke-width="2"/>
    <path id="Trazado_220959" data-name="Trazado 220959" d="M74.543,0H0" transform="translate(265 1087.517) rotate(-90)" fill="none" stroke="#500c75" stroke-width="2"/>
    <path id="Trazado_220981" data-name="Trazado 220981" d="M-1435-10506.159h-526" transform="translate(2224.999 11518.636)" fill="none" stroke="#500c75" stroke-width="2"/>
    <path id="Trazado_220979" data-name="Trazado 220979" d="M74.543,0H0" transform="translate(600 1087.517) rotate(-90)" fill="none" stroke="#500c75" stroke-width="2"/>
    <path id="Trazado_220990" data-name="Trazado 220990" d="M39.836,0H0" transform="translate(705 913.043) rotate(-90)" fill="none" stroke="#500c75" stroke-width="2"/>
    <path id="Trazado_220999" data-name="Trazado 220999" d="M39.836,0H0" transform="translate(1112.427 915.043) rotate(-90)" fill="none" stroke="#500c75" stroke-width="2"/>
    <path id="Trazado_220991" data-name="Trazado 220991" d="M44.536,0H0" transform="translate(890 916.74) rotate(-90)" fill="none" stroke="#500c75" stroke-width="2"/>
    <path id="Trazado_220994" data-name="Trazado 220994" d="M44.536,0H0" transform="translate(1297.427 918.74) rotate(-90)" fill="none" stroke="#500c75" stroke-width="2"/>
    <path id="Trazado_220989" data-name="Trazado 220989" d="M75.521,0H0" transform="translate(790 1087.517) rotate(-90)" fill="none" stroke="#500c75" stroke-width="2"/>
    <path id="Trazado_220984" data-name="Trazado 220984" d="M74.543,0H0" transform="translate(425.941 1087.517) rotate(-90)" fill="none" stroke="#500c75" stroke-width="2"/>
    <g id="Grupo_150316" data-name="Grupo 150316" transform="translate(640.791 -557.193)">
      <path id="Trazado_182922" data-name="Trazado 182922" d="M-2010.361-10496.861v72.536" transform="translate(2561 11700)" fill="none" stroke="#500c75" stroke-width="2"/>
      <g id="Grupo_142831" data-name="Grupo 142831" transform="translate(538.441 1269.123)">
        <g id="Grupo_142830" data-name="Grupo 142830" transform="translate(24.394) rotate(90)">
          <path id="Trazado_175267" data-name="Trazado 175267" d="M0,16.228,8.942,10.5,0,4.774ZM0,2.56,12.4,10.5,0,18.443v2.541L16.382,10.492,11.524,7.381,0,0Z" transform="translate(13.833 1.702)" fill="#500c75"/>
          <path id="Trazado_175268" data-name="Trazado 175268" d="M7.633,12.194,1.868,3.41,15.587,12.2,1.868,20.984Zm-1.868-.016L0,24.394,19.044,12.2,1.438.921,0,0Z" fill="#500c75"/>
        </g>
        <path id="Trazado_182923" data-name="Trazado 182923" d="M0,11.454,8.942,5.727,0,0Z" transform="translate(17.918 13.833) rotate(90)" fill="#e01650"/>
      </g>
    </g>
    <g id="Grupo_150317" data-name="Grupo 150317" transform="translate(-142.209 -557.193)">
      <path id="Trazado_182922-2" data-name="Trazado 182922" d="M-2010.361-10496.861v72.536" transform="translate(2561 11700)" fill="none" stroke="#500c75" stroke-width="2"/>
      <g id="Grupo_142831-2" data-name="Grupo 142831" transform="translate(538.441 1269.123)">
        <g id="Grupo_142830-2" data-name="Grupo 142830" transform="translate(24.394) rotate(90)">
          <path id="Trazado_175267-2" data-name="Trazado 175267" d="M0,16.228,8.942,10.5,0,4.774ZM0,2.56,12.4,10.5,0,18.443v2.541L16.382,10.492,11.524,7.381,0,0Z" transform="translate(13.833 1.702)" fill="#500c75"/>
          <path id="Trazado_175268-2" data-name="Trazado 175268" d="M7.633,12.194,1.868,3.41,15.587,12.2,1.868,20.984Zm-1.868-.016L0,24.394,19.044,12.2,1.438.921,0,0Z" fill="#500c75"/>
        </g>
        <path id="Trazado_182923-2" data-name="Trazado 182923" d="M0,11.454,8.942,5.727,0,0Z" transform="translate(17.918 13.833) rotate(90)" fill="#e01650"/>
      </g>
    </g>
    <path id="Trazado_220964" data-name="Trazado 220964" d="M-1751-10430.062h235.192l11.948,13.344v46.866H-1739.6l-11.4-12.737Z" transform="translate(2818.859 11177.178)" fill="#fff" stroke="#8f52f5" stroke-width="1"/>
    <path id="Trazado_220973" data-name="Trazado 220973" d="M-1751-10430.062h235.192l11.948,13.344v46.866H-1739.6l-11.4-12.737Z" transform="translate(2073.746 11175.178)" fill="#fff" stroke="#8f52f5" stroke-width="1"/>
    <path id="Trazado_220976" data-name="Trazado 220976" d="M-1751-10430.062h251.071l12.755,13.344v46.866h-251.651L-1751-10382.59Z" transform="translate(2419.087 11175.178)" fill="#fff" stroke="#8f52f5" stroke-width="1"/>
    <path id="Trazado_220968" data-name="Trazado 220968" d="M-1751-10430.062h159.766l8.117,13.345v46.865h-160.135l-7.747-12.737Z" transform="translate(2374.76 11339.066)" fill="#e9dcfd" stroke="#8f52f5" stroke-width="1"/>
    <path id="Trazado_220997" data-name="Trazado 220997" d="M-1751-10430.062h159.766l8.117,13.345v46.865h-160.135l-7.747-12.737Z" transform="translate(2782.187 11341.066)" fill="#e9dcfd" stroke="#8f52f5" stroke-width="1"/>
    <path id="Trazado_220985" data-name="Trazado 220985" d="M-1751-10430.062h159.766l8.117,13.345v46.865h-160.135l-7.747-12.737Z" transform="translate(1931 11517.579)" fill="#e9dcfd" stroke="#8f52f5" stroke-width="1"/>
    <path id="Trazado_220986" data-name="Trazado 220986" d="M-1751-10430.062h159.766l8.117,13.345v46.865h-160.135l-7.747-12.737Z" transform="translate(2117 11517.579)" fill="#e9dcfd" stroke="#8f52f5" stroke-width="1"/>
    <path id="Trazado_220987" data-name="Trazado 220987" d="M-1751-10430.062h159.766l8.117,13.345v46.865h-160.135l-7.747-12.737Z" transform="translate(2304 11517.579)" fill="#e9dcfd" stroke="#8f52f5" stroke-width="1"/>
    <path id="Trazado_220988" data-name="Trazado 220988" d="M-1751-10430.062h159.766l8.117,13.345v46.865h-160.135l-7.747-12.737Z" transform="translate(2490 11517.579)" fill="#e9dcfd" stroke="#8f52f5" stroke-width="1"/>
    <path id="Trazado_220980" data-name="Trazado 220980" d="M-1751-10430.062h159.766l8.117,13.345v46.865h-160.135l-7.747-12.737Z" transform="translate(2551.756 11339.066)" fill="#e9dcfd" stroke="#8f52f5" stroke-width="1"/>
    <path id="Trazado_220993" data-name="Trazado 220993" d="M-1751-10430.062h159.766l8.117,13.345v46.865h-160.135l-7.747-12.737Z" transform="translate(2959.183 11341.066)" fill="#e9dcfd" stroke="#8f52f5" stroke-width="1"/>
    <text id="Metodologías_del_hacking_ético_" data-name="Metodologías del hacking ético " transform="translate(1083.421 754.221)" fill="#12263f" font-size="17" font-family="Roboto-Regular, Roboto"><tspan x="11.85" y="18">Metodologías del hacking </tspan></text>
    <text id="Fundamentos_de_hacking_" data-name="Fundamentos de hacking " transform="translate(338.308 762.721)" fill="#12263f" font-size="17" font-family="Roboto-Regular, Roboto"><tspan x="13.838" y="18">Fundamentos de hacking </tspan></text>
    <text id="Leyes_y_normas_de_la_seguridad_de_información_" data-name="Leyes y normas de la seguridad
 de información " transform="translate(676.087 753.721)" fill="#12263f" font-size="17" font-family="Roboto-Regular, Roboto"><tspan x="5.927" y="18">Leyes y normas de la seguridad</tspan><tspan x="65.743" y="42" xml:space="preserve"> de información </tspan></text>
    <text id="Aspectos_legales_de_hacking_ético_" data-name="Aspectos legales de
hacking ético " transform="translate(626.26 916.74)" fill="#12263f" font-size="17" font-family="Roboto-Regular, Roboto"><tspan x="5.456" y="18">Aspectos legales de</tspan></text>
    <text id="Estándares_y_metodologías_" data-name="Estándares 
y metodologías " transform="translate(1033.687 918.74)" fill="#12263f" font-size="17" font-family="Roboto-Regular, Roboto"><tspan x="38.958" y="18">Estándares </tspan></text>
    <text id="Conceptos_y_generalidades_" data-name="Conceptos y
 generalidades " transform="translate(182.5 1095.253)" fill="#12263f" font-size="17" font-family="Roboto-Regular, Roboto"><tspan x="34.6" y="18">Conceptos y</tspan></text>
    <text id="Fases_de_hacking_" data-name="Fases de
 hacking " transform="translate(368.5 1095.253)" fill="#12263f" font-size="17" font-family="Roboto-Regular, Roboto"><tspan x="47.591" y="18">Fases de</tspan></text>
    <text id="Hacking_ético_" data-name="Hacking 
ético " transform="translate(555.5 1095.253)" fill="#12263f" font-size="17" font-family="Roboto-Regular, Roboto"><tspan x="50.479" y="18">Hacking </tspan></text>
    <text id="Investigación_de_vulnerabilidades_" data-name="Investigación de
 vulnerabilidades " transform="translate(741.5 1095.253)" fill="#12263f" font-size="17" font-family="Roboto-Regular, Roboto"><tspan x="19.754" y="18">Investigación de</tspan></text>
    <text id="Normatividad_legal_vigente_" data-name="Normatividad legal
vigente " transform="translate(803.256 916.74)" fill="#12263f" font-size="17" font-family="Roboto-Regular, Roboto"><tspan x="10.229" y="18">Normatividad legal</tspan></text>
    <text id="Buenas_prácticas_" data-name="Buenas 
prácticas " transform="translate(1210.683 918.74)" fill="#12263f" font-size="17" font-family="Roboto-Regular, Roboto"><tspan x="53.264" y="18">Buenas </tspan></text>
    <g id="Grupo_150318" data-name="Grupo 150318" transform="translate(245.561 -557.193)">
      <path id="Trazado_182922-3" data-name="Trazado 182922" d="M-2010.361-10496.86v64.581" transform="translate(2561 11707.955)" fill="none" stroke="#500c75" stroke-width="2"/>
      <g id="Grupo_142831-3" data-name="Grupo 142831" transform="translate(538.441 1269.123)">
        <g id="Grupo_142830-3" data-name="Grupo 142830" transform="translate(24.394) rotate(90)">
          <path id="Trazado_175267-3" data-name="Trazado 175267" d="M0,16.228,8.942,10.5,0,4.774ZM0,2.56,12.4,10.5,0,18.443v2.541L16.382,10.492,11.524,7.381,0,0Z" transform="translate(13.833 1.702)" fill="#500c75"/>
          <path id="Trazado_175268-3" data-name="Trazado 175268" d="M7.633,12.194,1.868,3.41,15.587,12.2,1.868,20.984Zm-1.868-.016L0,24.394,19.044,12.2,1.438.921,0,0Z" fill="#500c75"/>
        </g>
        <path id="Trazado_182923-3" data-name="Trazado 182923" d="M0,11.454,8.942,5.727,0,0Z" transform="translate(17.918 13.833) rotate(90)" fill="#e01650"/>
      </g>
    </g>
  </g>
</svg>
