<svg xmlns="http://www.w3.org/2000/svg" width="143.207" height="161" viewBox="0 0 143.207 161">
  <g id="Grupo_150872" data-name="Grupo 150872" transform="translate(-1230 -402)">
    <g id="galleta" transform="translate(1223.354 398.01)">
      <g id="Grupo_112075" data-name="Grupo 112075" transform="translate(28.124 3.99)">
        <g id="Grupo_112068" data-name="Grupo 112068" transform="translate(6.805 14.926)">
          <path id="Trazado_173706" data-name="Trazado 173706" d="M21.951,16.224s5.131-5.433,6.137-2.918-8.25,10.06-11.268,10.228" transform="translate(-10.985 1.446)" fill="#252525"/>
          <path id="Trazado_173707" data-name="Trazado 173707" d="M15.214,32.348S13.1,3.877,25.677,9.075c2.951,1.207-1.408,3.622-1.911,6.573a7.681,7.681,0,0,0,.469,4.561s3.488-3.253,4.93-2.448c1.643.905,4.661,4.829,2.985,5.466-1.274.469-3.689-2.482-3.689-2.482l-2.113,1.643-.335,3.789a7.488,7.488,0,0,1-5.1,7.311Z" transform="translate(-15.08 -8.441)" fill="#333"/>
        </g>
        <g id="Grupo_112074" data-name="Grupo 112074" transform="translate(0)">
          <path id="Trazado_173708" data-name="Trazado 173708" d="M100.373,45.729l-.738,29.712H50.1l-.771-29.712S21.3,56.292,15.127,50.256C8.789,44.019,18.984,14.81,18.984,14.81l11.938,1.677L29.346,34.394S43.028,22.288,48.595,20.075c6.137-2.515,26.291-3.387,26.291-3.387s20.087.872,26.224,3.387c5.567,2.213,13.38,17.572,15.091,24.547,1.509,6.1,1.979,30.852,1.979,30.852H105.336l-1.979-22.066Z" transform="translate(-13.051 21.475)" fill="#324448"/>
          <g id="Grupo_112069" data-name="Grupo 112069" transform="translate(2.076 38.531)">
            <path id="Trazado_173709" data-name="Trazado 173709" d="M31.15,17.97H33.4V68H31.15Z" transform="translate(27.469 -9.62)" fill="#2c3c3f"/>
            <path id="Trazado_173710" data-name="Trazado 173710" d="M52.6,58.459H48.647l-.738-29.712S19.874,39.31,13.67,33.274c13.146-.4,22.4-2.482,30.55-7.21a52.963,52.963,0,0,0,4.829-4.024Z" transform="translate(-13.67 -0.041)" fill="#2c3c3f"/>
            <path id="Trazado_173711" data-name="Trazado 173711" d="M20.77,24.88c3.756-.738,10.429-1.945,13.246-1.811,3.588.168,13.816,3.421,13.816,3.421l3.186-11c-6.439.436-16.566,1.341-20.59,3.018C28.081,19.38,24.358,22.063,20.77,24.88Z" transform="translate(3.04 -15.456)" fill="#2c3c3f"/>
            <path id="Trazado_173712" data-name="Trazado 173712" d="M33.17,15.48l3.186,11s10.228-3.253,13.816-3.421A57.724,57.724,0,0,1,59.73,24.2c-2.046-2.817-4.125-4.963-5.936-5.7-3.823-1.576-13.112-2.482-19.551-2.951-.034.034-.067.034-.067,0a8.4,8.4,0,0,1-1.006-.067Z" transform="translate(32.223 -15.48)" fill="#2c3c3f"/>
          </g>
          <path id="Trazado_173713" data-name="Trazado 173713" d="M36.371,53.521C30,49.195,25.64,40.375,25.64,30.181c0-14.42,8.786-26.191,19.584-26.191,10.765,0,19.551,11.737,19.551,26.191,0,10.195-4.36,19.014-10.731,23.34Z" transform="translate(16.577 -3.99)" fill="#324448"/>
          <path id="Trazado_173714" data-name="Trazado 173714" d="M60.448,16.505c0,13.414-7.646,24.313-17.036,24.313s-17-10.9-17-24.313C26.376,7.015,60.448,7.015,60.448,16.505Z" transform="translate(18.39 8.713)" fill="#2c3c3f"/>
          <path id="Trazado_173715" data-name="Trazado 173715" d="M26.41,16.488a31.661,31.661,0,0,0,3.119,13.984c6.942-.7,13.883-1.04,13.883-1.04s6.942.3,13.883,1.04a31.563,31.563,0,0,0,3.152-13.984c0-9.457-34.038-9.457-34.038,0Z" transform="translate(18.39 8.731)" fill="#252525"/>
          <path id="Trazado_173716" data-name="Trazado 173716" d="M29.65,13.44v8.283a6.137,6.137,0,0,0,12.274,0V13.44Z" transform="translate(26.015 18.25)" fill="#f7be8b"/>
          <g id="Grupo_112071" data-name="Grupo 112071" transform="translate(47.516 18.117)">
            <path id="Trazado_173717" data-name="Trazado 173717" d="M28.22,10.96V22.832A4.811,4.811,0,0,0,30,26.487l3.924,3.018c.034.034.034.034.067.034a.952.952,0,0,0,.3.2,4.211,4.211,0,0,0,2.448.738H41.5a4.211,4.211,0,0,0,2.448-.738.682.682,0,0,0,.3-.2c.034,0,.034,0,.067-.034l3.924-3.018a4.759,4.759,0,0,0,1.777-3.655v-11.9c-.637-.2-1.274-.4-1.945-.57a42.258,42.258,0,0,0-17.639-.067,13.91,13.91,0,0,0-2.213.671Z" transform="translate(-24.867 -9.392)" fill="#fc9"/>
            <path id="Trazado_173718" data-name="Trazado 173718" d="M27.86,13.305l2.783,1.945a14.994,14.994,0,0,0,.738-5.6,19.375,19.375,0,0,0-3.488,1.073,6.07,6.07,0,0,1-.034,2.582Z" transform="translate(-25.714 -8.786)" fill="#333"/>
            <path id="Trazado_173719" data-name="Trazado 173719" d="M34.17,9.68a20.887,20.887,0,0,0,.436,5.433,7.436,7.436,0,0,1,2.18-3.018,3.949,3.949,0,0,0,.838-1.308A22,22,0,0,0,34.17,9.68Z" transform="translate(-10.863 -8.716)" fill="#333"/>
            <g id="Grupo_112070" data-name="Grupo 112070" transform="translate(0 1.233)">
              <path id="Trazado_173720" data-name="Trazado 173720" d="M27.22,11.571a2.854,2.854,0,0,0,.2.57,17.993,17.993,0,0,1,.872,2.582c.134.57.134,1.14.268,1.744a1.863,1.863,0,0,0,1.006,1.375,1.092,1.092,0,0,0,1.476-.469l1.241-2.079a7.105,7.105,0,0,0-.671-5.533A14.675,14.675,0,0,0,27.22,11.571Z" transform="translate(-27.22 -9.76)" fill="#fc9"/>
              <path id="Trazado_173721" data-name="Trazado 173721" d="M34.431,15.27l1.241,2.079a1.056,1.056,0,0,0,1.476.469,1.925,1.925,0,0,0,1.006-1.375c.168-.6.168-1.207.268-1.744a17.991,17.991,0,0,1,.872-2.582,2.854,2.854,0,0,0,.2-.57,14.963,14.963,0,0,0-4.36-1.777A7,7,0,0,0,34.431,15.27Z" transform="translate(-10.89 -9.736)" fill="#fc9"/>
            </g>
          </g>
          <g id="Grupo_112073" data-name="Grupo 112073" transform="translate(52.077 19.638)">
            <path id="Trazado_173722" data-name="Trazado 173722" d="M28.58,9.859l.268,5.366A1.871,1.871,0,0,0,30.123,16.9l3.018,1.04a3.7,3.7,0,0,0,2.616-.067l2.582-1.04,2.582,1.04a3.7,3.7,0,0,0,2.616.067l3.018-1.04a1.883,1.883,0,0,0,1.274-1.677L48.1,9.859c-5.3-.268-9.759,3.588-9.759,3.588s-4.46-3.823-9.759-3.588Z" transform="translate(-28.58 -9.846)" fill="#333"/>
            <g id="Grupo_112072" data-name="Grupo 112072" transform="translate(2.079 1.858)">
              <path id="Trazado_173723" data-name="Trazado 173723" d="M37.536,10.4,32.17,13.217s1.073,2.415,3.152,1.677C37.334,14.223,37.536,10.4,37.536,10.4Z" transform="translate(-22.21 -10.4)" fill="#fff"/>
              <path id="Trazado_173724" data-name="Trazado 173724" d="M29.2,10.4l5.366,2.817s-1.073,2.415-3.152,1.677C29.4,14.223,29.2,10.4,29.2,10.4Z" transform="translate(-29.2 -10.4)" fill="#fff"/>
            </g>
          </g>
          <path id="Trazado_173725" data-name="Trazado 173725" d="M26.41,16.488a31.178,31.178,0,0,0,.838,7.411c4.8-6.2,27.6-6.2,32.395,0a31.379,31.379,0,0,0,.838-7.411C60.448,7.031,26.41,7.031,26.41,16.488Z" transform="translate(18.39 8.731)" opacity="0.1"/>
          <path id="Trazado_173726" data-name="Trazado 173726" d="M37.91,58.459H41.1l.771-29.712,2.985,7.612,1.979,22.1h4.46L48.205,34.314l-5.869-8.786L40.76,22.04Z" transform="translate(45.455 38.49)" fill="#2c3c3f"/>
        </g>
      </g>
      <g id="Grupo_112076" data-name="Grupo 112076" transform="translate(6.646 67.605)">
        <path id="Trazado_173727" data-name="Trazado 173727" d="M136.147,29.566V99.721a6.6,6.6,0,0,1-6.606,6.606H15.656A6.6,6.6,0,0,1,9.05,99.721V29.566a6.6,6.6,0,0,1,6.606-6.606H129.54a6.6,6.6,0,0,1,6.606,6.606Z" transform="translate(-0.989 -22.96)" fill="#333"/>
        <path id="Trazado_173728" data-name="Trazado 173728" d="M11.05,24.96H124.733V94.914H11.05Z" transform="translate(3.718 -18.253)" fill="#e9dcfd"/>
        <path id="Trazado_173729" data-name="Trazado 173729" d="M30.259,24.9a1.325,1.325,0,0,1-2.649,0,1.325,1.325,0,1,1,2.649,0Z" transform="translate(42.691 -21.548)" fill="#252525"/>
        <path id="Trazado_173730" data-name="Trazado 173730" d="M149.785,49.866l-1.073,3.32a12.43,12.43,0,0,1-11.871,8.652H19.67A12.43,12.43,0,0,1,7.8,53.186l-1.073-3.32A1.564,1.564,0,0,1,8.2,47.82H148.276a1.584,1.584,0,0,1,1.509,2.046Z" transform="translate(-6.646 35.547)" fill="#dcdfd4"/>
        <path id="Trazado_173731" data-name="Trazado 173731" d="M68.691,47.82,68.12,49.6A4.137,4.137,0,0,1,64.2,52.481H25.364A4.106,4.106,0,0,1,21.44,49.6l-.57-1.777Z" transform="translate(26.829 35.547)" fill="#c4c6b6"/>
      </g>
      <g id="Grupo_112085" data-name="Grupo 112085" transform="translate(43.111 32.289)">
        <g id="Grupo_112077" data-name="Grupo 112077" transform="translate(3.537 0)">
          <path id="Trazado_173732" data-name="Trazado 173732" d="M20.135,56.9a.516.516,0,0,0,.5-.5c0-.2-.2-21.731-1.04-34.943-.168-2.616,0-7.109,3.018-7.914,1.979-.537,3.957.939,5.131,2.482.5.637.939,1.341,1.375,2.012a16.735,16.735,0,0,0,2.616,3.353.5.5,0,1,0,.671-.738,15.724,15.724,0,0,1-2.448-3.186,20.984,20.984,0,0,0-1.442-2.079c-1.408-1.777-3.756-3.454-6.17-2.817-3.488.939-3.957,5.366-3.722,8.92.838,13.213,1.04,34.675,1.04,34.876a.5.5,0,0,0,.469.537Z" transform="translate(-18.575 -12.429)" fill="#8f402f"/>
        </g>
        <g id="Grupo_112081" data-name="Grupo 112081" transform="translate(1.408 41.185)">
          <g id="Grupo_112078" data-name="Grupo 112078" transform="translate(2.314 5.466)">
            <path id="Trazado_173733" data-name="Trazado 173733" d="M19.837,26.91a1.5,1.5,0,0,0,1.207-.57V39.217a5.537,5.537,0,0,0,10.932,1.241H31.44a1.2,1.2,0,0,1-1.073-.671,1.251,1.251,0,0,1,.134-1.274L32.379,36.2a1.212,1.212,0,0,1,2.146.771v2.347a7.948,7.948,0,0,1-15.9-.067V26.407a1.61,1.61,0,0,0,1.207.5Z" transform="translate(-18.63 -26.34)" fill="#fcb040"/>
          </g>
          <g id="Grupo_112080" data-name="Grupo 112080">
            <g id="Grupo_112079" data-name="Grupo 112079">
              <path id="Trazado_173734" data-name="Trazado 173734" d="M17.94,28.2a3.565,3.565,0,0,1,3.555-3.488,3.5,3.5,0,1,1,0,7.009A3.594,3.594,0,0,1,17.94,28.2Zm1.61,0a1.985,1.985,0,0,0,1.945,1.911A1.932,1.932,0,0,0,23.406,28.2a1.9,1.9,0,0,0-1.911-1.878A1.956,1.956,0,0,0,19.55,28.2Z" transform="translate(-17.94 -24.71)" fill="#fcb040"/>
            </g>
          </g>
        </g>
        <g id="Grupo_112082" data-name="Grupo 112082" transform="translate(4.593 40.011)">
          <path id="Trazado_173735" data-name="Trazado 173735" d="M19.394,28.82a.539.539,0,0,0,.369-.168,5.706,5.706,0,0,0,1.408-3.789.5.5,0,0,0-1.006,0,5.076,5.076,0,0,1-1.14,3.119.487.487,0,0,0,.034.7.708.708,0,0,0,.335.134Z" transform="translate(-18.89 -24.36)" fill="#8f402f"/>
        </g>
        <g id="Grupo_112083" data-name="Grupo 112083" transform="translate(3.32 40.011)">
          <path id="Trazado_173736" data-name="Trazado 173736" d="M20.287,28.82a.431.431,0,0,0,.335-.134.519.519,0,0,0,.034-.7,4.861,4.861,0,0,1-1.14-3.119.5.5,0,1,0-1.006,0,5.839,5.839,0,0,0,1.442,3.789.413.413,0,0,0,.335.168Z" transform="translate(-18.51 -24.36)" fill="#8f402f"/>
        </g>
        <path id="Trazado_173737" data-name="Trazado 173737" d="M17.52,30.25V74.482H87.775V30.25Zm11.335,6.439a3.018,3.018,0,1,1,3.018,3.052A3.027,3.027,0,0,1,28.855,36.689Z" transform="translate(-17.52 29.513)" fill="#389bc2"/>
        <path id="Trazado_173738" data-name="Trazado 173738" d="M21,38.15a5.57,5.57,0,0,0,5.4-4.292h-.537a1.2,1.2,0,0,1-1.073-.671,1.252,1.252,0,0,1,.134-1.274L26.8,29.6a1.212,1.212,0,0,1,2.146.771v2.347A7.951,7.951,0,0,1,21,40.6" transform="translate(-9.33 26.945)" fill="#fcb040"/>
        <g id="Grupo_112084" data-name="Grupo 112084" transform="translate(6.472 72.204)">
          <path id="Trazado_173739" data-name="Trazado 173739" d="M19.45,33.96H76.828V44.725H19.45Z" transform="translate(-19.45 -33.96)" fill="#fff"/>
          <path id="Trazado_173740" data-name="Trazado 173740" d="M19.45,38.41H76.828V49.175H19.45Z" transform="translate(-19.45 -23.487)" fill="#fff"/>
        </g>
      </g>
      <path id="Trazado_173741" data-name="Trazado 173741" d="M19.784,11.21c1.643.905,4.661,4.829,2.985,5.466-1.274.469-3.689-2.482-3.689-2.482" transform="translate(29.262 16.992)" fill="#333"/>
    </g>
  </g>
</svg>
