<svg xmlns="http://www.w3.org/2000/svg" xmlns:xlink="http://www.w3.org/1999/xlink" width="820" height="404.285" viewBox="0 0 820 404.285">
  <defs>
    <clipPath id="clip-path">
      <rect id="Rect치ngulo_37427" data-name="Rect치ngulo 37427" width="82.97" height="82.97" fill="#79f5ed"/>
    </clipPath>
    <clipPath id="clip-path-4">
      <rect id="Rect치ngulo_37425" data-name="Rect치ngulo 37425" width="59.923" height="59.923" fill="#79f5ed"/>
    </clipPath>
  </defs>
  <g id="Grupo_150869" data-name="Grupo 150869" transform="translate(-390 -2954.973)">
    <path id="Trazado_211808" data-name="Trazado 211808" d="M341.653,597.6H673.936a14.026,14.026,0,0,0,12.148-21.04L519.942,288.793a14.027,14.027,0,0,0-24.3,0L329.5,576.558a14.027,14.027,0,0,0,12.148,21.04" transform="translate(522.017 2761.659)" fill="#d2b7ff"/>
    <path id="Trazado_211810" data-name="Trazado 211810" d="M524.116,21.041,357.351,309.885a14.028,14.028,0,0,1-24.3,0L166.291,21.041A14.027,14.027,0,0,1,178.438,0h333.53a14.027,14.027,0,0,1,12.147,21.04" transform="translate(455.075 3020.401)" fill="#ff93b2"/>
    <path id="Trazado_212618" data-name="Trazado 212618" d="M341.653,597.6H673.936a14.026,14.026,0,0,0,12.148-21.04L519.942,288.793a14.027,14.027,0,0,0-24.3,0L329.5,576.558a14.027,14.027,0,0,0,12.148,21.04" transform="translate(62.396 2757.855)" fill="#8f52f5"/>
    <path id="Trazado_224574" data-name="Trazado 224574" d="M16.8,17.221a1.408,1.408,0,0,0-.532-1.172,6.615,6.615,0,0,0-1.87-.869,17.942,17.942,0,0,1-2.187-.869q-2.764-1.357-2.764-3.73A3.345,3.345,0,0,1,10.136,8.5a4.453,4.453,0,0,1,1.948-1.406,7.582,7.582,0,0,1,2.832-.5,6.632,6.632,0,0,1,2.749.547,4.352,4.352,0,0,1,1.89,1.558A4.068,4.068,0,0,1,20.229,11H16.811a1.719,1.719,0,0,0-.532-1.348,2.075,2.075,0,0,0-1.44-.479,2.339,2.339,0,0,0-1.45.405,1.193,1.193,0,0,0,.054,2.021,7.389,7.389,0,0,0,2.061.918,12.623,12.623,0,0,1,2.422,1.021,4.07,4.07,0,0,1,2.3,3.662,3.472,3.472,0,0,1-1.406,2.93A6.255,6.255,0,0,1,14.965,21.2a7.653,7.653,0,0,1-3.13-.62,4.719,4.719,0,0,1-2.109-1.7,4.428,4.428,0,0,1-.708-2.485h3.438a2.181,2.181,0,0,0,.591,1.685,2.793,2.793,0,0,0,1.919.542,2.206,2.206,0,0,0,1.343-.366A1.209,1.209,0,0,0,16.8,17.221Zm14-2.256H25.414v3.4h6.367V21H21.986V6.781H31.8V9.428H25.414v3H30.8Zm14.014,4.277A5.511,5.511,0,0,1,42.5,20.658a9.982,9.982,0,0,1-3.34.537A5.955,5.955,0,0,1,34.7,19.486a6.918,6.918,0,0,1-1.787-4.756L32.9,13.5a8.485,8.485,0,0,1,.742-3.667,5.511,5.511,0,0,1,2.124-2.412,6.008,6.008,0,0,1,3.2-.845,6.3,6.3,0,0,1,4.126,1.216,5.152,5.152,0,0,1,1.714,3.628h-3.3a2.7,2.7,0,0,0-.762-1.7,2.458,2.458,0,0,0-1.66-.508,2.237,2.237,0,0,0-1.992,1.094,5.84,5.84,0,0,0-.713,3.125v.859a5.717,5.717,0,0,0,.728,3.2,2.573,2.573,0,0,0,2.29,1.069,2.88,2.88,0,0,0,1.992-.6V15.756H39.008V13.4h5.811ZM57.963,6.781v9.307a5.349,5.349,0,0,1-.674,2.739,4.365,4.365,0,0,1-1.934,1.763,6.812,6.812,0,0,1-2.979.605,5.885,5.885,0,0,1-4.092-1.348,4.806,4.806,0,0,1-1.523-3.691V6.781h3.447v9.443q.059,2.334,2.168,2.334a2.1,2.1,0,0,0,1.611-.586,2.739,2.739,0,0,0,.547-1.9V6.781Zm7.422,9.189H63.529V21H60.1V6.781h5.6A6.246,6.246,0,0,1,69.652,7.9a3.8,3.8,0,0,1,1.426,3.17,4.616,4.616,0,0,1-.6,2.458,4.263,4.263,0,0,1-1.88,1.58l2.969,5.741V21H67.895Zm-1.855-2.637H65.7a1.946,1.946,0,0,0,1.47-.514,1.987,1.987,0,0,0,.493-1.434,2.01,2.01,0,0,0-.5-1.444A1.928,1.928,0,0,0,65.7,9.418H63.529ZM76.8,21H73.383V6.781H76.8Zm2.383,0V6.781h4.58a6.737,6.737,0,0,1,3.389.854A6.006,6.006,0,0,1,89.5,10.048a7.283,7.283,0,0,1,.854,3.491v.654a7.325,7.325,0,0,1-.825,3.5,6.032,6.032,0,0,1-2.324,2.422A6.589,6.589,0,0,1,83.861,21ZM82.611,9.428v8.936H83.8a2.666,2.666,0,0,0,2.266-1.05,5.145,5.145,0,0,0,.791-3.12v-.615a5.1,5.1,0,0,0-.791-3.105,2.713,2.713,0,0,0-2.3-1.045Zm17.578,8.916h-4.7L94.672,21H91.01L96.225,6.781h3.223L104.7,21H101.02ZM96.313,15.7h3.057l-1.533-4.932Zm9.424,5.3V6.781h4.58a6.737,6.737,0,0,1,3.389.854,6.006,6.006,0,0,1,2.349,2.412,7.283,7.283,0,0,1,.854,3.491v.654a7.325,7.325,0,0,1-.825,3.5,6.032,6.032,0,0,1-2.324,2.422,6.589,6.589,0,0,1-3.345.884Zm3.428-11.572v8.936h1.191a2.666,2.666,0,0,0,2.266-1.05,5.145,5.145,0,0,0,.791-3.12v-.615a5.1,5.1,0,0,0-.791-3.105,2.713,2.713,0,0,0-2.3-1.045ZM127.3,21h-3.418V6.781H127.3Zm14.258,0h-3.408l-5.039-8.848V21h-3.428V6.781h3.428l5.029,8.848V6.781h3.418Zm11.123-5.664h-5.527V21h-3.428V6.781h9.512V9.428h-6.084V12.7h5.527ZM166.7,14.184a8.385,8.385,0,0,1-.771,3.682,5.7,5.7,0,0,1-2.192,2.466,6.1,6.1,0,0,1-3.237.864,6.191,6.191,0,0,1-3.223-.835,5.692,5.692,0,0,1-2.192-2.388,8.144,8.144,0,0,1-.825-3.564v-.8a8.422,8.422,0,0,1,.767-3.687,5.688,5.688,0,0,1,2.2-2.466,6.5,6.5,0,0,1,6.479-.01,5.79,5.79,0,0,1,2.2,2.446,8.18,8.18,0,0,1,.8,3.638Zm-3.486-.6a5.979,5.979,0,0,0-.708-3.218,2.271,2.271,0,0,0-2.026-1.1q-2.578,0-2.725,3.867l-.01,1.045a6.15,6.15,0,0,0,.693,3.213A2.268,2.268,0,0,0,160.5,18.52a2.24,2.24,0,0,0,2-1.1,5.982,5.982,0,0,0,.713-3.174Zm10.537,2.383H171.9V21h-3.428V6.781h5.6A6.246,6.246,0,0,1,178.021,7.9a3.8,3.8,0,0,1,1.426,3.17,4.616,4.616,0,0,1-.6,2.458,4.263,4.263,0,0,1-1.88,1.58l2.969,5.741V21h-3.672ZM171.9,13.334h2.168a1.946,1.946,0,0,0,1.47-.514,1.987,1.987,0,0,0,.493-1.434,2.01,2.01,0,0,0-.5-1.444,1.928,1.928,0,0,0-1.465-.524H171.9ZM186.02,6.781l3.174,9.893,3.164-9.893h4.512V21h-3.437V17.68l.332-6.8L190.326,21h-2.266l-3.447-10.127.332,6.807V21h-3.428V6.781Zm21.1,11.563h-4.7L201.605,21h-3.662l5.215-14.219h3.223L211.635,21h-3.682ZM203.246,15.7H206.3l-1.533-4.932Zm20.928.488a5.193,5.193,0,0,1-.8,2.622,4.833,4.833,0,0,1-2.056,1.763,7,7,0,0,1-3.022.625,5.584,5.584,0,0,1-4.414-1.826,7.54,7.54,0,0,1-1.611-5.156v-.7A8.607,8.607,0,0,1,213,9.853a5.513,5.513,0,0,1,2.095-2.422,5.844,5.844,0,0,1,3.164-.854,6.129,6.129,0,0,1,4.16,1.362,5.383,5.383,0,0,1,1.787,3.755h-3.418a2.547,2.547,0,0,0-.654-1.865,2.691,2.691,0,0,0-1.875-.566,2.048,2.048,0,0,0-1.875.957,6.151,6.151,0,0,0-.625,3.057v1.006a6.806,6.806,0,0,0,.571,3.252,2.091,2.091,0,0,0,1.968.977,2.632,2.632,0,0,0,1.807-.557,2.363,2.363,0,0,0,.664-1.768ZM229.447,21h-3.418V6.781h3.418Zm14.424-6.816a8.385,8.385,0,0,1-.771,3.682,5.7,5.7,0,0,1-2.192,2.466,6.1,6.1,0,0,1-3.237.864,6.191,6.191,0,0,1-3.223-.835,5.692,5.692,0,0,1-2.192-2.388,8.144,8.144,0,0,1-.825-3.564v-.8a8.422,8.422,0,0,1,.767-3.687,5.688,5.688,0,0,1,2.2-2.466,6.5,6.5,0,0,1,6.479-.01,5.79,5.79,0,0,1,2.2,2.446,8.18,8.18,0,0,1,.8,3.638Zm-3.486-.6a5.979,5.979,0,0,0-.708-3.218,2.271,2.271,0,0,0-2.026-1.1q-2.578,0-2.725,3.867l-.01,1.045a6.15,6.15,0,0,0,.693,3.213,2.268,2.268,0,0,0,2.061,1.123,2.24,2.24,0,0,0,2-1.1,5.982,5.982,0,0,0,.713-3.174ZM238.051,2.973h3.477l-2.715,3.066-2.686,0ZM257.514,21h-3.408l-5.039-8.848V21h-3.428V6.781h3.428l5.029,8.848V6.781h3.418Z" transform="translate(667 2952)" fill="#12263f"/>
    <path id="Trazado_224575" data-name="Trazado 224575" d="M60.07,13.211A4.025,4.025,0,0,1,58.714,16.1a4.76,4.76,0,0,1-3.223,1.055,4.28,4.28,0,0,1-3.441-1.473A6.038,6.038,0,0,1,50.8,11.641v-.7a6.819,6.819,0,0,1,.578-2.891,4.332,4.332,0,0,1,1.652-1.918,5.164,5.164,0,0,1,5.668.387,4.326,4.326,0,0,1,1.391,2.961H57.742a2.376,2.376,0,0,0-.613-1.6,2.271,2.271,0,0,0-1.605-.5,1.991,1.991,0,0,0-1.754.84,4.707,4.707,0,0,0-.6,2.605V11.7a5.038,5.038,0,0,0,.559,2.7,1.954,1.954,0,0,0,1.762.852,2.314,2.314,0,0,0,1.621-.5,2.241,2.241,0,0,0,.613-1.535Zm1.039-.516a5.013,5.013,0,0,1,.484-2.242A3.546,3.546,0,0,1,62.988,8.93,4.069,4.069,0,0,1,65.1,8.391a3.849,3.849,0,0,1,2.793,1.047A4.2,4.2,0,0,1,69.1,12.281l.016.578a4.418,4.418,0,0,1-1.086,3.121,4.209,4.209,0,0,1-5.832,0,4.5,4.5,0,0,1-1.09-3.187Zm2.258.16A3.16,3.16,0,0,0,63.82,14.7a1.628,1.628,0,0,0,2.578.008,3.457,3.457,0,0,0,.461-2.015A3.128,3.128,0,0,0,66.4,10.86a1.5,1.5,0,0,0-1.3-.649,1.474,1.474,0,0,0-1.281.646A3.516,3.516,0,0,0,63.367,12.856Zm9.219-4.309.07.977a2.951,2.951,0,0,1,2.43-1.133,2.453,2.453,0,0,1,2,.789,3.682,3.682,0,0,1,.672,2.359V17H75.5V11.594a1.465,1.465,0,0,0-.312-1.043,1.4,1.4,0,0,0-1.039-.324,1.553,1.553,0,0,0-1.43.813V17H70.46V8.547ZM80.015,17V10.2H78.757V8.547h1.258V8.156A3.17,3.17,0,0,1,81,5.7a3.945,3.945,0,0,1,2.723-.863,9.031,9.031,0,0,1,2.563.461l-.328,1.867a10,10,0,0,0-1.187-.293,5.835,5.835,0,0,0-.906-.066q-1.578,0-1.578,1.4v.344h1.664V10.2H82.281V17Zm7.32,0H85.07V8.547h2.266Zm1.516-4.289a5.094,5.094,0,0,1,.887-3.148,2.877,2.877,0,0,1,2.426-1.172,2.589,2.589,0,0,1,2.039.922V5h2.266V17H94.429l-.109-.9a2.657,2.657,0,0,1-2.172,1.055,2.869,2.869,0,0,1-2.395-1.176A5.258,5.258,0,0,1,88.851,12.711Zm2.258.168a3.337,3.337,0,0,0,.414,1.823,1.349,1.349,0,0,0,1.2.634,1.511,1.511,0,0,0,1.477-.884V11.111a1.489,1.489,0,0,0-1.461-.884Q91.109,10.227,91.109,12.879Zm11,4.277a4.15,4.15,0,0,1-3.027-1.141,4.054,4.054,0,0,1-1.168-3.039v-.219a5.106,5.106,0,0,1,.492-2.277A3.612,3.612,0,0,1,99.8,8.934a3.914,3.914,0,0,1,2.059-.543,3.508,3.508,0,0,1,2.73,1.094,4.444,4.444,0,0,1,1,3.1v.922H100.2a2.1,2.1,0,0,0,.66,1.328,2,2,0,0,0,1.395.5,2.437,2.437,0,0,0,2.039-.945l1.109,1.242a3.389,3.389,0,0,1-1.375,1.121A4.511,4.511,0,0,1,102.109,17.156Zm-.258-6.945a1.411,1.411,0,0,0-1.09.455,2.357,2.357,0,0,0-.535,1.3h3.141v-.181a1.681,1.681,0,0,0-.406-1.165A1.456,1.456,0,0,0,101.851,10.211Zm7.094-1.664.07.977a2.951,2.951,0,0,1,2.43-1.133,2.453,2.453,0,0,1,2,.789,3.682,3.682,0,0,1,.672,2.359V17h-2.258V11.594a1.465,1.465,0,0,0-.312-1.043,1.4,1.4,0,0,0-1.039-.324,1.553,1.553,0,0,0-1.43.813V17H106.82V8.547Zm10.4,6.789a1.481,1.481,0,0,0,1.016-.344,1.2,1.2,0,0,0,.406-.914h2.117a2.9,2.9,0,0,1-.469,1.574,3.093,3.093,0,0,1-1.262,1.109,3.949,3.949,0,0,1-1.77.395A3.67,3.67,0,0,1,116.523,16a4.56,4.56,0,0,1-1.047-3.184v-.148a4.508,4.508,0,0,1,1.039-3.117,3.627,3.627,0,0,1,2.852-1.164,3.555,3.555,0,0,1,2.543.9,3.2,3.2,0,0,1,.973,2.4h-2.117a1.551,1.551,0,0,0-.406-1.072,1.51,1.51,0,0,0-2.223.163,3.333,3.333,0,0,0-.4,1.866v.235a3.375,3.375,0,0,0,.4,1.878A1.377,1.377,0,0,0,119.343,15.336ZM126.554,17h-2.266V8.547h2.266Zm-2.4-10.641a1.112,1.112,0,0,1,.34-.836,1.465,1.465,0,0,1,1.848,0,1.105,1.105,0,0,1,.344.836,1.108,1.108,0,0,1-.348.844,1.448,1.448,0,0,1-1.836,0A1.108,1.108,0,0,1,124.156,6.359ZM133.312,17a2.507,2.507,0,0,1-.227-.758,2.732,2.732,0,0,1-2.133.914,3,3,0,0,1-2.059-.719,2.312,2.312,0,0,1-.816-1.812,2.389,2.389,0,0,1,1-2.062,4.915,4.915,0,0,1,2.879-.727h1.039v-.484a1.393,1.393,0,0,0-.3-.937,1.183,1.183,0,0,0-.949-.352,1.345,1.345,0,0,0-.895.273.929.929,0,0,0-.324.75h-2.258a2.268,2.268,0,0,1,.453-1.359A3,3,0,0,1,130,8.746a4.669,4.669,0,0,1,1.859-.355,3.689,3.689,0,0,1,2.48.785,2.747,2.747,0,0,1,.918,2.207v3.664a4.041,4.041,0,0,0,.336,1.82V17Zm-1.867-1.57a1.945,1.945,0,0,0,.922-.223,1.462,1.462,0,0,0,.625-.6V13.156h-.844q-1.7,0-1.8,1.172l-.008.133a.9.9,0,0,0,.3.7A1.153,1.153,0,0,0,131.445,15.43Zm7.93,1.57h-2.266V5h2.266Zm4.242,0h-2.266V8.547h2.266Zm-2.4-10.641a1.112,1.112,0,0,1,.34-.836,1.465,1.465,0,0,1,1.848,0,1.105,1.105,0,0,1,.344.836,1.109,1.109,0,0,1-.348.844,1.448,1.448,0,0,1-1.836,0A1.109,1.109,0,0,1,141.218,6.359Zm3.906,6.352a5.094,5.094,0,0,1,.887-3.148,2.877,2.877,0,0,1,2.426-1.172,2.589,2.589,0,0,1,2.039.922V5h2.266V17H150.7l-.109-.9a2.657,2.657,0,0,1-2.172,1.055,2.869,2.869,0,0,1-2.395-1.176A5.258,5.258,0,0,1,145.124,12.711Zm2.258.168A3.337,3.337,0,0,0,147.8,14.7a1.349,1.349,0,0,0,1.2.634,1.511,1.511,0,0,0,1.477-.884V11.111a1.489,1.489,0,0,0-1.461-.884Q147.382,10.227,147.382,12.879ZM159.39,17a2.507,2.507,0,0,1-.227-.758,2.732,2.732,0,0,1-2.133.914,3,3,0,0,1-2.059-.719,2.312,2.312,0,0,1-.816-1.812,2.389,2.389,0,0,1,1-2.062,4.915,4.915,0,0,1,2.879-.727h1.039v-.484a1.393,1.393,0,0,0-.3-.937,1.183,1.183,0,0,0-.949-.352,1.345,1.345,0,0,0-.895.273.929.929,0,0,0-.324.75h-2.258a2.268,2.268,0,0,1,.453-1.359,3,3,0,0,1,1.281-.98,4.669,4.669,0,0,1,1.859-.355,3.689,3.689,0,0,1,2.48.785,2.747,2.747,0,0,1,.918,2.207v3.664a4.041,4.041,0,0,0,.336,1.82V17Zm-1.867-1.57a1.945,1.945,0,0,0,.922-.223,1.462,1.462,0,0,0,.625-.6V13.156h-.844q-1.7,0-1.8,1.172l-.008.133a.9.9,0,0,0,.3.7A1.153,1.153,0,0,0,157.523,15.43Zm5.2-2.719a5.094,5.094,0,0,1,.887-3.148,2.877,2.877,0,0,1,2.426-1.172,2.589,2.589,0,0,1,2.039.922V5h2.266V17H168.3l-.109-.9a2.657,2.657,0,0,1-2.172,1.055,2.869,2.869,0,0,1-2.395-1.176A5.258,5.258,0,0,1,162.718,12.711Zm2.258.168a3.337,3.337,0,0,0,.414,1.823,1.349,1.349,0,0,0,1.2.634,1.511,1.511,0,0,0,1.477-.884V11.111a1.489,1.489,0,0,0-1.461-.884Q164.976,10.227,164.976,12.879Z" transform="translate(691.284 3039.633)" fill="#12263f"/>
    <path id="Trazado_224576" data-name="Trazado 224576" d="M47.611,17H45.267V5.625h2.344Zm4.1-8.453.07.977a2.951,2.951,0,0,1,2.43-1.133,2.453,2.453,0,0,1,2,.789,3.682,3.682,0,0,1,.672,2.359V17H54.627V11.594a1.465,1.465,0,0,0-.312-1.043,1.4,1.4,0,0,0-1.039-.324,1.553,1.553,0,0,0-1.43.813V17H49.588V8.547ZM61.3,6.469V8.547h1.445V10.2H61.3v4.219a1.007,1.007,0,0,0,.18.672.9.9,0,0,0,.688.2,3.6,3.6,0,0,0,.664-.055v1.711a4.648,4.648,0,0,1-1.367.2,2.156,2.156,0,0,1-2.422-2.4V10.2H57.806V8.547h1.234V6.469Zm6.594,10.688a4.15,4.15,0,0,1-3.027-1.141A4.054,4.054,0,0,1,63.7,12.977v-.219a5.106,5.106,0,0,1,.492-2.277,3.612,3.612,0,0,1,1.395-1.547,3.914,3.914,0,0,1,2.059-.543,3.508,3.508,0,0,1,2.73,1.094,4.444,4.444,0,0,1,1,3.1v.922H65.986a2.1,2.1,0,0,0,.66,1.328,2,2,0,0,0,1.395.5,2.437,2.437,0,0,0,2.039-.945l1.109,1.242a3.389,3.389,0,0,1-1.375,1.121A4.511,4.511,0,0,1,67.892,17.156Zm-.258-6.945a1.411,1.411,0,0,0-1.09.455,2.357,2.357,0,0,0-.535,1.3H69.15v-.181a1.681,1.681,0,0,0-.406-1.165A1.456,1.456,0,0,0,67.634,10.211Zm4.688,2.5a4.954,4.954,0,0,1,.926-3.133,3,3,0,0,1,2.5-1.187,2.631,2.631,0,0,1,2.164.953l.094-.8h2.047v8.172a3.613,3.613,0,0,1-.5,1.93,3.236,3.236,0,0,1-1.418,1.25,4.985,4.985,0,0,1-2.141.43,4.635,4.635,0,0,1-1.812-.371A3.217,3.217,0,0,1,72.838,19l1-1.375a2.645,2.645,0,0,0,2.047.945,1.936,1.936,0,0,0,1.4-.48,1.8,1.8,0,0,0,.5-1.363v-.453a2.612,2.612,0,0,1-2.055.883,2.992,2.992,0,0,1-2.465-1.191,4.953,4.953,0,0,1-.941-3.16Zm2.258.168a3.085,3.085,0,0,0,.461,1.8,1.466,1.466,0,0,0,1.266.653,1.568,1.568,0,0,0,1.477-.775V11a1.564,1.564,0,0,0-1.461-.775,1.476,1.476,0,0,0-1.277.665A3.477,3.477,0,0,0,74.58,12.879Zm11.953-2.215a6.134,6.134,0,0,0-.812-.062,1.654,1.654,0,0,0-1.68.867V17H81.783V8.547h2.133l.063,1.008a2.092,2.092,0,0,1,1.883-1.164,2.366,2.366,0,0,1,.7.1ZM90,17H87.736V8.547H90ZM87.6,6.359a1.112,1.112,0,0,1,.34-.836,1.465,1.465,0,0,1,1.848,0,1.105,1.105,0,0,1,.344.836,1.108,1.108,0,0,1-.348.844,1.448,1.448,0,0,1-1.836,0A1.108,1.108,0,0,1,87.6,6.359Zm3.906,6.352A5.094,5.094,0,0,1,92.4,9.563a2.877,2.877,0,0,1,2.426-1.172,2.589,2.589,0,0,1,2.039.922V5h2.266V17H97.088l-.109-.9a2.657,2.657,0,0,1-2.172,1.055,2.869,2.869,0,0,1-2.395-1.176A5.258,5.258,0,0,1,91.509,12.711Zm2.258.168a3.337,3.337,0,0,0,.414,1.823,1.349,1.349,0,0,0,1.2.634,1.511,1.511,0,0,0,1.477-.884V11.111a1.489,1.489,0,0,0-1.461-.884Q93.767,10.227,93.767,12.879ZM105.775,17a2.507,2.507,0,0,1-.227-.758,2.732,2.732,0,0,1-2.133.914,3,3,0,0,1-2.059-.719,2.312,2.312,0,0,1-.816-1.812,2.389,2.389,0,0,1,1-2.062,4.915,4.915,0,0,1,2.879-.727h1.039v-.484a1.393,1.393,0,0,0-.3-.937,1.183,1.183,0,0,0-.949-.352,1.345,1.345,0,0,0-.895.273.929.929,0,0,0-.324.75h-2.258a2.268,2.268,0,0,1,.453-1.359,3,3,0,0,1,1.281-.98,4.669,4.669,0,0,1,1.859-.355,3.689,3.689,0,0,1,2.48.785,2.747,2.747,0,0,1,.918,2.207v3.664a4.041,4.041,0,0,0,.336,1.82V17Zm-1.867-1.57a1.945,1.945,0,0,0,.922-.223,1.462,1.462,0,0,0,.625-.6V13.156h-.844q-1.7,0-1.8,1.172l-.008.133a.9.9,0,0,0,.3.7A1.153,1.153,0,0,0,103.908,15.43Zm5.2-2.719a5.094,5.094,0,0,1,.887-3.148,2.877,2.877,0,0,1,2.426-1.172,2.589,2.589,0,0,1,2.039.922V5h2.266V17h-2.039l-.109-.9a2.657,2.657,0,0,1-2.172,1.055,2.869,2.869,0,0,1-2.395-1.176A5.258,5.258,0,0,1,109.1,12.711Zm2.258.168a3.337,3.337,0,0,0,.414,1.823,1.349,1.349,0,0,0,1.2.634,1.511,1.511,0,0,0,1.477-.884V11.111a1.489,1.489,0,0,0-1.461-.884Q111.361,10.227,111.361,12.879Z" transform="translate(485.782 3269.794)" fill="#fff"/>
    <path id="Trazado_224577" data-name="Trazado 224577" d="M42.676,17V5.625h3.5A5.315,5.315,0,0,1,48.86,6.3a4.712,4.712,0,0,1,1.848,1.922,5.928,5.928,0,0,1,.664,2.832v.523a5.945,5.945,0,0,1-.652,2.82,4.672,4.672,0,0,1-1.84,1.914A5.355,5.355,0,0,1,46.2,17ZM45.02,7.523v7.594h1.133a2.545,2.545,0,0,0,2.1-.9A4.06,4.06,0,0,0,49,11.648v-.6a4.124,4.124,0,0,0-.719-2.629,2.537,2.537,0,0,0-2.1-.895ZM55.309,17H53.044V8.547h2.266Zm-2.4-10.641a1.112,1.112,0,0,1,.34-.836,1.465,1.465,0,0,1,1.848,0,1.105,1.105,0,0,1,.344.836,1.108,1.108,0,0,1-.348.844,1.448,1.448,0,0,1-1.836,0A1.108,1.108,0,0,1,52.911,6.359Zm8.836,8.3a.727.727,0,0,0-.41-.652,4.659,4.659,0,0,0-1.316-.426Q57,12.953,57,11.023a2.323,2.323,0,0,1,.934-1.879,3.766,3.766,0,0,1,2.441-.754,4.053,4.053,0,0,1,2.574.758,2.388,2.388,0,0,1,.965,1.969H61.661a1.092,1.092,0,0,0-.312-.8A1.322,1.322,0,0,0,60.372,10a1.351,1.351,0,0,0-.883.258.814.814,0,0,0-.312.656.7.7,0,0,0,.355.605,3.657,3.657,0,0,0,1.2.4,9.8,9.8,0,0,1,1.422.379,2.336,2.336,0,0,1,1.789,2.273,2.2,2.2,0,0,1-.992,1.871,4.28,4.28,0,0,1-2.562.715,4.47,4.47,0,0,1-1.887-.379,3.166,3.166,0,0,1-1.293-1.039,2.414,2.414,0,0,1-.469-1.426h2.141a1.179,1.179,0,0,0,.445.922,1.766,1.766,0,0,0,1.109.32,1.635,1.635,0,0,0,.98-.246A.766.766,0,0,0,61.747,14.664ZM73,12.852a5.07,5.07,0,0,1-.887,3.129,2.843,2.843,0,0,1-2.395,1.176,2.633,2.633,0,0,1-2.07-.891V20.25H65.4V8.547h2.094l.078.828a2.654,2.654,0,0,1,2.141-.984,2.862,2.862,0,0,1,2.43,1.156A5.207,5.207,0,0,1,73,12.734Zm-2.258-.164a3.327,3.327,0,0,0-.418-1.82,1.361,1.361,0,0,0-1.215-.641,1.478,1.478,0,0,0-1.461.813V14.5a1.5,1.5,0,0,0,1.477.836Q70.747,15.336,70.747,12.688Zm3.3.008a5.013,5.013,0,0,1,.484-2.242A3.546,3.546,0,0,1,75.93,8.93a4.069,4.069,0,0,1,2.113-.539,3.849,3.849,0,0,1,2.793,1.047,4.2,4.2,0,0,1,1.207,2.844l.016.578a4.418,4.418,0,0,1-1.086,3.121,4.209,4.209,0,0,1-5.832,0,4.5,4.5,0,0,1-1.09-3.187Zm2.258.16a3.16,3.16,0,0,0,.453,1.843,1.628,1.628,0,0,0,2.578.008,3.457,3.457,0,0,0,.461-2.015,3.128,3.128,0,0,0-.461-1.831,1.5,1.5,0,0,0-1.3-.649,1.474,1.474,0,0,0-1.281.646A3.516,3.516,0,0,0,76.309,12.856Zm9.219-4.309.07.977a2.951,2.951,0,0,1,2.43-1.133,2.453,2.453,0,0,1,2,.789,3.682,3.682,0,0,1,.672,2.359V17H88.442V11.594a1.465,1.465,0,0,0-.312-1.043,1.4,1.4,0,0,0-1.039-.324,1.553,1.553,0,0,0-1.43.813V17H83.4V8.547ZM94.794,17H92.528V8.547h2.266ZM92.4,6.359a1.112,1.112,0,0,1,.34-.836,1.465,1.465,0,0,1,1.848,0,1.105,1.105,0,0,1,.344.836,1.108,1.108,0,0,1-.348.844,1.448,1.448,0,0,1-1.836,0A1.108,1.108,0,0,1,92.4,6.359Zm11.875,6.492a5.119,5.119,0,0,1-.867,3.168,2.872,2.872,0,0,1-2.422,1.137,2.639,2.639,0,0,1-2.2-1.055l-.1.9H96.653V5h2.258V9.3a2.571,2.571,0,0,1,2.055-.914,2.9,2.9,0,0,1,2.426,1.137,5.126,5.126,0,0,1,.879,3.2Zm-2.258-.164a3.363,3.363,0,0,0-.406-1.871,1.374,1.374,0,0,0-1.211-.59,1.489,1.489,0,0,0-1.484.883v3.336a1.509,1.509,0,0,0,1.5.891,1.394,1.394,0,0,0,1.438-1.078A5.562,5.562,0,0,0,102.012,12.688ZM108.044,17h-2.266V8.547h2.266Zm-2.4-10.641a1.112,1.112,0,0,1,.34-.836,1.465,1.465,0,0,1,1.848,0,1.105,1.105,0,0,1,.344.836,1.108,1.108,0,0,1-.348.844,1.448,1.448,0,0,1-1.836,0A1.108,1.108,0,0,1,105.645,6.359ZM112.286,17H110.02V5h2.266Zm4.242,0h-2.266V8.547h2.266Zm-2.4-10.641a1.112,1.112,0,0,1,.34-.836,1.465,1.465,0,0,1,1.848,0,1.105,1.105,0,0,1,.344.836,1.108,1.108,0,0,1-.348.844,1.448,1.448,0,0,1-1.836,0A1.108,1.108,0,0,1,114.129,6.359Zm3.906,6.352a5.094,5.094,0,0,1,.887-3.148,2.877,2.877,0,0,1,2.426-1.172,2.589,2.589,0,0,1,2.039.922V5h2.266V17h-2.039l-.109-.9a2.657,2.657,0,0,1-2.172,1.055,2.869,2.869,0,0,1-2.395-1.176A5.258,5.258,0,0,1,118.036,12.711Zm2.258.168a3.337,3.337,0,0,0,.414,1.823,1.349,1.349,0,0,0,1.2.634,1.511,1.511,0,0,0,1.477-.884V11.111a1.489,1.489,0,0,0-1.461-.884Q120.294,10.227,120.294,12.879ZM132.3,17a2.507,2.507,0,0,1-.227-.758,2.732,2.732,0,0,1-2.133.914,3,3,0,0,1-2.059-.719,2.312,2.312,0,0,1-.816-1.812,2.389,2.389,0,0,1,1-2.062,4.915,4.915,0,0,1,2.879-.727h1.039v-.484a1.393,1.393,0,0,0-.3-.937,1.183,1.183,0,0,0-.949-.352,1.345,1.345,0,0,0-.895.273.929.929,0,0,0-.324.75h-2.258a2.268,2.268,0,0,1,.453-1.359,3,3,0,0,1,1.281-.98,4.669,4.669,0,0,1,1.859-.355,3.689,3.689,0,0,1,2.48.785,2.747,2.747,0,0,1,.918,2.207v3.664a4.041,4.041,0,0,0,.336,1.82V17Zm-1.867-1.57a1.945,1.945,0,0,0,.922-.223,1.462,1.462,0,0,0,.625-.6V13.156h-.844q-1.7,0-1.8,1.172l-.008.133a.9.9,0,0,0,.3.7A1.153,1.153,0,0,0,130.434,15.43Zm5.2-2.719a5.094,5.094,0,0,1,.887-3.148,2.877,2.877,0,0,1,2.426-1.172,2.589,2.589,0,0,1,2.039.922V5h2.266V17h-2.039l-.109-.9a2.657,2.657,0,0,1-2.172,1.055,2.869,2.869,0,0,1-2.395-1.176A5.258,5.258,0,0,1,135.629,12.711Zm2.258.168A3.337,3.337,0,0,0,138.3,14.7a1.349,1.349,0,0,0,1.2.634,1.511,1.511,0,0,0,1.477-.884V11.111a1.489,1.489,0,0,0-1.461-.884Q137.887,10.227,137.887,12.879Z" transform="translate(939.415 3269.794)" fill="#12263f"/>
    <g id="Grupo_150319" data-name="Grupo 150319" transform="translate(758.793 3276.288)">
      <g id="Grupo_145672" data-name="Grupo 145672" transform="translate(0 0)" clip-path="url(#clip-path)">
        <g id="Grupo_145671" data-name="Grupo 145671" transform="translate(0 0)">
          <g id="Grupo_145670" data-name="Grupo 145670" clip-path="url(#clip-path)">
            <g id="Grupo_145666" data-name="Grupo 145666" opacity="0.39">
              <g id="Grupo_145665" data-name="Grupo 145665">
                <g id="Grupo_145664" data-name="Grupo 145664" clip-path="url(#clip-path)">
                  <path id="Trazado_201765" data-name="Trazado 201765" d="M82.97,41.485A41.485,41.485,0,1,1,41.485,0,41.485,41.485,0,0,1,82.97,41.485" transform="translate(0 0)" fill="#79f5ed"/>
                </g>
              </g>
            </g>
            <g id="Grupo_145669" data-name="Grupo 145669" transform="translate(11.524 11.524)" opacity="0.36">
              <g id="Grupo_145668" data-name="Grupo 145668">
                <g id="Grupo_145667" data-name="Grupo 145667" clip-path="url(#clip-path-4)">
                  <path id="Trazado_201766" data-name="Trazado 201766" d="M68.323,38.362A29.962,29.962,0,1,1,38.362,8.4,29.961,29.961,0,0,1,68.323,38.362" transform="translate(-8.4 -8.4)" fill="#79f5ed"/>
                </g>
              </g>
            </g>
            <path id="Trazado_201767" data-name="Trazado 201767" d="M56.605,35.863A20.743,20.743,0,1,1,35.863,15.12,20.742,20.742,0,0,1,56.605,35.863" transform="translate(5.623 5.623)" fill="#79f5ed"/>
          </g>
        </g>
        <text id="_" data-name="+" transform="translate(35.579 48.985)" fill="#500c75" font-size="22" font-family="Roboto-Bold, Roboto" font-weight="700"><tspan x="0" y="0">+</tspan></text>
      </g>
    </g>
    <g id="Grupo_150320" data-name="Grupo 150320" transform="translate(528.705 3014.4)">
      <g id="Grupo_145672-2" data-name="Grupo 145672" transform="translate(0 0.001)" clip-path="url(#clip-path)">
        <g id="Grupo_145671-2" data-name="Grupo 145671" transform="translate(0 0)">
          <g id="Grupo_145670-2" data-name="Grupo 145670" clip-path="url(#clip-path)">
            <g id="Grupo_145666-2" data-name="Grupo 145666" opacity="0.39">
              <g id="Grupo_145665-2" data-name="Grupo 145665">
                <g id="Grupo_145664-2" data-name="Grupo 145664" clip-path="url(#clip-path)">
                  <path id="Trazado_201765-2" data-name="Trazado 201765" d="M82.97,41.485A41.485,41.485,0,1,1,41.485,0,41.485,41.485,0,0,1,82.97,41.485" transform="translate(0 0)" fill="#79f5ed"/>
                </g>
              </g>
            </g>
            <g id="Grupo_145669-2" data-name="Grupo 145669" transform="translate(11.524 11.524)" opacity="0.36">
              <g id="Grupo_145668-2" data-name="Grupo 145668">
                <g id="Grupo_145667-2" data-name="Grupo 145667" clip-path="url(#clip-path-4)">
                  <path id="Trazado_201766-2" data-name="Trazado 201766" d="M68.323,38.362A29.962,29.962,0,1,1,38.362,8.4,29.961,29.961,0,0,1,68.323,38.362" transform="translate(-8.4 -8.4)" fill="#79f5ed"/>
                </g>
              </g>
            </g>
            <path id="Trazado_201767-2" data-name="Trazado 201767" d="M56.605,35.863A20.743,20.743,0,1,1,35.863,15.12,20.742,20.742,0,0,1,56.605,35.863" transform="translate(5.623 5.623)" fill="#79f5ed"/>
          </g>
        </g>
        <text id="_2" data-name="+" transform="translate(35.486 47.104)" fill="#500c75" font-size="22" font-family="Roboto-Bold, Roboto" font-weight="700"><tspan x="0" y="0">+</tspan></text>
      </g>
    </g>
    <g id="Grupo_150321" data-name="Grupo 150321" transform="translate(988.325 3017.147)">
      <g id="Grupo_145672-3" data-name="Grupo 145672" transform="translate(0 0.001)" clip-path="url(#clip-path)">
        <g id="Grupo_145671-3" data-name="Grupo 145671" transform="translate(0 0)">
          <g id="Grupo_145670-3" data-name="Grupo 145670" clip-path="url(#clip-path)">
            <g id="Grupo_145666-3" data-name="Grupo 145666" opacity="0.39">
              <g id="Grupo_145665-3" data-name="Grupo 145665">
                <g id="Grupo_145664-3" data-name="Grupo 145664" clip-path="url(#clip-path)">
                  <path id="Trazado_201765-3" data-name="Trazado 201765" d="M82.97,41.485A41.485,41.485,0,1,1,41.485,0,41.485,41.485,0,0,1,82.97,41.485" transform="translate(0 0)" fill="#79f5ed"/>
                </g>
              </g>
            </g>
            <g id="Grupo_145669-3" data-name="Grupo 145669" transform="translate(11.524 11.524)" opacity="0.36">
              <g id="Grupo_145668-3" data-name="Grupo 145668">
                <g id="Grupo_145667-3" data-name="Grupo 145667" clip-path="url(#clip-path-4)">
                  <path id="Trazado_201766-3" data-name="Trazado 201766" d="M68.323,38.362A29.962,29.962,0,1,1,38.362,8.4,29.961,29.961,0,0,1,68.323,38.362" transform="translate(-8.4 -8.4)" fill="#79f5ed"/>
                </g>
              </g>
            </g>
            <path id="Trazado_201767-3" data-name="Trazado 201767" d="M56.605,35.863A20.743,20.743,0,1,1,35.863,15.12,20.742,20.742,0,0,1,56.605,35.863" transform="translate(5.623 5.623)" fill="#79f5ed"/>
          </g>
        </g>
        <text id="_3" data-name="+" transform="translate(35.485 48.986)" fill="#500c75" font-size="22" font-family="Roboto-Bold, Roboto" font-weight="700"><tspan x="0" y="0">+</tspan></text>
      </g>
    </g>
    <g id="Page-1" transform="translate(981.902 3148.439)">
      <g id="_037---Eye" data-name="037---Eye">
        <path id="Shape" d="M95.817,41.736S82.6,23.564,47.909,23.564,0,41.736,0,41.736a3.269,3.269,0,0,1,.743-2.065C6.294,32.931,25.309,12,47.909,12S89.523,32.931,95.074,39.671A3.269,3.269,0,0,1,95.817,41.736Z" transform="translate(0 7.824)" fill="#fdd7ad"/>
        <path id="Shape-2" data-name="Shape" d="M95.817,37.172a3.269,3.269,0,0,1-.743,2.065c-5.551,6.74-24.566,27.671-47.165,27.671S6.294,45.978.743,39.237A3.269,3.269,0,0,1,0,37.172S13.216,19,47.909,19,95.817,37.172,95.817,37.172Z" transform="translate(0 12.388)" fill="#ecf0f1"/>
        <g id="Grupo_150322" data-name="Grupo 150322" transform="translate(22.295)">
          <path id="Shape-3" data-name="Shape" d="M29.652,13.216A1.652,1.652,0,0,1,28,11.564V1.652a1.652,1.652,0,0,1,3.3,0v9.912A1.652,1.652,0,0,1,29.652,13.216Z" transform="translate(-4.039)" fill="#67b9cc"/>
          <path id="Shape-4" data-name="Shape" d="M20.111,15.78a1.652,1.652,0,0,1-1.432-.826L13.723,6.364a1.652,1.652,0,1,1,2.861-1.652L21.54,13.3a1.652,1.652,0,0,1-1.429,2.478Z" transform="translate(-13.496 2.527)" fill="#67b9cc"/>
          <path id="Shape-5" data-name="Shape" d="M15.151,60.806a1.652,1.652,0,0,1-1.429-2.478l4.956-8.591a1.652,1.652,0,0,1,2.861,1.652L16.584,59.98a1.652,1.652,0,0,1-1.432.826Z" transform="translate(-13.492 31.897)" fill="#67b9cc"/>
          <path id="Shape-6" data-name="Shape" d="M29.652,65.216A1.652,1.652,0,0,1,28,63.564V53.652a1.652,1.652,0,0,1,3.3,0v9.912A1.652,1.652,0,0,1,29.652,65.216Z" transform="translate(-4.039 33.905)" fill="#67b9cc"/>
          <path id="Shape-7" data-name="Shape" d="M46.111,60.813a1.652,1.652,0,0,1-1.432-.826L39.723,51.4a1.652,1.652,0,1,1,2.861-1.652l4.956,8.591a1.652,1.652,0,0,1-1.429,2.478Z" transform="translate(3.457 31.89)" fill="#67b9cc"/>
          <path id="Shape-8" data-name="Shape" d="M41.151,15.773a1.652,1.652,0,0,1-1.429-2.478L44.678,4.7A1.652,1.652,0,0,1,47.54,6.356l-4.956,8.591a1.652,1.652,0,0,1-1.432.826Z" transform="translate(3.46 2.535)" fill="#67b9cc"/>
        </g>
        <path id="Shape-9" data-name="Shape" d="M61.257,37.173a23.128,23.128,0,1,1-39.07-16.752A85.575,85.575,0,0,1,38.129,19a85.575,85.575,0,0,1,15.942,1.421,23.052,23.052,0,0,1,7.186,16.752Z" transform="translate(9.78 12.388)" fill="#3b97d3"/>
        <path id="Shape-10" data-name="Shape" d="M27.626,25.536A9.763,9.763,0,0,1,32.912,24,9.912,9.912,0,1,1,23,33.912a9.219,9.219,0,0,1,.149-1.669Z" transform="translate(14.997 15.649)" fill="#35495e"/>
        <circle id="Oval" cx="5" cy="5" r="5" transform="translate(33.909 38.561)" fill="#ecf0f1"/>
      </g>
    </g>
    <g id="seguridad-informatica_1_" data-name="seguridad-informatica (1)" transform="translate(723.359 3062.631)">
      <path id="Trazado_221021" data-name="Trazado 221021" d="M94.882,72H163.7a6.882,6.882,0,0,1,6.882,6.882v53.336a5.162,5.162,0,0,1-5.162,5.162H93.162A5.162,5.162,0,0,1,88,132.218V78.882A6.882,6.882,0,0,1,94.882,72Z" transform="translate(-50.236 -37.677)" fill="#4db7e5"/>
      <path id="Trazado_221022" data-name="Trazado 221022" d="M433.721,72H432v65.38h3.441V72.217A6.9,6.9,0,0,0,433.721,72Z" transform="translate(-320.254 -37.677)" fill="#48add9"/>
      <path id="Trazado_221023" data-name="Trazado 221023" d="M186.5,24H134.882A6.882,6.882,0,0,0,128,30.882v72.262h65.38V30.882A6.882,6.882,0,0,0,186.5,24Z" transform="translate(-81.633 0)" fill="#348fd9"/>
      <path id="Trazado_221024" data-name="Trazado 221024" d="M202.8,100,140,162.8h62.8Z" transform="translate(-91.053 -59.655)" fill="#3086cd"/>
      <g id="Grupo_150327" data-name="Grupo 150327" transform="translate(53.248 29.162)">
        <path id="Trazado_221025" data-name="Trazado 221025" d="M160,48h3.441v3.441H160Z" transform="translate(-159.996 -48)" fill="#2a71ad"/>
        <path id="Trazado_221026" data-name="Trazado 221026" d="M192,48h3.441v3.441H192Z" transform="translate(-185.114 -48)" fill="#2a71ad"/>
        <path id="Trazado_221027" data-name="Trazado 221027" d="M224,48h3.441v3.441H224Z" transform="translate(-210.232 -48)" fill="#2a71ad"/>
        <path id="Trazado_221028" data-name="Trazado 221028" d="M160,80h51.616v3.441H160Z" transform="translate(-159.999 -73.118)" fill="#2a71ad"/>
      </g>
      <path id="Trazado_221029" data-name="Trazado 221029" d="M220.733,142.367q0,.868-.065,1.721a22.338,22.338,0,0,1-19.188,20.429c-.46.067-.925.116-1.394.153q-.852.065-1.721.065t-1.721-.065c-.469-.037-.933-.086-1.394-.153a22.083,22.083,0,0,1-5.209-1.383,22.365,22.365,0,0,1-13.979-19.046q-.065-.852-.065-1.721t.065-1.721a22.34,22.34,0,0,1,18.945-20.395q.81-.123,1.637-.187.852-.065,1.721-.065t1.721.065c.469.037.933.086,1.394.153a22.072,22.072,0,0,1,5.2,1.381,22.442,22.442,0,0,1,11.527,10.446,22.188,22.188,0,0,1,2.456,8.6Q220.733,141.5,220.733,142.367Z" transform="translate(-119.31 -75.354)" fill="#4db7e5"/>
      <path id="Trazado_221030" data-name="Trazado 221030" d="M220.669,144.087q.065-.852.065-1.721t-.065-1.721H212.1a43.76,43.76,0,0,0-1.179-8.6h7.293A22.234,22.234,0,0,0,216,128.6h-6.073a35.383,35.383,0,0,0-3.239-7,22.071,22.071,0,0,0-5.2-1.381l1.2,1.548a30.139,30.139,0,0,1,3.589,6.837h-6.183v-8.538q-.852-.065-1.721-.065t-1.721.065V128.6h-6.183a30.028,30.028,0,0,1,3.609-6.863c.022-.028.039-.058.058-.086l.88-1.4a22.15,22.15,0,0,0-4.962,1.346,35.27,35.27,0,0,0-3.239,7h-6.073a22.237,22.237,0,0,0-2.215,3.441h7.293a43.715,43.715,0,0,0-1.179,8.6h-8.57q-.065.852-.065,1.721t.065,1.721h8.572a43.116,43.116,0,0,0,1.643,10.323h-6.766a22.455,22.455,0,0,0,2.714,3.441h5.217a33.473,33.473,0,0,0,2.6,5.282,22.083,22.083,0,0,0,5.209,1.383l-1.2-1.551a28.49,28.49,0,0,1-2.884-5.114h5.478v6.818q.852.065,1.721.065t1.721-.065v-6.818h5.478a28.379,28.379,0,0,1-2.884,5.114l-1.2,1.551a22.083,22.083,0,0,0,5.209-1.383,33.286,33.286,0,0,0,2.6-5.282h5.217a22.455,22.455,0,0,0,2.714-3.441h-6.766a43.183,43.183,0,0,0,1.643-10.323ZM196.646,154.41h-6.768a39.336,39.336,0,0,1-1.8-10.323h8.566Zm0-13.764h-8.568a39.981,39.981,0,0,1,1.284-8.6h7.284Zm10.209,13.764h-6.768V144.087h8.566A39.413,39.413,0,0,1,206.855,154.41Zm-6.768-13.764v-8.6h7.284a40.041,40.041,0,0,1,1.284,8.6Z" transform="translate(-119.31 -75.354)" fill="#60d1e0"/>
      <path id="Trazado_221031" data-name="Trazado 221031" d="M128.064,361.721a5.874,5.874,0,0,1-4.154,1.721H109.851a5.875,5.875,0,0,1-4.154-1.72A5.874,5.874,0,0,0,101.544,360H72v5.162a5.162,5.162,0,0,0,5.162,5.162h79.144a5.162,5.162,0,0,0,5.162-5.162V360H132.218a5.875,5.875,0,0,0-4.154,1.72Z" transform="translate(-37.677 -263.738)" fill="#e0e0de"/>
      <path id="Trazado_221032" data-name="Trazado 221032" d="M437.162,360v5.162A5.162,5.162,0,0,1,432,370.323h6.882a5.162,5.162,0,0,0,5.162-5.162V360Z" transform="translate(-320.254 -263.738)" fill="#d6d6d4"/>
      <path id="Trazado_221033" data-name="Trazado 221033" d="M72.174,355.871v21.506a3.823,3.823,0,0,1-.529,1.951,3.864,3.864,0,0,1-3.342,1.921H27.871a3.864,3.864,0,0,1-3.342-1.921A3.823,3.823,0,0,1,24,377.378V355.871a3.824,3.824,0,0,1,.529-1.951A3.864,3.864,0,0,1,27.871,352H68.3a3.864,3.864,0,0,1,3.342,1.921,3.823,3.823,0,0,1,.529,1.951Z" transform="translate(0 -257.459)" fill="#ffb531"/>
      <path id="Trazado_221034" data-name="Trazado 221034" d="M73.576,353.921c-5.327,2.966-13.9,4.891-23.558,4.891s-18.231-1.925-23.558-4.891A3.864,3.864,0,0,1,29.8,352H70.234a3.864,3.864,0,0,1,3.342,1.921Z" transform="translate(-1.931 -257.459)" fill="#ffcb73"/>
      <path id="Trazado_221035" data-name="Trazado 221035" d="M73.576,461.221a3.864,3.864,0,0,1-3.342,1.921H29.8a3.864,3.864,0,0,1-3.342-1.921c5.327-2.966,13.9-4.891,23.558-4.891S68.249,458.255,73.576,461.221Z" transform="translate(-1.931 -339.351)" fill="#ffa912"/>
      <path id="Trazado_221036" data-name="Trazado 221036" d="M66.926,216A18.926,18.926,0,0,0,48,234.926v10.323h6.882V234.926a12.044,12.044,0,0,1,24.087,0v10.323h6.882V234.926A18.926,18.926,0,0,0,66.926,216Z" transform="translate(-18.838 -150.708)" fill="#e0e0de"/>
      <path id="Trazado_221037" data-name="Trazado 221037" d="M122.32,397.08a5.162,5.162,0,1,0-6.882,4.844v3.758h3.441v-3.758A5.153,5.153,0,0,0,122.32,397.08Z" transform="translate(-69.072 -288.775)" fill="#95573a"/>
    </g>
    <g id="_x31_75" transform="translate(510.082 3159.347)">
      <g id="Grupo_150330" data-name="Grupo 150330" transform="translate(2.502 4.537)">
        <g id="Grupo_150328" data-name="Grupo 150328" transform="translate(28.059 6.094)">
          <path id="Trazado_221038" data-name="Trazado 221038" d="M14.926,7.235V35.26H95.263V11.435a4.2,4.2,0,0,0-4.2-4.2Z" transform="translate(-14.926 -7.235)" fill="#f2c341"/>
        </g>
        <g id="Grupo_150329" data-name="Grupo 150329">
          <path id="Trazado_221039" data-name="Trazado 221039" d="M110.9,25.245V87.127a4.194,4.194,0,0,1-4.194,4.194H6.7A4.194,4.194,0,0,1,2.5,87.127V8.731A4.194,4.194,0,0,1,6.7,4.537H36.164a4.194,4.194,0,0,1,3.565,1.985L47.5,19.06a4.194,4.194,0,0,0,3.565,1.985H106.7a4.2,4.2,0,0,1,4.2,4.2Z" transform="translate(-2.502 -4.537)" fill="#ffd54f"/>
        </g>
      </g>
      <g id="Grupo_150335" data-name="Grupo 150335" transform="translate(58.68 41.292)">
        <g id="Grupo_150331" data-name="Grupo 150331" transform="translate(0 25.824)">
          <path id="Trazado_221040" data-name="Trazado 221040" d="M72.288,37.042V64.076a4.8,4.8,0,0,1-4.8,4.8H32.173a4.8,4.8,0,0,1-4.8-4.8V37.042a4.8,4.8,0,0,1,4.8-4.8H67.491A4.8,4.8,0,0,1,72.288,37.042Z" transform="translate(-27.377 -32.245)" fill="#2196f3"/>
        </g>
        <g id="Grupo_150333" data-name="Grupo 150333" transform="translate(5.959)">
          <g id="Grupo_150332" data-name="Grupo 150332">
            <path id="Trazado_221041" data-name="Trazado 221041" d="M63.009,46.635h-6.63V37.308a9.867,9.867,0,1,0-19.734,0v9.327h-6.63V37.308a16.5,16.5,0,1,1,32.994,0Z" transform="translate(-30.015 -20.811)" fill="#455a64"/>
          </g>
        </g>
        <g id="Grupo_150334" data-name="Grupo 150334" transform="translate(17.027 35.334)">
          <path id="Trazado_221042" data-name="Trazado 221042" d="M43.048,46.592,44.5,54.063H36.172l1.468-7.471a5.428,5.428,0,1,1,5.408,0Z" transform="translate(-34.916 -36.456)" fill="#455a64"/>
        </g>
      </g>
    </g>
  </g>
</svg>
