<svg xmlns="http://www.w3.org/2000/svg" xmlns:xlink="http://www.w3.org/1999/xlink" width="1326" height="603" viewBox="0 0 1326 603">
  <defs>
    <linearGradient id="linear-gradient" x1="0.5" x2="0.5" y2="1" gradientUnits="objectBoundingBox">
      <stop offset="0" stop-color="#fff"/>
      <stop offset="1" stop-color="#e4fdfc"/>
    </linearGradient>
    <clipPath id="clip-path">
      <rect id="Rectángulo_40304" data-name="Rectángulo 40304" width="954.134" height="526.926" fill="none"/>
    </clipPath>
    <clipPath id="clip-path-2">
      <rect id="Rectángulo_40285" data-name="Rectángulo 40285" width="954.136" height="526.927" fill="none"/>
    </clipPath>
    <clipPath id="clip-path-3">
      <path id="Trazado_195429" data-name="Trazado 195429" d="M388.219,554.17l330.112-.76c-2.684-91.877-75.446-164.95-164.974-164.95S390.9,462.292,388.219,554.17" transform="translate(-388.219 -388.46)" fill="none"/>
    </clipPath>
    <linearGradient id="linear-gradient-2" x1="-0.861" y1="0.865" x2="-0.859" y2="0.865" gradientUnits="objectBoundingBox">
      <stop offset="0" stop-color="#fff"/>
      <stop offset="1" stop-color="#f3f4f5"/>
    </linearGradient>
    <clipPath id="clip-path-5">
      <rect id="Rectángulo_40294" data-name="Rectángulo 40294" width="15.964" height="23.1" fill="none"/>
    </clipPath>
    <clipPath id="clip-path-7">
      <rect id="Rectángulo_40300" data-name="Rectángulo 40300" width="20.635" height="13.645" fill="none"/>
    </clipPath>
    <clipPath id="clip-path-8">
      <rect id="Rectángulo_40302" data-name="Rectángulo 40302" width="46.353" height="85.137" fill="none"/>
    </clipPath>
    <clipPath id="clip-path-9">
      <rect id="Rectángulo_37427" data-name="Rectángulo 37427" width="54.274" height="54.274" fill="#79f5ed"/>
    </clipPath>
    <clipPath id="clip-path-12">
      <rect id="Rectángulo_37425" data-name="Rectángulo 37425" width="39.198" height="39.198" fill="#79f5ed"/>
    </clipPath>
    <clipPath id="clip-path-33">
      <rect id="Rectángulo_40307" data-name="Rectángulo 40307" width="45.551" height="33.367" fill="none"/>
    </clipPath>
  </defs>
  <g id="Grupo_150878" data-name="Grupo 150878" transform="translate(-137 -1109)">
    <g id="Grupo_150877" data-name="Grupo 150877">
      <rect id="Rectángulo_39210" data-name="Rectángulo 39210" width="1326" height="603" transform="translate(137 1109)" fill="url(#linear-gradient)"/>
    </g>
    <g id="Grupo_147230" data-name="Grupo 147230" transform="translate(143 -24.378)">
      <g id="Grupo_146854" data-name="Grupo 146854" transform="translate(180 1172.895)">
        <g id="Grupo_146807" data-name="Grupo 146807" clip-path="url(#clip-path)">
          <g id="Grupo_146792" data-name="Grupo 146792" transform="translate(0 -0.001)">
            <g id="Grupo_146791" data-name="Grupo 146791" clip-path="url(#clip-path-2)">
              <path id="Trazado_195410" data-name="Trazado 195410" d="M266.959,109.675A459.674,459.674,0,0,0,106.878,274.134L487.14,495.527Z" transform="translate(-21.669 -20.793)" fill="#f2f2f2"/>
              <path id="Trazado_195411" data-name="Trazado 195411" d="M537.576,29.717c-.66.006-1.319,0-1.98.012a445.792,445.792,0,0,0-220.163,61.1L535.406,476.316Z" transform="translate(-63.952 -5.633)" fill="#f2f2f2"/>
              <path id="Trazado_195412" data-name="Trazado 195412" d="M822.763,89.648A445.52,445.52,0,0,0,602.511,29.714l-2.185,449.74Z" transform="translate(-121.711 -5.633)" fill="#f2f2f2"/>
              <path id="Trazado_195413" data-name="Trazado 195413" d="M616.717,540.524l439.028-1.1a464.645,464.645,0,0,0-58.42-220.5Z" transform="translate(-125.035 -60.466)" fill="#f2f2f2"/>
              <path id="Trazado_195414" data-name="Trazado 195414" d="M992.4,272.651A459.548,459.548,0,0,0,830.951,108.173L610.076,495.243Z" transform="translate(-123.688 -20.508)" fill="#f2f2f2"/>
              <path id="Trazado_195415" data-name="Trazado 195415" d="M87.712,320.419A464.45,464.45,0,0,0,29.938,541.976l436.443-1.092Z" transform="translate(-6.07 -60.749)" fill="#f2f2f2"/>
              <path id="Trazado_195416" data-name="Trazado 195416" d="M537.464,564.146l-208-119.7a238.213,238.213,0,0,0-24.009,57.634,244.881,244.881,0,0,0-8.02,62.823Z" transform="translate(-60.303 -84.263)" fill="#88dff7"/>
              <path id="Trazado_195417" data-name="Trazado 195417" d="M545.747,543.463,425.581,336.509a239.658,239.658,0,0,0-87.969,87.47Z" transform="translate(-68.448 -63.799)" fill="#4cc5f5"/>
              <path id="Trazado_195418" data-name="Trazado 195418" d="M568.118,535.973V297a241.4,241.4,0,0,0-120.167,32.016Z" transform="translate(-90.819 -56.309)" fill="#afafaf"/>
              <path id="Trazado_195419" data-name="Trazado 195419" d="M598.676,535.973,718.843,329.019A241.4,241.4,0,0,0,598.676,297Z" transform="translate(-121.377 -56.309)" fill="#8f52f5"/>
              <path id="Trazado_195420" data-name="Trazado 195420" d="M598.676,543.463,806.811,423.979a239.657,239.657,0,0,0-87.969-87.47Z" transform="translate(-121.377 -63.799)" fill="#500c75"/>
              <path id="Trazado_195421" data-name="Trazado 195421" d="M598.676,563.927H839.01a237.926,237.926,0,0,0-32.2-119.485Z" transform="translate(-121.377 -84.263)" fill="#e01650"/>
              <path id="Trazado_195422" data-name="Trazado 195422" d="M3.052,427.773c-4.947,21.3,8.03,42.643,28.984,47.671s41.951-8.162,46.9-29.461S70.9,403.34,49.949,398.311,8,406.473,3.052,427.773" transform="translate(-0.405 -75.314)" fill="#fff"/>
              <path id="Trazado_195423" data-name="Trazado 195423" d="M3.052,427.773c-4.947,21.3,8.03,42.643,28.984,47.671s41.951-8.162,46.9-29.461S70.9,403.34,49.949,398.311,8,406.473,3.052,427.773Z" transform="translate(-0.405 -75.314)" fill="none" stroke="#88dff7" stroke-miterlimit="10" stroke-width="4"/>
              <path id="Trazado_195424" data-name="Trazado 195424" d="M1096.978,436.88c0,21.885,17.453,39.626,38.984,39.626s38.983-17.741,38.983-39.626-17.453-39.626-38.983-39.626S1096.978,415,1096.978,436.88" transform="translate(-222.404 -75.316)" fill="#fff"/>
              <path id="Trazado_214359" data-name="Trazado 214359" d="M38.987-.045C60.518-.071,77.953,17.649,77.928,39.532S60.428,79.176,38.9,79.2-.071,61.506-.045,39.623,17.455-.02,38.987-.045Z" transform="translate(871.909 324.846) rotate(-4.065)" fill="none" stroke="#e01650" stroke-width="4"/>
              <path id="Trazado_195425" data-name="Trazado 195425" d="M147.664,189.935c0,21.885,17.454,39.626,38.984,39.626s38.984-17.741,38.984-39.626-17.454-39.626-38.984-39.626-38.984,17.741-38.984,39.626" transform="translate(-29.938 -28.497)" fill="#fff"/>
              <path id="Trazado_214360" data-name="Trazado 214360" d="M39.3-.321A38.538,38.538,0,0,1,78.288,38.662,40.09,40.09,0,0,1,38.662,78.288,38.538,38.538,0,0,1-.321,39.3,40.09,40.09,0,0,1,39.3-.321Z" transform="translate(101.579 161.439) rotate(-45)" fill="none" stroke="#4cc5f5" stroke-width="4"/>
              <path id="Trazado_195426" data-name="Trazado 195426" d="M394.343,44.548c0,21.885,17.454,39.626,38.983,39.626S472.31,66.433,472.31,44.548,454.856,4.922,433.326,4.922s-38.983,17.741-38.983,39.626" transform="translate(-79.95 -0.932)" fill="#fff"/>
              <path id="Trazado_214361" data-name="Trazado 214361" d="M39.038-.178A38.88,38.88,0,0,1,77.9,39.216c-.1,21.855-17.656,39.652-39.216,39.751A38.88,38.88,0,0,1-.178,39.572C-.08,17.717,17.478-.08,39.038-.178Z" transform="translate(304.769 17.173) rotate(-16.845)" fill="none" stroke="#afafaf" stroke-width="4"/>
              <path id="Trazado_195427" data-name="Trazado 195427" d="M694.45,41.626c0,21.885,17.453,39.626,38.984,39.626s38.983-17.741,38.983-39.626S754.963,2,733.434,2,694.45,19.741,694.45,41.626" transform="translate(-140.794 -0.378)" fill="#fff"/>
              <path id="Trazado_214362" data-name="Trazado 214362" d="M39-.1C60.539-.158,77.954,17.531,77.9,39.407S60.336,79.062,38.8,79.118-.158,61.486-.1,39.61,17.461-.046,39-.1Z" transform="translate(547.915 8.48) rotate(-9.217)" fill="none" stroke="#8f52f5" stroke-width="4"/>
              <path id="Trazado_195428" data-name="Trazado 195428" d="M938.939,180.959c0,21.885,17.454,39.626,38.984,39.626s38.984-17.741,38.984-39.626-17.454-39.626-38.984-39.626-38.984,17.741-38.984,39.626" transform="translate(-190.363 -26.795)" fill="#fff"/>
              <path id="Trazado_214363" data-name="Trazado 214363" d="M39-.1C60.539-.158,77.954,17.531,77.9,39.407S60.336,79.062,38.8,79.118-.158,61.486-.1,39.61,17.461-.046,39-.1Z" transform="translate(742.835 121.397) rotate(-9.217)" fill="none" stroke="#500c75" stroke-width="4"/>
            </g>
          </g>
          <g id="Grupo_146794" data-name="Grupo 146794" transform="translate(309.511 314.81)">
            <g id="Grupo_146793" data-name="Grupo 146793" clip-path="url(#clip-path-3)">
              <path id="Trazado_214364" data-name="Trazado 214364" d="M0,0,351.573-2.875,348.7,348.7-2.875,351.573Z" transform="translate(-81.511 82.855) rotate(-45)" fill="url(#linear-gradient-2)"/>
            </g>
          </g>
          <g id="Grupo_146796" data-name="Grupo 146796" transform="translate(0 -0.001)">
            <g id="Grupo_146795" data-name="Grupo 146795" clip-path="url(#clip-path-2)">
              <path id="Trazado_195430" data-name="Trazado 195430" d="M661.722,351.784l3.524,8.928-10.679-2.724Z" transform="translate(-132.708 -66.695)" fill="#fff"/>
              <path id="Trazado_195431" data-name="Trazado 195431" d="M534.017,355.481l7.825,5.406-10.353,3.8Z" transform="translate(-107.755 -67.396)" fill="#fff"/>
              <path id="Trazado_195432" data-name="Trazado 195432" d="M419.895,412.321l9.3,1.747-7.973,7.714Z" transform="translate(-85.13 -78.173)" fill="#500c75"/>
              <path id="Trazado_195433" data-name="Trazado 195433" d="M347.42,531.968l8.944-3.137-3.2,10.706Z" transform="translate(-70.437 -100.262)" fill="#500c75"/>
              <path id="Trazado_195434" data-name="Trazado 195434" d="M776.134,418.993l-9.31,1.719,7.95,7.739Z" transform="translate(-155.468 -79.438)" fill="#fff"/>
              <path id="Trazado_195435" data-name="Trazado 195435" d="M841.675,531.458l-8.73-3.709,2.526,10.891Z" transform="translate(-168.873 -100.057)" fill="#fff"/>
              <path id="Trazado_195436" data-name="Trazado 195436" d="M63.7,432.4H27.987a2.041,2.041,0,0,0-1.457.614,2.11,2.11,0,0,0-.6,1.481v21.63a2.112,2.112,0,0,0,.6,1.481,2.045,2.045,0,0,0,1.457.613H63.7a2.078,2.078,0,0,0,2.06-2.094V434.49A2.077,2.077,0,0,0,63.7,432.4" transform="translate(-5.256 -81.979)" fill="#79f5ed" fill-rule="evenodd"/>
              <path id="Trazado_195437" data-name="Trazado 195437" d="M30.763,432.4H27.987a2.04,2.04,0,0,0-1.457.614,2.11,2.11,0,0,0-.6,1.481v21.63a2.112,2.112,0,0,0,.6,1.481,2.043,2.043,0,0,0,1.457.613h2.776a2.043,2.043,0,0,1-1.457-.613,2.112,2.112,0,0,1-.6-1.481V434.49a2.11,2.11,0,0,1,.6-1.481,2.04,2.04,0,0,1,1.457-.614" transform="translate(-5.256 -81.979)" fill="#7cc6c1" fill-rule="evenodd"/>
              <path id="Rectángulo_40287" data-name="Rectángulo 40287" d="M.861,0H7.38a.861.861,0,0,1,.861.861V6.119a.862.862,0,0,1-.862.862H.861A.861.861,0,0,1,0,6.12V.861A.861.861,0,0,1,.861,0Z" transform="translate(36.466 374.851)" fill="#5b5c6c"/>
              <path id="Trazado_195438" data-name="Trazado 195438" d="M43.842,470.833H54.831a.7.7,0,0,0,0-1.4H43.842a.7.7,0,0,0,0,1.4" transform="translate(-8.75 -89.001)" fill="#4f505e" fill-rule="evenodd"/>
              <path id="Trazado_195439" data-name="Trazado 195439" d="M65.76,456.516H25.927v3.045a2.43,2.43,0,0,0,.6,1.622,1.961,1.961,0,0,0,1.457.671H63.7a2.185,2.185,0,0,0,2.06-2.293Z" transform="translate(-5.256 -86.552)" fill="#aaa" fill-rule="evenodd"/>
              <path id="Trazado_195440" data-name="Trazado 195440" d="M65.76,458.239H25.927v2.782a2.113,2.113,0,0,0,.6,1.481,2.045,2.045,0,0,0,1.457.613H63.7a2.078,2.078,0,0,0,2.06-2.094Z" transform="translate(-5.256 -86.878)" fill="#d7d7d7" fill-rule="evenodd"/>
              <path id="Trazado_195441" data-name="Trazado 195441" d="M30.059,461.357h.686a.7.7,0,0,0,0-1.4h-.686a.7.7,0,0,0,0,1.4" transform="translate(-5.955 -87.205)" fill="#4f505e" fill-rule="evenodd"/>
              <path id="Trazado_195442" data-name="Trazado 195442" d="M57.664,424.231a2.111,2.111,0,0,1-.247-1,2.06,2.06,0,1,1,2.06,2.094,2.028,2.028,0,0,1-.793-.161l-.948.964A14.126,14.126,0,0,1,57.5,444.44l1.182,1.2a2.027,2.027,0,0,1,.793-.161,2.095,2.095,0,1,1-2.06,2.095,2.112,2.112,0,0,1,.247-1l-1.127-1.145a13.56,13.56,0,0,1-18.616-.045l-1.17,1.19a2.112,2.112,0,0,1,.247,1,2.06,2.06,0,1,1-2.06-2.095,2.027,2.027,0,0,1,.793.161l1.23-1.25a14.126,14.126,0,0,1-.233-18.209l-1-1.014a2.028,2.028,0,0,1-.793.161A2.095,2.095,0,1,1,37,423.236a2.112,2.112,0,0,1-.247,1l.912.927a13.565,13.565,0,0,1,19.134-.045Z" transform="translate(-6.666 -79.845)" fill="#5b5c6c" fill-rule="evenodd"/>
              <path id="Trazado_195443" data-name="Trazado 195443" d="M66.066,452.9a.7.7,0,1,1-.686.7.692.692,0,0,1,.686-.7" transform="translate(-13.255 -85.866)" fill="#2e2e36" fill-rule="evenodd"/>
              <path id="Trazado_195444" data-name="Trazado 195444" d="M35.286,452.9a.7.7,0,1,1-.686.7.692.692,0,0,1,.686-.7" transform="translate(-7.015 -85.866)" fill="#2e2e36" fill-rule="evenodd"/>
              <path id="Trazado_195445" data-name="Trazado 195445" d="M66.066,424.26a.7.7,0,1,1,.686-.7.693.693,0,0,1-.686.7" transform="translate(-13.255 -80.172)" fill="#2e2e36" fill-rule="evenodd"/>
              <path id="Trazado_195446" data-name="Trazado 195446" d="M35.286,424.26a.7.7,0,1,1,.686-.7.692.692,0,0,1-.686.7" transform="translate(-7.015 -80.172)" fill="#2e2e36" fill-rule="evenodd"/>
              <path id="Trazado_195447" data-name="Trazado 195447" d="M47.123,426.579a8.84,8.84,0,0,0-4.914,2.072l-1.37-1.393a.807.807,0,0,0-1.154,0,.839.839,0,0,0,0,1.173l1.37,1.393a9.137,9.137,0,0,0-2.039,5H37.08a.83.83,0,0,0,0,1.66h1.935a9.144,9.144,0,0,0,2.039,5l-1.37,1.392a.839.839,0,0,0,0,1.173.807.807,0,0,0,1.154,0l1.37-1.392a8.841,8.841,0,0,0,4.914,2.071v1.967a.817.817,0,1,0,1.633,0V444.72a8.848,8.848,0,0,0,4.915-2.071l1.37,1.392a.807.807,0,0,0,1.154,0,.839.839,0,0,0,0-1.173l-1.37-1.392a9.144,9.144,0,0,0,2.038-5H58.8a.83.83,0,0,0,0-1.66H56.863a9.147,9.147,0,0,0-2.038-5l1.37-1.393a.839.839,0,0,0,0-1.173.807.807,0,0,0-1.154,0l-1.37,1.393a8.838,8.838,0,0,0-4.915-2.072v-1.967a.817.817,0,1,0-1.633,0Z" transform="translate(-7.352 -80.346)" fill="#2e2e36" fill-rule="evenodd"/>
              <path id="Trazado_195448" data-name="Trazado 195448" d="M49.045,429.235a7.45,7.45,0,1,1-7.328,7.448,7.389,7.389,0,0,1,7.328-7.448" transform="translate(-8.458 -81.379)" fill="#a7f" fill-rule="evenodd"/>
              <path id="Trazado_195449" data-name="Trazado 195449" d="M52.987,436.436a1.539,1.539,0,0,0,2.119.577,1.592,1.592,0,0,0,.568-2.154Z" transform="translate(-10.743 -82.446)" fill="#2e2e36" fill-rule="evenodd"/>
              <path id="Trazado_195450" data-name="Trazado 195450" d="M47.017,441.67c0,1.161,1.389,2.1,3.1,2.1s3.1-.941,3.1-2.1Z" transform="translate(-9.532 -83.737)" fill="#2e2e36" fill-rule="evenodd"/>
              <path id="Trazado_195451" data-name="Trazado 195451" d="M48.035,436.436a1.539,1.539,0,0,1-2.119.577,1.592,1.592,0,0,1-.568-2.154Z" transform="translate(-9.152 -82.446)" fill="#2e2e36" fill-rule="evenodd"/>
              <path id="Trazado_195452" data-name="Trazado 195452" d="M1145.424,417.591l-1.78,2.923,1.78,2.839a7.044,7.044,0,0,1,6.978,7.093v8.813l2.718,2.894,2.951-2.894v-8.813a12.767,12.767,0,0,0-12.646-12.855" transform="translate(-231.865 -79.172)" fill="#b4d2d7"/>
              <path id="Trazado_195453" data-name="Trazado 195453" d="M1130.016,430.445v8.814l2.714,2.893,2.955-2.893v-8.814a7.044,7.044,0,0,1,6.978-7.093V417.59a12.766,12.766,0,0,0-12.646,12.855" transform="translate(-229.102 -79.172)" fill="#e1ebf0"/>
              <rect id="Rectángulo_40288" data-name="Rectángulo 40288" width="16.427" height="24.623" transform="translate(897.132 360.087)" fill="#ffd422"/>
              <rect id="Rectángulo_40289" data-name="Rectángulo 40289" width="16.427" height="24.623" transform="translate(913.556 360.087)" fill="#ff9100"/>
              <rect id="Rectángulo_40290" data-name="Rectángulo 40290" width="2.668" height="5.286" transform="translate(912.222 373.006)" fill="#04303e"/>
              <path id="Trazado_195454" data-name="Trazado 195454" d="M1149.4,456.289a4.013,4.013,0,0,0-3.976-4.041l-1.78,3.994,1.78,4.09a4.014,4.014,0,0,0,3.976-4.042Z" transform="translate(-231.865 -85.742)" fill="#04303e"/>
              <path id="Trazado_195455" data-name="Trazado 195455" d="M1140.89,456.288a4.015,4.015,0,0,0,3.978,4.042v-8.085a4.015,4.015,0,0,0-3.978,4.042Z" transform="translate(-231.307 -85.742)" fill="#09607d"/>
              <rect id="Rectángulo_40291" data-name="Rectángulo 40291" width="46.003" height="32.942" transform="translate(133.708 144.968)" fill="#3f327a"/>
              <rect id="Rectángulo_40292" data-name="Rectángulo 40292" width="15.964" height="23.1" transform="translate(137.512 149.847)" fill="#8b77e8"/>
            </g>
          </g>
          <g id="Grupo_146798" data-name="Grupo 146798" transform="translate(137.511 149.847)">
            <g id="Grupo_146797" data-name="Grupo 146797" clip-path="url(#clip-path-5)">
              <path id="Trazado_195456" data-name="Trazado 195456" d="M185.639,195.816a4.221,4.221,0,1,1-4.221-4.291,4.256,4.256,0,0,1,4.221,4.291" transform="translate(-173.437 -186.159)" fill="#fff"/>
              <path id="Trazado_195457" data-name="Trazado 195457" d="M172.645,211.541a7.852,7.852,0,1,1,15.7,0Z" transform="translate(-172.513 -188.442)" fill="#fff"/>
            </g>
          </g>
          <g id="Grupo_146806" data-name="Grupo 146806" transform="translate(0 -0.001)">
            <g id="Grupo_146805" data-name="Grupo 146805" clip-path="url(#clip-path-2)">
              <rect id="Rectángulo_40295" data-name="Rectángulo 40295" width="12.098" height="3.738" transform="translate(156.193 149.847)" fill="#8b77e8"/>
              <g id="Grupo_146801" data-name="Grupo 146801" transform="translate(156.193 158.697)" opacity="0.6">
                <g id="Grupo_146800" data-name="Grupo 146800">
                  <g id="Grupo_146799" data-name="Grupo 146799" clip-path="url(#clip-path-7)">
                    <rect id="Rectángulo_40296" data-name="Rectángulo 40296" width="20.635" height="1.87" transform="translate(0.001)" fill="#8b77e8"/>
                    <rect id="Rectángulo_40297" data-name="Rectángulo 40297" width="20.635" height="1.87" transform="translate(0.001 3.614)" fill="#8b77e8"/>
                    <rect id="Rectángulo_40298" data-name="Rectángulo 40298" width="14.587" height="1.87" transform="translate(6.049 11.775)" fill="#8b77e8"/>
                    <rect id="Rectángulo_40299" data-name="Rectángulo 40299" width="12.951" height="1.87" transform="translate(0 7.469)" fill="#8b77e8"/>
                  </g>
                </g>
              </g>
              <path id="Trazado_195458" data-name="Trazado 195458" d="M214.768,208.046H213.5a3.756,3.756,0,0,1-3.72-3.78V199.6a3.756,3.756,0,0,1,3.72-3.781h1.268a3.756,3.756,0,0,1,3.719,3.781v4.661a3.756,3.756,0,0,1-3.719,3.78M213.5,197.769a1.823,1.823,0,0,0-1.806,1.836v4.661A1.822,1.822,0,0,0,213.5,206.1h1.268a1.822,1.822,0,0,0,1.8-1.834V199.6a1.822,1.822,0,0,0-1.8-1.836Z" transform="translate(-42.531 -37.126)" fill="#ffe25a"/>
              <rect id="Rectángulo_40301" data-name="Rectángulo 40301" width="11.034" height="9.784" transform="translate(166.086 165.272)" fill="#ffc15a"/>
              <path id="Trazado_195459" data-name="Trazado 195459" d="M460.859,43.418h-5.173a1.294,1.294,0,0,1,0-2.587h5.173a1.284,1.284,0,0,0,1.272-1.293V34.364a1.273,1.273,0,1,1,2.545,0v5.174a3.854,3.854,0,0,1-3.817,3.88" transform="translate(-92.129 -6.269)" fill="#a7f"/>
              <path id="Trazado_195460" data-name="Trazado 195460" d="M462.756,72.146a1.282,1.282,0,0,1-1.272-1.293V65.679a1.284,1.284,0,0,0-1.272-1.293h-7.719a1.294,1.294,0,0,1,0-2.587h7.719a3.854,3.854,0,0,1,3.817,3.88v5.174a1.282,1.282,0,0,1-1.272,1.293" transform="translate(-91.481 -11.716)" fill="#a7f"/>
              <path id="Trazado_195461" data-name="Trazado 195461" d="M466.617,54.81h-7.634a1.294,1.294,0,0,1,0-2.587h7.634a1.294,1.294,0,0,1,0,2.587" transform="translate(-92.797 -9.9)" fill="#a7f"/>
              <path id="Trazado_195462" data-name="Trazado 195462" d="M428.161,43.418H423.01a3.854,3.854,0,0,1-3.817-3.88V34.364a1.273,1.273,0,1,1,2.545,0v5.174a1.284,1.284,0,0,0,1.272,1.293h5.151a1.294,1.294,0,0,1,0,2.587" transform="translate(-84.988 -6.269)" fill="#a7f"/>
              <path id="Trazado_195463" data-name="Trazado 195463" d="M420.465,72.146a1.282,1.282,0,0,1-1.272-1.293V65.679a3.854,3.854,0,0,1,3.817-3.88h7.719a1.294,1.294,0,0,1,0,2.587H423.01a1.284,1.284,0,0,0-1.272,1.293v5.174a1.282,1.282,0,0,1-1.272,1.293" transform="translate(-84.988 -11.716)" fill="#a7f"/>
              <path id="Trazado_195464" data-name="Trazado 195464" d="M424.916,54.81h-7.642a1.294,1.294,0,0,1,0-2.587h7.642a1.294,1.294,0,0,1,0,2.587" transform="translate(-84.341 -9.9)" fill="#a7f"/>
              <path id="Trazado_195465" data-name="Trazado 195465" d="M464.719,79.222a3.928,3.928,0,0,1-3.817-3.965,3.818,3.818,0,1,1,7.635,0,3.928,3.928,0,0,1-3.817,3.965" transform="translate(-93.444 -13.532)" fill="#8f52f5"/>
              <path id="Trazado_195466" data-name="Trazado 195466" d="M419.818,79.222A3.928,3.928,0,0,1,416,75.256a3.818,3.818,0,1,1,7.635,0,3.928,3.928,0,0,1-3.817,3.965" transform="translate(-84.341 -13.532)" fill="#8f52f5"/>
              <path id="Trazado_195467" data-name="Trazado 195467" d="M464.719,34.427a3.854,3.854,0,0,1-3.817-3.88,3.82,3.82,0,1,1,7.635,0,3.854,3.854,0,0,1-3.817,3.88" transform="translate(-93.444 -5.039)" fill="#8f52f5"/>
              <path id="Trazado_195468" data-name="Trazado 195468" d="M419.818,34.427A3.854,3.854,0,0,1,416,30.547a3.82,3.82,0,1,1,7.635,0,3.854,3.854,0,0,1-3.817,3.88" transform="translate(-84.341 -5.039)" fill="#8f52f5"/>
              <path id="Trazado_195469" data-name="Trazado 195469" d="M417.273,56.791A1.282,1.282,0,0,1,416,55.5V50.324a1.273,1.273,0,1,1,2.545,0V55.5a1.282,1.282,0,0,1-1.272,1.293" transform="translate(-84.341 -9.295)" fill="#8f52f5"/>
              <path id="Trazado_195470" data-name="Trazado 195470" d="M448.491,39.445a13.827,13.827,0,0,0-8.83-3.182,14.763,14.763,0,0,0-3,.31A14.122,14.122,0,0,0,425.6,49.87a9.185,9.185,0,0,0,5.149,8.8v2.173a3.843,3.843,0,0,0,3.817,3.88H444.75a3.844,3.844,0,0,0,3.817-3.88V58.665a9.029,9.029,0,0,0,5.174-8.175,14.371,14.371,0,0,0-5.251-11.046" transform="translate(-86.284 -6.874)" fill="#f0e9ff"/>
              <path id="Trazado_195471" data-name="Trazado 195471" d="M457.321,50.49a9.029,9.029,0,0,1-5.174,8.175v2.173a3.844,3.844,0,0,1-3.817,3.88h-5.09V36.263a13.829,13.829,0,0,1,8.83,3.182,14.374,14.374,0,0,1,5.251,11.046" transform="translate(-89.863 -6.874)" fill="#d2b7ff"/>
              <path id="Trazado_195472" data-name="Trazado 195472" d="M448.653,56.791a3.854,3.854,0,0,1-3.817-3.88,1.3,1.3,0,0,1,.7-1.157l5.09-2.587a1.249,1.249,0,0,1,1.238.057,1.3,1.3,0,0,1,.6,1.1v2.587a3.854,3.854,0,0,1-3.817,3.88" transform="translate(-90.187 -9.295)" fill="#5c379b"/>
              <path id="Trazado_195473" data-name="Trazado 195473" d="M435.885,56.791a3.854,3.854,0,0,1-3.817-3.88V50.324a1.3,1.3,0,0,1,.6-1.1,1.253,1.253,0,0,1,1.238-.057L439,51.754a1.3,1.3,0,0,1,.7,1.157,3.854,3.854,0,0,1-3.817,3.88" transform="translate(-87.598 -9.295)" fill="#8f52f5"/>
              <path id="Trazado_195474" data-name="Trazado 195474" d="M441,70.165v-3.88a1.273,1.273,0,1,0-2.545,0v3.88Z" transform="translate(-88.893 -12.321)" fill="#8f52f5"/>
              <path id="Trazado_195475" data-name="Trazado 195475" d="M447.381,70.165v-3.88a1.273,1.273,0,1,0-2.545,0v3.88Z" transform="translate(-90.187 -12.321)" fill="#5c379b"/>
              <path id="Trazado_195476" data-name="Trazado 195476" d="M468.558,56.791a1.282,1.282,0,0,1-1.272-1.293V50.324a1.273,1.273,0,1,1,2.545,0V55.5a1.282,1.282,0,0,1-1.272,1.293" transform="translate(-94.739 -9.295)" fill="#8f52f5"/>
              <path id="Trazado_195477" data-name="Trazado 195477" d="M761.261,27.447H715.432a.969.969,0,0,0-.961.977V33.1l.218.1h47.389l.144-.1V28.424a.969.969,0,0,0-.961-.977" transform="translate(-144.853 -5.203)" fill="#d2b7ff"/>
              <path id="Trazado_195478" data-name="Trazado 195478" d="M720.284,33.1V28.423a.969.969,0,0,1,.961-.977h-5.813a.969.969,0,0,0-.961.977V33.1Z" transform="translate(-144.853 -5.203)" fill="#a7f"/>
              <path id="Trazado_195479" data-name="Trazado 195479" d="M761.261,65.881H715.432a.969.969,0,0,1-.961-.977V34.427h47.751V64.9a.969.969,0,0,1-.961.977" transform="translate(-144.853 -6.526)" fill="#e8edf2"/>
              <path id="Trazado_195480" data-name="Trazado 195480" d="M720.284,64.9V34.428h-5.813V64.9a.969.969,0,0,0,.961.977h5.813a.968.968,0,0,1-.961-.977" transform="translate(-144.853 -6.527)" fill="#d9e7ec"/>
              <path id="Trazado_195481" data-name="Trazado 195481" d="M717.88,30a.711.711,0,1,1-.7.711.7.7,0,0,1,.7-.711" transform="translate(-145.403 -5.687)" fill="#fe646f"/>
              <path id="Trazado_195482" data-name="Trazado 195482" d="M720.921,30a.711.711,0,1,1-.7.711.7.7,0,0,1,.7-.711" transform="translate(-146.019 -5.687)" fill="#fed402"/>
              <path id="Trazado_195483" data-name="Trazado 195483" d="M723.963,30a.711.711,0,1,1-.7.711.7.7,0,0,1,.7-.711" transform="translate(-146.636 -5.687)" fill="#00c27a"/>
              <path id="Trazado_195484" data-name="Trazado 195484" d="M757.464,67.017H721.819a.969.969,0,0,1-.961-.977V64.576a.969.969,0,0,1,.961-.977h35.645a.969.969,0,0,1,.961.977v1.465a.968.968,0,0,1-.961.977" transform="translate(-146.148 -12.057)" fill="#00c27a"/>
              <path id="Trazado_195485" data-name="Trazado 195485" d="M758.171,66.041V64.576a.969.969,0,0,1,.961-.977h-3.747v3.418h3.747a.968.968,0,0,1-.961-.977" transform="translate(-153.148 -12.057)" fill="#08b865"/>
              <path id="Trazado_195486" data-name="Trazado 195486" d="M748.385,63.6H721.82a.969.969,0,0,0-.962.977v1.465a.969.969,0,0,0,.962.977h26.565Z" transform="translate(-146.148 -12.057)" fill="#d2b7ff"/>
              <path id="Trazado_195487" data-name="Trazado 195487" d="M725.326,66.041V64.576a.969.969,0,0,1,.961-.977h-4.468a.969.969,0,0,0-.961.977v1.465a.969.969,0,0,0,.961.977h4.468a.968.968,0,0,1-.961-.977" transform="translate(-146.148 -12.057)" fill="#8f52f5"/>
              <path id="Trazado_195488" data-name="Trazado 195488" d="M723.082,44.621h-2.4a.711.711,0,0,1,0-1.422h2.4a.711.711,0,0,1,0,1.422" transform="translate(-145.971 -8.189)" fill="#c5d3dd"/>
              <path id="Trazado_195489" data-name="Trazado 195489" d="M766.469,44.621h-5.236a.711.711,0,0,1,0-1.422h5.236a.711.711,0,0,1,0,1.422" transform="translate(-154.192 -8.189)" fill="#c5d3dd"/>
              <path id="Trazado_195490" data-name="Trazado 195490" d="M733.459,43.852c0-.216.006-.434.016-.653h-6.828a.711.711,0,0,0,0,1.422h6.833c-.013-.255-.021-.511-.021-.769" transform="translate(-147.18 -8.189)" fill="#c5d3dd"/>
              <path id="Trazado_195491" data-name="Trazado 195491" d="M757.3,43.2h-3.85c.01.218.015.436.015.653,0,.258-.008.514-.021.769H757.3a.711.711,0,0,0,0-1.422" transform="translate(-152.754 -8.189)" fill="#c5d3dd"/>
              <path id="Trazado_195492" data-name="Trazado 195492" d="M726.061,48.6H720.68a.711.711,0,0,1,0-1.422h5.381a.711.711,0,0,1,0,1.422" transform="translate(-145.971 -8.943)" fill="#8f52f5"/>
              <path id="Trazado_195493" data-name="Trazado 195493" d="M766.1,48.6h-6.678a.711.711,0,0,1,0-1.422H766.1a.711.711,0,0,1,0,1.422" transform="translate(-153.826 -8.943)" fill="#c5d3dd"/>
              <path id="Trazado_195494" data-name="Trazado 195494" d="M734.431,47.176h-4.05a.711.711,0,0,0,0,1.422h4.36q-.189-.7-.31-1.422" transform="translate(-147.937 -8.943)" fill="#8f52f5"/>
              <path id="Trazado_195495" data-name="Trazado 195495" d="M752.809,48.6h2.919a.711.711,0,0,0,0-1.422h-2.609q-.121.722-.309,1.422" transform="translate(-152.626 -8.943)" fill="#8f52f5"/>
              <path id="Trazado_195496" data-name="Trazado 195496" d="M723.082,52.575h-2.4a.711.711,0,0,1,0-1.422h2.4a.711.711,0,0,1,0,1.422" transform="translate(-145.971 -9.697)" fill="#8f52f5"/>
              <path id="Trazado_195497" data-name="Trazado 195497" d="M767.2,52.575h-2.354a.711.711,0,0,1,0-1.422H767.2a.711.711,0,0,1,0,1.422" transform="translate(-154.925 -9.697)" fill="#8f52f5"/>
              <path id="Trazado_195498" data-name="Trazado 195498" d="M734.591,51.153h-7.945a.711.711,0,0,0,0,1.422h8.167a.683.683,0,0,0,.386-.119q-.334-.636-.608-1.3" transform="translate(-147.18 -9.697)" fill="#8f52f5"/>
              <path id="Trazado_195499" data-name="Trazado 195499" d="M760.792,51.153h-4.328a4.2,4.2,0,0,1,.895,1.422h3.434a.711.711,0,0,0,0-1.422" transform="translate(-153.367 -9.697)" fill="#8f52f5"/>
              <path id="Trazado_195500" data-name="Trazado 195500" d="M755.345,51.153h4.328a4.177,4.177,0,0,0-.895,1.422h-3.434a.711.711,0,0,1,0-1.422" transform="translate(-152.999 -9.697)" fill="#8f52f5"/>
              <path id="Trazado_195501" data-name="Trazado 195501" d="M727.55,56.552h-6.869a.711.711,0,0,1,0-1.422h6.869a.711.711,0,0,1,0,1.422" transform="translate(-145.971 -10.452)" fill="#8f52f5"/>
              <path id="Trazado_195502" data-name="Trazado 195502" d="M766.835,56.552H763.04a.711.711,0,0,1,0-1.422h3.795a.711.711,0,0,1,0,1.422" transform="translate(-154.558 -10.452)" fill="#8f52f5"/>
              <path id="Trazado_195503" data-name="Trazado 195503" d="M737.538,55.13h-5.289a.711.711,0,0,0,0,1.422h6.482a15,15,0,0,1-1.194-1.422" transform="translate(-148.316 -10.452)" fill="#8f52f5"/>
              <path id="Trazado_195504" data-name="Trazado 195504" d="M759.549,55.13h-1.74a4.165,4.165,0,0,1-.369,1.422h2.109a.711.711,0,0,0,0-1.422" transform="translate(-153.565 -10.452)" fill="#8f52f5"/>
              <path id="Trazado_195505" data-name="Trazado 195505" d="M756.624,55.13h1.74a4.163,4.163,0,0,0,.37,1.422h-2.11a.711.711,0,0,1,0-1.422" transform="translate(-153.258 -10.452)" fill="#8f52f5"/>
              <path id="Trazado_195506" data-name="Trazado 195506" d="M749.185,47.311a15.384,15.384,0,0,0,.586-6.261.553.553,0,0,0-.547-.494h-1.561a.542.542,0,0,1-.292-.085l-4.52-2.878a.543.543,0,0,0-.584,0l-4.52,2.878a.539.539,0,0,1-.292.085H735.9a.552.552,0,0,0-.546.494,15.372,15.372,0,0,0-.1,1.723,15.181,15.181,0,0,0,7.013,12.846.549.549,0,0,0,.591,0,15.151,15.151,0,0,0,6.329-8.307" transform="translate(-149.067 -7.11)" fill="#fed402"/>
              <path id="Trazado_195507" data-name="Trazado 195507" d="M738.225,42.517a15.383,15.383,0,0,1,.1-1.724.483.483,0,0,1,.02-.1l-.593.378a.543.543,0,0,1-.292.085H735.9a.553.553,0,0,0-.547.494,15.372,15.372,0,0,0-.1,1.723,15.183,15.183,0,0,0,7.013,12.846.549.549,0,0,0,.591,0,14.977,14.977,0,0,0,1.74-1.294,15.189,15.189,0,0,1-6.371-12.412" transform="translate(-149.067 -7.715)" fill="#fac600"/>
              <path id="Trazado_195508" data-name="Trazado 195508" d="M744.24,49.942a.7.7,0,0,1-.7-.711v-5.86a.7.7,0,1,1,1.4,0v5.86a.7.7,0,0,1-.7.711" transform="translate(-150.747 -8.087)" fill="#465a61"/>
              <path id="Trazado_195509" data-name="Trazado 195509" d="M744.24,52.516a.711.711,0,1,1-.7.711.7.7,0,0,1,.7-.711" transform="translate(-150.747 -9.956)" fill="#465a61"/>
              <path id="Trazado_195510" data-name="Trazado 195510" d="M757.286,67.563H721.641a1.676,1.676,0,0,1-1.66-1.688V64.41a1.676,1.676,0,0,1,1.66-1.688h35.645a1.676,1.676,0,0,1,1.66,1.688v1.464a1.676,1.676,0,0,1-1.66,1.688m-35.645-3.418a.264.264,0,0,0-.262.266v1.464a.264.264,0,0,0,.262.266h35.645a.264.264,0,0,0,.262-.266V64.41a.264.264,0,0,0-.262-.266Z" transform="translate(-145.971 -11.891)" fill="#7a8c98"/>
              <path id="Trazado_195511" data-name="Trazado 195511" d="M1000.213,176.335v-.015c0-2.917-7.563-21.786-16.892-21.786s-16.891,18.87-16.891,21.786v.028c0,2.716,11.389,17,16.891,17,5.384,0,16.892-14.283,16.892-17Z" transform="translate(-195.937 -29.298)" fill="#415e6f"/>
              <path id="Trazado_195512" data-name="Trazado 195512" d="M1001.286,179.635h-1.918V173.98h1.918a1.8,1.8,0,0,1,1.79,1.819v2.016a1.8,1.8,0,0,1-1.79,1.819" transform="translate(-202.614 -32.985)" fill="#f4c892"/>
              <path id="Trazado_195513" data-name="Trazado 195513" d="M973.008,179.635h1.917V173.98h-1.917a1.8,1.8,0,0,0-1.791,1.819v2.016a1.8,1.8,0,0,0,1.791,1.819" transform="translate(-196.907 -32.985)" fill="#f4c892"/>
              <path id="Trazado_195514" data-name="Trazado 195514" d="M992.491,192.484l-1.21-.247A1.862,1.862,0,0,1,989.8,190.4v-1.772h-7.915v1.817a1.86,1.86,0,0,1-1.477,1.832l-.99.2v6.765h13.069Z" transform="translate(-198.57 -35.763)" fill="#fed9a8"/>
              <path id="Trazado_195515" data-name="Trazado 195515" d="M984.987,184.665h0a10.433,10.433,0,0,1-10.347-10.517v-2.956a10.348,10.348,0,1,1,20.694,0v2.956a10.433,10.433,0,0,1-10.347,10.517" transform="translate(-197.601 -30.462)" fill="#fed9a8"/>
              <path id="Trazado_195516" data-name="Trazado 195516" d="M986.932,160.674h0a10.2,10.2,0,0,0-2.7.363,10.494,10.494,0,0,1,7.647,10.155v2.955a10.494,10.494,0,0,1-7.647,10.156,10.2,10.2,0,0,0,2.7.362,10.433,10.433,0,0,0,10.347-10.518v-2.955a10.433,10.433,0,0,0-10.347-10.518" transform="translate(-199.546 -30.462)" fill="#f4ce9f"/>
              <path id="Trazado_195517" data-name="Trazado 195517" d="M983.323,170.34c9.314,0,16.866,3.281,16.891,5.995v-.015c0-2.917-7.562-21.786-16.891-21.786s-16.891,18.87-16.891,21.786v.015c.025-2.714,7.577-5.995,16.891-5.995" transform="translate(-195.937 -29.298)" fill="#5498c8"/>
              <path id="Trazado_195518" data-name="Trazado 195518" d="M987,154.533a7.475,7.475,0,0,0-2.419.416c6.024,2.049,11.022,11.224,13.24,16.982,3.7,1.2,6.055,2.889,6.07,4.4v-.014c0-2.917-7.562-21.787-16.891-21.787" transform="translate(-199.617 -29.298)" fill="#415e6f"/>
              <path id="Trazado_195519" data-name="Trazado 195519" d="M1004.624,211.379c-.45-3.362-2.278-13.112-8.558-15.673l-7.163-2.27H974.728l-7.163,2.27c-6.279,2.561-8.108,12.311-8.558,15.673a1.008,1.008,0,0,0,.989,1.148h43.64a1.007,1.007,0,0,0,.988-1.148" transform="translate(-194.429 -36.673)" fill="#5498c8"/>
              <path id="Trazado_195520" data-name="Trazado 195520" d="M1010.827,211.379c-.45-3.362-2.278-13.112-8.558-15.673l-7.163-2.27h-5.515l7.163,2.27c7.626,3.11,8.687,16.822,8.687,16.822h4.4a1.007,1.007,0,0,0,.988-1.148" transform="translate(-200.632 -36.673)" fill="#415e6f"/>
              <path id="Trazado_195521" data-name="Trazado 195521" d="M997.745,192.981H969.424a1.717,1.717,0,0,0-1.7,1.73v16.4h31.725v-16.4a1.717,1.717,0,0,0-1.7-1.73" transform="translate(-196.198 -36.587)" fill="#cfcfcf"/>
              <path id="Trazado_195522" data-name="Trazado 195522" d="M1004.007,192.981h-5.4a1.717,1.717,0,0,1,1.7,1.73v16.4h5.4v-16.4a1.717,1.717,0,0,0-1.7-1.73" transform="translate(-202.46 -36.587)" fill="#c2c4c6"/>
              <path id="Trazado_195523" data-name="Trazado 195523" d="M999.916,213.77H966.143a1.169,1.169,0,0,0-1.159,1.179v.254a1.17,1.17,0,0,0,1.159,1.179h33.773a1.17,1.17,0,0,0,1.16-1.179v-.255a1.17,1.17,0,0,0-1.16-1.178" transform="translate(-195.643 -40.529)" fill="#9c9da0"/>
              <path id="Trazado_195524" data-name="Trazado 195524" d="M1007.713,213.77h-4.272v2.613h4.272a1.17,1.17,0,0,0,1.16-1.179v-.255a1.17,1.17,0,0,0-1.16-1.178" transform="translate(-203.44 -40.529)" fill="#8d8f93"/>
              <path id="Trazado_195525" data-name="Trazado 195525" d="M987.012,201.238a2.421,2.421,0,1,1-2.381,2.421,2.4,2.4,0,0,1,2.381-2.421" transform="translate(-199.626 -38.153)" fill="#fff"/>
              <path id="Trazado_195526" data-name="Trazado 195526" d="M989.54,177.341a6.522,6.522,0,0,0-5.155,0l.337.7c.037.079.081.155.124.23a5.542,5.542,0,0,1,4.243.006l.45-.935" transform="translate(-199.576 -33.521)" fill="#4d4d4d"/>
              <path id="Trazado_195527" data-name="Trazado 195527" d="M999.692,177.171v-.55h-3.557v.779c0,.088,0,.175.012.263h3.533c.007-.163.011-.327.011-.491" transform="translate(-201.959 -33.485)" fill="#4d4d4d"/>
              <path id="Trazado_195528" data-name="Trazado 195528" d="M974.64,176.621v.55c0,.165,0,.328.013.491H978.2v-1.041Z" transform="translate(-197.601 -33.485)" fill="#4d4d4d"/>
              <path id="Trazado_195529" data-name="Trazado 195529" d="M982.727,179.916h-3.832a.771.771,0,0,1-.765-.777V176.92a.77.77,0,0,1,.765-.776h4.777a.771.771,0,0,1,.765.776v1.258a1.724,1.724,0,0,1-1.709,1.738" transform="translate(-198.308 -33.395)" fill="#4d4d4d"/>
              <path id="Trazado_195530" data-name="Trazado 195530" d="M990.906,179.916h3.832a.771.771,0,0,0,.765-.777V176.92a.77.77,0,0,0-.765-.776h-4.777a.771.771,0,0,0-.765.776v1.258a1.724,1.724,0,0,0,1.709,1.738" transform="translate(-200.552 -33.395)" fill="#4d4d4d"/>
              <path id="Trazado_195531" data-name="Trazado 195531" d="M994.968,176.144h-4.641v3.566a1.683,1.683,0,0,0,.808.207h3.832a.771.771,0,0,0,.765-.777v-2.218a.771.771,0,0,0-.765-.777" transform="translate(-200.781 -33.395)" fill="#353535"/>
              <path id="Trazado_195532" data-name="Trazado 195532" d="M983.9,176.144h-4.644v3.772h3.7a1.724,1.724,0,0,0,1.709-1.738v-1.258a.77.77,0,0,0-.764-.777" transform="translate(-198.536 -33.395)" fill="#353535"/>
              <path id="Trazado_195533" data-name="Trazado 195533" d="M665.555,552.272,501.318,573.9v3.964l164.237-21.629Z" transform="translate(-101.638 -104.706)" fill="#3c3c3b"/>
              <path id="Trazado_195534" data-name="Trazado 195534" d="M665.071,549.128,566.2,607.155a2.545,2.545,0,0,1-2.338,0L501.8,570.736a.729.729,0,0,1,0-1.373l98.874-58.027a2.545,2.545,0,0,1,2.338,0l62.055,36.42a.729.729,0,0,1,0,1.373" transform="translate(-101.639 -96.891)" fill="#3c3c3b"/>
              <path id="Trazado_195535" data-name="Trazado 195535" d="M665.071,544.242,566.2,602.27a2.545,2.545,0,0,1-2.338,0L501.8,565.85a.729.729,0,0,1,0-1.373l98.874-58.028a2.545,2.545,0,0,1,2.338,0l62.055,36.42a.729.729,0,0,1,0,1.373" transform="translate(-101.639 -95.965)" fill="#878787"/>
              <path id="Trazado_195536" data-name="Trazado 195536" d="M588.911,520.029l-1.761,1.033-5.133,3.013-1.76,1.033-5.134,3.012-1.76,1.033-5.134,3.013-1.76,1.033-5.134,3.013-1.761,1.033-5.133,3.012-1.76,1.033-5.134,3.013-1.76,1.033-5.134,3.013-1.76,1.033-5.134,3.013L532,553.43l-5.134,3.013-1.76,1.033-5.134,3.013-1.761,1.033-6.894,4.046,6.674,3.917,1.761,1.033,4.914,2.883,1.76,1.033,4.914,2.883,1.76,1.033,4.914,2.883,1.76,1.033,4.914,2.884,1.76,1.033,6.674,3.917,6.895-4.046,1.76-1.032,12.028-7.059,1.76-1.032,39.6-23.244,1.761-1.032,5.133-3.014,1.761-1.032,5.134-3.014,1.76-1.032,5.134-3.014,1.76-1.032,6.895-4.046-6.675-3.917-1.76-1.033-4.914-2.883L629.4,527.6l-11.587-6.8-1.76-1.032-4.914-2.884-1.76-1.033-6.674-3.917Z" transform="translate(-103.665 -97.059)" fill="#3c3c3b"/>
              <path id="Trazado_195537" data-name="Trazado 195537" d="M520.641,573.761l-6.015,3.529,5.794,3.4,6.014-3.529Z" transform="translate(-104.337 -108.781)" fill="#706f6f"/>
              <path id="Trazado_195538" data-name="Trazado 195538" d="M529.289,568.768l-6.015,3.53,5.794,3.4,6.014-3.53Z" transform="translate(-106.09 -107.834)" fill="#dadada"/>
              <path id="Trazado_195539" data-name="Trazado 195539" d="M537.715,570.706l6.014-3.529-5.794-3.4-6.014,3.529Z" transform="translate(-107.843 -106.888)" fill="#dadada"/>
              <path id="Trazado_195540" data-name="Trazado 195540" d="M546.583,558.783l-6.015,3.529,5.794,3.4,6.014-3.53Z" transform="translate(-109.596 -105.941)" fill="#dadada"/>
              <path id="Trazado_195541" data-name="Trazado 195541" d="M555.23,553.791l-6.015,3.529,5.794,3.4,6.014-3.529Z" transform="translate(-111.349 -104.994)" fill="#dadada"/>
              <path id="Trazado_195542" data-name="Trazado 195542" d="M563.878,548.8l-6.015,3.529,5.794,3.4,6.014-3.529Z" transform="translate(-113.102 -104.048)" fill="#dadada"/>
              <path id="Trazado_195543" data-name="Trazado 195543" d="M572.525,543.805l-6.015,3.529,5.794,3.4,6.014-3.529Z" transform="translate(-114.856 -103.101)" fill="#dadada"/>
              <path id="Trazado_195544" data-name="Trazado 195544" d="M581.173,538.812l-6.015,3.529,5.794,3.4,6.014-3.529Z" transform="translate(-116.609 -102.155)" fill="#dadada"/>
              <path id="Trazado_195545" data-name="Trazado 195545" d="M589.6,540.75l6.015-3.53-5.794-3.4-6.015,3.53Z" transform="translate(-118.362 -101.208)" fill="#dadada"/>
              <path id="Trazado_195546" data-name="Trazado 195546" d="M598.247,535.757l6.014-3.529-5.794-3.4-6.014,3.529Z" transform="translate(-120.115 -100.261)" fill="#dadada"/>
              <path id="Trazado_195547" data-name="Trazado 195547" d="M606.894,530.764l6.014-3.53-5.794-3.4-6.014,3.53Z" transform="translate(-121.868 -99.315)" fill="#dadada"/>
              <path id="Trazado_195548" data-name="Trazado 195548" d="M609.747,521.424l5.794,3.4,12.908-7.576-5.794-3.4Z" transform="translate(-123.622 -97.422)" fill="#706f6f"/>
              <path id="Trazado_195549" data-name="Trazado 195549" d="M529.012,578.594,523,582.124l5.794,3.4,6.014-3.529Z" transform="translate(-106.034 -109.697)" fill="#dadada"/>
              <path id="Trazado_195550" data-name="Trazado 195550" d="M537.659,573.6l-6.015,3.531,5.794,3.4L543.454,577Z" transform="translate(-107.787 -108.75)" fill="#dadada"/>
              <path id="Trazado_195551" data-name="Trazado 195551" d="M546.087,575.539l6.014-3.53-5.794-3.4-6.014,3.529Z" transform="translate(-109.54 -107.804)" fill="#dadada"/>
              <path id="Trazado_195552" data-name="Trazado 195552" d="M554.954,563.616l-6.015,3.53,5.794,3.4,6.014-3.53Z" transform="translate(-111.293 -106.857)" fill="#dadada"/>
              <path id="Trazado_195553" data-name="Trazado 195553" d="M563.6,558.624l-6.015,3.529,5.794,3.4,6.014-3.53Z" transform="translate(-113.046 -105.911)" fill="#dadada"/>
              <path id="Trazado_195554" data-name="Trazado 195554" d="M572.249,553.63l-6.015,3.53,5.794,3.4,6.014-3.53Z" transform="translate(-114.8 -104.964)" fill="#dadada"/>
              <path id="Trazado_195555" data-name="Trazado 195555" d="M580.9,548.638l-6.015,3.53,5.794,3.4,6.014-3.53Z" transform="translate(-116.553 -104.017)" fill="#dadada"/>
              <path id="Trazado_195556" data-name="Trazado 195556" d="M589.544,543.645l-6.014,3.53,5.794,3.4,6.014-3.53Z" transform="translate(-118.306 -103.071)" fill="#dadada"/>
              <path id="Trazado_195557" data-name="Trazado 195557" d="M597.971,545.583l6.014-3.53-5.794-3.4-6.014,3.53Z" transform="translate(-120.059 -102.124)" fill="#dadada"/>
              <path id="Trazado_195558" data-name="Trazado 195558" d="M606.618,540.59l6.014-3.53-5.794-3.4-6.014,3.53Z" transform="translate(-121.812 -101.178)" fill="#dadada"/>
              <path id="Trazado_195559" data-name="Trazado 195559" d="M615.266,535.6l6.014-3.53-5.794-3.4-6.014,3.53Z" transform="translate(-123.565 -100.231)" fill="#dadada"/>
              <path id="Trazado_195560" data-name="Trazado 195560" d="M624.133,523.675l-6.014,3.529,5.794,3.4,6.014-3.53Z" transform="translate(-125.319 -99.285)" fill="#dadada"/>
              <path id="Trazado_195561" data-name="Trazado 195561" d="M632.56,525.612l6.014-3.529-5.794-3.4-6.014,3.531Z" transform="translate(-127.072 -98.338)" fill="#dadada"/>
              <path id="Trazado_195562" data-name="Trazado 195562" d="M537.384,583.428l-6.014,3.529,5.794,3.4,6.014-3.53Z" transform="translate(-107.731 -110.613)" fill="#dadada"/>
              <path id="Trazado_195563" data-name="Trazado 195563" d="M546.031,578.435l-6.014,3.53,5.794,3.4,6.014-3.529Z" transform="translate(-109.484 -109.667)" fill="#dadada"/>
              <path id="Trazado_195564" data-name="Trazado 195564" d="M554.458,580.372l6.014-3.53-5.794-3.4-6.014,3.53Z" transform="translate(-111.237 -108.72)" fill="#dadada"/>
              <path id="Trazado_195565" data-name="Trazado 195565" d="M563.326,568.449l-6.014,3.529,5.794,3.4,6.014-3.529Z" transform="translate(-112.99 -107.774)" fill="#dadada"/>
              <path id="Trazado_195566" data-name="Trazado 195566" d="M571.973,563.457l-6.014,3.529,5.794,3.4,6.014-3.529Z" transform="translate(-114.744 -106.827)" fill="#dadada"/>
              <path id="Trazado_195567" data-name="Trazado 195567" d="M580.621,558.464l-6.015,3.529,5.794,3.4,6.014-3.529Z" transform="translate(-116.497 -105.88)" fill="#dadada"/>
              <path id="Trazado_195568" data-name="Trazado 195568" d="M589.268,553.471,583.254,557l5.794,3.4,6.014-3.529Z" transform="translate(-118.25 -104.934)" fill="#dadada"/>
              <path id="Trazado_195569" data-name="Trazado 195569" d="M597.915,548.479l-6.015,3.529,5.794,3.4,6.014-3.53Z" transform="translate(-120.003 -103.987)" fill="#dadada"/>
              <path id="Trazado_195570" data-name="Trazado 195570" d="M606.342,550.416l6.014-3.529-5.794-3.4-6.014,3.529Z" transform="translate(-121.757 -103.041)" fill="#dadada"/>
              <path id="Trazado_195571" data-name="Trazado 195571" d="M614.989,545.424l6.014-3.53-5.794-3.4-6.015,3.529Z" transform="translate(-123.509 -102.094)" fill="#dadada"/>
              <path id="Trazado_195572" data-name="Trazado 195572" d="M623.637,540.43l6.014-3.529-5.794-3.4-6.015,3.53Z" transform="translate(-125.263 -101.147)" fill="#dadada"/>
              <path id="Trazado_195573" data-name="Trazado 195573" d="M632.5,528.508l-6.015,3.53,5.794,3.4,6.014-3.53Z" transform="translate(-127.016 -100.201)" fill="#dadada"/>
              <path id="Trazado_195574" data-name="Trazado 195574" d="M641.756,530.962l-6.894,4.046,5.794,3.4,12.907-7.576L641.1,523.515l-6.014,3.529Z" transform="translate(-128.713 -99.254)" fill="#706f6f"/>
              <path id="Trazado_195575" data-name="Trazado 195575" d="M552.649,583.268l-12.908,7.576,5.794,3.4,12.908-7.576Z" transform="translate(-109.428 -110.583)" fill="#706f6f"/>
              <path id="Trazado_195576" data-name="Trazado 195576" d="M562.83,585.206l6.014-3.529-5.794-3.4-6.015,3.529Z" transform="translate(-112.935 -109.637)" fill="#dadada"/>
              <path id="Trazado_195577" data-name="Trazado 195577" d="M571.7,573.283l-6.015,3.529,5.794,3.4,6.014-3.529Z" transform="translate(-114.688 -108.69)" fill="#dadada"/>
              <path id="Trazado_195578" data-name="Trazado 195578" d="M580.344,568.29l-6.014,3.529,5.794,3.4,6.014-3.529Z" transform="translate(-116.441 -107.744)" fill="#dadada"/>
              <path id="Trazado_195579" data-name="Trazado 195579" d="M588.992,563.3l-6.014,3.529,5.794,3.4,6.014-3.53Z" transform="translate(-118.194 -106.797)" fill="#dadada"/>
              <path id="Trazado_195580" data-name="Trazado 195580" d="M597.639,558.3l-6.014,3.529,5.794,3.4,6.014-3.529Z" transform="translate(-119.947 -105.85)" fill="#dadada"/>
              <path id="Trazado_195581" data-name="Trazado 195581" d="M606.286,553.312l-6.014,3.53,5.794,3.4,6.014-3.53Z" transform="translate(-121.701 -104.904)" fill="#dadada"/>
              <path id="Trazado_195582" data-name="Trazado 195582" d="M614.714,555.249l6.014-3.529-5.794-3.4-6.014,3.529Z" transform="translate(-123.454 -103.957)" fill="#dadada"/>
              <path id="Trazado_195583" data-name="Trazado 195583" d="M623.361,550.257l6.014-3.53-5.794-3.4-6.013,3.53Z" transform="translate(-125.207 -103.01)" fill="#dadada"/>
              <path id="Trazado_195584" data-name="Trazado 195584" d="M632.008,545.264l6.014-3.529-5.794-3.4-6.014,3.529Z" transform="translate(-126.96 -102.064)" fill="#dadada"/>
              <path id="Trazado_195585" data-name="Trazado 195585" d="M563.148,593.654l3.667-2.152-5.794-3.4-12.908,7.576,5.793,3.4,6.895-4.046Z" transform="translate(-111.126 -111.499)" fill="#706f6f"/>
              <path id="Trazado_195586" data-name="Trazado 195586" d="M571.2,590.039l6.014-3.529-5.794-3.4-6.014,3.529Z" transform="translate(-114.632 -110.553)" fill="#dadada"/>
              <path id="Trazado_195587" data-name="Trazado 195587" d="M580.068,578.116l-6.014,3.53,5.794,3.4,6.014-3.53Z" transform="translate(-116.385 -109.606)" fill="#dadada"/>
              <path id="Trazado_195588" data-name="Trazado 195588" d="M588.716,573.124l-6.013,3.529,5.793,3.4,6.014-3.529Z" transform="translate(-118.138 -108.66)" fill="#dadada"/>
              <path id="Trazado_195589" data-name="Trazado 195589" d="M597.363,568.131l-6.014,3.53,5.794,3.4,6.014-3.53Z" transform="translate(-119.891 -107.713)" fill="#dadada"/>
              <path id="Trazado_195590" data-name="Trazado 195590" d="M606.01,563.138,600,566.667l5.793,3.4,6.014-3.529Z" transform="translate(-121.645 -106.767)" fill="#dadada"/>
              <path id="Trazado_195591" data-name="Trazado 195591" d="M614.658,558.145l-6.014,3.53,5.794,3.4,6.014-3.53Z" transform="translate(-123.398 -105.82)" fill="#dadada"/>
              <path id="Trazado_195592" data-name="Trazado 195592" d="M623.085,560.083l6.015-3.529-5.794-3.4-6.013,3.529Z" transform="translate(-125.151 -104.873)" fill="#dadada"/>
              <path id="Trazado_195593" data-name="Trazado 195593" d="M631.732,555.09l6.014-3.529-5.794-3.4-6.014,3.53Z" transform="translate(-126.904 -103.927)" fill="#dadada"/>
              <path id="Trazado_195594" data-name="Trazado 195594" d="M640.379,550.1l6.014-3.529-5.794-3.4-6.014,3.529Z" transform="translate(-128.657 -102.98)" fill="#dadada"/>
              <path id="Trazado_195595" data-name="Trazado 195595" d="M649.027,544.158l12.908-7.576-5.794-3.4-12.908,7.576Z" transform="translate(-130.411 -101.087)" fill="#706f6f"/>
              <path id="Trazado_195596" data-name="Trazado 195596" d="M562.277,604.858l6.014-3.529-5.794-3.4-6.014,3.529Z" transform="translate(-112.823 -113.363)" fill="#dadada"/>
              <path id="Trazado_195597" data-name="Trazado 195597" d="M572.025,591.472l-6.894,4.046,5.794,3.4,6.894-4.046,2.2-1.291,3.814-2.238-5.794-3.4-3.814,2.238Z" transform="translate(-114.576 -111.469)" fill="#dadada"/>
              <path id="Trazado_195598" data-name="Trazado 195598" d="M588.22,585.147l40.485-23.76-5.794-3.4-40.485,23.76Z" transform="translate(-118.082 -105.79)" fill="#706f6f"/>
              <path id="Trazado_195599" data-name="Trazado 195599" d="M640.1,559.924l6.015-3.529-5.795-3.4-6.014,3.529Z" transform="translate(-128.601 -104.843)" fill="#dadada"/>
              <path id="Trazado_195600" data-name="Trazado 195600" d="M648.751,554.931l6.014-3.529-5.794-3.4-6.014,3.529Z" transform="translate(-130.355 -103.897)" fill="#dadada"/>
              <path id="Trazado_195601" data-name="Trazado 195601" d="M657.4,549.938l6.014-3.529-5.794-3.4-6.014,3.529Z" transform="translate(-132.108 -102.95)" fill="#dadada"/>
              <path id="Trazado_195602" data-name="Trazado 195602" d="M666.045,544.946l6.014-3.529-5.794-3.4-6.014,3.53Z" transform="translate(-133.861 -102.003)" fill="#dadada"/>
              <path id="Trazado_195603" data-name="Trazado 195603" d="M639.877,573.786l-6.963-4.086a2.547,2.547,0,0,0-2.339,0L611.351,580.98a.729.729,0,0,0,0,1.373l6.963,4.087Z" transform="translate(-123.848 -107.957)" fill="#706f6f"/>
              <path id="Trazado_195604" data-name="Trazado 195604" d="M620.944,589.413l2.71,1.59a2.545,2.545,0,0,0,2.338,0l9.282-5.448-3.879-2.276Z" transform="translate(-125.892 -110.585)" fill="#dadada"/>
              <path id="Trazado_195605" data-name="Trazado 195605" d="M634.88,581.366l3.879,2.277,9.282-5.448a.729.729,0,0,0,0-1.373l-2.71-1.589Z" transform="translate(-128.717 -109.06)" fill="#dadada"/>
              <path id="Trazado_195606" data-name="Trazado 195606" d="M573.671,403.039l-1.335-.472a1.18,1.18,0,0,0-.889.17s-99.968,58.718-99.968,58.718c-.575.359-.8,1.269-.509,2.419l20.047,78.174c.478,1.862,2.959,3.53,4.508,2.938l.615-.361-15.366-66.157,95.132-55.911-1.2-6.792,17.189,67.027c.411,1.607,1.685,3.067,2.843,3.261l.568-1.024Z" transform="translate(-95.459 -76.319)" fill="#3c3c3b"/>
              <path id="Trazado_195607" data-name="Trazado 195607" d="M575.2,404.133l20.772,80.994a1.6,1.6,0,0,1-.729,1.774l-99.051,58.182a.7.7,0,0,1-1.029-.438l-20.979-81.806a1.749,1.749,0,0,1,.8-1.943l98.139-57.647a1.409,1.409,0,0,1,2.078.883" transform="translate(-96.126 -76.416)" fill="#3c3c3b"/>
              <path id="Trazado_195608" data-name="Trazado 195608" d="M592.684,485.572l-93.565,55-.26-1-19.156-74.7,92.752-54.514.813-.481Z" transform="translate(-97.256 -77.708)" fill="#fff"/>
              <path id="Trazado_195609" data-name="Trazado 195609" d="M591.612,485.162l-92.752,54.52-19.156-74.7,92.751-54.514Z" transform="translate(-97.256 -77.82)" fill="#007a96"/>
              <path id="Trazado_195610" data-name="Trazado 195610" d="M493.871,477.987l-2.4,1.408.457,1.814,2.4-1.408Z" transform="translate(-99.641 -90.622)" fill="#fff"/>
              <path id="Trazado_195611" data-name="Trazado 195611" d="M498.279,467.832l.456,1.814,58.134-34.054-.457-1.814Z" transform="translate(-101.022 -82.241)" fill="#fff"/>
              <path id="Trazado_195612" data-name="Trazado 195612" d="M495.334,483.7l-2.4,1.408.457,1.813,2.4-1.408Z" transform="translate(-99.938 -91.707)" fill="#fff"/>
              <path id="Trazado_195613" data-name="Trazado 195613" d="M499.742,475.3l.456,1.814,45.372-26.578-.457-1.813Z" transform="translate(-101.319 -85.074)" fill="#fff"/>
              <path id="Trazado_195614" data-name="Trazado 195614" d="M496.8,489.422l-2.4,1.408.457,1.813,2.4-1.408Z" transform="translate(-100.234 -92.791)" fill="#fff"/>
              <path id="Trazado_195615" data-name="Trazado 195615" d="M501.2,479.268l.456,1.813,58.134-34.053-.456-1.814Z" transform="translate(-101.615 -84.409)" fill="#fff"/>
              <path id="Trazado_195616" data-name="Trazado 195616" d="M502.667,490.049l.456,1.814,21.186-12.411-.456-1.814Z" transform="translate(-101.912 -90.556)" fill="#fff"/>
              <path id="Trazado_195617" data-name="Trazado 195617" d="M498.26,495.14l-2.4,1.408.457,1.814,2.4-1.408Z" transform="translate(-100.531 -93.875)" fill="#fff"/>
              <path id="Trazado_195618" data-name="Trazado 195618" d="M499.723,500.858l-2.4,1.408.457,1.814,2.4-1.408Z" transform="translate(-100.828 -94.959)" fill="#fff"/>
              <path id="Trazado_195619" data-name="Trazado 195619" d="M504.13,495.656l.456,1.814,21.992-12.883-.457-1.813Z" transform="translate(-102.208 -91.53)" fill="#fff"/>
              <path id="Trazado_195620" data-name="Trazado 195620" d="M502.648,512.293l-2.4,1.408.457,1.813,2.4-1.408Z" transform="translate(-101.421 -97.127)" fill="#fff"/>
              <path id="Trazado_195621" data-name="Trazado 195621" d="M507.056,502.9l.456,1.813,52.567-30.792-.456-1.814Z" transform="translate(-102.802 -89.508)" fill="#fff"/>
              <path id="Trazado_195622" data-name="Trazado 195622" d="M504.111,518.011l-2.4,1.408.457,1.814,2.4-1.408Z" transform="translate(-101.717 -98.211)" fill="#fff"/>
              <path id="Trazado_195623" data-name="Trazado 195623" d="M508.519,509.091l.456,1.814L558.1,482.128l-.456-1.813Z" transform="translate(-103.098 -91.064)" fill="#fff"/>
              <path id="Trazado_195624" data-name="Trazado 195624" d="M505.574,523.729l-2.4,1.408.457,1.813,2.4-1.408Z" transform="translate(-102.014 -99.295)" fill="#fff"/>
              <path id="Trazado_195625" data-name="Trazado 195625" d="M509.982,513.574l.456,1.813,58.134-34.053-.457-1.814Z" transform="translate(-103.395 -90.913)" fill="#fff"/>
              <path id="Trazado_195626" data-name="Trazado 195626" d="M511.445,519.292l.457,1.813,58.134-34.053-.457-1.814Z" transform="translate(-103.691 -91.997)" fill="#fff"/>
              <path id="Trazado_195627" data-name="Trazado 195627" d="M507.037,529.446l-2.4,1.408.457,1.814,2.4-1.408Z" transform="translate(-102.311 -100.379)" fill="#fff"/>
              <path id="Trazado_195628" data-name="Trazado 195628" d="M508.5,535.164l-2.4,1.408.457,1.814,2.4-1.408Z" transform="translate(-102.607 -101.463)" fill="#fff"/>
              <path id="Trazado_195629" data-name="Trazado 195629" d="M512.907,528.09l.457,1.814,35.653-20.886-.457-1.813Z" transform="translate(-103.988 -96.162)" fill="#fff"/>
              <path id="Trazado_195630" data-name="Trazado 195630" d="M515.833,537.8l.457,1.813,48.258-28.269-.457-1.813Z" transform="translate(-104.581 -96.603)" fill="#fff"/>
              <path id="Trazado_195631" data-name="Trazado 195631" d="M511.426,546.6l-2.4,1.408.457,1.813,2.4-1.408Z" transform="translate(-103.2 -103.631)" fill="#fff"/>
              <path id="Trazado_195632" data-name="Trazado 195632" d="M512.889,552.317l-2.4,1.408.457,1.814,2.4-1.408Z" transform="translate(-103.497 -104.715)" fill="#fff"/>
              <path id="Trazado_195633" data-name="Trazado 195633" d="M517.3,545.518l.457,1.813L551.4,527.62l-.456-1.813Z" transform="translate(-104.878 -99.689)" fill="#fff"/>
              <path id="Trazado_195634" data-name="Trazado 195634" d="M638.136,624.923l-7.873-4.651c-17.7-10.457-22.46-35.4-22-74.671l7.873,4.651c-.454,39.272,4.3,64.214,22,74.671" transform="translate(-123.314 -103.442)" fill="#b88325"/>
              <path id="Trazado_195635" data-name="Trazado 195635" d="M616.139,539.085l-7.873-4.651c33.741-11.1,61.276-26.707,81.337-47.734l7.873,4.651c-21.186,22.219-48.845,37.549-81.337,47.735" transform="translate(-123.321 -92.274)" fill="#ffcf4a"/>
              <path id="Trazado_195636" data-name="Trazado 195636" d="M699.471,492.438c.867,49.858-7.061,86.086-40.379,127.851-33.441-2.587-41.546-29.406-40.958-80.117q49.879-16.773,81.337-47.735" transform="translate(-125.316 -93.362)" fill="#f9b233"/>
              <path id="Trazado_195637" data-name="Trazado 195637" d="M692.408,515.76c-.559,41.651-9.205,66.587-30.922,95.748-7.284-1.2-13.115-3.93-17.672-8.563-9.116-9.152-13.183-25.844-13.7-53.052,24.933-8.085,44.885-18.668,60.167-32.226.714-.613,1.43-1.249,2.122-1.908" transform="translate(-127.751 -97.784)" fill="#b88325"/>
              <path id="Trazado_195638" data-name="Trazado 195638" d="M690.284,518.114c-1.05,39.38-9.808,63.681-30.855,91.955a32.093,32.093,0,0,1-15.617-6.677c-9.116-9.153-13.182-25.845-13.7-53.052,24.934-8.085,44.886-18.668,60.167-32.226" transform="translate(-127.751 -98.23)" fill="#ffcf4a"/>
              <g id="Grupo_146804" data-name="Grupo 146804" transform="translate(514.585 423.241)" opacity="0.4">
                <g id="Grupo_146803" data-name="Grupo 146803">
                  <g id="Grupo_146802" data-name="Grupo 146802" clip-path="url(#clip-path-8)">
                    <path id="Trazado_195639" data-name="Trazado 195639" d="M691.8,522.257a130.887,130.887,0,0,1-11.378,8.508c-6.028,20.727-19.546,44.666-34.974,69.421a27.622,27.622,0,0,0,2.415,2.819,27.1,27.1,0,0,0,7.593,4.388c14.847-23.017,27.313-46.041,35.154-69.077.568-5.092.972-10.4,1.19-16.061" transform="translate(-645.444 -522.257)" fill="#fff"/>
                  </g>
                </g>
              </g>
              <path id="Trazado_195640" data-name="Trazado 195640" d="M624,579.22c1.284-.754,2.314-.14,2.318,1.343a5.149,5.149,0,0,1-2.3,4.055c-1.27.746-2.314.157-2.318-1.343a5.2,5.2,0,0,1,2.3-4.055" transform="translate(-126.044 -109.754)" fill="#ffca38"/>
              <path id="Trazado_195641" data-name="Trazado 195641" d="M628.331,602.688c1.269-.745,2.315-.156,2.318,1.343a5.2,5.2,0,0,1-2.3,4.055c-1.284.754-2.314.14-2.318-1.343a5.152,5.152,0,0,1,2.3-4.055" transform="translate(-126.922 -114.204)" fill="#ffca38"/>
              <path id="Trazado_195642" data-name="Trazado 195642" d="M650.353,632.931c1.27-.745,2.314-.156,2.318,1.343a5.2,5.2,0,0,1-2.3,4.055c-1.284.754-2.314.14-2.318-1.343a5.152,5.152,0,0,1,2.3-4.055" transform="translate(-131.387 -119.938)" fill="#ffca38"/>
              <path id="Trazado_195643" data-name="Trazado 195643" d="M636.968,620.91c1.269-.745,2.314-.156,2.318,1.343a5.2,5.2,0,0,1-2.3,4.055c-1.284.754-2.315.14-2.319-1.343a5.151,5.151,0,0,1,2.3-4.055" transform="translate(-128.673 -117.659)" fill="#ffca38"/>
              <path id="Trazado_195644" data-name="Trazado 195644" d="M668.9,637.813c1.269-.745,2.314-.156,2.318,1.343a5.2,5.2,0,0,1-2.3,4.055c-1.284.754-2.314.14-2.318-1.343a5.152,5.152,0,0,1,2.3-4.055" transform="translate(-135.147 -120.863)" fill="#ffca38"/>
              <path id="Trazado_195645" data-name="Trazado 195645" d="M623.58,552.309c1.269-.745,2.314-.156,2.318,1.343a5.2,5.2,0,0,1-2.3,4.055c-1.284.754-2.314.14-2.318-1.343a5.152,5.152,0,0,1,2.3-4.055" transform="translate(-125.959 -104.652)" fill="#ffca38"/>
              <path id="Trazado_195646" data-name="Trazado 195646" d="M646.071,543.074c1.284-.754,2.314-.156,2.318,1.343a5.176,5.176,0,0,1-2.3,4.055c-1.269.746-2.314.14-2.318-1.343a5.177,5.177,0,0,1,2.3-4.055" transform="translate(-130.519 -102.901)" fill="#ffca38"/>
              <path id="Trazado_195647" data-name="Trazado 195647" d="M668.579,532.132c1.269-.745,2.314-.156,2.318,1.343a5.2,5.2,0,0,1-2.3,4.055c-1.284.754-2.314.14-2.318-1.343a5.152,5.152,0,0,1,2.3-4.055" transform="translate(-135.082 -100.827)" fill="#ffca38"/>
              <path id="Trazado_195648" data-name="Trazado 195648" d="M691.07,518.557c1.284-.754,2.315-.156,2.318,1.343a5.176,5.176,0,0,1-2.3,4.055c-1.27.745-2.315.14-2.318-1.343a5.178,5.178,0,0,1,2.3-4.055" transform="translate(-139.642 -98.253)" fill="#ffca38"/>
              <path id="Trazado_195649" data-name="Trazado 195649" d="M713.56,502.5c1.284-.754,2.328-.164,2.333,1.335a5.206,5.206,0,0,1-2.318,4.063c-1.27.745-2.314.14-2.318-1.343a5.175,5.175,0,0,1,2.3-4.055" transform="translate(-144.202 -95.209)" fill="#ffca38"/>
              <path id="Trazado_195650" data-name="Trazado 195650" d="M713.3,527.663c1.284-.754,2.314-.14,2.318,1.343a5.15,5.15,0,0,1-2.3,4.055c-1.27.746-2.314.156-2.318-1.343a5.2,5.2,0,0,1,2.3-4.055" transform="translate(-144.149 -99.98)" fill="#ffca38"/>
              <path id="Trazado_195651" data-name="Trazado 195651" d="M709.132,556.038c1.27-.745,2.315-.156,2.318,1.343a5.2,5.2,0,0,1-2.3,4.055c-1.284.754-2.315.14-2.318-1.343a5.152,5.152,0,0,1,2.3-4.055" transform="translate(-143.304 -105.359)" fill="#ffca38"/>
              <path id="Trazado_195652" data-name="Trazado 195652" d="M700.628,584.156c1.27-.745,2.315-.156,2.318,1.343a5.2,5.2,0,0,1-2.3,4.055c-1.284.754-2.314.14-2.318-1.343a5.152,5.152,0,0,1,2.3-4.055" transform="translate(-141.58 -110.69)" fill="#ffca38"/>
              <path id="Trazado_195653" data-name="Trazado 195653" d="M687.354,611.569c1.269-.745,2.315-.156,2.318,1.343a5.2,5.2,0,0,1-2.3,4.055c-1.284.754-2.314.14-2.318-1.343a5.152,5.152,0,0,1,2.3-4.055" transform="translate(-138.889 -115.888)" fill="#ffca38"/>
            </g>
          </g>
        </g>
      </g>
      <text id="Valor_de_hacking" data-name="Valor de hacking" transform="translate(248.202 1602.823)" fill="#12263f" font-size="18" font-family="Roboto-Black, Roboto" font-weight="800"><tspan x="0" y="0">Valor de hacking</tspan></text>
      <text id="Objetivo_de_la_evaluación" data-name="Objetivo de 
la evaluación" transform="translate(403 1408.378)" fill="#12263f" font-size="18" font-family="Roboto-Black, Roboto" font-weight="800"><tspan x="-48.256" y="0">Objetivo de </tspan><tspan x="-53.301" y="25">la evaluación</tspan></text>
      <text id="Ataque" transform="translate(563.832 1324.441)" fill="#12263f" font-size="18" font-family="Roboto-Black, Roboto" font-weight="800"><tspan x="-28.956" y="0">Ataque</tspan></text>
      <text id="Exploit" transform="translate(758.601 1324.441)" fill="#12263f" font-size="18" font-family="Roboto-Black, Roboto" font-weight="800"><tspan x="-27.826" y="0">Exploit</tspan></text>
      <text id="Ataque_de_día_cero" data-name="Ataque de día 
cero" transform="translate(914 1408.378)" fill="#12263f" font-size="18" font-family="Roboto-Black, Roboto" font-weight="800"><tspan x="-58.047" y="0">Ataque de día </tspan><tspan x="-17.881" y="25">cero</tspan></text>
      <text id="Seguridad" transform="translate(980.992 1582.133)" fill="#12263f" font-size="18" font-family="Roboto-Black, Roboto" font-weight="800"><tspan x="-41.572" y="0">Seguridad</tspan></text>
      <g id="Grupo_146855" data-name="Grupo 146855" transform="translate(180 1471.234)">
        <g id="Grupo_145672" data-name="Grupo 145672" clip-path="url(#clip-path-9)">
          <g id="Grupo_145671" data-name="Grupo 145671" transform="translate(0 0)">
            <g id="Grupo_145670" data-name="Grupo 145670" clip-path="url(#clip-path-9)">
              <g id="Grupo_145666" data-name="Grupo 145666" opacity="0.39">
                <g id="Grupo_145665" data-name="Grupo 145665">
                  <g id="Grupo_145664" data-name="Grupo 145664" clip-path="url(#clip-path-9)">
                    <path id="Trazado_201765" data-name="Trazado 201765" d="M54.274,27.137A27.137,27.137,0,1,1,27.137,0,27.137,27.137,0,0,1,54.274,27.137" transform="translate(0 0)" fill="#79f5ed"/>
                  </g>
                </g>
              </g>
              <g id="Grupo_145669" data-name="Grupo 145669" transform="translate(7.538 7.538)" opacity="0.36">
                <g id="Grupo_145668" data-name="Grupo 145668">
                  <g id="Grupo_145667" data-name="Grupo 145667" clip-path="url(#clip-path-12)">
                    <path id="Trazado_201766" data-name="Trazado 201766" d="M47.6,28A19.6,19.6,0,1,1,28,8.4,19.6,19.6,0,0,1,47.6,28" transform="translate(-8.4 -8.4)" fill="#79f5ed"/>
                  </g>
                </g>
              </g>
              <path id="Trazado_201767" data-name="Trazado 201767" d="M42.257,28.688A13.568,13.568,0,1,1,28.688,15.12,13.568,13.568,0,0,1,42.257,28.688" transform="translate(-1.552 -1.552)" fill="#79f5ed"/>
            </g>
          </g>
          <text id="_" data-name="+" transform="translate(21.31 33.113)" fill="#500c75" font-size="19" font-family="Roboto-Bold, Roboto" font-weight="700"><tspan x="0" y="0">+</tspan></text>
        </g>
      </g>
      <g id="Grupo_146856" data-name="Grupo 146856" transform="translate(296.229 1273.745)">
        <g id="Grupo_145672-2" data-name="Grupo 145672" clip-path="url(#clip-path-9)">
          <g id="Grupo_145671-2" data-name="Grupo 145671" transform="translate(0 0)">
            <g id="Grupo_145670-2" data-name="Grupo 145670" clip-path="url(#clip-path-9)">
              <g id="Grupo_145666-2" data-name="Grupo 145666" opacity="0.39">
                <g id="Grupo_145665-2" data-name="Grupo 145665">
                  <g id="Grupo_145664-2" data-name="Grupo 145664" clip-path="url(#clip-path-9)">
                    <path id="Trazado_201765-2" data-name="Trazado 201765" d="M54.274,27.137A27.137,27.137,0,1,1,27.137,0,27.137,27.137,0,0,1,54.274,27.137" transform="translate(0 0)" fill="#79f5ed"/>
                  </g>
                </g>
              </g>
              <g id="Grupo_145669-2" data-name="Grupo 145669" transform="translate(7.538 7.538)" opacity="0.36">
                <g id="Grupo_145668-2" data-name="Grupo 145668">
                  <g id="Grupo_145667-2" data-name="Grupo 145667" clip-path="url(#clip-path-12)">
                    <path id="Trazado_201766-2" data-name="Trazado 201766" d="M47.6,28A19.6,19.6,0,1,1,28,8.4,19.6,19.6,0,0,1,47.6,28" transform="translate(-8.4 -8.4)" fill="#79f5ed"/>
                  </g>
                </g>
              </g>
              <path id="Trazado_201767-2" data-name="Trazado 201767" d="M42.257,28.688A13.568,13.568,0,1,1,28.688,15.12,13.568,13.568,0,0,1,42.257,28.688" transform="translate(-1.552 -1.552)" fill="#79f5ed"/>
            </g>
          </g>
          <text id="_2" data-name="+" transform="translate(21.31 33.113)" fill="#500c75" font-size="19" font-family="Roboto-Bold, Roboto" font-weight="700"><tspan x="0" y="0">+</tspan></text>
        </g>
      </g>
      <g id="Grupo_146857" data-name="Grupo 146857" transform="translate(494.876 1151.954)">
        <g id="Grupo_145672-3" data-name="Grupo 145672" clip-path="url(#clip-path-9)">
          <g id="Grupo_145671-3" data-name="Grupo 145671" transform="translate(0 0)">
            <g id="Grupo_145670-3" data-name="Grupo 145670" clip-path="url(#clip-path-9)">
              <g id="Grupo_145666-3" data-name="Grupo 145666" opacity="0.39">
                <g id="Grupo_145665-3" data-name="Grupo 145665">
                  <g id="Grupo_145664-3" data-name="Grupo 145664" clip-path="url(#clip-path-9)">
                    <path id="Trazado_201765-3" data-name="Trazado 201765" d="M54.274,27.137A27.137,27.137,0,1,1,27.137,0,27.137,27.137,0,0,1,54.274,27.137" transform="translate(0 0)" fill="#79f5ed"/>
                  </g>
                </g>
              </g>
              <g id="Grupo_145669-3" data-name="Grupo 145669" transform="translate(7.538 7.538)" opacity="0.36">
                <g id="Grupo_145668-3" data-name="Grupo 145668">
                  <g id="Grupo_145667-3" data-name="Grupo 145667" clip-path="url(#clip-path-12)">
                    <path id="Trazado_201766-3" data-name="Trazado 201766" d="M47.6,28A19.6,19.6,0,1,1,28,8.4,19.6,19.6,0,0,1,47.6,28" transform="translate(-8.4 -8.4)" fill="#79f5ed"/>
                  </g>
                </g>
              </g>
              <path id="Trazado_201767-3" data-name="Trazado 201767" d="M42.257,28.688A13.568,13.568,0,1,1,28.688,15.12,13.568,13.568,0,0,1,42.257,28.688" transform="translate(-1.552 -1.552)" fill="#79f5ed"/>
            </g>
          </g>
          <text id="_3" data-name="+" transform="translate(21.31 33.113)" fill="#500c75" font-size="19" font-family="Roboto-Bold, Roboto" font-weight="700"><tspan x="0" y="0">+</tspan></text>
        </g>
      </g>
      <g id="Grupo_146858" data-name="Grupo 146858" transform="translate(764.271 1145.757)">
        <g id="Grupo_145672-4" data-name="Grupo 145672" clip-path="url(#clip-path-9)">
          <g id="Grupo_145671-4" data-name="Grupo 145671" transform="translate(0 0)">
            <g id="Grupo_145670-4" data-name="Grupo 145670" clip-path="url(#clip-path-9)">
              <g id="Grupo_145666-4" data-name="Grupo 145666" opacity="0.39">
                <g id="Grupo_145665-4" data-name="Grupo 145665">
                  <g id="Grupo_145664-4" data-name="Grupo 145664" clip-path="url(#clip-path-9)">
                    <path id="Trazado_201765-4" data-name="Trazado 201765" d="M54.274,27.137A27.137,27.137,0,1,1,27.137,0,27.137,27.137,0,0,1,54.274,27.137" transform="translate(0 0)" fill="#79f5ed"/>
                  </g>
                </g>
              </g>
              <g id="Grupo_145669-4" data-name="Grupo 145669" transform="translate(7.538 7.538)" opacity="0.36">
                <g id="Grupo_145668-4" data-name="Grupo 145668">
                  <g id="Grupo_145667-4" data-name="Grupo 145667" clip-path="url(#clip-path-12)">
                    <path id="Trazado_201766-4" data-name="Trazado 201766" d="M47.6,28A19.6,19.6,0,1,1,28,8.4,19.6,19.6,0,0,1,47.6,28" transform="translate(-8.4 -8.4)" fill="#79f5ed"/>
                  </g>
                </g>
              </g>
              <path id="Trazado_201767-4" data-name="Trazado 201767" d="M42.257,28.688A13.568,13.568,0,1,1,28.688,15.12,13.568,13.568,0,0,1,42.257,28.688" transform="translate(-1.552 -1.552)" fill="#79f5ed"/>
            </g>
          </g>
          <text id="_4" data-name="+" transform="translate(21.31 33.113)" fill="#500c75" font-size="19" font-family="Roboto-Bold, Roboto" font-weight="700"><tspan x="0" y="0">+</tspan></text>
        </g>
      </g>
      <g id="Grupo_146859" data-name="Grupo 146859" transform="translate(971.016 1263.367)">
        <g id="Grupo_145672-5" data-name="Grupo 145672" clip-path="url(#clip-path-9)">
          <g id="Grupo_145671-5" data-name="Grupo 145671" transform="translate(0 0)">
            <g id="Grupo_145670-5" data-name="Grupo 145670" clip-path="url(#clip-path-9)">
              <g id="Grupo_145666-5" data-name="Grupo 145666" opacity="0.39">
                <g id="Grupo_145665-5" data-name="Grupo 145665">
                  <g id="Grupo_145664-5" data-name="Grupo 145664" clip-path="url(#clip-path-9)">
                    <path id="Trazado_201765-5" data-name="Trazado 201765" d="M54.274,27.137A27.137,27.137,0,1,1,27.137,0,27.137,27.137,0,0,1,54.274,27.137" transform="translate(0 0)" fill="#79f5ed"/>
                  </g>
                </g>
              </g>
              <g id="Grupo_145669-5" data-name="Grupo 145669" transform="translate(7.538 7.538)" opacity="0.36">
                <g id="Grupo_145668-5" data-name="Grupo 145668">
                  <g id="Grupo_145667-5" data-name="Grupo 145667" clip-path="url(#clip-path-12)">
                    <path id="Trazado_201766-5" data-name="Trazado 201766" d="M47.6,28A19.6,19.6,0,1,1,28,8.4,19.6,19.6,0,0,1,47.6,28" transform="translate(-8.4 -8.4)" fill="#79f5ed"/>
                  </g>
                </g>
              </g>
              <path id="Trazado_201767-5" data-name="Trazado 201767" d="M42.257,28.688A13.568,13.568,0,1,1,28.688,15.12,13.568,13.568,0,0,1,42.257,28.688" transform="translate(-1.552 -1.552)" fill="#79f5ed"/>
            </g>
          </g>
          <text id="_5" data-name="+" transform="translate(21.31 33.113)" fill="#500c75" font-size="19" font-family="Roboto-Bold, Roboto" font-weight="700"><tspan x="0" y="0">+</tspan></text>
        </g>
      </g>
      <g id="Grupo_146860" data-name="Grupo 146860" transform="translate(1079.169 1476.802)">
        <g id="Grupo_145672-6" data-name="Grupo 145672" clip-path="url(#clip-path-9)">
          <g id="Grupo_145671-6" data-name="Grupo 145671" transform="translate(0 0)">
            <g id="Grupo_145670-6" data-name="Grupo 145670" clip-path="url(#clip-path-9)">
              <g id="Grupo_145666-6" data-name="Grupo 145666" opacity="0.39">
                <g id="Grupo_145665-6" data-name="Grupo 145665">
                  <g id="Grupo_145664-6" data-name="Grupo 145664" clip-path="url(#clip-path-9)">
                    <path id="Trazado_201765-6" data-name="Trazado 201765" d="M54.274,27.137A27.137,27.137,0,1,1,27.137,0,27.137,27.137,0,0,1,54.274,27.137" transform="translate(0 0)" fill="#79f5ed"/>
                  </g>
                </g>
              </g>
              <g id="Grupo_145669-6" data-name="Grupo 145669" transform="translate(7.538 7.538)" opacity="0.36">
                <g id="Grupo_145668-6" data-name="Grupo 145668">
                  <g id="Grupo_145667-6" data-name="Grupo 145667" clip-path="url(#clip-path-12)">
                    <path id="Trazado_201766-6" data-name="Trazado 201766" d="M47.6,28A19.6,19.6,0,1,1,28,8.4,19.6,19.6,0,0,1,47.6,28" transform="translate(-8.4 -8.4)" fill="#79f5ed"/>
                  </g>
                </g>
              </g>
              <path id="Trazado_201767-6" data-name="Trazado 201767" d="M42.257,28.688A13.568,13.568,0,1,1,28.688,15.12,13.568,13.568,0,0,1,42.257,28.688" transform="translate(-1.552 -1.552)" fill="#79f5ed"/>
            </g>
          </g>
          <text id="_6" data-name="+" transform="translate(21.31 33.113)" fill="#500c75" font-size="19" font-family="Roboto-Bold, Roboto" font-weight="700"><tspan x="0" y="0">+</tspan></text>
        </g>
      </g>
      <g id="Grupo_146861" data-name="Grupo 146861" transform="translate(210.727 1492.498)">
        <g id="Grupo_146814" data-name="Grupo 146814" transform="translate(0 0)" clip-path="url(#clip-path-33)">
          <path id="Trazado_201768" data-name="Trazado 201768" d="M68.846,1.467,69.935,0,80.648,8l-1.1,1.461h.01c-.082-.054-.167-.1-.245-.162L69.089,1.663c-.086-.064-.165-.138-.247-.207Z" transform="translate(-42.11 -0.001)" fill-rule="evenodd"/>
          <path id="Trazado_201769" data-name="Trazado 201769" d="M2.22,13.038l1.462,1.1v-.011L1.455,17.1l.012,0L0,16.011l2.22-2.973" transform="translate(0 -7.975)" fill-rule="evenodd"/>
          <path id="Trazado_201770" data-name="Trazado 201770" d="M86.681,36.778c.066.041.137.076.2.122q2.229,1.662,4.456,3.326c.047.035.09.075.152.127L79.911,55.863l-.274-.2q-2.122-1.584-4.245-3.167c-.094-.07-.2-.129-.294-.193l0,.009,1.131-1.515,3.327,2.483L88.651,41.1l-3.326-2.482L86.7,36.776Z" transform="translate(-45.938 -22.496)" fill-rule="evenodd"/>
          <path id="Trazado_201771" data-name="Trazado 201771" d="M13.922,36.934l1.088-1.457L.944,24.977l1.1-1.474-.012,0c.1.061.2.115.3.185q9.706,7.243,19.41,14.488l.255.19L20.883,39.86l-4.421-3.3-1.084,1.452-1.459-1.089Z" transform="translate(-0.577 -14.377)" fill-rule="evenodd"/>
          <path id="Trazado_201772" data-name="Trazado 201772" d="M26.8,61.867l-1.081,1.448-4.4-3.288,3.58-4.8,1.487,1.111,0-.011-2.5,3.343c.2.15.365.271.529.395L26.8,61.876Z" transform="translate(-13.039 -33.785)" fill-rule="evenodd"/>
          <path id="Trazado_201773" data-name="Trazado 201773" d="M94.659,24.357,98.8,27.463l.287.214-1.123,1.5.016,0-4.437-3.312,1.128-1.51Z" transform="translate(-57.219 -14.899)" fill-rule="evenodd"/>
          <path id="Trazado_201774" data-name="Trazado 201774" d="M46.924,69.071l-1.372,1.837a.886.886,0,0,1-.116-.057q-1.554-1.158-3.106-2.318a.757.757,0,0,1-.082-.084v.01l1.373-1.84,3.3,2.465Z" transform="translate(-25.844 -40.751)" fill-rule="evenodd"/>
          <path id="Trazado_201775" data-name="Trazado 201775" d="M58.353,71.412l-1.09,1.46-2.974-2.221v.014L55.381,69.2l2.975,2.22Z" transform="translate(-33.208 -42.331)" fill-rule="evenodd"/>
          <path id="Trazado_201776" data-name="Trazado 201776" d="M68.772,73.291l-1.091,1.462-2.925-2.183,0,.012,1.11-1.486c.727.542,1.44,1.072,2.15,1.607.257.193.5.4.756.6Z" transform="translate(-39.611 -43.488)" fill-rule="evenodd"/>
          <path id="Trazado_201777" data-name="Trazado 201777" d="M38.086,69.57l-1.129,1.513-1.513-1.13,0,.01,1.128-1.511,1.511,1.128Z" transform="translate(-21.681 -41.872)" fill-rule="evenodd"/>
          <path id="Trazado_201778" data-name="Trazado 201778" d="M9.479,13.532l1.1-1.479,6.282,4.69,2.488-3.333,1.509,1.127,0-.015-2.5,3.345,6.254,4.668L23.52,24,9.479,13.522Z" transform="translate(-5.798 -7.373)" fill-rule="evenodd"/>
          <path id="Trazado_201779" data-name="Trazado 201779" d="M38.792,11.451c.052-.082.1-.169.156-.246Q40.421,9.228,41.9,7.253c.057-.076.121-.147.2-.243l1.467,1.1,0-.013-2.223,2.979,4.793,3.578-1.088,1.458-6.256-4.67Z" transform="translate(-23.727 -4.288)" fill-rule="evenodd"/>
          <path id="Trazado_201780" data-name="Trazado 201780" d="M51.084,4.627l2.466-3.3,1.461,1.09V2.4l-1.38,1.849,4.8,3.583L57.346,9.289,51.083,4.614Z" transform="translate(-31.247 -0.81)" fill-rule="evenodd"/>
          <path id="Trazado_201781" data-name="Trazado 201781" d="M61.2,1.748,62.329.235,64.17,1.61l0-.011L63.038,3.111,61.2,1.738Z" transform="translate(-37.435 -0.144)" fill-rule="evenodd"/>
          <path id="Trazado_201782" data-name="Trazado 201782" d="M26.055,3.886l1.839,1.373,1.129-1.512c.082.069.161.143.247.207L39.5,11.588c.078.058.163.108.245.162L38.614,13.26l4.437,3.312L41.68,18.409l3.325,2.483L35.913,33.071l-3.327-2.483L31.456,32.1c-.252-.2-.5-.405-.756-.6-.709-.535-1.423-1.064-2.15-1.607l-1.11,1.487-2.974-2.221-1.091,1.462-3.3-2.465L18.7,30l-1.511-1.128-1.128,1.511-2.392-1.807c-.163-.123-.328-.245-.529-.395l2.5-3.343,1.459,1.089,1.084-1.452,4.421,3.3,1.112-1.49-.255-.19Q13.75,18.85,4.044,11.607c-.093-.07-.2-.123-.3-.185l2.226-2.98L20.014,18.923l1.1-1.469-6.254-4.668,2.5-3.345,6.256,4.67L24.7,12.653,19.9,9.075,22.128,6.1l6.263,4.675,1.085-1.453-4.8-3.583,1.38-1.849" transform="translate(-2.292 -2.292)" fill="#fff" fill-rule="evenodd"/>
        </g>
      </g>
    </g>
  </g>
</svg>
