<svg xmlns="http://www.w3.org/2000/svg" xmlns:xlink="http://www.w3.org/1999/xlink" width="183.245" height="325.225" viewBox="0 0 183.245 325.225">
  <defs>
    <clipPath id="clip-path">
      <rect id="Rectángulo_37581" data-name="Rectángulo 37581" width="183.245" height="325.225" fill="none"/>
    </clipPath>
    <clipPath id="clip-path-3">
      <rect id="Rectángulo_37566" data-name="Rectángulo 37566" width="102.982" height="271.964" fill="none"/>
    </clipPath>
    <clipPath id="clip-path-4">
      <rect id="Rectángulo_37567" data-name="Rectángulo 37567" width="70.029" height="203.81" fill="none"/>
    </clipPath>
    <clipPath id="clip-path-5">
      <rect id="Rectángulo_37568" data-name="Rectángulo 37568" width="1.661" height="9.624" fill="none"/>
    </clipPath>
    <clipPath id="clip-path-10">
      <rect id="Rectángulo_37573" data-name="Rectángulo 37573" width="4.317" height="5.576" fill="none"/>
    </clipPath>
    <clipPath id="clip-path-11">
      <path id="Trazado_174641" data-name="Trazado 174641" d="M2.434,225.514l7.53,4.343,1.115.62,8.854,5.17,89.107,51.379V70.345L58.156,40.974,2.434,8.791Z" transform="translate(-2.434 -8.791)" fill="none"/>
    </clipPath>
    <clipPath id="clip-path-12">
      <rect id="Rectángulo_37575" data-name="Rectángulo 37575" width="49.49" height="43.636" fill="none"/>
    </clipPath>
    <clipPath id="clip-path-13">
      <rect id="Rectángulo_37576" data-name="Rectángulo 37576" width="32.445" height="33.308" fill="none"/>
    </clipPath>
    <clipPath id="clip-path-14">
      <rect id="Rectángulo_37577" data-name="Rectángulo 37577" width="27.387" height="24.805" fill="none"/>
    </clipPath>
    <clipPath id="clip-path-15">
      <rect id="Rectángulo_37578" data-name="Rectángulo 37578" width="20.87" height="55.638" fill="none"/>
    </clipPath>
    <clipPath id="clip-path-17">
      <rect id="Rectángulo_37579" data-name="Rectángulo 37579" width="52.765" height="128.077" fill="none"/>
    </clipPath>
  </defs>
  <g id="Grupo_147503" data-name="Grupo 147503" transform="translate(-1131.755 -18108)">
    <g id="Grupo_112171" data-name="Grupo 112171" transform="translate(1105.755 18108)">
      <g id="Grupo_112166" data-name="Grupo 112166" transform="translate(26)" clip-path="url(#clip-path)">
        <g id="Grupo_112146" data-name="Grupo 112146">
          <g id="Grupo_112145" data-name="Grupo 112145" clip-path="url(#clip-path)">
            <path id="Trazado_174606" data-name="Trazado 174606" d="M8.642.66l108.92,62.883a10.677,10.677,0,0,1,4.83,8.364l0,240.863a2.943,2.943,0,0,1-4.828,2.788L8.639,252.674a10.677,10.677,0,0,1-4.83-8.366l0-240.86C3.811.369,5.974-.881,8.642.66" transform="translate(5.564 0)" fill="#878787"/>
            <path id="Trazado_174607" data-name="Trazado 174607" d="M116.222,321.161l9.373-5.411L9.979.1.646,5.5Z" transform="translate(0.943 0.146)" fill="#878787"/>
            <path id="Trazado_174608" data-name="Trazado 174608" d="M4.833,2.859l108.92,62.883a10.677,10.677,0,0,1,4.83,8.364l0,240.863a2.944,2.944,0,0,1-4.83,2.788L4.83,254.873A10.677,10.677,0,0,1,0,246.507L0,5.647c0-3.078,2.163-4.328,4.83-2.788" transform="translate(0 3.212)" fill="#3c3c3b"/>
            <path id="Trazado_174609" data-name="Trazado 174609" d="M2.434,8.791V225.514l7.53,4.343,1.115.62,8.854,5.17,89.1,51.379V70.345L58.157,40.975Z" transform="translate(3.555 12.841)" fill="#64d2d6"/>
            <g id="Grupo_112123" data-name="Grupo 112123" transform="translate(7.801 24.769)" opacity="0.4">
              <g id="Grupo_112122" data-name="Grupo 112122">
                <g id="Grupo_112121" data-name="Grupo 112121" clip-path="url(#clip-path-3)">
                  <path id="Trazado_174610" data-name="Trazado 174610" d="M3.17,10.066l18.2,10.515L106.153,254v28.025L82.3,268.279,3.17,41.359Z" transform="translate(-3.17 -10.066)" fill="#fff"/>
                </g>
              </g>
            </g>
            <g id="Grupo_112126" data-name="Grupo 112126" transform="translate(7.801 73.922)" opacity="0.4">
              <g id="Grupo_112125" data-name="Grupo 112125">
                <g id="Grupo_112124" data-name="Grupo 112124" clip-path="url(#clip-path-4)">
                  <path id="Trazado_174611" data-name="Trazado 174611" d="M3.17,30.041,73.2,233.851l-10.583-6.1L3.17,52.414Z" transform="translate(-3.17 -30.041)" fill="#fff"/>
                </g>
              </g>
            </g>
            <path id="Trazado_174612" data-name="Trazado 174612" d="M19.812,107.918,46.717,123.45a4.413,4.413,0,0,1,1.993,3.452v8.054c0,1.272-.893,1.786-1.993,1.152L19.812,120.576a4.413,4.413,0,0,1-1.993-3.452V109.07c0-1.272.893-1.786,1.993-1.152" transform="translate(26.028 157.239)" fill="#878787"/>
            <path id="Trazado_174613" data-name="Trazado 174613" d="M46.126,123.838a2.206,2.206,0,0,1,1,1.727v8.054c0,.632-.448.891-1,.573L19.221,118.661a2.206,2.206,0,0,1-1-1.725v-8.056c0-.635.448-.891,1-.573Z" transform="translate(26.62 158.003)" fill="#1d1d1b"/>
            <path id="Trazado_174614" data-name="Trazado 174614" d="M26.592,18.9c0-.529.372-.746.832-.48a1.837,1.837,0,0,1,.829,1.437V27.34c0,.529-.372.743-.832.48a1.837,1.837,0,0,1-.829-1.44Z" transform="translate(38.843 26.744)" fill="#273340"/>
            <path id="Trazado_174615" data-name="Trazado 174615" d="M25.175,18.084c0-.529.372-.743.829-.48a1.833,1.833,0,0,1,.832,1.44v7.478c0,.529-.372.743-.832.48a1.841,1.841,0,0,1-.829-1.44Z" transform="translate(36.773 25.549)" fill="#273340"/>
            <path id="Trazado_174616" data-name="Trazado 174616" d="M23.757,17.266c0-.529.372-.746.829-.48a1.833,1.833,0,0,1,.832,1.44V25.7c0,.529-.372.743-.832.48a1.837,1.837,0,0,1-.829-1.44Z" transform="translate(34.702 24.354)" fill="#273340"/>
            <path id="Trazado_174617" data-name="Trazado 174617" d="M22.34,16.447c0-.529.372-.746.829-.48A1.833,1.833,0,0,1,24,17.407v7.478c0,.529-.372.743-.832.48a1.841,1.841,0,0,1-.829-1.44Z" transform="translate(32.632 23.158)" fill="#273340"/>
            <path id="Trazado_174618" data-name="Trazado 174618" d="M20.923,15.629c0-.529.372-.743.829-.48a1.833,1.833,0,0,1,.832,1.44v7.478c0,.529-.372.746-.832.48a1.837,1.837,0,0,1-.829-1.437Z" transform="translate(30.562 21.963)" fill="#273340"/>
            <g id="Grupo_112129" data-name="Grupo 112129" transform="translate(65.435 45.053)" opacity="0.5">
              <g id="Grupo_112128" data-name="Grupo 112128">
                <g id="Grupo_112127" data-name="Grupo 112127" clip-path="url(#clip-path-5)">
                  <path id="Trazado_174619" data-name="Trazado 174619" d="M26.592,18.9c0-.529.372-.746.832-.48a1.837,1.837,0,0,1,.829,1.437V27.34c0,.529-.372.743-.832.48a1.837,1.837,0,0,1-.829-1.44Z" transform="translate(-26.592 -18.309)"/>
                </g>
              </g>
            </g>
            <g id="Grupo_112132" data-name="Grupo 112132" transform="translate(61.947 43.04)" opacity="0.5">
              <g id="Grupo_112131" data-name="Grupo 112131">
                <g id="Grupo_112130" data-name="Grupo 112130" clip-path="url(#clip-path-5)">
                  <path id="Trazado_174620" data-name="Trazado 174620" d="M25.175,18.084c0-.529.372-.743.829-.48a1.833,1.833,0,0,1,.832,1.44v7.478c0,.529-.372.743-.832.48a1.841,1.841,0,0,1-.829-1.44Z" transform="translate(-25.174 -17.491)"/>
                </g>
              </g>
            </g>
            <g id="Grupo_112135" data-name="Grupo 112135" transform="translate(58.459 41.027)" opacity="0.5">
              <g id="Grupo_112134" data-name="Grupo 112134">
                <g id="Grupo_112133" data-name="Grupo 112133" clip-path="url(#clip-path-5)">
                  <path id="Trazado_174621" data-name="Trazado 174621" d="M23.757,17.266c0-.529.372-.746.829-.48a1.833,1.833,0,0,1,.832,1.44V25.7c0,.529-.372.743-.832.48a1.837,1.837,0,0,1-.829-1.44Z" transform="translate(-23.757 -16.673)"/>
                </g>
              </g>
            </g>
            <g id="Grupo_112138" data-name="Grupo 112138" transform="translate(54.972 39.012)" opacity="0.5">
              <g id="Grupo_112137" data-name="Grupo 112137">
                <g id="Grupo_112136" data-name="Grupo 112136" clip-path="url(#clip-path-5)">
                  <path id="Trazado_174622" data-name="Trazado 174622" d="M22.34,16.447c0-.529.372-.746.829-.48A1.833,1.833,0,0,1,24,17.407v7.478c0,.529-.372.743-.832.48a1.841,1.841,0,0,1-.829-1.44Z" transform="translate(-22.34 -15.854)"/>
                </g>
              </g>
            </g>
            <g id="Grupo_112141" data-name="Grupo 112141" transform="translate(51.484 36.999)" opacity="0.5">
              <g id="Grupo_112140" data-name="Grupo 112140">
                <g id="Grupo_112139" data-name="Grupo 112139" clip-path="url(#clip-path-5)">
                  <path id="Trazado_174623" data-name="Trazado 174623" d="M20.923,15.629c0-.529.372-.743.829-.48a1.833,1.833,0,0,1,.832,1.44v7.478c0,.529-.372.746-.832.48a1.837,1.837,0,0,1-.829-1.437Z" transform="translate(-20.922 -15.036)"/>
                </g>
              </g>
            </g>
            <path id="Trazado_174624" data-name="Trazado 174624" d="M39.28,28.31c0-1.376.967-1.934,2.158-1.248A4.775,4.775,0,0,1,43.6,30.8c0,1.378-.967,1.934-2.16,1.248a4.775,4.775,0,0,1-2.158-3.74" transform="translate(57.376 39.101)" fill="#878787"/>
            <g id="Grupo_112144" data-name="Grupo 112144" transform="translate(80.88 56.761)" opacity="0.5">
              <g id="Grupo_112143" data-name="Grupo 112143">
                <g id="Grupo_112142" data-name="Grupo 112142" clip-path="url(#clip-path-10)">
                  <path id="Trazado_174625" data-name="Trazado 174625" d="M32.869,24.609c0-1.376.967-1.934,2.158-1.248a4.775,4.775,0,0,1,2.16,3.74c0,1.378-.967,1.934-2.16,1.248a4.779,4.779,0,0,1-2.158-3.74" transform="translate(-32.869 -23.066)"/>
                </g>
              </g>
            </g>
          </g>
        </g>
        <g id="Grupo_112160" data-name="Grupo 112160" transform="translate(5.989 21.632)">
          <g id="Grupo_112159" data-name="Grupo 112159" clip-path="url(#clip-path-11)">
            <path id="Trazado_174626" data-name="Trazado 174626" d="M60.58,59.2,51.525,41.627,36,36.76,26.175,51.246V69.47S38.085,82.032,38.3,81.919,54.7,77.051,54.7,77.051Z" transform="translate(32.244 32.063)" fill="#3a144a"/>
            <path id="Trazado_174627" data-name="Trazado 174627" d="M76.955,69.37c4.117,6.479,6.8,17.537,6.917,25.835,4.087,14.183,5.578,25.712,5.485,37.319,10.729,1.622,20.087,13.652,28.975,29.275,3.526,6.595-4.6,14.639-12.3,13.054L75.473,145.8C64.206,133.69,59.208,117.437,55.857,100.1c-5.084-2.124-9.178-6.848-12.675-13.145l-8.452-8.3c15.133,1.659,29.354-.785,42.226-9.279" transform="translate(44.739 79.696)" fill="#2d759c"/>
            <path id="Trazado_174628" data-name="Trazado 174628" d="M22.708,61.439c2.808,6.718,5.714,13.472,8.775,19.909,6.075,12.766,12.8,24.294,20.805,31.854,2.453,3.757,12.323,4.284,22.028,2.517a61.3,61.3,0,0,0,6.656-1.585c6.782-2.047,12.513-5.2,14.215-9.082A222.185,222.185,0,0,0,86.721,64.1a144.513,144.513,0,0,0-6.664-17.2c-15.7-3.723-43.549,1.412-57.349,14.54" transform="translate(27.18 45.146)" fill="#662483"/>
            <g id="Grupo_112149" data-name="Grupo 112149" transform="translate(58.662 118.201)" opacity="0.5" style="mix-blend-mode: multiply;isolation: isolate">
              <g id="Grupo_112148" data-name="Grupo 112148">
                <g id="Grupo_112147" data-name="Grupo 112147" clip-path="url(#clip-path-12)">
                  <path id="Trazado_174629" data-name="Trazado 174629" d="M26.274,65.12c6.075,12.766,12.8,24.292,20.808,31.854,2.453,3.757,12.323,4.282,22.028,2.515a60.685,60.685,0,0,0,6.654-1.582C52.252,90.8,35.627,77.822,26.71,56.827Z" transform="translate(-26.274 -56.826)" fill="#662483"/>
                </g>
              </g>
            </g>
            <g id="Grupo_112152" data-name="Grupo 112152" transform="translate(57.965 84.895)" opacity="0.5" style="mix-blend-mode: multiply;isolation: isolate">
              <g id="Grupo_112151" data-name="Grupo 112151">
                <g id="Grupo_112150" data-name="Grupo 112150" clip-path="url(#clip-path-13)">
                  <path id="Trazado_174630" data-name="Trazado 174630" d="M57.227,43.292,58.435,64.23c0,12.9-18.185,17.2-24.071,5.66L25.991,50.44l15.214-5.45Z" transform="translate(-25.99 -43.291)" fill="#662483"/>
                </g>
              </g>
            </g>
            <path id="Trazado_174631" data-name="Trazado 174631" d="M52.34,50.854s4.075,24.787-7.7,26.937C36.368,79.3,29.591,60.928,29.591,60.928,26.8,54.014,25.657,48.2,28.519,41.641c3.034-4.574,8.991-7.07,16.314-5.571,5.886,3.28,6.26,8.536,7.508,14.784" transform="translate(33.24 30.42)" fill="#ffbb7d"/>
            <path id="Trazado_174632" data-name="Trazado 174632" d="M40.7,48.317a3.8,3.8,0,0,1-.347,1.422,1.472,1.472,0,0,1-1.139.827,1.433,1.433,0,0,1-1.137-.539,3.289,3.289,0,0,1-.588-1.154,9.982,9.982,0,0,1-.113-5.856,3.214,3.214,0,0,1,.691-1.366,1.38,1.38,0,0,1,1.4-.423c.674.231.928,1.046,1.046,1.75a20.219,20.219,0,0,1,.187,5.34" transform="translate(48.05 38.504)" fill="#ffbb7d"/>
            <path id="Trazado_174633" data-name="Trazado 174633" d="M30.909,50.679A9.157,9.157,0,0,0,27.9,44c-.2-.18-.6-.458-.832-.312a1.1,1.1,0,0,0-.288.908A13.52,13.52,0,0,0,29.5,51.258c.551.583,1.1.367,1.252.162a1.192,1.192,0,0,0,.16-.741" transform="translate(33.124 42.128)" fill="#ffbb7d"/>
            <path id="Trazado_174634" data-name="Trazado 174634" d="M51.352,40.9c.071.362-1.216,5.6-3.979,7.645-2.045,1.508-13.576,5.094-16.733,3.733-2.136-.92-3.406-4.252-3.406-4.252.652,2.19,1.511,4.7,2.613,7.481l1.619,3.4a1.973,1.973,0,0,0,1.5.987A6,6,0,0,0,37.444,58.8a2,2,0,0,0,.834-1.725l-.017-.463a1.752,1.752,0,0,1,3.2-1.031l.61.915a1.975,1.975,0,0,0,1.575.881c2.158.066,4.055-.379,5.251-2.215,1.427-1.978,2.32-6.221,3.226-10.414Z" transform="translate(33.793 38.108)" fill="#3a144a"/>
            <path id="Trazado_174635" data-name="Trazado 174635" d="M38,45.929a1.146,1.146,0,0,1-.276,1.275,2.25,2.25,0,0,1-1.252.561c-.458.076-.928.079-1.385.153a4.512,4.512,0,0,1-.955.123.915.915,0,0,1-.8-.455.855.855,0,0,1,.135-.849,2.1,2.1,0,0,1,.716-.546,8.76,8.76,0,0,1,1.831-.726,2.71,2.71,0,0,1,1.093-.116,1.167,1.167,0,0,1,.893.581" transform="translate(42.612 44.581)" fill="#ffbb7d"/>
            <g id="Grupo_112155" data-name="Grupo 112155" transform="translate(59.561 69.624)" opacity="0.5" style="mix-blend-mode: multiply;isolation: isolate">
              <g id="Grupo_112154" data-name="Grupo 112154">
                <g id="Grupo_112153" data-name="Grupo 112153" clip-path="url(#clip-path-14)">
                  <path id="Trazado_174636" data-name="Trazado 174636" d="M54.027,54.144a30.35,30.35,0,0,0-15.109,0c-8.076,2.143-10.812,7.746-10.812,7.746L26.639,42.935l21.509-5.849Z" transform="translate(-26.639 -37.085)" fill="#ffbb7d"/>
                </g>
              </g>
            </g>
            <path id="Trazado_174637" data-name="Trazado 174637" d="M32.752,46.457a1.642,1.642,0,0,1,.792.335.756.756,0,0,1,.258.778,1.141,1.141,0,0,1-.753.588c-.5.189-1.019.357-1.538.5a2.8,2.8,0,0,1-1.427.111,1.07,1.07,0,0,1-.849-1.029,1.376,1.376,0,0,1,.925-.994,4.414,4.414,0,0,1,2.591-.288" transform="translate(36.711 46.112)" fill="#ffbb7d"/>
            <path id="Trazado_174638" data-name="Trazado 174638" d="M59.4,76.976s-1.5-29.538-19.09-25.576c-18.278,4.114-4.978,31.239-4.978,31.239l-10.005-9.88c2.033-9.835-2.842-22.887,3.76-31.544,2.84-3.723,6.582-6.873,12.052-6.639,5.094.217,9.127,2.911,12.451,6.489,4.535,4.877,8.128,12.355,11.167,20.943Z" transform="translate(31.009 28.856)" fill="#662483"/>
            <g id="Grupo_112158" data-name="Grupo 112158" transform="translate(101.498 105.227)" opacity="0.5" style="mix-blend-mode: multiply;isolation: isolate">
              <g id="Grupo_112157" data-name="Grupo 112157">
                <g id="Grupo_112156" data-name="Grupo 112156" clip-path="url(#clip-path-15)">
                  <path id="Trazado_174639" data-name="Trazado 174639" d="M43.682,107.193c9.39-1.7,18.625-5.549,20.869-10.667a222.188,222.188,0,0,0-8.465-40.951l-6.664-4.021c5.414,18.554,10.232,38.852-.381,51.2Z" transform="translate(-43.682 -51.554)" fill="#662483"/>
                </g>
              </g>
            </g>
            <path id="Trazado_174640" data-name="Trazado 174640" d="M50.205,46.2C62.354,46.223,79.532,59.388,96.23,71.3L93.516,86.7,53.225,69.72C40.85,65.645,39.9,52.148,50.205,46.2" transform="translate(57.029 45.846)" fill="#662483"/>
          </g>
        </g>
        <g id="Grupo_112165" data-name="Grupo 112165">
          <g id="Grupo_112164" data-name="Grupo 112164" clip-path="url(#clip-path)">
            <path id="Trazado_174642" data-name="Trazado 174642" d="M46.265,123.857a24.884,24.884,0,0,1,0,12.751,15.441,15.441,0,0,1-7.7,2.943c-5.251,4.181-10.249,7.163-14.712,7.621-7.321-.455-9.6-2.761-10.864-5.433a5.56,5.56,0,0,1,.829-4.3,67.719,67.719,0,0,1,13.354-7.847c2.4-1.895,3.472-4.668,4.151-7.695Z" transform="translate(18.747 178.053)" fill="#3a144a"/>
            <path id="Trazado_174643" data-name="Trazado 174643" d="M78.319,92.609c-9.958,18.495-20,35.205-30.331,45.5,2.707,10.943-4.274,35.83-9.961,58.852-6,6.075-12.052,1.567-18.108-2.717,2.982-24.248,6.329-46.716,11.317-61.116,5.433-14.26,7.471-39.839,25.126-59.984,9.3,2.936,16.162,10.241,21.957,19.467" transform="translate(29.096 106.838)" fill="#2d759c"/>
            <g id="Grupo_112163" data-name="Grupo 112163" transform="translate(59.828 178.694)" opacity="0.4" style="mix-blend-mode: multiply;isolation: isolate">
              <g id="Grupo_112162" data-name="Grupo 112162">
                <g id="Grupo_112161" data-name="Grupo 112161" clip-path="url(#clip-path-17)">
                  <path id="Trazado_174644" data-name="Trazado 174644" d="M77.08,117.985a144.512,144.512,0,0,1-6.009-22.633c-10.259,17.557-20.539,35.262-29.5,43.517,2.862,7.82-3.757,33.7-9.961,58.852a8.824,8.824,0,0,1-7.3,2.953c7.66-23.477,14.124-48.35,10.241-65.654,14.38-14.786,24.755-29.713,25.65-44.969-2.554-7.065-8.79-8.588-16.669-7.631,0,0,7.274-10.825,7.766-9.722,3.607,8.069,20.67,3.723,25.778,2.576Z" transform="translate(-24.314 -72.618)" fill="#2d759c"/>
                </g>
              </g>
            </g>
            <path id="Trazado_174645" data-name="Trazado 174645" d="M40.759,79.01c1.24-2.559,2.667-5.529,5.054-7.7a56.676,56.676,0,0,0,6.678-6.789c1.1-1.245,2.6,0,1.811,1.358-1.939,2.724-3.856,5.773-3.7,7.788,1.014.694,2.092.308,3.7-.207l9.619-4.186c1.511-.679,2.717,1.016,1.245,2.092l-8.713,4.924.728.906,11.268-1.585c2.414-.3,2.34,2.074,0,2.527L58.39,80.648l.025,1.041,9.961-.44c2.564-.126,2.677,1.873-.293,2.254l-9.592,1.053,7.409.551c1.91.128,1.38,1.863-1.223,1.673l-8.524-.221a29.877,29.877,0,0,1-12.262.374l-6.176,0-.5-7.249Z" transform="translate(54.357 93.5)" fill="#3a144a"/>
            <path id="Trazado_174646" data-name="Trazado 174646" d="M39.169,70.593a177.313,177.313,0,0,1-.376,23.315L65,96.464a11.156,11.156,0,0,1,2.687,7.857c-12.082,4.392-31.16,7.092-41.876,1.449-3.4-17.8-6.125-30.089-5.281-42.572.214-3.379,2-9.117,5.583-11.09C33.453,55,37.225,61.8,39.169,70.593" transform="translate(29.765 76.114)" fill="#662483"/>
          </g>
        </g>
      </g>
    </g>
    <g id="advertencia_1_" data-name="advertencia (1)" transform="translate(1230 18124.436)">
      <path id="Trazado_174648" data-name="Trazado 174648" d="M83.981,85.655,49.46,24.373a8.037,8.037,0,0,0-13.916,0L1.023,85.655A8.087,8.087,0,0,0,7.981,97.7H76.756C83.179,97.43,86.925,91.007,83.981,85.655Z" transform="translate(0)" fill="#e01650"/>
      <path id="Trazado_174649" data-name="Trazado 174649" d="M76.934,63.025l34.521,61.282H42.413L76.934,63.025Z" transform="translate(-34.432 -34.638)" fill="#fff"/>
      <g id="Grupo_112168" data-name="Grupo 112168" transform="translate(36.862 50.064)">
        <path id="Trazado_174650" data-name="Trazado 174650" d="M195.925,184.649l2.141,14.183a3.481,3.481,0,0,0,3.479,2.944h0a3.7,3.7,0,0,0,3.479-2.944l2.141-14.183a5.566,5.566,0,0,0-5.62-6.423h0A5.708,5.708,0,0,0,195.925,184.649Z" transform="translate(-195.905 -178.226)" fill="#3f4448"/>
        <circle id="Elipse_4083" data-name="Elipse 4083" cx="3.211" cy="3.211" r="3.211" transform="translate(2.429 26.493)" fill="#3f4448"/>
      </g>
    </g>
  </g>
</svg>
