<svg xmlns="http://www.w3.org/2000/svg" xmlns:xlink="http://www.w3.org/1999/xlink" width="10.338" height="11.805" viewBox="0 0 10.338 11.805">
  <defs>
    <clipPath id="clip-path">
      <rect id="Rectángulo_38599" data-name="Rectángulo 38599" width="10.338" height="11.805" fill="none"/>
    </clipPath>
  </defs>
  <g id="Grupo_150870" data-name="Grupo 150870" transform="translate(-705 -15740.176)">
    <g id="Grupo_147388" data-name="Grupo 147388" transform="translate(705 15740.176)">
      <g id="Grupo_112939" data-name="Grupo 112939" transform="translate(0 0)" clip-path="url(#clip-path)">
        <path id="Trazado_182699" data-name="Trazado 182699" d="M5.161,11.8H1.556A1.47,1.47,0,0,1,0,10.262Q0,8.12,0,5.979A1.48,1.48,0,0,1,1.555,4.432c.225,0,.3-.048.292-.287a5.9,5.9,0,0,1,.108-1.624A3.211,3.211,0,0,1,5.156,0,3.234,3.234,0,0,1,8.462,3.106c.021.358.033.718.028,1.077,0,.182.042.244.238.248a1.5,1.5,0,0,1,1.609,1.65q0,2.049,0,4.1A1.494,1.494,0,0,1,8.705,11.8H5.161m.009-7.379c.544,0,1.087-.005,1.631,0,.166,0,.241-.035.23-.22-.022-.389.021-.78-.031-1.168A1.8,1.8,0,0,0,5.146,1.461a1.793,1.793,0,0,0-1.815,1.62c-.044.369-.011.738-.032,1.106-.011.189.053.247.242.244.543-.011,1.087,0,1.631,0M5.92,8.149c0-.266.009-.533,0-.8a.7.7,0,0,0-.7-.706.678.678,0,0,0-.791.666c-.023.532-.022,1.065,0,1.6a.7.7,0,0,0,.768.7.721.721,0,0,0,.725-.721c.01-.245,0-.492,0-.737" transform="translate(0.001 0)" fill="#7142c1"/>
      </g>
    </g>
  </g>
</svg>
