<svg xmlns="http://www.w3.org/2000/svg" xmlns:xlink="http://www.w3.org/1999/xlink" width="436.485" height="64.067" viewBox="0 0 436.485 64.067">
  <defs>
    <clipPath id="clip-path">
      <rect id="Rectángulo_37493" data-name="Rectángulo 37493" width="125.824" height="36.458" fill="#8f52f5"/>
    </clipPath>
  </defs>
  <g id="Grupo_150878" data-name="Grupo 150878" transform="translate(-180 -1866.368)">
    <g id="Grupo_112933" data-name="Grupo 112933" transform="translate(132.331 -5345.68)">
      <path id="Trazado_182697" data-name="Trazado 182697" d="M15.226,2.239v46.2l398.6.06,12.4-46.27Z" transform="translate(32.443 7217.746)" fill="#7142c1"/>
      <g id="Grupo_112921" data-name="Grupo 112921" transform="translate(-244.846 -1761.049)">
        <path id="Trazado_169410" data-name="Trazado 169410" d="M.034,22.292c0-5.125.044-10.25-.034-15.373a1.851,1.851,0,0,1,1.31-2.039A58.155,58.155,0,0,1,17.954.452,61.9,61.9,0,0,1,48.088,4.218c2.887,1.131,2.887,1.131,2.887,4.308,0,9.614.022,19.227-.028,28.839a9.28,9.28,0,0,1-.643,3.284,35.079,35.079,0,0,1-8.962,12.5A67.363,67.363,0,0,1,26.153,63.9a1.388,1.388,0,0,1-1.128.084c-7.774-4.156-14.875-9.246-20.4-16.464A27.169,27.169,0,0,1,.3,39.63a5.033,5.033,0,0,1-.258-1.561C.027,32.81.034,27.551.034,22.292" transform="translate(678.021 8973.097)" fill="#79f5ed"/>
        <path id="Trazado_169411" data-name="Trazado 169411" d="M10.115,21.875c0-1.51.01-3.012,0-4.513A10.865,10.865,0,0,1,13.59,9.016c3.286-3.1,7.1-3.847,11.128-2.082,4.075,1.783,6.334,5.158,6.59,9.848.09,1.674.015,3.356.015,5.056a1.693,1.693,0,0,0,.338.109c2,.148,2.668.858,2.673,2.933q.015,6.754,0,13.51c-.005,1.755-.851,2.634-2.509,2.636q-11.125.008-22.248,0c-1.63,0-2.493-.923-2.5-2.665q-.01-6.754,0-13.51c0-1.988.721-2.759,2.634-2.9a3.868,3.868,0,0,0,.4-.077m16.656.042c0-1.672.025-3.286-.005-4.9a6.228,6.228,0,0,0-5.488-6.152,5.961,5.961,0,0,0-6.46,5.069,45.871,45.871,0,0,0-.049,5.983Zm-6.1,15.934c.65,0,1.3.011,1.952,0,1.007-.019,1.262-.38.977-1.4-.427-1.528-.858-3.056-1.312-4.575a.879.879,0,0,1,.276-1.092,3.21,3.21,0,0,0,.327-4.664,2.935,2.935,0,0,0-4.369.014,3.209,3.209,0,0,0,.354,4.664.807.807,0,0,1,.288,1c-.484,1.6-.933,3.209-1.376,4.821-.221.8.054,1.192.848,1.22.677.025,1.356.005,2.034.007" transform="translate(682.801 8977.645)" fill="#500c75"/>
      </g>
      <g id="Grupo_112924" data-name="Grupo 112924" transform="translate(47.669 7223.901)" opacity="0.49">
        <g id="Grupo_112079" data-name="Grupo 112079">
          <g id="Grupo_112078" data-name="Grupo 112078" clip-path="url(#clip-path)">
            <path id="Trazado_169409" data-name="Trazado 169409" d="M147.967,10.9a3.108,3.108,0,0,1-1.456-.374L117.4,40.662H25.381V38.585H63.264L79.95,21.314h30.011v2.077H80.783L66.1,38.585h50.463L145.091,9.061a3.423,3.423,0,0,1-.362-1.509,3.24,3.24,0,1,1,6.475,0,3.294,3.294,0,0,1-3.238,3.35" transform="translate(-25.382 -4.203)" fill="#8f52f5"/>
          </g>
        </g>
      </g>
    </g>
    <path id="Trazado_224575" data-name="Trazado 224575" d="M4.689,14.658V19H1.6V6.2H6.711a5.948,5.948,0,0,1,2.6.541,4.074,4.074,0,0,1,1.749,1.538,4.2,4.2,0,0,1,.62,2.263,3.7,3.7,0,0,1-1.34,2.993,5.561,5.561,0,0,1-3.678,1.121Zm0-2.382H6.711a1.906,1.906,0,0,0,1.367-.448,1.665,1.665,0,0,0,.47-1.266A2.059,2.059,0,0,0,8.064,9.13a1.712,1.712,0,0,0-1.318-.545H4.689Zm14.247-.105-.976-.07a1.752,1.752,0,0,0-1.793.879V19H13.206V9.49h2.777l.1,1.222a2.294,2.294,0,0,1,2.083-1.4,2.888,2.888,0,0,1,.826.105Zm.378,1.986a5.613,5.613,0,0,1,.554-2.536,3.96,3.96,0,0,1,1.591-1.709,4.791,4.791,0,0,1,2.435-.6,4.373,4.373,0,0,1,3.366,1.323,5.076,5.076,0,0,1,1.23,3.6v.105a4.925,4.925,0,0,1-1.235,3.529,4.384,4.384,0,0,1-3.344,1.305,4.434,4.434,0,0,1-3.261-1.217,4.761,4.761,0,0,1-1.327-3.3Zm2.962.185a3.538,3.538,0,0,0,.413,1.934,1.376,1.376,0,0,0,1.222.615q1.582,0,1.617-2.435v-.3q0-2.558-1.635-2.558-1.485,0-1.608,2.206Zm16.348-.018a5.8,5.8,0,0,1-.967,3.595,3.238,3.238,0,0,1-2.725,1.257,2.81,2.81,0,0,1-2.338-1.151L32.472,19H29.817V5.5h2.962v4.755a2.711,2.711,0,0,1,2.136-.94,3.239,3.239,0,0,1,2.742,1.274,5.826,5.826,0,0,1,.967,3.586Zm-2.971-.189a3.866,3.866,0,0,0-.365-1.952,1.229,1.229,0,0,0-1.121-.584,1.418,1.418,0,0,0-1.389.763v3.773a1.426,1.426,0,0,0,1.406.755,1.258,1.258,0,0,0,1.327-1.018A7.309,7.309,0,0,0,35.653,14.135ZM43.054,19H40.083V5.5h2.971Zm6.425.176a4.889,4.889,0,0,1-3.542-1.305,4.507,4.507,0,0,1-1.354-3.4v-.246a5.84,5.84,0,0,1,.541-2.575A3.955,3.955,0,0,1,46.7,9.925a4.763,4.763,0,0,1,2.461-.611,4.117,4.117,0,0,1,3.164,1.244,4.887,4.887,0,0,1,1.16,3.467v1.151H47.6a2.135,2.135,0,0,0,.694,1.257,2.066,2.066,0,0,0,1.389.457,2.662,2.662,0,0,0,2.2-.984l1.354,1.6a3.784,3.784,0,0,1-1.569,1.217A5.3,5.3,0,0,1,49.479,19.176ZM49.145,11.6q-1.3,0-1.547,1.723h2.988v-.229a1.467,1.467,0,0,0-.36-1.1A1.434,1.434,0,0,0,49.145,11.6ZM57.477,9.49l.1,1.116a3.27,3.27,0,0,1,2.716-1.292,2.407,2.407,0,0,1,2.435,1.433,3.165,3.165,0,0,1,2.795-1.433q2.892,0,2.971,3.5V19H65.519V13a1.813,1.813,0,0,0-.246-1.063,1.048,1.048,0,0,0-.9-.334,1.4,1.4,0,0,0-1.31.782l.009.123V19H60.1V13.015a1.906,1.906,0,0,0-.237-1.081,1.045,1.045,0,0,0-.905-.334,1.42,1.42,0,0,0-1.3.782V19H54.7V9.49ZM75.538,19a3.344,3.344,0,0,1-.281-.853,2.754,2.754,0,0,1-2.285,1.028,3.374,3.374,0,0,1-2.285-.813,2.588,2.588,0,0,1-.94-2.043,2.66,2.66,0,0,1,1.143-2.338,5.821,5.821,0,0,1,3.322-.791h.914v-.5q0-1.316-1.134-1.316a.927.927,0,0,0-1.055,1.042H69.975a2.655,2.655,0,0,1,1.173-2.239,4.931,4.931,0,0,1,2.993-.86,4.323,4.323,0,0,1,2.874.888A3.086,3.086,0,0,1,78.1,12.637v4.21a4.311,4.311,0,0,0,.4,2V19Zm-1.854-1.934a1.652,1.652,0,0,0,.918-.237,1.487,1.487,0,0,0,.523-.536V14.772h-.861q-1.547,0-1.547,1.389a.848.848,0,0,0,.272.655A.986.986,0,0,0,73.684,17.066Zm11.03-.738a.684.684,0,0,0-.4-.606,6.016,6.016,0,0,0-1.5-.475,6.853,6.853,0,0,1-1.828-.646,3.062,3.062,0,0,1-1.1-.971,2.319,2.319,0,0,1-.378-1.31,2.628,2.628,0,0,1,1.081-2.158,4.453,4.453,0,0,1,2.83-.848,4.934,4.934,0,0,1,3.023.853,2.666,2.666,0,0,1,1.143,2.241H84.617q0-1.143-1.2-1.143a1.194,1.194,0,0,0-.782.259.8.8,0,0,0-.316.646.737.737,0,0,0,.387.642,3.654,3.654,0,0,0,1.235.4,10.671,10.671,0,0,1,1.49.378A2.706,2.706,0,0,1,87.57,16.24a2.491,2.491,0,0,1-1.156,2.118,5.068,5.068,0,0,1-2.993.817,5.172,5.172,0,0,1-2.18-.439,3.645,3.645,0,0,1-1.494-1.2,2.707,2.707,0,0,1-.536-1.591H81.98a1.145,1.145,0,0,0,.439.962,1.808,1.808,0,0,0,1.081.3,1.422,1.422,0,0,0,.91-.246A.787.787,0,0,0,84.714,16.328Zm17.552-2.013a5.735,5.735,0,0,1-1,3.538,3.2,3.2,0,0,1-2.694,1.323,2.742,2.742,0,0,1-2.153-.958v4.438H93.459V9.49h2.769l.088.879a2.742,2.742,0,0,1,2.241-1.055,3.224,3.224,0,0,1,2.733,1.3,5.805,5.805,0,0,1,.976,3.564ZM99.3,14.131q0-2.531-1.477-2.531a1.394,1.394,0,0,0-1.406.756V16.1a1.439,1.439,0,0,0,1.424.791q1.415,0,1.459-2.443Zm10.02-1.96-.976-.07a1.752,1.752,0,0,0-1.793.879V19h-2.962V9.49h2.777l.1,1.222a2.294,2.294,0,0,1,2.083-1.4,2.888,2.888,0,0,1,.826.105Zm.378,1.986a5.613,5.613,0,0,1,.554-2.536,3.96,3.96,0,0,1,1.591-1.709,4.791,4.791,0,0,1,2.435-.6,4.373,4.373,0,0,1,3.366,1.323,5.076,5.076,0,0,1,1.23,3.6v.105a4.925,4.925,0,0,1-1.235,3.529,4.384,4.384,0,0,1-3.344,1.305,4.434,4.434,0,0,1-3.261-1.217,4.761,4.761,0,0,1-1.327-3.3Zm2.962.185a3.538,3.538,0,0,0,.413,1.934,1.376,1.376,0,0,0,1.222.615q1.582,0,1.617-2.435v-.3q0-2.558-1.635-2.558-1.485,0-1.608,2.206ZM120.837,19V11.547h-1.38V9.49h1.38V8.734a3.286,3.286,0,0,1,.958-2.522,3.785,3.785,0,0,1,2.689-.9,5.89,5.89,0,0,1,1.389.185l.009,2.18a2.706,2.706,0,0,0-.729-.079q-1.345,0-1.345,1.16V9.49h1.854v2.057h-1.854V19Zm10.468.176a4.889,4.889,0,0,1-3.542-1.305,4.507,4.507,0,0,1-1.354-3.4v-.246a5.84,5.84,0,0,1,.541-2.575,3.955,3.955,0,0,1,1.578-1.727,4.763,4.763,0,0,1,2.461-.611,4.117,4.117,0,0,1,3.164,1.244,4.887,4.887,0,0,1,1.16,3.467v1.151h-5.889a2.135,2.135,0,0,0,.694,1.257,2.066,2.066,0,0,0,1.389.457,2.662,2.662,0,0,0,2.2-.984l1.354,1.6a3.784,3.784,0,0,1-1.569,1.217A5.3,5.3,0,0,1,131.3,19.176Zm-.334-7.576q-1.3,0-1.547,1.723h2.988v-.229a1.467,1.467,0,0,0-.36-1.1A1.434,1.434,0,0,0,130.971,11.6Zm10.512,4.729a.684.684,0,0,0-.4-.606,6.016,6.016,0,0,0-1.5-.475,6.853,6.853,0,0,1-1.828-.646,3.062,3.062,0,0,1-1.1-.971,2.319,2.319,0,0,1-.378-1.31,2.628,2.628,0,0,1,1.081-2.158,4.453,4.453,0,0,1,2.83-.848,4.934,4.934,0,0,1,3.023.853,2.666,2.666,0,0,1,1.143,2.241h-2.971q0-1.143-1.2-1.143a1.194,1.194,0,0,0-.782.259.8.8,0,0,0-.316.646.737.737,0,0,0,.387.642,3.654,3.654,0,0,0,1.235.4,10.671,10.671,0,0,1,1.49.378,2.706,2.706,0,0,1,2.145,2.646,2.491,2.491,0,0,1-1.156,2.118,5.068,5.068,0,0,1-2.993.817,5.172,5.172,0,0,1-2.18-.439,3.645,3.645,0,0,1-1.494-1.2,2.707,2.707,0,0,1-.536-1.591h2.769a1.145,1.145,0,0,0,.439.962,1.808,1.808,0,0,0,1.081.3,1.422,1.422,0,0,0,.91-.246A.787.787,0,0,0,141.482,16.328ZM148.848,19h-2.971V9.49h2.971ZM145.7,7.038A1.322,1.322,0,0,1,146.158,6a1.943,1.943,0,0,1,2.373,0,1.322,1.322,0,0,1,.457,1.037,1.322,1.322,0,0,1-.457,1.037,1.943,1.943,0,0,1-2.373,0A1.322,1.322,0,0,1,145.7,7.038Zm4.6,7.119a5.613,5.613,0,0,1,.554-2.536,3.96,3.96,0,0,1,1.591-1.709,4.791,4.791,0,0,1,2.435-.6,4.373,4.373,0,0,1,3.366,1.323,5.076,5.076,0,0,1,1.23,3.6v.105a4.925,4.925,0,0,1-1.235,3.529,4.384,4.384,0,0,1-3.344,1.305,4.434,4.434,0,0,1-3.261-1.217,4.761,4.761,0,0,1-1.327-3.3Zm2.962.185a3.538,3.538,0,0,0,.413,1.934,1.376,1.376,0,0,0,1.222.615q1.582,0,1.617-2.435v-.3q0-2.558-1.635-2.558-1.485,0-1.608,2.206ZM163.5,9.49l.1,1.116a3.225,3.225,0,0,1,2.716-1.292,2.713,2.713,0,0,1,2.219.888,4.226,4.226,0,0,1,.76,2.672V19H166.32V13a1.6,1.6,0,0,0-.29-1.059,1.342,1.342,0,0,0-1.055-.338,1.413,1.413,0,0,0-1.292.686V19h-2.962V9.49ZM176.287,19a3.344,3.344,0,0,1-.281-.853,2.754,2.754,0,0,1-2.285,1.028,3.374,3.374,0,0,1-2.285-.813,2.588,2.588,0,0,1-.94-2.043,2.66,2.66,0,0,1,1.143-2.338,5.821,5.821,0,0,1,3.322-.791h.914v-.5q0-1.316-1.134-1.316a.927.927,0,0,0-1.055,1.042h-2.962a2.655,2.655,0,0,1,1.173-2.239,4.931,4.931,0,0,1,2.993-.86,4.323,4.323,0,0,1,2.874.888,3.086,3.086,0,0,1,1.081,2.435v4.21a4.311,4.311,0,0,0,.4,2V19Zm-1.854-1.934a1.652,1.652,0,0,0,.918-.237,1.487,1.487,0,0,0,.523-.536V14.772h-.861q-1.547,0-1.547,1.389a.848.848,0,0,0,.272.655A.986.986,0,0,0,174.433,17.066ZM183.608,19h-2.971V5.5h2.971Zm6.425.176a4.889,4.889,0,0,1-3.542-1.305,4.507,4.507,0,0,1-1.354-3.4v-.246a5.84,5.84,0,0,1,.541-2.575,3.955,3.955,0,0,1,1.578-1.727,4.763,4.763,0,0,1,2.461-.611,4.117,4.117,0,0,1,3.164,1.244,4.887,4.887,0,0,1,1.16,3.467v1.151h-5.889a2.135,2.135,0,0,0,.694,1.257,2.066,2.066,0,0,0,1.389.457,2.662,2.662,0,0,0,2.2-.984l1.354,1.6a3.784,3.784,0,0,1-1.569,1.217A5.3,5.3,0,0,1,190.033,19.176ZM189.7,11.6q-1.3,0-1.547,1.723h2.988v-.229a1.467,1.467,0,0,0-.36-1.1A1.434,1.434,0,0,0,189.7,11.6Zm10.512,4.729a.684.684,0,0,0-.4-.606,6.016,6.016,0,0,0-1.5-.475,6.853,6.853,0,0,1-1.828-.646,3.062,3.062,0,0,1-1.1-.971,2.319,2.319,0,0,1-.378-1.31,2.628,2.628,0,0,1,1.081-2.158,4.453,4.453,0,0,1,2.83-.848,4.934,4.934,0,0,1,3.023.853,2.666,2.666,0,0,1,1.143,2.241h-2.971q0-1.143-1.2-1.143a1.194,1.194,0,0,0-.782.259.8.8,0,0,0-.316.646.737.737,0,0,0,.387.642,3.654,3.654,0,0,0,1.235.4,10.671,10.671,0,0,1,1.49.378,2.706,2.706,0,0,1,2.145,2.646,2.491,2.491,0,0,1-1.156,2.118,5.068,5.068,0,0,1-2.993.817,5.172,5.172,0,0,1-2.18-.439,3.645,3.645,0,0,1-1.494-1.2,2.707,2.707,0,0,1-.536-1.591h2.769a1.145,1.145,0,0,0,.439.962,1.808,1.808,0,0,0,1.081.3,1.422,1.422,0,0,0,.91-.246A.787.787,0,0,0,200.211,16.328Zm8.35-2.153a5.809,5.809,0,0,1,.976-3.56,3.211,3.211,0,0,1,2.725-1.3,2.731,2.731,0,0,1,2.145,1V5.5h2.971V19h-2.663l-.149-1.02a2.8,2.8,0,0,1-2.32,1.2,3.205,3.205,0,0,1-2.689-1.3A5.993,5.993,0,0,1,208.561,14.175Zm2.962.185q0,2.531,1.477,2.531a1.458,1.458,0,0,0,1.406-.826V12.443a1.419,1.419,0,0,0-1.389-.844q-1.371,0-1.485,2.215Zm12.138,4.816a4.889,4.889,0,0,1-3.542-1.305,4.507,4.507,0,0,1-1.354-3.4v-.246a5.84,5.84,0,0,1,.541-2.575,3.955,3.955,0,0,1,1.578-1.727,4.763,4.763,0,0,1,2.461-.611,4.117,4.117,0,0,1,3.164,1.244,4.887,4.887,0,0,1,1.16,3.467v1.151h-5.889a2.135,2.135,0,0,0,.694,1.257,2.066,2.066,0,0,0,1.389.457,2.662,2.662,0,0,0,2.2-.984l1.354,1.6a3.784,3.784,0,0,1-1.569,1.217A5.3,5.3,0,0,1,223.66,19.176Zm-.334-7.576q-1.3,0-1.547,1.723h2.988v-.229a1.467,1.467,0,0,0-.36-1.1A1.434,1.434,0,0,0,223.326,11.6Zm8.657,7.4h-2.971V5.5h2.971Zm9.545-8.473a3.107,3.107,0,0,1,2.452-1.222,2.472,2.472,0,0,1,2.123,1.046,3.981,3.981,0,0,1,.5,2.742L245.615,19h-2.892l.993-5.948a3.079,3.079,0,0,0,.018-.563.878.878,0,0,0-.967-.9,1.873,1.873,0,0,0-1.389.572L240.166,19h-2.892l2.347-13.5h2.892ZM252.646,19a2.578,2.578,0,0,1-.123-.861,2.933,2.933,0,0,1-2.329,1.037,2.866,2.866,0,0,1-2.057-.826,2.483,2.483,0,0,1-.765-1.96,2.79,2.79,0,0,1,1.292-2.377,6.091,6.091,0,0,1,3.41-.831l.967.018.105-.536.035-.466a.755.755,0,0,0-.8-.826,1.111,1.111,0,0,0-1.169,1.046l-2.9.009a2.754,2.754,0,0,1,.624-1.666,3.7,3.7,0,0,1,1.578-1.09,5.512,5.512,0,0,1,2.123-.356,4.251,4.251,0,0,1,1.894.453,2.82,2.82,0,0,1,1.217,1.187,3.031,3.031,0,0,1,.308,1.753l-.712,4.474-.044.545a2.4,2.4,0,0,0,.167,1.107l-.009.167Zm-1.652-1.916a1.865,1.865,0,0,0,1.556-.782l.29-1.529-.747-.009a1.969,1.969,0,0,0-1.2.409,1.55,1.55,0,0,0-.589,1.068.778.778,0,0,0,.136.593A.7.7,0,0,0,250.994,17.084Zm10.046-.193a1.244,1.244,0,0,0,.976-.345,1.717,1.717,0,0,0,.448-.938l2.707-.009a3.559,3.559,0,0,1-.62,1.872,3.745,3.745,0,0,1-1.529,1.279,4.521,4.521,0,0,1-2.061.426,3.57,3.57,0,0,1-2.927-1.367,4.726,4.726,0,0,1-.835-3.441l.026-.211a6.371,6.371,0,0,1,.809-2.553,4.626,4.626,0,0,1,1.709-1.718,4.433,4.433,0,0,1,2.369-.571,3.536,3.536,0,0,1,2.624,1.059,3.755,3.755,0,0,1,.927,2.764l-2.707-.009q.044-1.5-1.081-1.529-1.529-.053-1.758,2.567l-.079.893-.009.333Q260.029,16.864,261.04,16.891Zm9.167-1.4-1.055.914L268.7,19h-2.892l2.347-13.509h2.892L269.715,12.7l.352-.422,2.628-2.786h3.665l-4.043,4.043L274.769,19H271.6ZM278.478,19h-2.9l1.652-9.51h2.9Zm-.993-11.909a1.341,1.341,0,0,1,.453-1.072,1.625,1.625,0,0,1,1.138-.431,1.678,1.678,0,0,1,1.129.387,1.318,1.318,0,0,1,.47,1.011,1.344,1.344,0,0,1-.448,1.077,1.63,1.63,0,0,1-1.143.426,1.7,1.7,0,0,1-1.121-.382A1.3,1.3,0,0,1,277.484,7.091ZM284.6,9.481l-.2,1.143a3.38,3.38,0,0,1,2.751-1.318,2.27,2.27,0,0,1,1.964.98,4.1,4.1,0,0,1,.47,2.729l-1,5.985h-2.9l1.011-6.01a3.108,3.108,0,0,0,.018-.563q-.062-.836-.984-.836a1.807,1.807,0,0,0-1.4.678L283.145,19h-2.892l1.652-9.51Zm6.135,4.746a7.226,7.226,0,0,1,.787-2.593,4.564,4.564,0,0,1,1.551-1.753,3.735,3.735,0,0,1,2.109-.576,2.6,2.6,0,0,1,2.162,1.028l.308-.853,2.672.009-1.556,9.141a4.467,4.467,0,0,1-1.7,3.05,5.4,5.4,0,0,1-3.568,1.063,5.1,5.1,0,0,1-1.837-.378,3.957,3.957,0,0,1-1.521-1.09l1.371-1.705a2.489,2.489,0,0,0,1.986.993,2.324,2.324,0,0,0,2.443-2.048l.07-.29a2.973,2.973,0,0,1-2.171.949,2.932,2.932,0,0,1-1.608-.461,3.034,3.034,0,0,1-1.09-1.305,5.076,5.076,0,0,1-.448-1.9A8.253,8.253,0,0,1,290.738,14.228Zm2.856.94a2.306,2.306,0,0,0,.29,1.257.984.984,0,0,0,.844.466,1.933,1.933,0,0,0,1.485-.633l.747-4.034a1.281,1.281,0,0,0-1.178-.633,1.683,1.683,0,0,0-1.415.716,3.861,3.861,0,0,0-.721,1.929Q293.595,14.79,293.595,15.168Zm16.813,4.008a4.889,4.889,0,0,1-3.542-1.305,4.507,4.507,0,0,1-1.354-3.4v-.246a5.84,5.84,0,0,1,.541-2.575,3.955,3.955,0,0,1,1.578-1.727,4.763,4.763,0,0,1,2.461-.611,4.117,4.117,0,0,1,3.164,1.244,4.887,4.887,0,0,1,1.16,3.467v1.151h-5.889a2.135,2.135,0,0,0,.694,1.257,2.066,2.066,0,0,0,1.389.457,2.662,2.662,0,0,0,2.2-.984l1.354,1.6a3.784,3.784,0,0,1-1.569,1.217A5.3,5.3,0,0,1,310.408,19.176Zm-.334-7.576q-1.3,0-1.547,1.723h2.988v-.229a1.467,1.467,0,0,0-.36-1.1A1.434,1.434,0,0,0,310.074,11.6Zm-.035-6.108h3.129l-2.443,2.76-2.417,0Zm9.018,1.635V9.49h1.564v2.057h-1.564V15.9a1.111,1.111,0,0,0,.193.747,1.037,1.037,0,0,0,.765.211,4.345,4.345,0,0,0,.738-.053v2.118a5.466,5.466,0,0,1-1.67.255,3.1,3.1,0,0,1-2.259-.721,2.954,2.954,0,0,1-.729-2.188v-4.72h-1.213V9.49h1.213V7.126ZM324.91,19h-2.971V9.49h2.971ZM321.764,7.038A1.322,1.322,0,0,1,322.221,6a1.943,1.943,0,0,1,2.373,0,1.322,1.322,0,0,1,.457,1.037,1.322,1.322,0,0,1-.457,1.037,1.943,1.943,0,0,1-2.373,0A1.322,1.322,0,0,1,321.764,7.038Zm8.991,9.853a1.317,1.317,0,0,0,.967-.338,1.241,1.241,0,0,0,.334-.945h2.777a3.288,3.288,0,0,1-1.121,2.566,4.168,4.168,0,0,1-2.887,1,4.22,4.22,0,0,1-3.27-1.3,5.125,5.125,0,0,1-1.2-3.6v-.123a5.792,5.792,0,0,1,.532-2.544,3.872,3.872,0,0,1,1.534-1.7,4.573,4.573,0,0,1,2.373-.593,4.116,4.116,0,0,1,2.944,1.028,3.647,3.647,0,0,1,1.09,2.786h-2.777A1.626,1.626,0,0,0,331.7,12a1.244,1.244,0,0,0-.967-.4q-1.151,0-1.345,1.468a10.357,10.357,0,0,0-.062,1.283,4.068,4.068,0,0,0,.343,1.986A1.187,1.187,0,0,0,330.755,16.891Zm4.957-2.733a5.613,5.613,0,0,1,.554-2.536,3.96,3.96,0,0,1,1.591-1.709,4.791,4.791,0,0,1,2.435-.6,4.373,4.373,0,0,1,3.366,1.323,5.076,5.076,0,0,1,1.23,3.6v.105a4.925,4.925,0,0,1-1.235,3.529,4.384,4.384,0,0,1-3.344,1.305,4.434,4.434,0,0,1-3.261-1.217,4.761,4.761,0,0,1-1.327-3.3Zm2.962.185a3.538,3.538,0,0,0,.413,1.934,1.376,1.376,0,0,0,1.222.615q1.582,0,1.617-2.435v-.3q0-2.558-1.635-2.558-1.485,0-1.608,2.206Z" transform="translate(203 1885.437)" fill="#fff"/>
  </g>
</svg>
