<svg xmlns="http://www.w3.org/2000/svg" width="119.931" height="119.93" viewBox="0 0 119.931 119.93">
  <g id="Grupo_150875" data-name="Grupo 150875" transform="translate(-387.5 -8109.547)">
    <path id="Trazado_219453" data-name="Trazado 219453" d="M117.431,202.843a52.8,52.8,0,1,0-52.8,52.8,52.8,52.8,0,0,0,52.8-52.8" transform="translate(387.5 7962)" fill="#fff"/>
    <path id="Trazado_219454" data-name="Trazado 219454" d="M117.431,202.843a52.8,52.8,0,1,0-52.8,52.8A52.8,52.8,0,0,0,117.431,202.843Z" transform="translate(387.5 7962)" fill="none" stroke="#5c379b" stroke-miterlimit="10" stroke-width="1"/>
    <path id="Trazado_219455" data-name="Trazado 219455" d="M105.342,236.466a52.815,52.815,0,0,0-59.281-83.06" transform="translate(387.5 7962)" fill="none" stroke="#a7f" stroke-miterlimit="10" stroke-width="5"/>
    <path id="Trazado_219456" data-name="Trazado 219456" d="M5.853,182.657A62.187,62.187,0,0,0,75.2,264.083" transform="translate(387.5 7962)" fill="none" stroke="#5c379b" stroke-miterlimit="10" stroke-width="5"/>
    <g id="latido-del-corazon" transform="translate(415.416 8134.653)">
      <g id="Grupo_149802" data-name="Grupo 149802" transform="translate(48.144 42.213)">
        <g id="Grupo_149801" data-name="Grupo 149801" transform="translate(0 0)">
          <path id="Trazado_219432" data-name="Trazado 219432" d="M338.2,341.668a1.434,1.434,0,0,0-2.028.021l-.041.042a1.434,1.434,0,0,0,2.049,2.007l.041-.042A1.434,1.434,0,0,0,338.2,341.668Z" transform="translate(-335.718 -341.258)" fill="#500c75"/>
        </g>
      </g>
      <g id="Grupo_149804" data-name="Grupo 149804" transform="translate(54.126 22.343)">
        <g id="Grupo_149803" data-name="Grupo 149803">
          <path id="Trazado_219433" data-name="Trazado 219433" d="M389.35,207.947h-3.811v-3.811a1.434,1.434,0,1,0-2.868,0v3.811H378.86a1.434,1.434,0,1,0,0,2.868h3.811v3.811a1.434,1.434,0,1,0,2.868,0v-3.811h3.811a1.434,1.434,0,0,0,0-2.868Z" transform="translate(-377.426 -202.702)" fill="#500c75"/>
        </g>
      </g>
      <g id="Grupo_149806" data-name="Grupo 149806" transform="translate(0 0)">
        <g id="Grupo_149805" data-name="Grupo 149805">
          <path id="Trazado_219434" data-name="Trazado 219434" d="M65.493,64.205A19.765,19.765,0,0,0,46.055,46.9,19.167,19.167,0,0,0,32.84,52.135,19.168,19.168,0,0,0,19.625,46.9,19.886,19.886,0,0,0,0,66.992a17.587,17.587,0,0,0,1.909,7.351H1.434a1.434,1.434,0,1,0,0,2.868h2q4.018,6.8,12.69,15.434a184.85,184.85,0,0,0,15.843,13.932,1.434,1.434,0,0,0,1.742,0c.061-.046,6.131-4.7,12.858-11.043A1.434,1.434,0,0,0,44.6,93.447c-5.13,4.837-9.867,8.672-11.761,10.17A183.833,183.833,0,0,1,18.128,90.591,85.3,85.3,0,0,1,6.806,77.211H19.645a1.434,1.434,0,0,0,1.378-1.039l2.506-8.734,6.939,22.231a1.434,1.434,0,0,0,2.738,0l3.843-12.315h6.4a1.434,1.434,0,1,0,0-2.868H35.993a1.434,1.434,0,0,0-1.369,1.007l-2.788,8.935-7-22.415a1.434,1.434,0,0,0-2.748.032l-3.528,12.3H5.109a16.308,16.308,0,0,1-2.241-7.351A17.015,17.015,0,0,1,19.625,49.767a16.4,16.4,0,0,1,12.161,5.375,1.434,1.434,0,0,0,2.108,0,16.4,16.4,0,0,1,12.161-5.375,16.861,16.861,0,0,1,16.4,13.642,12.624,12.624,0,1,0,3.043.8ZM60.8,85.673a9.752,9.752,0,1,1,9.752-9.752A9.763,9.763,0,0,1,60.8,85.673Z" transform="translate(0 -46.899)" fill="#500c75"/>
        </g>
      </g>
    </g>
  </g>
</svg>
