<svg xmlns="http://www.w3.org/2000/svg" xmlns:xlink="http://www.w3.org/1999/xlink" width="206.622" height="371.115" viewBox="0 0 206.622 371.115">
  <defs>
    <clipPath id="clip-path">
      <rect id="Rectángulo_37581" data-name="Rectángulo 37581" width="206.622" height="371.115" fill="none"/>
    </clipPath>
    <clipPath id="clip-path-2">
      <rect id="Rectángulo_37574" data-name="Rectángulo 37574" width="206.623" height="371.115" fill="none"/>
    </clipPath>
    <clipPath id="clip-path-3">
      <rect id="Rectángulo_37566" data-name="Rectángulo 37566" width="116.12" height="310.338" fill="none"/>
    </clipPath>
    <clipPath id="clip-path-4">
      <rect id="Rectángulo_37567" data-name="Rectángulo 37567" width="78.963" height="232.568" fill="none"/>
    </clipPath>
    <clipPath id="clip-path-5">
      <rect id="Rectángulo_37568" data-name="Rectángulo 37568" width="1.873" height="10.982" fill="none"/>
    </clipPath>
    <clipPath id="clip-path-10">
      <rect id="Rectángulo_37573" data-name="Rectángulo 37573" width="4.868" height="6.363" fill="none"/>
    </clipPath>
    <clipPath id="clip-path-11">
      <path id="Trazado_174641" data-name="Trazado 174641" d="M2.434,256.094l8.49,4.956,1.257.708,9.983,5.9,100.475,58.629V79.031L65.265,45.516,2.434,8.791Z" transform="translate(-2.434 -8.791)" fill="none"/>
    </clipPath>
    <clipPath id="clip-path-12">
      <rect id="Rectángulo_37575" data-name="Rectángulo 37575" width="55.804" height="49.793" fill="none"/>
    </clipPath>
    <clipPath id="clip-path-13">
      <rect id="Rectángulo_37576" data-name="Rectángulo 37576" width="36.584" height="38.008" fill="none"/>
    </clipPath>
    <clipPath id="clip-path-14">
      <rect id="Rectángulo_37577" data-name="Rectángulo 37577" width="30.881" height="28.305" fill="none"/>
    </clipPath>
    <clipPath id="clip-path-15">
      <rect id="Rectángulo_37578" data-name="Rectángulo 37578" width="23.532" height="63.489" fill="none"/>
    </clipPath>
    <clipPath id="clip-path-17">
      <rect id="Rectángulo_37579" data-name="Rectángulo 37579" width="59.497" height="146.149" fill="none"/>
    </clipPath>
  </defs>
  <g id="Grupo_150871" data-name="Grupo 150871" transform="translate(-288.378 -3402.639)">
    <g id="Grupo_112171" data-name="Grupo 112171" transform="translate(262.378 3402.639)">
      <g id="Grupo_112166" data-name="Grupo 112166" transform="translate(26)" clip-path="url(#clip-path)">
        <g id="Grupo_112146" data-name="Grupo 112146">
          <g id="Grupo_112145" data-name="Grupo 112145" clip-path="url(#clip-path-2)">
            <path id="Trazado_174606" data-name="Trazado 174606" d="M9.258.753,132.074,72.509a12.212,12.212,0,0,1,5.447,9.544L137.515,356.9a3.881,3.881,0,0,1-1.6,3.566,3.784,3.784,0,0,1-3.848-.385L9.256,288.327a12.213,12.213,0,0,1-5.447-9.547l0-274.846C3.812.421,6.251-1.005,9.258.753" transform="translate(6.76 0)" fill="#878787"/>
            <path id="Trazado_174607" data-name="Trazado 174607" d="M130.967,366.463l10.569-6.175L11.17.1.646,6.266Z" transform="translate(1.146 0.18)" fill="#878787"/>
            <path id="Trazado_174608" data-name="Trazado 174608" d="M5.449,2.952,128.265,74.708a12.212,12.212,0,0,1,5.447,9.544l0,274.849a3.887,3.887,0,0,1-1.6,3.566,3.788,3.788,0,0,1-3.851-.385L5.447,290.526A12.213,12.213,0,0,1,0,280.979L0,6.133C0,2.62,2.442,1.194,5.449,2.952" transform="translate(0 3.975)" fill="#3c3c3b"/>
            <path id="Trazado_174609" data-name="Trazado 174609" d="M2.434,8.791v247.3l8.49,4.956,1.257.708,9.983,5.9,100.472,58.629V79.031L65.265,45.516Z" transform="translate(4.32 15.893)" fill="#64d2d6"/>
            <g id="Grupo_112123" data-name="Grupo 112123" transform="translate(8.796 28.264)" opacity="0.4">
              <g id="Grupo_112122" data-name="Grupo 112122">
                <g id="Grupo_112121" data-name="Grupo 112121" clip-path="url(#clip-path-3)">
                  <path id="Trazado_174610" data-name="Trazado 174610" d="M3.17,10.066l20.527,12,95.594,266.36V320.4L92.4,304.713,3.17,45.774Z" transform="translate(-3.17 -10.066)" fill="#fff"/>
                </g>
              </g>
            </g>
            <g id="Grupo_112126" data-name="Grupo 112126" transform="translate(8.796 84.352)" opacity="0.4">
              <g id="Grupo_112125" data-name="Grupo 112125">
                <g id="Grupo_112124" data-name="Grupo 112124" clip-path="url(#clip-path-4)">
                  <path id="Trazado_174611" data-name="Trazado 174611" d="M3.17,30.041,82.133,262.608,70.2,255.645,3.17,55.571Z" transform="translate(-3.17 -30.041)" fill="#fff"/>
                </g>
              </g>
            </g>
            <path id="Trazado_174612" data-name="Trazado 174612" d="M20.066,107.957,50.4,125.68a5.048,5.048,0,0,1,2.247,3.939v9.19c0,1.452-1.007,2.038-2.247,1.314L20.066,122.4a5.048,5.048,0,0,1-2.247-3.939v-9.19c0-1.452,1.007-2.039,2.247-1.314" transform="translate(31.622 194.614)" fill="#878787"/>
            <path id="Trazado_174613" data-name="Trazado 174613" d="M49.685,126.049a2.524,2.524,0,0,1,1.124,1.971v9.19c0,.722-.5,1.016-1.124.654L19.348,120.141a2.523,2.523,0,0,1-1.124-1.968v-9.193c0-.724.5-1.016,1.124-.654Z" transform="translate(32.341 195.56)" fill="#1d1d1b"/>
            <path id="Trazado_174614" data-name="Trazado 174614" d="M26.592,18.986c0-.6.419-.851.938-.548a2.1,2.1,0,0,1,.935,1.64v8.536c0,.6-.419.848-.938.548a2.1,2.1,0,0,1-.935-1.643Z" transform="translate(47.191 33.101)" fill="#273340"/>
            <path id="Trazado_174615" data-name="Trazado 174615" d="M25.175,18.167c0-.6.419-.848.935-.548a2.1,2.1,0,0,1,.938,1.643V27.8c0,.6-.419.848-.938.548a2.106,2.106,0,0,1-.935-1.643Z" transform="translate(44.676 31.622)" fill="#273340"/>
            <path id="Trazado_174616" data-name="Trazado 174616" d="M23.757,17.35c0-.6.419-.851.935-.548a2.1,2.1,0,0,1,.938,1.643v8.533c0,.6-.419.848-.938.548a2.1,2.1,0,0,1-.935-1.643Z" transform="translate(42.16 30.143)" fill="#273340"/>
            <path id="Trazado_174617" data-name="Trazado 174617" d="M22.34,16.531c0-.6.419-.851.935-.548a2.1,2.1,0,0,1,.938,1.643v8.533c0,.6-.419.848-.938.548a2.106,2.106,0,0,1-.935-1.643Z" transform="translate(39.645 28.662)" fill="#273340"/>
            <path id="Trazado_174618" data-name="Trazado 174618" d="M20.923,15.712c0-.6.419-.848.935-.548a2.1,2.1,0,0,1,.938,1.643v8.533c0,.6-.419.851-.938.548a2.1,2.1,0,0,1-.935-1.64Z" transform="translate(37.13 27.184)" fill="#273340"/>
            <g id="Grupo_112129" data-name="Grupo 112129" transform="translate(73.782 51.41)" opacity="0.5">
              <g id="Grupo_112128" data-name="Grupo 112128">
                <g id="Grupo_112127" data-name="Grupo 112127" clip-path="url(#clip-path-5)">
                  <path id="Trazado_174619" data-name="Trazado 174619" d="M26.592,18.986c0-.6.419-.851.938-.548a2.1,2.1,0,0,1,.935,1.64v8.536c0,.6-.419.848-.938.548a2.1,2.1,0,0,1-.935-1.643Z" transform="translate(-26.592 -18.309)"/>
                </g>
              </g>
            </g>
            <g id="Grupo_112132" data-name="Grupo 112132" transform="translate(69.85 49.113)" opacity="0.5">
              <g id="Grupo_112131" data-name="Grupo 112131">
                <g id="Grupo_112130" data-name="Grupo 112130" clip-path="url(#clip-path-5)">
                  <path id="Trazado_174620" data-name="Trazado 174620" d="M25.175,18.167c0-.6.419-.848.935-.548a2.1,2.1,0,0,1,.938,1.643V27.8c0,.6-.419.848-.938.548a2.106,2.106,0,0,1-.935-1.643Z" transform="translate(-25.174 -17.491)"/>
                </g>
              </g>
            </g>
            <g id="Grupo_112135" data-name="Grupo 112135" transform="translate(65.917 46.816)" opacity="0.5">
              <g id="Grupo_112134" data-name="Grupo 112134">
                <g id="Grupo_112133" data-name="Grupo 112133" clip-path="url(#clip-path-5)">
                  <path id="Trazado_174621" data-name="Trazado 174621" d="M23.757,17.35c0-.6.419-.851.935-.548a2.1,2.1,0,0,1,.938,1.643v8.533c0,.6-.419.848-.938.548a2.1,2.1,0,0,1-.935-1.643Z" transform="translate(-23.758 -16.673)"/>
                </g>
              </g>
            </g>
            <g id="Grupo_112138" data-name="Grupo 112138" transform="translate(61.985 44.516)" opacity="0.5">
              <g id="Grupo_112137" data-name="Grupo 112137">
                <g id="Grupo_112136" data-name="Grupo 112136" clip-path="url(#clip-path-5)">
                  <path id="Trazado_174622" data-name="Trazado 174622" d="M22.34,16.531c0-.6.419-.851.935-.548a2.1,2.1,0,0,1,.938,1.643v8.533c0,.6-.419.848-.938.548a2.106,2.106,0,0,1-.935-1.643Z" transform="translate(-22.34 -15.854)"/>
                </g>
              </g>
            </g>
            <g id="Grupo_112141" data-name="Grupo 112141" transform="translate(58.053 42.22)" opacity="0.5">
              <g id="Grupo_112140" data-name="Grupo 112140">
                <g id="Grupo_112139" data-name="Grupo 112139" clip-path="url(#clip-path-5)">
                  <path id="Trazado_174623" data-name="Trazado 174623" d="M20.923,15.712c0-.6.419-.848.935-.548a2.1,2.1,0,0,1,.938,1.643v8.533c0,.6-.419.851-.938.548a2.1,2.1,0,0,1-.935-1.64Z" transform="translate(-20.922 -15.036)"/>
                </g>
              </g>
            </g>
            <path id="Trazado_174624" data-name="Trazado 174624" d="M39.28,28.527c0-1.57,1.09-2.207,2.433-1.424a5.462,5.462,0,0,1,2.436,4.268c0,1.572-1.09,2.207-2.436,1.424a5.462,5.462,0,0,1-2.433-4.268" transform="translate(69.707 48.395)" fill="#878787"/>
            <g id="Grupo_112144" data-name="Grupo 112144" transform="translate(91.199 64.77)" opacity="0.5">
              <g id="Grupo_112143" data-name="Grupo 112143">
                <g id="Grupo_112142" data-name="Grupo 112142" clip-path="url(#clip-path-10)">
                  <path id="Trazado_174625" data-name="Trazado 174625" d="M32.869,24.826c0-1.57,1.09-2.207,2.433-1.424a5.462,5.462,0,0,1,2.436,4.268c0,1.572-1.09,2.207-2.436,1.424a5.467,5.467,0,0,1-2.433-4.268" transform="translate(-32.869 -23.066)"/>
                </g>
              </g>
            </g>
          </g>
        </g>
        <g id="Grupo_112160" data-name="Grupo 112160" transform="translate(6.753 24.684)">
          <g id="Grupo_112159" data-name="Grupo 112159" clip-path="url(#clip-path-11)">
            <path id="Trazado_174626" data-name="Trazado 174626" d="M64.97,62.368,54.759,42.314,37.251,36.76,26.175,53.29v20.8S39.6,88.42,39.846,88.291s18.5-5.554,18.5-5.554Z" transform="translate(39.697 41.774)" fill="#3a144a"/>
            <path id="Trazado_174627" data-name="Trazado 174627" d="M82.341,69.37c4.642,7.393,7.669,20.012,7.8,29.48,4.609,16.185,6.29,29.34,6.185,42.585,12.1,1.85,22.649,15.578,32.671,33.406,3.976,7.525-5.189,16.7-13.868,14.9L80.671,156.589c-12.7-13.823-18.34-32.369-22.119-52.157-5.732-2.423-10.349-7.814-14.292-15l-9.531-9.474c17.064,1.893,33.1-.9,47.612-10.589" transform="translate(54.877 100.73)" fill="#2d759c"/>
            <path id="Trazado_174628" data-name="Trazado 174628" d="M22.708,63.657c3.166,7.666,6.443,15.373,9.894,22.719,6.851,14.567,14.434,27.722,23.459,36.348,2.766,4.288,13.9,4.889,24.838,2.873a68.442,68.442,0,0,0,7.505-1.808c7.647-2.336,14.109-5.93,16.029-10.364A256.19,256.19,0,0,0,94.887,66.7a166.108,166.108,0,0,0-7.514-19.63c-17.7-4.248-49.105,1.612-64.665,16.592" transform="translate(33.545 57.967)" fill="#662483"/>
            <g id="Grupo_112149" data-name="Grupo 112149" transform="translate(66.146 134.88)" opacity="0.5" style="mix-blend-mode: multiply;isolation: isolate">
              <g id="Grupo_112148" data-name="Grupo 112148">
                <g id="Grupo_112147" data-name="Grupo 112147" clip-path="url(#clip-path-12)">
                  <path id="Trazado_174629" data-name="Trazado 174629" d="M26.274,66.29c6.851,14.567,14.436,27.72,23.462,36.348,2.766,4.288,13.9,4.886,24.838,2.87a67.748,67.748,0,0,0,7.5-1.805C55.566,95.59,36.82,80.784,26.765,56.827Z" transform="translate(-26.273 -56.826)" fill="#662483"/>
                </g>
              </g>
            </g>
            <g id="Grupo_112152" data-name="Grupo 112152" transform="translate(65.36 96.874)" opacity="0.5" style="mix-blend-mode: multiply;isolation: isolate">
              <g id="Grupo_112151" data-name="Grupo 112151">
                <g id="Grupo_112150" data-name="Grupo 112150" clip-path="url(#clip-path-13)">
                  <path id="Trazado_174630" data-name="Trazado 174630" d="M61.212,43.292l1.362,23.892c0,14.722-20.5,19.63-27.141,6.458L25.991,51.449l17.155-6.219Z" transform="translate(-25.99 -43.291)" fill="#662483"/>
                </g>
              </g>
            </g>
            <path id="Trazado_174631" data-name="Trazado 174631" d="M55.592,53s4.595,28.284-8.679,30.738C37.582,85.464,29.94,64.5,29.94,64.5c-3.144-7.89-4.437-14.522-1.21-22.008,3.421-5.22,10.138-8.067,18.4-6.357,6.637,3.743,7.059,9.741,8.465,16.87" transform="translate(40.907 39.74)" fill="#ffbb7d"/>
            <path id="Trazado_174632" data-name="Trazado 174632" d="M41.178,49.325a4.379,4.379,0,0,1-.391,1.623,1.661,1.661,0,0,1-1.285.943,1.609,1.609,0,0,1-1.282-.615,3.769,3.769,0,0,1-.663-1.317,11.521,11.521,0,0,1-.128-6.683,3.684,3.684,0,0,1,.78-1.558,1.545,1.545,0,0,1,1.579-.483c.76.264,1.046,1.193,1.179,2a23.345,23.345,0,0,1,.211,6.093" transform="translate(58.9 49.746)" fill="#ffbb7d"/>
            <path id="Trazado_174633" data-name="Trazado 174633" d="M31.436,51.671a10.5,10.5,0,0,0-3.388-7.618c-.228-.2-.68-.522-.938-.357a1.268,1.268,0,0,0-.325,1.036,15.528,15.528,0,0,0,3.058,7.6c.622.665,1.237.418,1.412.185a1.373,1.373,0,0,0,.18-.845" transform="translate(40.765 54.232)" fill="#ffbb7d"/>
            <path id="Trazado_174634" data-name="Trazado 174634" d="M54.429,40.9c.08.413-1.371,6.391-4.487,8.724-2.306,1.721-15.308,5.812-18.867,4.26-2.408-1.05-3.84-4.852-3.84-4.852.735,2.5,1.7,5.357,2.947,8.536l1.826,3.875a2.224,2.224,0,0,0,1.687,1.126,6.7,6.7,0,0,0,5.053-1.238,2.286,2.286,0,0,0,.941-1.968l-.019-.528a1.978,1.978,0,0,1,1.54-2.008,1.953,1.953,0,0,1,2.073.831l.688,1.045a2.221,2.221,0,0,0,1.776,1.005c2.433.076,4.573-.432,5.921-2.527,1.609-2.258,2.616-7.1,3.638-11.883Z" transform="translate(41.578 49.255)" fill="#3a144a"/>
            <path id="Trazado_174635" data-name="Trazado 174635" d="M38.606,46.013a1.318,1.318,0,0,1-.311,1.454,2.523,2.523,0,0,1-1.412.64c-.516.087-1.046.09-1.562.174a5.031,5.031,0,0,1-1.077.14,1.029,1.029,0,0,1-.9-.519.986.986,0,0,1,.153-.969,2.367,2.367,0,0,1,.807-.623,9.809,9.809,0,0,1,2.064-.828A3.021,3.021,0,0,1,37.6,45.35a1.315,1.315,0,0,1,1.007.663" transform="translate(52.293 57.267)" fill="#ffbb7d"/>
            <g id="Grupo_112155" data-name="Grupo 112155" transform="translate(67.16 79.448)" opacity="0.5" style="mix-blend-mode: multiply;isolation: isolate">
              <g id="Grupo_112154" data-name="Grupo 112154">
                <g id="Grupo_112153" data-name="Grupo 112153" clip-path="url(#clip-path-14)">
                  <path id="Trazado_174636" data-name="Trazado 174636" d="M57.521,56.55a33.831,33.831,0,0,0-17.036,0C31.378,59,28.293,65.39,28.293,65.39L26.639,43.76l24.253-6.674Z" transform="translate(-26.639 -37.084)" fill="#ffbb7d"/>
                </g>
              </g>
            </g>
            <path id="Trazado_174637" data-name="Trazado 174637" d="M33.2,46.468a1.841,1.841,0,0,1,.893.382.869.869,0,0,1,.291.887,1.289,1.289,0,0,1-.849.671c-.569.216-1.149.407-1.734.57a3.123,3.123,0,0,1-1.609.126,1.217,1.217,0,0,1-.957-1.174A1.563,1.563,0,0,1,30.279,46.8a4.923,4.923,0,0,1,2.922-.329" transform="translate(45.124 59.163)" fill="#ffbb7d"/>
            <path id="Trazado_174638" data-name="Trazado 174638" d="M63.749,82.961S62.062,49.255,42.224,53.776c-20.61,4.695-5.613,35.646-5.613,35.646L25.329,78.148c2.292-11.223-3.2-26.116,4.24-35.995,3.2-4.248,7.422-7.842,13.59-7.576,5.743.247,10.291,3.322,14.04,7.4,5.114,5.565,9.165,14.1,12.591,23.9Z" transform="translate(38.196 37.804)" fill="#662483"/>
            <g id="Grupo_112158" data-name="Grupo 112158" transform="translate(114.447 120.074)" opacity="0.5" style="mix-blend-mode: multiply;isolation: isolate">
              <g id="Grupo_112157" data-name="Grupo 112157">
                <g id="Grupo_112156" data-name="Grupo 112156" clip-path="url(#clip-path-15)">
                  <path id="Trazado_174639" data-name="Trazado 174639" d="M43.682,115.043c10.588-1.943,21-6.332,23.532-12.172a256.193,256.193,0,0,0-9.545-46.729l-7.514-4.588c6.1,21.172,11.537,44.334-.43,58.427Z" transform="translate(-43.681 -51.554)" fill="#662483"/>
                </g>
              </g>
            </g>
            <path id="Trazado_174640" data-name="Trazado 174640" d="M51.106,46.2c13.7.031,33.068,15.053,51.9,28.652l-3.06,17.563L54.511,73.04c-13.954-4.65-15.03-20.051-3.4-26.844" transform="translate(69.809 58.834)" fill="#662483"/>
          </g>
        </g>
        <g id="Grupo_112165" data-name="Grupo 112165">
          <g id="Grupo_112164" data-name="Grupo 112164" clip-path="url(#clip-path-2)">
            <path id="Trazado_174642" data-name="Trazado 174642" d="M50.53,124.134c1.1,4.962,1.4,9.844,0,14.551a17.29,17.29,0,0,1-8.679,3.358c-5.921,4.771-11.556,8.174-16.589,8.7-8.254-.519-10.821-3.15-12.25-6.2a6.407,6.407,0,0,1,.935-4.908A76.156,76.156,0,0,1,29,130.676c2.711-2.162,3.915-5.327,4.681-8.78Z" transform="translate(22.776 220.376)" fill="#3a144a"/>
            <path id="Trazado_174643" data-name="Trazado 174643" d="M85.769,95.355c-11.229,21.1-22.549,40.173-34.2,51.918,3.052,12.487-4.82,40.886-11.232,67.157-6.762,6.933-13.59,1.789-20.418-3.1,3.363-27.669,7.136-53.308,12.76-69.74,6.126-16.272,8.424-45.46,28.332-68.448,10.483,3.35,18.224,11.687,24.758,22.213" transform="translate(35.349 132.234)" fill="#2d759c"/>
            <g id="Grupo_112163" data-name="Grupo 112163" transform="translate(67.46 203.908)" opacity="0.4" style="mix-blend-mode: multiply;isolation: isolate">
              <g id="Grupo_112162" data-name="Grupo 112162">
                <g id="Grupo_112161" data-name="Grupo 112161" clip-path="url(#clip-path-17)">
                  <path id="Trazado_174644" data-name="Trazado 174644" d="M83.812,124.387a166.484,166.484,0,0,1-6.776-25.827c-11.567,20.034-23.16,40.237-33.265,49.658,3.227,8.924-4.237,38.451-11.232,67.157a9.89,9.89,0,0,1-8.227,3.37c8.637-26.79,15.926-55.172,11.548-74.918,16.215-16.873,27.913-33.905,28.923-51.314-2.88-8.062-9.911-9.8-18.8-8.707,0,0,8.2-12.352,8.757-11.094,4.068,9.207,23.307,4.248,29.067,2.94Z" transform="translate(-24.314 -72.618)" fill="#2d759c"/>
                </g>
              </g>
            </g>
            <path id="Trazado_174645" data-name="Trazado 174645" d="M41.211,81.126c1.4-2.92,3.008-6.309,5.7-8.783,2.419-1.876,4.642-4.526,7.53-7.747,1.235-1.421,2.936,0,2.042,1.55-2.186,3.108-4.348,6.587-4.176,8.887,1.143.792,2.358.351,4.176-.236l10.846-4.776c1.7-.775,3.063,1.16,1.4,2.387l-9.825,5.619.821,1.033,12.7-1.808c2.722-.345,2.639,2.367,0,2.884L61.091,83l.028,1.188,11.232-.5c2.891-.143,3.019,2.137-.33,2.572l-10.815,1.2,8.354.629c2.153.146,1.557,2.126-1.379,1.909l-9.611-.253a33.3,33.3,0,0,1-13.826.427l-6.964.006L37.213,81.9Z" transform="translate(66.039 115.725)" fill="#3a144a"/>
            <path id="Trazado_174646" data-name="Trazado 174646" d="M41.567,73.2a204.752,204.752,0,0,1-.425,26.6l29.552,2.917a12.828,12.828,0,0,1,3.03,8.966C60.1,116.7,38.59,119.781,26.506,113.343,22.672,93.036,19.6,79.008,20.552,64.763c.241-3.855,2.25-10.4,6.3-12.655,8.274,3.3,12.527,11.055,14.719,21.093" transform="translate(36.162 94.206)" fill="#662483"/>
          </g>
        </g>
      </g>
    </g>
  </g>
</svg>
