<svg xmlns="http://www.w3.org/2000/svg" xmlns:xlink="http://www.w3.org/1999/xlink" width="1007.16" height="594.112" viewBox="0 0 1007.16 594.112">
  <defs>
    <clipPath id="clip-path">
      <rect id="Rectángulo_45336" data-name="Rectángulo 45336" width="1007.16" height="594.112" fill="none"/>
    </clipPath>
  </defs>
  <g id="Grupo_150869" data-name="Grupo 150869" transform="translate(9273 6634.112)">
    <g id="Grupo_146842" data-name="Grupo 146842" transform="translate(-9273 -6634.112)">
      <g id="Grupo_146825" data-name="Grupo 146825">
        <g id="Grupo_146824" data-name="Grupo 146824" clip-path="url(#clip-path)">
          <text id="CIBERSEGURIDAD_" data-name="CIBERSEGURIDAD " transform="translate(4.021 26.935)" fill="#0b4f7f" font-size="31.486" font-family="Roboto-Bold, Roboto" font-weight="700"><tspan x="0" y="0">CIBERSEGURI</tspan><tspan y="0" letter-spacing="-0.01em">D</tspan><tspan y="0">AD </tspan></text>
        </g>
      </g>
      <text id="EN_COLOMBIA" data-name="EN COLOMBIA" transform="translate(4.021 64.718)" fill="#0b4f7f" font-size="31.486" font-family="Roboto-Bold, Roboto" font-weight="700"><tspan x="0" y="0">EN CO</tspan><tspan y="0" letter-spacing="-0.012em">L</tspan><tspan y="0">OMB</tspan><tspan y="0" letter-spacing="0.008em">I</tspan><tspan y="0">A</tspan></text>
      <line id="Línea_178" data-name="Línea 178" x2="48.382" transform="translate(72.505 92.404)" fill="none" stroke="#b3b3b3" stroke-miterlimit="10" stroke-width="1"/>
      <g id="Grupo_146827" data-name="Grupo 146827">
        <g id="Grupo_146826" data-name="Grupo 146826" clip-path="url(#clip-path)">
          <path id="Trazado_213623" data-name="Trazado 213623" d="M124.509,92.456a3.414,3.414,0,1,1-3.414-3.414,3.414,3.414,0,0,1,3.414,3.414"/>
          <line id="Línea_179" data-name="Línea 179" x2="27.657" transform="translate(93.23 138.776)" fill="none" stroke="#b3b3b3" stroke-miterlimit="10" stroke-width="1"/>
          <path id="Trazado_213624" data-name="Trazado 213624" d="M124.509,138.828a3.414,3.414,0,1,1-3.414-3.414,3.414,3.414,0,0,1,3.414,3.414"/>
          <line id="Línea_180" data-name="Línea 180" x2="27.657" transform="translate(93.23 185.235)" fill="none" stroke="#b3b3b3" stroke-miterlimit="10" stroke-width="1"/>
          <path id="Trazado_213625" data-name="Trazado 213625" d="M124.509,185.287a3.414,3.414,0,1,1-3.414-3.414,3.414,3.414,0,0,1,3.414,3.414"/>
          <line id="Línea_181" data-name="Línea 181" x2="27.657" transform="translate(93.23 232.491)" fill="none" stroke="#b3b3b3" stroke-miterlimit="10" stroke-width="1"/>
          <path id="Trazado_213626" data-name="Trazado 213626" d="M124.509,232.543a3.414,3.414,0,1,1-3.414-3.414,3.414,3.414,0,0,1,3.414,3.414"/>
          <line id="Línea_182" data-name="Línea 182" x2="27.657" transform="translate(93.23 280.111)" fill="none" stroke="#b3b3b3" stroke-miterlimit="10" stroke-width="1"/>
          <path id="Trazado_213627" data-name="Trazado 213627" d="M124.509,280.163a3.414,3.414,0,1,1-3.414-3.414,3.414,3.414,0,0,1,3.414,3.414"/>
          <line id="Línea_183" data-name="Línea 183" x2="27.657" transform="translate(93.23 327.367)" fill="none" stroke="#b3b3b3" stroke-miterlimit="10" stroke-width="1"/>
          <path id="Trazado_213628" data-name="Trazado 213628" d="M124.509,327.419a3.414,3.414,0,1,1-3.414-3.414,3.414,3.414,0,0,1,3.414,3.414"/>
          <line id="Línea_184" data-name="Línea 184" x2="27.657" transform="translate(93.23 374.987)" fill="none" stroke="#b3b3b3" stroke-miterlimit="10" stroke-width="1"/>
          <path id="Trazado_213629" data-name="Trazado 213629" d="M124.509,375.039a3.414,3.414,0,1,1-3.414-3.414,3.414,3.414,0,0,1,3.414,3.414"/>
          <path id="Trazado_213630" data-name="Trazado 213630" d="M6.949,439.226a3.414,3.414,0,1,1-3.414-3.414,3.414,3.414,0,0,1,3.414,3.414" fill="#0d517c"/>
          <path id="Trazado_213631" data-name="Trazado 213631" d="M135.114,439.226a3.414,3.414,0,1,1-3.414-3.414,3.414,3.414,0,0,1,3.414,3.414" fill="#0d517c"/>
          <path id="Trazado_213632" data-name="Trazado 213632" d="M256.971,439.226a3.414,3.414,0,1,1-3.414-3.414,3.414,3.414,0,0,1,3.414,3.414" fill="#0d517c"/>
          <line id="Línea_185" data-name="Línea 185" y2="283.017" transform="translate(93.854 92.126)" fill="none" stroke="#b3b3b3" stroke-miterlimit="10" stroke-width="1"/>
          <path id="Trazado_213633" data-name="Trazado 213633" d="M325.715,91.572a10.986,10.986,0,1,1-10.987-10.987,10.987,10.987,0,0,1,10.987,10.987" fill="#0e507c"/>
        </g>
      </g>
      <text id="Colombia_ocupa_el_puesto" data-name="Colombia ocupa el puesto" transform="translate(127.125 96.424)" fill="gray" font-size="15.018" font-family="Roboto-Regular, Roboto"><tspan x="0" y="0">Colombia ocupa el puesto</tspan></text>
      <text id="_" data-name=" " transform="translate(302.08 96.424)" font-size="15.018" font-family="Roboto-Regular, Roboto"><tspan x="0" y="0"> </tspan></text>
      <text id="_39" data-name="39" transform="translate(305.874 96.424)" fill="#fff" font-size="15.018" font-family="Roboto-Black, Roboto" font-weight="800"><tspan x="0" y="0">39</tspan></text>
      <text id="_2" data-name=" " transform="translate(323.265 96.424)" font-size="15.018" font-family="Roboto-Regular, Roboto"><tspan x="0" y="0"> </tspan></text>
      <text id="en_el_ranking_mundial" data-name="en el ranking mundial" transform="translate(327.005 96.424)" fill="gray" font-size="15.018" font-family="Roboto-Regular, Roboto"><tspan x="0" y="0">en el ranking mundial</tspan></text>
      <text id="de_ciberseguridad" data-name="de ciberseguridad" transform="translate(127.125 114.446)" fill="gray" font-size="15.018" font-family="Roboto-Regular, Roboto"><tspan x="0" y="0">de ciberseguridad</tspan></text>
      <text id="Inversión_en_seguridad_alcanzó_" data-name="Inversión en seguridad alcanzó " transform="translate(127.125 144.663)" fill="gray" font-size="15.018" font-family="Roboto-Regular, Roboto"><tspan x="0" y="0">In</tspan><tspan y="0" letter-spacing="-0.006em">v</tspan><tspan y="0">ersión en seguridad alcan</tspan><tspan y="0" letter-spacing="-0.007em">z</tspan><tspan y="0">ó </tspan></text>
      <text id="_10.400_millones" data-name="$10.400 millones" transform="translate(340.284 144.663)" font-size="15.018" font-family="Roboto-Black, Roboto" font-weight="800"><tspan x="0" y="0">$10.400 millones</tspan></text>
      <text id="por_el_covid-19" data-name="por el covid-19" transform="translate(127.125 162.685)" fill="gray" font-size="15.018" font-family="Roboto-Regular, Roboto"><tspan x="0" y="0">por el c</tspan><tspan y="0" letter-spacing="-0.007em">o</tspan><tspan y="0">vid-19</tspan></text>
      <text id="Entre_marzo_y_noviembre_se_presentaron" data-name="Entre marzo y noviembre se presentaron" transform="translate(127.125 190.83)" fill="gray" font-size="15.018" font-family="Roboto-Regular, Roboto"><tspan x="0" y="0">Ent</tspan><tspan y="0" letter-spacing="-0.009em">r</tspan><tspan y="0">e mar</tspan><tspan y="0" letter-spacing="-0.007em">z</tspan><tspan y="0">o y n</tspan><tspan y="0" letter-spacing="-0.007em">o</tspan><tspan y="0">viemb</tspan><tspan y="0" letter-spacing="-0.009em">r</tspan><tspan y="0">e se p</tspan><tspan y="0" letter-spacing="-0.009em">r</tspan><tspan y="0">esenta</tspan><tspan y="0" letter-spacing="-0.009em">r</tspan><tspan y="0">on</tspan></text>
      <text id="_32.000_reportes_criminales_" data-name="32.000 reportes criminales " transform="translate(127.125 208.852)" font-size="15.018" font-family="Roboto-Black, Roboto" font-weight="800"><tspan x="0" y="0">32.000 </tspan><tspan y="0" letter-spacing="-0.009em">r</tspan><tspan y="0">epo</tspan><tspan y="0" letter-spacing="0.008em">r</tspan><tspan y="0">tes criminales </tspan></text>
      <text id="antes_la_Físcalía_General_" data-name="antes la Físcalía General " transform="translate(312.67 208.852)" fill="gray" font-size="15.018" font-family="Roboto-Regular, Roboto"><tspan x="0" y="0">antes la Físcalía General </tspan></text>
      <text id="La_suplantación_de_sitios_web_para_capturar_datos" data-name="La suplantación de sitios web para capturar datos" transform="translate(126.299 238.243)" fill="gray" font-size="15.018" font-family="Roboto-Regular, Roboto"><tspan x="0" y="0">La suplantación de sitios web para capturar datos</tspan></text>
      <text id="personales_creció_" data-name="personales creció " transform="translate(126.299 256.265)" fill="gray" font-size="15.018" font-family="Roboto-Regular, Roboto"><tspan x="0" y="0">personales c</tspan><tspan y="0" letter-spacing="-0.009em">r</tspan><tspan y="0">eció </tspan></text>
      <text id="_372_" data-name="372%" transform="translate(249.12 256.265)" font-size="15.018" font-family="Roboto-Black, Roboto" font-weight="800"><tspan x="0" y="0">372%</tspan></text>
      <text id="_comparado_con_2019_" data-name=" comparado con 2019 " transform="translate(286.365 256.265)" fill="gray" font-size="15.018" font-family="Roboto-Regular, Roboto"><tspan x="0" y="0" xml:space="preserve"> comparado con 2019 </tspan></text>
      <text id="Un_total_de_" data-name="Un total de " transform="translate(126.299 285.325)" fill="gray" font-size="15.018" font-family="Roboto-Regular, Roboto"><tspan x="0" y="0">Un total de </tspan></text>
      <text id="_6.159_casos" data-name="6.159 casos" transform="translate(203.283 285.325)" font-size="15.018" font-family="Roboto-Black, Roboto" font-weight="800"><tspan x="0" y="0">6.159 casos</tspan></text>
      <text id="_se_registraron_por_violación_" data-name=" se registraron por violación " transform="translate(285.808 285.325)" fill="gray" font-size="15.018" font-family="Roboto-Regular, Roboto"><tspan x="0" y="0" xml:space="preserve"> se </tspan><tspan y="0" letter-spacing="-0.009em">r</tspan><tspan y="0">egistra</tspan><tspan y="0" letter-spacing="-0.009em">r</tspan><tspan y="0">on por violación </tspan></text>
      <text id="de_datos_personales_para_el_nal_de_2020" data-name="de datos personales para el ﬁnal de 2020" transform="translate(126.299 303.347)" fill="gray" font-size="15.018" font-family="Roboto-Regular, Roboto"><tspan x="0" y="0">de datos personales para el ﬁnal de 2020</tspan></text>
      <text id="Más_de_" data-name="Más de " transform="translate(126.299 332.318)" fill="gray" font-size="15.018" font-family="Roboto-Regular, Roboto"><tspan x="0" y="0">Más de </tspan></text>
      <text id="_24.000_aplicaciones_móviles" data-name="24.000 aplicaciones móviles" transform="translate(179.329 332.318)" font-size="15.018" font-family="Roboto-Black, Roboto" font-weight="800"><tspan x="0" y="0">24.000 aplicaciones m</tspan><tspan y="0" letter-spacing="-0.007em">ó</tspan><tspan y="0">viles</tspan></text>
      <text id="_maliciosas" data-name=" maliciosas" transform="translate(372.054 332.318)" fill="gray" font-size="15.018" font-family="Roboto-Regular, Roboto"><tspan x="0" y="0" xml:space="preserve"> maliciosas</tspan></text>
      <text id="se_bloquean_cada_día" data-name="se bloquean cada día" transform="translate(126.299 350.341)" fill="gray" font-size="15.018" font-family="Roboto-Regular, Roboto"><tspan x="0" y="0">se bloquean cada día</tspan></text>
      <text id="_60_" data-name="60%" transform="translate(127.545 379.731)" font-size="15.018" font-family="Roboto-Black, Roboto" font-weight="800"><tspan x="0" y="0">60%</tspan></text>
      <text id="_de_los_fraudes_se_origina_en_dispositivos_móviles" data-name=" de los fraudes se origina en dispositivos móviles" transform="translate(156.095 379.731)" fill="gray" font-size="15.018" font-family="Roboto-Regular, Roboto"><tspan x="0" y="0" xml:space="preserve"> de los fraudes se origina en dispositi</tspan><tspan y="0" letter-spacing="-0.007em">v</tspan><tspan y="0">os m</tspan><tspan y="0" letter-spacing="-0.007em">ó</tspan><tspan y="0">viles</tspan></text>
      <g id="Grupo_146829" data-name="Grupo 146829">
        <g id="Grupo_146828" data-name="Grupo 146828" clip-path="url(#clip-path)">
          <text id="ENTIDADES_GUBERNAMENTALES_MÁS_SUPLANTADAS_EN_COLOMBIA" data-name="ENTIDADES GUBERNAMENTALES MÁS SUPLANTADAS EN COLOMBIA" transform="translate(0 422.439)" font-size="15.018" font-family="Roboto-Black, Roboto" font-weight="800"><tspan x="0" y="0">E</tspan><tspan y="0" letter-spacing="-0.014em">N</tspan><tspan y="0">TI</tspan><tspan y="0" letter-spacing="-0.01em">D</tspan><tspan y="0">ADES GUBER</tspan><tspan y="0" letter-spacing="0.008em">N</tspan><tspan y="0">AME</tspan><tspan y="0" letter-spacing="-0.014em">N</tspan><tspan y="0" letter-spacing="-0.053em">T</tspan><tspan y="0">ALES </tspan><tspan y="0" letter-spacing="0.008em">M</tspan><tspan y="0">ÁS SUP</tspan><tspan y="0" letter-spacing="0.009em">L</tspan><tspan y="0">A</tspan><tspan y="0" letter-spacing="-0.014em">N</tspan><tspan y="0" letter-spacing="-0.053em">T</tspan><tspan y="0">A</tspan><tspan y="0" letter-spacing="-0.01em">D</tspan><tspan y="0">AS EN CO</tspan><tspan y="0" letter-spacing="-0.012em">L</tspan><tspan y="0">OMB</tspan><tspan y="0" letter-spacing="0.008em">I</tspan><tspan y="0">A</tspan></text>
        </g>
      </g>
      <text id="DELITOS_QUE_MÁS_CRECIERON" data-name="DELITOS QUE MÁS CRECIERON" transform="translate(515.433 71.563)" font-size="15.018" font-family="Roboto-Black, Roboto" font-weight="800"><tspan x="0" y="0">DEL</tspan><tspan y="0" letter-spacing="-0.014em">I</tspan><tspan y="0" letter-spacing="-0.013em">T</tspan><tspan y="0">OS QUE </tspan><tspan y="0" letter-spacing="0.008em">M</tspan><tspan y="0">ÁS CRECIERON</tspan></text>
      <text id="Modalidad" transform="translate(612.481 93.189)" font-size="15.018" font-family="Roboto-Regular, Roboto"><tspan x="0" y="0">Modalidad</tspan></text>
      <text id="Correo_electrónico" data-name="Correo electrónico" transform="translate(559.241 123.556)" fill="gray" font-size="15.018" font-family="Roboto-Regular, Roboto"><tspan x="0" y="0">Cor</tspan><tspan y="0" letter-spacing="-0.009em">r</tspan><tspan y="0">eo elect</tspan><tspan y="0" letter-spacing="-0.009em">r</tspan><tspan y="0">ónico</tspan></text>
      <text id="spam_y_scam" data-name="spam y scam" transform="translate(596.877 139.776)" fill="gray" font-size="15.018" font-family="Roboto-Regular, Roboto"><tspan x="0" y="0">spam y scam</tspan></text>
      <text id="Suplantación_sitio_web" data-name="Suplantación sitio web" transform="translate(530 180.806)" fill="gray" font-size="15.018" font-family="Roboto-Regular, Roboto"><tspan x="0" y="0">Suplantación sitio web</tspan></text>
      <text id="Modi_cación_de_datos_o" data-name="Modiﬁcación de datos o" transform="translate(521.635 221.281)" fill="gray" font-size="15.018" font-family="Roboto-Regular, Roboto"><tspan x="0" y="0">Modiﬁcación de datos o</tspan></text>
      <text id="registros_personales" data-name="registros personales" transform="translate(545.319 239.303)" fill="gray" font-size="15.018" font-family="Roboto-Regular, Roboto"><tspan x="0" y="0" letter-spacing="-0.009em">r</tspan><tspan y="0">egist</tspan><tspan y="0" letter-spacing="-0.009em">r</tspan><tspan y="0">os personales</tspan></text>
      <text id="Extracción_de_datos_o" data-name="Extracción de datos o" transform="translate(542.796 271.187)" fill="gray" font-size="15.018" font-family="Roboto-Regular, Roboto"><tspan x="0" y="0">Extracción de datos o</tspan></text>
      <text id="registros_personales-2" data-name="registros personales" transform="translate(545.319 289.209)" fill="gray" font-size="15.018" font-family="Roboto-Regular, Roboto"><tspan x="0" y="0" letter-spacing="-0.009em">r</tspan><tspan y="0">egist</tspan><tspan y="0" letter-spacing="-0.009em">r</tspan><tspan y="0">os personales</tspan></text>
      <text id="Suplantación_de_identidad" data-name="Suplantación de identidad" transform="translate(511.796 317.774)" fill="gray" font-size="15.018" font-family="Roboto-Regular, Roboto"><tspan x="0" y="0">Suplantación de identidad</tspan></text>
      <text id="por_correos_ajenos" data-name="por correos ajenos" transform="translate(559.319 335.797)" fill="gray" font-size="15.018" font-family="Roboto-Regular, Roboto" letter-spacing="-0.009em"><tspan x="0" y="0">por correos ajenos</tspan></text>
      <text id="Introducir_o_extraer_del" data-name="Introducir o extraer del" transform="translate(530.616 366.013)" fill="gray" font-size="15.018" font-family="Roboto-Regular, Roboto"><tspan x="0" y="0">Int</tspan><tspan y="0" letter-spacing="-0.009em">r</tspan><tspan y="0">oducir o extraer del</tspan></text>
      <text id="país_software_malicioso" data-name="país software malicioso" transform="translate(522.701 384.036)" fill="gray" font-size="15.018" font-family="Roboto-Regular, Roboto"><tspan x="0" y="0">país softwa</tspan><tspan y="0" letter-spacing="-0.009em">r</tspan><tspan y="0">e malicioso</tspan></text>
      <text id="Simulación_de_app_" data-name="Simulación de app " transform="translate(554.796 415.649)" fill="gray" font-size="15.018" font-family="Roboto-Regular, Roboto"><tspan x="0" y="0">Simulación de app </tspan></text>
      <text id="móvil_fake_app_" data-name="móvil (fake app)" transform="translate(575.011 433.672)" fill="gray" font-size="15.018" font-family="Roboto-Regular, Roboto"><tspan x="0" y="0">m</tspan><tspan y="0" letter-spacing="-0.007em">ó</tspan><tspan y="0">vil (fa</tspan><tspan y="0" letter-spacing="-0.009em">k</tspan><tspan y="0">e app)</tspan></text>
      <text id="Suplantación_blog" data-name="Suplantación blog" transform="translate(561.118 472.764)" fill="gray" font-size="15.018" font-family="Roboto-Regular, Roboto"><tspan x="0" y="0">Suplantación blog</tspan></text>
      <text id="Ingeniería_social" data-name="Ingeniería social" transform="translate(572.652 521.334)" fill="gray" font-size="15.018" font-family="Roboto-Regular, Roboto"><tspan x="0" y="0">Ingeniería social</tspan></text>
      <text id="Captura_de_tramas_de_red" data-name="Captura de tramas de red" transform="translate(512.639 562.92)" fill="gray" font-size="15.018" font-family="Roboto-Regular, Roboto"><tspan x="0" y="0">Captura de tramas de </tspan><tspan y="0" letter-spacing="-0.009em">r</tspan><tspan y="0">ed</tspan></text>
      <text id="de_computadores_Sniffer_" data-name="de computadores (Sniffer)" transform="translate(507.082 580.942)" fill="gray" font-size="15.018" font-family="Roboto-Regular, Roboto"><tspan x="0" y="0">de computado</tspan><tspan y="0" letter-spacing="-0.009em">r</tspan><tspan y="0">es (Snif</tspan><tspan y="0" letter-spacing="-0.011em">f</tspan><tspan y="0">er)</tspan></text>
      <text id="Dian" transform="translate(7.901 444.245)" fill="gray" font-size="15.018" font-family="Roboto-Regular, Roboto"><tspan x="0" y="0">Dian</tspan></text>
      <text id="Fiscalía_General" data-name="Fiscalía General" transform="translate(135.587 444.245)" fill="gray" font-size="15.018" font-family="Roboto-Regular, Roboto"><tspan x="0" y="0">Fiscalía General</tspan></text>
      <text id="de_la_Nación" data-name="de la Nación" transform="translate(135.587 462.266)" fill="gray" font-size="15.018" font-family="Roboto-Regular, Roboto"><tspan x="0" y="0">de la Nación</tspan></text>
      <text id="Policía" transform="translate(258.272 444.245)" fill="gray" font-size="15.018" font-family="Roboto-Regular, Roboto"><tspan x="0" y="0" letter-spacing="-0.006em">P</tspan><tspan y="0">olicía</tspan></text>
      <text id="Nacional" transform="translate(258.272 462.266)" fill="gray" font-size="15.018" font-family="Roboto-Regular, Roboto"><tspan x="0" y="0">Nacional</tspan></text>
      <g id="Grupo_146831" data-name="Grupo 146831">
        <g id="Grupo_146830" data-name="Grupo 146830" clip-path="url(#clip-path)">
          <path id="Trazado_213634" data-name="Trazado 213634" d="M380.076,439.226a3.414,3.414,0,1,1-3.414-3.414,3.414,3.414,0,0,1,3.414,3.414" fill="#0d517c"/>
        </g>
      </g>
      <text id="Ministerio" transform="translate(381.376 444.252)" fill="gray" font-size="15.018" font-family="Roboto-Regular, Roboto"><tspan x="0" y="0">Ministerio</tspan></text>
      <text id="de_Salud" data-name="de Salud" transform="translate(381.376 462.273)" fill="gray" font-size="15.018" font-family="Roboto-Regular, Roboto"><tspan x="0" y="0">de Salud</tspan></text>
      <g id="Grupo_146833" data-name="Grupo 146833">
        <g id="Grupo_146832" data-name="Grupo 146832" clip-path="url(#clip-path)">
          <path id="Trazado_213635" data-name="Trazado 213635" d="M62.246,475.114a52.3,52.3,0,1,0,52.3,52.3,52.3,52.3,0,0,0-52.3-52.3m0,80.025a27.726,27.726,0,1,1,27.726-27.726,27.726,27.726,0,0,1-27.726,27.726" fill="#d6e3f3"/>
          <path id="Trazado_213636" data-name="Trazado 213636" d="M74.279,552.4a27.729,27.729,0,1,1-12.033-52.711l.12,0-.29-24.571a52.3,52.3,0,1,0,22.971,99.371Z" fill="#0b4f7f"/>
          <path id="Trazado_213637" data-name="Trazado 213637" d="M184.519,475.114a52.3,52.3,0,1,0,52.3,52.3,52.3,52.3,0,0,0-52.3-52.3m0,80.025a27.726,27.726,0,1,1,27.726-27.726,27.726,27.726,0,0,1-27.726,27.726" fill="#d6e3f3"/>
          <path id="Trazado_213638" data-name="Trazado 213638" d="M159.056,538.391a27.732,27.732,0,0,1,25.464-38.7l.12,0-.29-24.571a52.287,52.287,0,0,0-44.093,80.139Z" fill="#0b4f7f"/>
          <path id="Trazado_213639" data-name="Trazado 213639" d="M307.347,475.114a52.3,52.3,0,1,0,52.3,52.3,52.3,52.3,0,0,0-52.3-52.3m0,80.025a27.726,27.726,0,1,1,27.726-27.726,27.726,27.726,0,0,1-27.726,27.726" fill="#d6e3f3"/>
          <path id="Trazado_213640" data-name="Trazado 213640" d="M307.177,475.118a52.3,52.3,0,0,0-52.129,52.3c0,.7.016,1.392.044,2.083l24.57-.571c-.026-.5-.042-1.005-.042-1.512a27.727,27.727,0,0,1,27.727-27.727l.12,0Z" fill="#0b4f7f"/>
          <path id="Trazado_213641" data-name="Trazado 213641" d="M430.452,475.114a52.3,52.3,0,1,0,52.3,52.3,52.3,52.3,0,0,0-52.3-52.3m0,80.025a27.726,27.726,0,1,1,27.726-27.726,27.726,27.726,0,0,1-27.726,27.726" fill="#d6e3f3"/>
          <path id="Trazado_213642" data-name="Trazado 213642" d="M430.282,475.118a52.307,52.307,0,0,0-49.365,35.523L403.65,520.3a27.734,27.734,0,0,1,26.8-20.616l.12,0Z" fill="#0b4f7f"/>
          <rect id="Rectángulo_45340" data-name="Rectángulo 45340" width="3.535" height="17.312" transform="translate(692.899 128.413)" fill="#0b4f7d"/>
          <rect id="Rectángulo_45341" data-name="Rectángulo 45341" width="1.664" height="15.804" transform="translate(693.02 109.109)" fill="gray"/>
        </g>
      </g>
      <text id="_4" data-name="4" transform="translate(696.417 122.972)" font-size="15.018" font-family="Roboto-Regular, Roboto"><tspan x="0" y="0">4</tspan></text>
      <text id="_41" data-name="41" transform="translate(699.887 141.549)" font-size="15.018" font-family="Roboto-Regular, Roboto"><tspan x="0" y="0">41</tspan></text>
      <text id="_892" data-name="892" transform="translate(739.91 172.097)" font-size="15.018" font-family="Roboto-Regular, Roboto"><tspan x="0" y="0">892</tspan></text>
      <text id="_136" data-name="136" transform="translate(705.804 220.426)" font-size="15.018" font-family="Roboto-Regular, Roboto"><tspan x="0" y="0">136</tspan></text>
      <text id="_563" data-name="563" transform="translate(723.69 268.876)" font-size="15.018" font-family="Roboto-Regular, Roboto"><tspan x="0" y="0">563</tspan></text>
      <text id="_333" data-name="333" transform="translate(714.814 317.956)" font-size="15.018" font-family="Roboto-Regular, Roboto"><tspan x="0" y="0">333</tspan></text>
      <text id="_1527" data-name="1527" transform="translate(773.251 336.053)" font-size="15.018" font-family="Roboto-Regular, Roboto"><tspan x="0" y="0">1527</tspan></text>
      <text id="_2.663" data-name="2.663" transform="translate(825.064 287.393)" font-size="15.018" font-family="Roboto-Regular, Roboto"><tspan x="0" y="0">2.663</tspan></text>
      <text id="_677" data-name="677" transform="translate(728.992 238.734)" font-size="15.018" font-family="Roboto-Regular, Roboto"><tspan x="0" y="0">677</tspan></text>
      <text id="_2019_" data-name="2019 " transform="translate(825.83 93.236)" font-size="15.018" font-family="Roboto-Regular, Roboto"><tspan x="0" y="0">2019 </tspan></text>
      <text id="_2020_" data-name="2020 " transform="translate(888.908 93.236)" font-size="15.018" font-family="Roboto-Regular, Roboto"><tspan x="0" y="0">2020 </tspan></text>
      <text id="Variación" transform="translate(935.074 77.226)" font-size="15.018" font-family="Roboto-Regular, Roboto"><tspan x="0" y="0" letter-spacing="-0.022em">V</tspan><tspan y="0">ariación</tspan></text>
      <g id="Grupo_146835" data-name="Grupo 146835">
        <g id="Grupo_146834" data-name="Grupo 146834" clip-path="url(#clip-path)">
          <text id="porcentual" transform="translate(935.072 95.245)" font-size="15.018" font-family="Roboto-Regular, Roboto"><tspan x="0" y="0">po</tspan><tspan y="0" letter-spacing="-0.009em">r</tspan><tspan y="0">centual</tspan></text>
        </g>
      </g>
      <text id="_925_" data-name="925%" transform="translate(952.331 132.329)" font-size="15.018" font-family="Roboto-Bold, Roboto" font-weight="700"><tspan x="0" y="0">925%</tspan></text>
      <text id="_435_" data-name="435%" transform="translate(951.91 180.989)" font-size="15.018" font-family="Roboto-Bold, Roboto" font-weight="700"><tspan x="0" y="0">435%</tspan></text>
      <text id="_398_" data-name="398%" transform="translate(951.91 228.402)" font-size="15.018" font-family="Roboto-Bold, Roboto" font-weight="700"><tspan x="0" y="0">398%</tspan></text>
      <text id="_373_" data-name="373%" transform="translate(951.91 278.518)" font-size="15.018" font-family="Roboto-Bold, Roboto" font-weight="700"><tspan x="0" y="0">373%</tspan></text>
      <text id="_359_" data-name="359%" transform="translate(951.91 326.967)" font-size="15.018" font-family="Roboto-Bold, Roboto" font-weight="700"><tspan x="0" y="0">359%</tspan></text>
      <text id="_325_" data-name="325%" transform="translate(951.91 374.997)" font-size="15.018" font-family="Roboto-Bold, Roboto" font-weight="700"><tspan x="0" y="0">325%</tspan></text>
      <text id="_310_" data-name="310%" transform="translate(951.91 423.656)" font-size="15.018" font-family="Roboto-Bold, Roboto" font-weight="700"><tspan x="0" y="0">310%</tspan></text>
      <text id="_299_" data-name="299%" transform="translate(951.91 520.975)" font-size="15.018" font-family="Roboto-Bold, Roboto" font-weight="700"><tspan x="0" y="0">299%</tspan></text>
      <text id="_273_" data-name="273%" transform="translate(951.91 570.672)" font-size="15.018" font-family="Roboto-Bold, Roboto" font-weight="700"><tspan x="0" y="0">273%</tspan></text>
      <g id="Grupo_146837" data-name="Grupo 146837">
        <g id="Grupo_146836" data-name="Grupo 146836" clip-path="url(#clip-path)">
          <rect id="Rectángulo_45344" data-name="Rectángulo 45344" width="11.506" height="11.16" transform="translate(811.62 82.561)" fill="#b9c9e3"/>
          <rect id="Rectángulo_45345" data-name="Rectángulo 45345" width="43.964" height="17.312" transform="translate(693.003 157.889)" fill="#b9c9e3"/>
          <rect id="Rectángulo_45346" data-name="Rectángulo 45346" width="7.746" height="17.312" transform="translate(693.003 206.549)" fill="#b9c9e3"/>
          <rect id="Rectángulo_45347" data-name="Rectángulo 45347" width="27.674" height="17.312" transform="translate(693.003 255.027)" fill="#b9c9e3"/>
          <rect id="Rectángulo_45348" data-name="Rectángulo 45348" width="17.346" height="17.312" transform="translate(693.003 303.548)" fill="#b9c9e3"/>
        </g>
      </g>
      <text id="_4-2" data-name="4" transform="translate(696.613 365.681)" font-size="15.018" font-family="Roboto-Regular, Roboto"><tspan x="0" y="0">4</tspan></text>
      <text id="_58" data-name="58" transform="translate(700.488 414.896)" font-size="15.018" font-family="Roboto-Regular, Roboto"><tspan x="0" y="0">58</tspan></text>
      <text id="_2-2" data-name="2" transform="translate(696.884 462.925)" font-size="15.018" font-family="Roboto-Regular, Roboto"><tspan x="0" y="0">2</tspan></text>
      <text id="_8" data-name="8" transform="translate(699.196 481.954)" font-size="15.018" font-family="Roboto-Regular, Roboto"><tspan x="0" y="0">8</tspan></text>
      <text id="_107" data-name="107" transform="translate(704.183 512.321)" font-size="15.018" font-family="Roboto-Regular, Roboto"><tspan x="0" y="0">107</tspan></text>
      <text id="_15" data-name="15" transform="translate(696.703 560.56)" font-size="15.018" font-family="Roboto-Regular, Roboto"><tspan x="0" y="0">15</tspan></text>
      <text id="_56" data-name="56" transform="translate(699.196 579.483)" font-size="15.018" font-family="Roboto-Regular, Roboto"><tspan x="0" y="0">56</tspan></text>
      <text id="_427" data-name="427" transform="translate(720.553 530.899)" font-size="15.018" font-family="Roboto-Regular, Roboto"><tspan x="0" y="0">427</tspan></text>
      <text id="_238" data-name="238" transform="translate(710.61 433.204)" font-size="15.018" font-family="Roboto-Regular, Roboto"><tspan x="0" y="0">238</tspan></text>
      <text id="_17" data-name="17" transform="translate(699.797 384.335)" font-size="15.018" font-family="Roboto-Regular, Roboto"><tspan x="0" y="0">17</tspan></text>
      <g id="Grupo_146839" data-name="Grupo 146839">
        <g id="Grupo_146838" data-name="Grupo 146838" clip-path="url(#clip-path)">
          <rect id="Rectángulo_45350" data-name="Rectángulo 45350" width="1.924" height="17.312" transform="translate(693.003 352.832)" fill="#b9c9e3"/>
          <rect id="Rectángulo_45351" data-name="Rectángulo 45351" width="4.315" height="17.312" transform="translate(693.003 401.769)" fill="#b9c9e3"/>
          <rect id="Rectángulo_45352" data-name="Rectángulo 45352" width="13.049" height="17.312" transform="translate(693.003 420.623)" fill="#0b4f7d"/>
          <rect id="Rectángulo_45353" data-name="Rectángulo 45353" width="21.505" height="17.312" transform="translate(693.142 517.942)" fill="#0b4f7d"/>
          <rect id="Rectángulo_45354" data-name="Rectángulo 45354" width="6.724" height="17.312" transform="translate(692.951 498.395)" fill="#b9c9e3"/>
          <rect id="Rectángulo_45355" data-name="Rectángulo 45355" width="4.107" height="17.312" transform="translate(693.107 566.602)" fill="#0b4f7d"/>
          <rect id="Rectángulo_45356" data-name="Rectángulo 45356" width="1.906" height="17.312" transform="translate(692.917 547.055)" fill="#b9c9e3"/>
          <rect id="Rectángulo_45357" data-name="Rectángulo 45357" width="1.924" height="17.312" transform="translate(693.003 371.963)" fill="#0b4f7d"/>
          <rect id="Rectángulo_45358" data-name="Rectángulo 45358" width="1.924" height="17.312" transform="translate(693.003 449.597)" fill="#b9c9e3"/>
          <rect id="Rectángulo_45359" data-name="Rectángulo 45359" width="1.924" height="17.312" transform="translate(693.003 468.728)" fill="#0b4f7d"/>
          <rect id="Rectángulo_45360" data-name="Rectángulo 45360" width="33.636" height="17.312" transform="translate(693.003 225.576)" fill="#0b4f7d"/>
          <rect id="Rectángulo_45361" data-name="Rectángulo 45361" width="73.562" height="17.312" transform="translate(693.003 323.312)" fill="#0b4f7d"/>
          <rect id="Rectángulo_45362" data-name="Rectángulo 45362" width="127.281" height="17.312" transform="translate(693.003 274.444)" fill="#0b4f7d"/>
          <rect id="Rectángulo_45363" data-name="Rectángulo 45363" width="227.512" height="17.312" transform="translate(693.003 177.021)" fill="#0b4f7d"/>
          <rect id="Rectángulo_45364" data-name="Rectángulo 45364" width="11.506" height="11.16" transform="translate(874.698 82.561)" fill="#0b4f7d"/>
        </g>
      </g>
      <text id="_4.776" data-name="4.776" transform="translate(880.474 190.393)" fill="#fff" font-size="15.018" font-family="Roboto-Regular, Roboto"><tspan x="0" y="0">4.776</tspan></text>
      <g id="Grupo_146841" data-name="Grupo 146841">
        <g id="Grupo_146840" data-name="Grupo 146840" clip-path="url(#clip-path)">
          <line id="Línea_186" data-name="Línea 186" y2="543.159" transform="translate(500.599 50.121)" fill="none" stroke="gray" stroke-miterlimit="10" stroke-width="1"/>
          <line id="Línea_187" data-name="Línea 187" y2="536.505" transform="translate(929.804 57.607)" fill="none" stroke="gray" stroke-miterlimit="10" stroke-width="1"/>
          <line id="Línea_188" data-name="Línea 188" x2="2.5" transform="translate(516.819 540.877)" fill="none" stroke="gray" stroke-miterlimit="10" stroke-width="1"/>
          <line id="Línea_189" data-name="Línea 189" x2="477.835" transform="translate(524.323 540.877)" fill="none" stroke="gray" stroke-miterlimit="10" stroke-width="1" stroke-dasharray="5.004 5.004"/>
          <line id="Línea_190" data-name="Línea 190" x2="2.5" transform="translate(1004.66 540.877)" fill="none" stroke="gray" stroke-miterlimit="10" stroke-width="1"/>
          <line id="Línea_191" data-name="Línea 191" x2="2.5" transform="translate(516.819 492.633)" fill="none" stroke="gray" stroke-miterlimit="10" stroke-width="1"/>
          <line id="Línea_192" data-name="Línea 192" x2="477.835" transform="translate(524.323 492.633)" fill="none" stroke="gray" stroke-miterlimit="10" stroke-width="1" stroke-dasharray="5.004 5.004"/>
          <line id="Línea_193" data-name="Línea 193" x2="2.5" transform="translate(1004.66 492.633)" fill="none" stroke="gray" stroke-miterlimit="10" stroke-width="1"/>
          <line id="Línea_194" data-name="Línea 194" x2="2.5" transform="translate(516.819 443.974)" fill="none" stroke="gray" stroke-miterlimit="10" stroke-width="1"/>
          <line id="Línea_195" data-name="Línea 195" x2="477.835" transform="translate(524.323 443.974)" fill="none" stroke="gray" stroke-miterlimit="10" stroke-width="1" stroke-dasharray="5.004 5.004"/>
          <line id="Línea_196" data-name="Línea 196" x2="2.5" transform="translate(1004.66 443.974)" fill="none" stroke="gray" stroke-miterlimit="10" stroke-width="1"/>
          <line id="Línea_197" data-name="Línea 197" x2="2.5" transform="translate(516.819 394.898)" fill="none" stroke="gray" stroke-miterlimit="10" stroke-width="1"/>
          <line id="Línea_198" data-name="Línea 198" x2="477.835" transform="translate(524.323 394.898)" fill="none" stroke="gray" stroke-miterlimit="10" stroke-width="1" stroke-dasharray="5.004 5.004"/>
          <line id="Línea_199" data-name="Línea 199" x2="2.5" transform="translate(1004.66 394.898)" fill="none" stroke="gray" stroke-miterlimit="10" stroke-width="1"/>
          <line id="Línea_200" data-name="Línea 200" x2="2.5" transform="translate(516.404 346.238)" fill="none" stroke="gray" stroke-miterlimit="10" stroke-width="1"/>
          <line id="Línea_201" data-name="Línea 201" x2="477.835" transform="translate(523.907 346.238)" fill="none" stroke="gray" stroke-miterlimit="10" stroke-width="1" stroke-dasharray="5.004 5.004"/>
          <line id="Línea_202" data-name="Línea 202" x2="2.5" transform="translate(1004.244 346.238)" fill="none" stroke="gray" stroke-miterlimit="10" stroke-width="1"/>
          <line id="Línea_203" data-name="Línea 203" x2="2.5" transform="translate(516.404 297.995)" fill="none" stroke="gray" stroke-miterlimit="10" stroke-width="1"/>
          <line id="Línea_204" data-name="Línea 204" x2="477.835" transform="translate(523.907 297.995)" fill="none" stroke="gray" stroke-miterlimit="10" stroke-width="1" stroke-dasharray="5.004 5.004"/>
          <line id="Línea_205" data-name="Línea 205" x2="2.5" transform="translate(1004.244 297.995)" fill="none" stroke="gray" stroke-miterlimit="10" stroke-width="1"/>
          <line id="Línea_206" data-name="Línea 206" x2="2.5" transform="translate(516.404 249.196)" fill="none" stroke="gray" stroke-miterlimit="10" stroke-width="1"/>
          <line id="Línea_207" data-name="Línea 207" x2="477.835" transform="translate(523.907 249.196)" fill="none" stroke="gray" stroke-miterlimit="10" stroke-width="1" stroke-dasharray="5.004 5.004"/>
          <line id="Línea_208" data-name="Línea 208" x2="2.5" transform="translate(1004.244 249.196)" fill="none" stroke="gray" stroke-miterlimit="10" stroke-width="1"/>
          <line id="Línea_209" data-name="Línea 209" x2="2.5" transform="translate(516.404 200.952)" fill="none" stroke="gray" stroke-miterlimit="10" stroke-width="1"/>
          <line id="Línea_210" data-name="Línea 210" x2="477.835" transform="translate(523.907 200.952)" fill="none" stroke="gray" stroke-miterlimit="10" stroke-width="1" stroke-dasharray="5.004 5.004"/>
          <line id="Línea_211" data-name="Línea 211" x2="2.5" transform="translate(1004.244 200.952)" fill="none" stroke="gray" stroke-miterlimit="10" stroke-width="1"/>
          <line id="Línea_212" data-name="Línea 212" x2="2.5" transform="translate(516.404 151.599)" fill="none" stroke="gray" stroke-miterlimit="10" stroke-width="1"/>
          <line id="Línea_213" data-name="Línea 213" x2="477.835" transform="translate(523.907 151.599)" fill="none" stroke="gray" stroke-miterlimit="10" stroke-width="1" stroke-dasharray="5.004 5.004"/>
          <line id="Línea_214" data-name="Línea 214" x2="2.5" transform="translate(1004.244 151.599)" fill="none" stroke="gray" stroke-miterlimit="10" stroke-width="1"/>
          <rect id="Rectángulo_45366" data-name="Rectángulo 45366" width="74.266" height="73.717" transform="translate(0.554 83.393)" fill="#ced6ec"/>
          <path id="Trazado_213643" data-name="Trazado 213643" d="M74.826,121.863V157.11H38.748L21.7,140.37l32.856-40.03Z" fill="#adbad8"/>
          <path id="Trazado_213644" data-name="Trazado 213644" d="M54.207,141.514H22.51a1.23,1.23,0,0,1-1.23-1.23V100.53A1.23,1.23,0,0,1,22.51,99.3h31.7a1.23,1.23,0,0,1,1.23,1.229v39.754a1.23,1.23,0,0,1-1.23,1.23" fill="#1d3e53"/>
          <path id="Trazado_213645" data-name="Trazado 213645" d="M55.437,100.53v39.754a1.231,1.231,0,0,1-1.231,1.23H52.375a1.23,1.23,0,0,0,1.229-1.23V100.53a1.23,1.23,0,0,0-1.229-1.23h1.831a1.231,1.231,0,0,1,1.231,1.23" fill="#15303f"/>
          <path id="Trazado_213646" data-name="Trazado 213646" d="M30.169,138.778H51.225a1.117,1.117,0,0,0,1.117-1.117V103.152a1.117,1.117,0,0,0-1.117-1.116H25.492a1.116,1.116,0,0,0-1.117,1.116v30.629Z" fill="#f9f3f1"/>
          <path id="Trazado_213647" data-name="Trazado 213647" d="M52.342,103.153v34.509a1.117,1.117,0,0,1-1.117,1.117H49.392a1.117,1.117,0,0,0,1.117-1.117V103.153a1.117,1.117,0,0,0-1.117-1.117h1.833a1.117,1.117,0,0,1,1.117,1.117" fill="#f3eae6"/>
          <path id="Trazado_213648" data-name="Trazado 213648" d="M24.375,133.781H29.23a.94.94,0,0,1,.939.939v4.058Z" fill="#cdbfba"/>
          <path id="Trazado_213649" data-name="Trazado 213649" d="M31.349,111.39H29.7a.667.667,0,0,1,0-1.334h1.649a.667.667,0,0,1,0,1.334" fill="#cdbfba"/>
          <path id="Trazado_213650" data-name="Trazado 213650" d="M47.018,111.39H35.381a.667.667,0,0,1,0-1.334H47.018a.667.667,0,1,1,0,1.334" fill="#cdbfba"/>
          <path id="Trazado_213651" data-name="Trazado 213651" d="M47.018,114.945H35.381a.667.667,0,1,1,0-1.334H47.018a.667.667,0,1,1,0,1.334" fill="#cdbfba"/>
          <path id="Trazado_213652" data-name="Trazado 213652" d="M31.349,118.5H29.7a.667.667,0,0,1,0-1.334h1.649a.667.667,0,0,1,0,1.334" fill="#cdbfba"/>
          <path id="Trazado_213653" data-name="Trazado 213653" d="M47.018,118.5H35.381a.667.667,0,0,1,0-1.334H47.018a.667.667,0,0,1,0,1.334" fill="#cdbfba"/>
          <path id="Trazado_213654" data-name="Trazado 213654" d="M47.018,122.057H35.381a.667.667,0,0,1,0-1.334H47.018a.667.667,0,0,1,0,1.334" fill="#cdbfba"/>
          <path id="Trazado_213655" data-name="Trazado 213655" d="M31.349,125.613H29.7a.667.667,0,0,1,0-1.334h1.649a.667.667,0,0,1,0,1.334" fill="#cdbfba"/>
          <path id="Trazado_213656" data-name="Trazado 213656" d="M47.018,125.613H35.381a.667.667,0,1,1,0-1.334H47.018a.667.667,0,1,1,0,1.334" fill="#cdbfba"/>
          <path id="Trazado_213657" data-name="Trazado 213657" d="M47.018,129.168H35.381a.667.667,0,1,1,0-1.334H47.018a.667.667,0,1,1,0,1.334" fill="#cdbfba"/>
          <path id="Trazado_213658" data-name="Trazado 213658" d="M41.685,99.3a3.327,3.327,0,1,0-6.654,0H33.483a1.608,1.608,0,0,0-1.608,1.608v2.926a1.608,1.608,0,0,0,1.608,1.608h9.75a1.608,1.608,0,0,0,1.609-1.608v-2.926A1.608,1.608,0,0,0,43.233,99.3Z" fill="#5a5a5a"/>
          <path id="Trazado_213659" data-name="Trazado 213659" d="M44.842,100.909v2.926a1.608,1.608,0,0,1-1.608,1.608h-.2a1.527,1.527,0,0,0,.025-.28v-2.926a1.608,1.608,0,0,0-1.608-1.608h-.918a.688.688,0,0,1-.679-.567A3.328,3.328,0,0,0,35.6,97.447,3.327,3.327,0,0,1,41.685,99.3h1.549A1.608,1.608,0,0,1,44.842,100.909Z" fill="#444"/>
        </g>
      </g>
    </g>
  </g>
</svg>
