<svg xmlns="http://www.w3.org/2000/svg" width="125.417" height="141" viewBox="0 0 125.417 141">
  <g id="galleta" transform="translate(-6.646 -3.99)">
    <g id="Grupo_112075" data-name="Grupo 112075" transform="translate(25.456 3.99)">
      <g id="Grupo_112068" data-name="Grupo 112068" transform="translate(5.96 13.072)">
        <path id="Trazado_173706" data-name="Trazado 173706" d="M21.313,15.779s4.493-4.758,5.375-2.555-7.225,8.811-9.868,8.958" transform="translate(-11.71 -0.304)" fill="#252525"/>
        <path id="Trazado_173707" data-name="Trazado 173707" d="M15.2,29.378S13.347,4.444,24.36,9c2.584,1.057-1.233,3.172-1.674,5.756a6.727,6.727,0,0,0,.411,3.994S26.152,15.9,27.415,16.6c1.439.793,4.082,4.229,2.614,4.787-1.116.411-3.231-2.173-3.231-2.173l-1.85,1.439-.294,3.319a6.558,6.558,0,0,1-4.464,6.4Z" transform="translate(-15.08 -8.441)" fill="#333"/>
      </g>
      <g id="Grupo_112074" data-name="Grupo 112074" transform="translate(0)">
        <path id="Trazado_173708" data-name="Trazado 173708" d="M89.525,41.888l-.646,26.021H45.5l-.675-26.021s-24.552,9.251-29.956,3.965C9.318,40.39,18.247,14.81,18.247,14.81L28.7,16.278l-1.38,15.683S39.3,21.359,44.179,19.421c5.375-2.2,23.025-2.966,23.025-2.966s17.592.764,22.967,2.966c4.875,1.938,11.718,15.389,13.216,21.5,1.322,5.345,1.733,27.019,1.733,27.019H93.872L92.139,48.614Z" transform="translate(-13.051 16.967)" fill="#324448"/>
        <g id="Grupo_112069" data-name="Grupo 112069" transform="translate(1.818 33.745)">
          <path id="Trazado_173709" data-name="Trazado 173709" d="M31.15,17.97h1.968V61.788H31.15Z" transform="translate(20.187 -10.657)" fill="#2c3c3f"/>
          <path id="Trazado_173710" data-name="Trazado 173710" d="M47.767,53.935H44.3l-.646-26.021S19.1,37.165,13.67,31.879c11.513-.352,19.618-2.173,26.755-6.314a46.383,46.383,0,0,0,4.229-3.524Z" transform="translate(-13.67 -2.774)" fill="#2c3c3f"/>
          <path id="Trazado_173711" data-name="Trazado 173711" d="M20.77,23.713c3.289-.646,9.134-1.7,11.6-1.586,3.142.147,12.1,3,12.1,3l2.79-9.633c-5.639.382-14.508,1.175-18.033,2.643C27.172,18.9,23.912,21.246,20.77,23.713Z" transform="translate(0.082 -15.461)" fill="#2c3c3f"/>
          <path id="Trazado_173712" data-name="Trazado 173712" d="M33.17,15.48l2.79,9.633s8.958-2.849,12.1-3a50.553,50.553,0,0,1,8.37,1c-1.792-2.467-3.612-4.347-5.2-4.993-3.348-1.38-11.483-2.173-17.122-2.584-.029.029-.059.029-.059,0a7.358,7.358,0,0,1-.881-.059Z" transform="translate(24.099 -15.48)" fill="#2c3c3f"/>
        </g>
        <path id="Trazado_173713" data-name="Trazado 173713" d="M35.038,47.368c-5.58-3.789-9.4-11.513-9.4-20.441C25.64,14.3,33.335,3.99,42.791,3.99c9.427,0,17.122,10.279,17.122,22.937,0,8.928-3.818,16.652-9.4,20.441Z" transform="translate(11.333 -3.99)" fill="#324448"/>
        <path id="Trazado_173714" data-name="Trazado 173714" d="M56.219,15.621c0,11.748-6.7,21.292-14.919,21.292S26.41,27.369,26.41,15.621C26.381,7.31,56.219,7.31,56.219,15.621Z" transform="translate(12.824 6.464)" fill="#2c3c3f"/>
        <path id="Trazado_173715" data-name="Trazado 173715" d="M26.41,15.607a27.728,27.728,0,0,0,2.731,12.247c6.079-.617,12.159-.91,12.159-.91s6.079.264,12.159.91a27.642,27.642,0,0,0,2.761-12.247c0-8.282-29.809-8.282-29.809,0Z" transform="translate(12.824 6.479)" fill="#252525"/>
        <path id="Trazado_173716" data-name="Trazado 173716" d="M29.65,13.44v7.254a5.375,5.375,0,0,0,10.749,0V13.44Z" transform="translate(19.1 14.314)" fill="#f7be8b"/>
        <g id="Grupo_112071" data-name="Grupo 112071" transform="translate(41.613 15.866)">
          <path id="Trazado_173717" data-name="Trazado 173717" d="M28.22,10.766v10.4a4.214,4.214,0,0,0,1.557,3.2l3.436,2.643c.029.029.029.029.059.029a.833.833,0,0,0,.264.176,3.688,3.688,0,0,0,2.144.646h4.17a3.688,3.688,0,0,0,2.144-.646.6.6,0,0,0,.264-.176c.029,0,.029,0,.059-.029l3.436-2.643a4.168,4.168,0,0,0,1.557-3.2V10.736c-.558-.176-1.116-.352-1.7-.5a37.009,37.009,0,0,0-15.448-.059,12.182,12.182,0,0,0-1.938.587Z" transform="translate(-25.283 -9.392)" fill="#fc9"/>
          <path id="Trazado_173718" data-name="Trazado 173718" d="M27.86,12.851l2.438,1.7a13.132,13.132,0,0,0,.646-4.9,16.968,16.968,0,0,0-3.054.94,5.316,5.316,0,0,1-.029,2.261Z" transform="translate(-25.98 -8.894)" fill="#333"/>
          <path id="Trazado_173719" data-name="Trazado 173719" d="M34.17,9.68a18.292,18.292,0,0,0,.382,4.758,6.512,6.512,0,0,1,1.909-2.643,3.458,3.458,0,0,0,.734-1.145A19.269,19.269,0,0,0,34.17,9.68Z" transform="translate(-13.759 -8.835)" fill="#333"/>
          <g id="Grupo_112070" data-name="Grupo 112070" transform="translate(0 1.079)">
            <path id="Trazado_173720" data-name="Trazado 173720" d="M27.22,11.346a2.5,2.5,0,0,0,.176.5,15.757,15.757,0,0,1,.764,2.261c.117.5.117,1,.235,1.527a1.631,1.631,0,0,0,.881,1.2.956.956,0,0,0,1.292-.411l1.087-1.821a6.223,6.223,0,0,0-.587-4.846A12.852,12.852,0,0,0,27.22,11.346Z" transform="translate(-27.22 -9.76)" fill="#fc9"/>
            <path id="Trazado_173721" data-name="Trazado 173721" d="M34.4,14.587l1.087,1.821a.925.925,0,0,0,1.292.411,1.686,1.686,0,0,0,.881-1.2c.147-.529.147-1.057.235-1.527a15.755,15.755,0,0,1,.764-2.261,2.5,2.5,0,0,0,.176-.5A13.1,13.1,0,0,0,35.014,9.77,6.129,6.129,0,0,0,34.4,14.587Z" transform="translate(-13.78 -9.741)" fill="#fc9"/>
          </g>
        </g>
        <g id="Grupo_112073" data-name="Grupo 112073" transform="translate(45.607 17.198)">
          <path id="Trazado_173722" data-name="Trazado 173722" d="M28.58,9.858l.235,4.7a1.639,1.639,0,0,0,1.116,1.468l2.643.91a3.242,3.242,0,0,0,2.291-.059l2.261-.91,2.261.91a3.242,3.242,0,0,0,2.291.059l2.643-.91a1.649,1.649,0,0,0,1.116-1.468l.235-4.7C41.032,9.623,37.126,13,37.126,13S33.22,9.652,28.58,9.858Z" transform="translate(-28.58 -9.846)" fill="#333"/>
          <g id="Grupo_112072" data-name="Grupo 112072" transform="translate(1.821 1.627)">
            <path id="Trazado_173723" data-name="Trazado 173723" d="M36.869,10.4l-4.7,2.467s.94,2.115,2.761,1.468C36.693,13.748,36.869,10.4,36.869,10.4Z" transform="translate(-23.447 -10.4)" fill="#fff"/>
            <path id="Trazado_173724" data-name="Trazado 173724" d="M29.2,10.4l4.7,2.467s-.94,2.115-2.761,1.468C29.376,13.748,29.2,10.4,29.2,10.4Z" transform="translate(-29.2 -10.4)" fill="#fff"/>
          </g>
        </g>
        <path id="Trazado_173725" data-name="Trazado 173725" d="M26.41,15.607a27.305,27.305,0,0,0,.734,6.491c4.2-5.433,24.171-5.433,28.37,0a27.481,27.481,0,0,0,.734-6.491C56.219,7.324,26.41,7.324,26.41,15.607Z" transform="translate(12.824 6.479)" opacity="0.1"/>
        <path id="Trazado_173726" data-name="Trazado 173726" d="M37.91,53.935H40.7l.675-26.021,2.614,6.667,1.733,19.354h3.906l-2.7-21.146-5.14-7.695-1.38-3.054Z" transform="translate(35.099 30.971)" fill="#2c3c3f"/>
      </g>
    </g>
    <g id="Grupo_112076" data-name="Grupo 112076" transform="translate(6.646 59.703)">
      <path id="Trazado_173727" data-name="Trazado 173727" d="M120.358,28.746v61.44a5.778,5.778,0,0,1-5.786,5.786H14.836A5.778,5.778,0,0,1,9.05,90.185V28.746a5.778,5.778,0,0,1,5.786-5.786h99.737a5.778,5.778,0,0,1,5.786,5.786Z" transform="translate(-1.991 -22.96)" fill="#333"/>
      <path id="Trazado_173728" data-name="Trazado 173728" d="M11.05,24.96h99.561V86.224H11.05Z" transform="translate(1.883 -19.086)" fill="#e9dcfd"/>
      <path id="Trazado_173729" data-name="Trazado 173729" d="M29.93,24.735a1.16,1.16,0,0,1-2.32,0,1.16,1.16,0,1,1,2.32,0Z" transform="translate(33.958 -21.798)" fill="#252525"/>
      <path id="Trazado_173730" data-name="Trazado 173730" d="M132,49.612l-.94,2.908a10.886,10.886,0,0,1-10.4,7.577H18.052a10.886,10.886,0,0,1-10.4-7.577l-.94-2.908A1.37,1.37,0,0,1,8.008,47.82H130.682A1.387,1.387,0,0,1,132,49.612Z" transform="translate(-6.646 25.191)" fill="#dcdfd4"/>
      <path id="Trazado_173731" data-name="Trazado 173731" d="M62.75,47.82l-.5,1.557A3.623,3.623,0,0,1,58.815,51.9H24.805a3.6,3.6,0,0,1-3.436-2.526l-.5-1.557Z" transform="translate(20.903 25.191)" fill="#c4c6b6"/>
    </g>
    <g id="Grupo_112085" data-name="Grupo 112085" transform="translate(38.581 28.774)">
      <g id="Grupo_112077" data-name="Grupo 112077" transform="translate(3.098 0)">
        <path id="Trazado_173732" data-name="Trazado 173732" d="M19.941,51.375a.452.452,0,0,0,.441-.441c0-.176-.176-19.031-.91-30.6-.147-2.291,0-6.226,2.643-6.931,1.733-.47,3.466.822,4.493,2.173.441.558.822,1.175,1.2,1.762A14.656,14.656,0,0,0,30.1,20.274a.437.437,0,1,0,.587-.646,13.771,13.771,0,0,1-2.144-2.79,18.378,18.378,0,0,0-1.263-1.821c-1.233-1.557-3.289-3.025-5.4-2.467-3.054.822-3.466,4.7-3.26,7.812.734,11.571.91,30.367.91,30.544a.435.435,0,0,0,.411.47Z" transform="translate(-18.575 -12.429)" fill="#8f402f"/>
      </g>
      <g id="Grupo_112081" data-name="Grupo 112081" transform="translate(1.233 36.068)">
        <g id="Grupo_112078" data-name="Grupo 112078" transform="translate(2.026 4.787)">
          <path id="Trazado_173733" data-name="Trazado 173733" d="M19.687,26.839a1.311,1.311,0,0,0,1.057-.5V37.618A4.849,4.849,0,0,0,30.319,38.7h-.47a1.046,1.046,0,0,1-.94-.587A1.1,1.1,0,0,1,29.027,37l1.645-2.026a1.062,1.062,0,0,1,1.88.675v2.056a6.961,6.961,0,0,1-13.921-.059V26.4a1.41,1.41,0,0,0,1.057.441Z" transform="translate(-18.63 -26.34)" fill="#fcb040"/>
        </g>
        <g id="Grupo_112080" data-name="Grupo 112080">
          <g id="Grupo_112079" data-name="Grupo 112079">
            <path id="Trazado_173734" data-name="Trazado 173734" d="M17.94,27.764a3.122,3.122,0,0,1,3.113-3.054,3.069,3.069,0,1,1,0,6.138A3.147,3.147,0,0,1,17.94,27.764Zm1.41,0a1.739,1.739,0,0,0,1.7,1.674,1.692,1.692,0,0,0,1.674-1.674,1.667,1.667,0,0,0-1.674-1.645A1.713,1.713,0,0,0,19.35,27.764Z" transform="translate(-17.94 -24.71)" fill="#fcb040"/>
          </g>
        </g>
      </g>
      <g id="Grupo_112082" data-name="Grupo 112082" transform="translate(4.023 35.041)">
        <path id="Trazado_173735" data-name="Trazado 173735" d="M19.331,28.266a.472.472,0,0,0,.323-.147A5,5,0,0,0,20.888,24.8a.441.441,0,0,0-.881,0,4.445,4.445,0,0,1-1,2.731.427.427,0,0,0,.029.617.62.62,0,0,0,.294.117Z" transform="translate(-18.89 -24.36)" fill="#8f402f"/>
      </g>
      <g id="Grupo_112083" data-name="Grupo 112083" transform="translate(2.908 35.041)">
        <path id="Trazado_173736" data-name="Trazado 173736" d="M20.067,28.266a.377.377,0,0,0,.294-.117.454.454,0,0,0,.029-.617,4.257,4.257,0,0,1-1-2.731.441.441,0,1,0-.881,0,5.113,5.113,0,0,0,1.263,3.319.361.361,0,0,0,.294.147Z" transform="translate(-18.51 -24.36)" fill="#8f402f"/>
      </g>
      <path id="Trazado_173737" data-name="Trazado 173737" d="M17.52,30.25V68.988H79.048V30.25Zm9.927,5.639a2.643,2.643,0,1,1,2.643,2.673A2.651,2.651,0,0,1,27.447,35.889Z" transform="translate(-17.52 22.089)" fill="#389bc2"/>
      <path id="Trazado_173738" data-name="Trazado 173738" d="M21,37.033a4.878,4.878,0,0,0,4.728-3.759h-.47a1.046,1.046,0,0,1-.94-.587,1.1,1.1,0,0,1,.117-1.116l1.645-2.026a1.062,1.062,0,0,1,1.88.675v2.056a6.963,6.963,0,0,1-6.96,6.9" transform="translate(-10.78 19.976)" fill="#fcb040"/>
      <g id="Grupo_112084" data-name="Grupo 112084" transform="translate(5.668 63.235)">
        <path id="Trazado_173739" data-name="Trazado 173739" d="M19.45,33.96H69.7v9.427H19.45Z" transform="translate(-19.45 -33.96)" fill="#fff"/>
        <path id="Trazado_173740" data-name="Trazado 173740" d="M19.45,38.41H69.7v9.427H19.45Z" transform="translate(-19.45 -25.341)" fill="#fff"/>
      </g>
    </g>
    <path id="Trazado_173741" data-name="Trazado 173741" d="M19.7,11.21C21.136,12,23.779,15.439,22.311,16c-1.116.411-3.231-2.173-3.231-2.173" transform="translate(24.083 13.984)" fill="#333"/>
  </g>
</svg>
