<svg xmlns="http://www.w3.org/2000/svg" xmlns:xlink="http://www.w3.org/1999/xlink" width="1103.778" height="376.848" viewBox="0 0 1103.778 376.848">
  <defs>
    <clipPath id="clip-path">
      <rect id="Rectángulo_39193" data-name="Rectángulo 39193" width="43.534" height="13.195" fill="none" stroke="#500c75" stroke-width="1"/>
    </clipPath>
  </defs>
  <g id="Grupo_150877" data-name="Grupo 150877" transform="translate(-248 -1659.567)">
    <path id="Trazado_221535" data-name="Trazado 221535" d="M7836-6675.085v-49.481h85" transform="translate(-7566.232 8394.016)" fill="none" stroke="#79f5ed" stroke-width="8"/>
    <path id="Trazado_221546" data-name="Trazado 221546" d="M0,0V53.86H85" transform="translate(657.231 1978.555)" fill="none" stroke="#79f5ed" stroke-width="8"/>
    <path id="Trazado_221554" data-name="Trazado 221554" d="M34.772,12.954a1.818,1.818,0,0,0-.589-1.378,4.909,4.909,0,0,0-2.075-.946,6.911,6.911,0,0,1-2.876-1.345A2.821,2.821,0,0,1,28.2,7.052,2.98,2.98,0,0,1,29.31,4.686,4.3,4.3,0,0,1,32.2,3.74a4.219,4.219,0,0,1,3.042,1.083,3.281,3.281,0,0,1,1.1,2.528l-.025.05H34.755a2.231,2.231,0,0,0-.718-1.7A2.583,2.583,0,0,0,32.2,5.026a2.518,2.518,0,0,0-1.756.556,1.864,1.864,0,0,0-.61,1.444A1.613,1.613,0,0,0,30.5,8.343a6.163,6.163,0,0,0,2.171.926,6.162,6.162,0,0,1,2.781,1.395,3.036,3.036,0,0,1,.955,2.274,2.823,2.823,0,0,1-1.15,2.349,4.772,4.772,0,0,1-3,.888,5.1,5.1,0,0,1-3.092-.979,2.986,2.986,0,0,1-1.3-2.623l.017-.05h1.561a2.031,2.031,0,0,0,.863,1.756,3.268,3.268,0,0,0,1.951.618,2.933,2.933,0,0,0,1.839-.523A1.7,1.7,0,0,0,34.772,12.954Zm7.446,3.221A3.8,3.8,0,0,1,39.2,14.938a4.76,4.76,0,0,1-1.083-3.254v-.365a4.66,4.66,0,0,1,1.116-3.2A3.5,3.5,0,0,1,41.96,6.853a3.259,3.259,0,0,1,2.7,1.121,4.617,4.617,0,0,1,.9,2.98v.863H39.819l-.025.042a3.712,3.712,0,0,0,.6,2.2,2.088,2.088,0,0,0,1.826.843,4.114,4.114,0,0,0,1.457-.237,3.252,3.252,0,0,0,1.075-.652l.639,1.063a3.93,3.93,0,0,1-1.27.784A5.059,5.059,0,0,1,42.218,16.174ZM41.96,8.139a1.778,1.778,0,0,0-1.415.66,3.122,3.122,0,0,0-.685,1.689l.017.042h4.051V10.4a2.615,2.615,0,0,0-.481-1.619A1.74,1.74,0,0,0,41.96,8.139Zm5.146,3.536a5.994,5.994,0,0,1,.926-3.495,2.974,2.974,0,0,1,2.586-1.328,3.152,3.152,0,0,1,1.5.344,3.023,3.023,0,0,1,1.087.992l.2-1.17h1.3V16.05a3.426,3.426,0,0,1-1,2.652,4.126,4.126,0,0,1-2.9.926,6.074,6.074,0,0,1-1.4-.178,5.469,5.469,0,0,1-1.324-.486l.249-1.27a4.729,4.729,0,0,0,1.141.4,5.861,5.861,0,0,0,1.316.154,2.382,2.382,0,0,0,1.739-.544,2.253,2.253,0,0,0,.544-1.656V15.029a2.9,2.9,0,0,1-1.054.855,3.285,3.285,0,0,1-1.419.291,3.071,3.071,0,0,1-2.569-1.191,4.966,4.966,0,0,1-.926-3.134Zm1.635.174a3.817,3.817,0,0,0,.556,2.175,1.93,1.93,0,0,0,1.718.822,2.161,2.161,0,0,0,1.237-.336,2.552,2.552,0,0,0,.822-.95V9.426a2.537,2.537,0,0,0-.822-.909,2.156,2.156,0,0,0-1.22-.336,1.862,1.862,0,0,0-1.731.971,5.013,5.013,0,0,0-.56,2.523Zm14.02,2.822a3.042,3.042,0,0,1-1.087,1.112,2.975,2.975,0,0,1-1.536.39,2.885,2.885,0,0,1-2.291-.938,4.355,4.355,0,0,1-.822-2.922v-5.3h1.635v5.313a3.344,3.344,0,0,0,.423,1.976,1.574,1.574,0,0,0,1.32.54,2.69,2.69,0,0,0,1.44-.353,2.207,2.207,0,0,0,.859-1V7.019h1.635V16H62.87Zm8.209-6.209-.838-.05a1.873,1.873,0,0,0-1.092.307,1.97,1.97,0,0,0-.685.863V16H66.721V7.019h1.461L68.34,8.33a3.118,3.118,0,0,1,.942-1.087,2.2,2.2,0,0,1,1.291-.39,2.021,2.021,0,0,1,.349.029,2.31,2.31,0,0,1,.274.062ZM74.441,16H72.806V7.019h1.635Zm0-11.281H72.806V3.051h1.635Zm2.142,6.956a5.994,5.994,0,0,1,.926-3.495A2.982,2.982,0,0,1,80.1,6.853a3.216,3.216,0,0,1,1.4.291,2.867,2.867,0,0,1,1.042.847V3.051h1.635V16H82.925l-.249-1.137a2.915,2.915,0,0,1-1.087.979,3.249,3.249,0,0,1-1.5.332,3.082,3.082,0,0,1-2.573-1.191,4.95,4.95,0,0,1-.93-3.134Zm1.635.174a3.813,3.813,0,0,0,.556,2.179,1.942,1.942,0,0,0,1.727.818,2.166,2.166,0,0,0,1.229-.332,2.479,2.479,0,0,0,.813-.93V9.393a2.518,2.518,0,0,0-.818-.884,2.16,2.16,0,0,0-1.208-.328,1.869,1.869,0,0,0-1.739.971,5.013,5.013,0,0,0-.56,2.523ZM92.138,16q-.083-.407-.129-.718a5.27,5.27,0,0,1-.054-.627,3.813,3.813,0,0,1-1.191,1.083,3.046,3.046,0,0,1-1.581.436,2.936,2.936,0,0,1-2.137-.718,2.641,2.641,0,0,1-.735-1.98,2.32,2.32,0,0,1,1.042-2.013,4.865,4.865,0,0,1,2.826-.726h1.776V9.849A1.648,1.648,0,0,0,91.474,8.6a1.89,1.89,0,0,0-1.361-.461,1.975,1.975,0,0,0-1.287.4,1.2,1.2,0,0,0-.49.955l-1.552.017-.017-.05a2.15,2.15,0,0,1,.917-1.793A3.8,3.8,0,0,1,90.2,6.853a3.709,3.709,0,0,1,2.457.776,2.749,2.749,0,0,1,.93,2.237V14.19a8.418,8.418,0,0,0,.05.93,4.781,4.781,0,0,0,.183.88Zm-2.714-1.2a2.91,2.91,0,0,0,1.6-.457,2.17,2.17,0,0,0,.93-1.046V11.841H90.121a2.38,2.38,0,0,0-1.581.5,1.489,1.489,0,0,0-.594,1.17,1.232,1.232,0,0,0,.374.946A1.564,1.564,0,0,0,89.424,14.8Zm6.167-3.129a5.994,5.994,0,0,1,.926-3.495,2.982,2.982,0,0,1,2.594-1.328,3.216,3.216,0,0,1,1.4.291,2.867,2.867,0,0,1,1.042.847V3.051h1.635V16h-1.253l-.249-1.137a2.915,2.915,0,0,1-1.087.979,3.249,3.249,0,0,1-1.5.332,3.082,3.082,0,0,1-2.573-1.191,4.95,4.95,0,0,1-.93-3.134Zm1.635.174a3.813,3.813,0,0,0,.556,2.179,1.942,1.942,0,0,0,1.727.818,2.166,2.166,0,0,0,1.229-.332,2.479,2.479,0,0,0,.813-.93V9.393a2.518,2.518,0,0,0-.818-.884,2.16,2.16,0,0,0-1.208-.328,1.869,1.869,0,0,0-1.739.971,5.013,5.013,0,0,0-.56,2.523Zm12.252-.174a5.994,5.994,0,0,1,.926-3.495A2.982,2.982,0,0,1,113,6.853a3.216,3.216,0,0,1,1.4.291,2.867,2.867,0,0,1,1.042.847V3.051h1.635V16h-1.253l-.249-1.137a2.915,2.915,0,0,1-1.087.979,3.249,3.249,0,0,1-1.5.332,3.082,3.082,0,0,1-2.573-1.191,4.95,4.95,0,0,1-.93-3.134Zm1.635.174a3.813,3.813,0,0,0,.556,2.179,1.942,1.942,0,0,0,1.727.818,2.166,2.166,0,0,0,1.229-.332,2.479,2.479,0,0,0,.813-.93V9.393a2.518,2.518,0,0,0-.818-.884,2.16,2.16,0,0,0-1.208-.328,1.869,1.869,0,0,0-1.739.971,5.013,5.013,0,0,0-.56,2.523Zm12.119,4.325a3.8,3.8,0,0,1-3.017-1.237,4.76,4.76,0,0,1-1.083-3.254v-.365a4.66,4.66,0,0,1,1.116-3.2,3.5,3.5,0,0,1,2.727-1.266,3.259,3.259,0,0,1,2.7,1.121,4.617,4.617,0,0,1,.9,2.98v.863h-5.744l-.025.042a3.712,3.712,0,0,0,.6,2.2,2.088,2.088,0,0,0,1.826.843,4.114,4.114,0,0,0,1.457-.237,3.252,3.252,0,0,0,1.075-.652l.639,1.063a3.93,3.93,0,0,1-1.27.784A5.059,5.059,0,0,1,123.233,16.174Zm-.257-8.035a1.778,1.778,0,0,0-1.415.66,3.122,3.122,0,0,0-.685,1.689l.017.042h4.051V10.4a2.615,2.615,0,0,0-.481-1.619A1.74,1.74,0,0,0,122.976,8.139ZM134.406,16h-1.635V3.051h1.635Zm8.035,0q-.083-.407-.129-.718a5.27,5.27,0,0,1-.054-.627,3.813,3.813,0,0,1-1.191,1.083,3.046,3.046,0,0,1-1.581.436,2.936,2.936,0,0,1-2.137-.718,2.641,2.641,0,0,1-.735-1.98,2.32,2.32,0,0,1,1.042-2.013,4.865,4.865,0,0,1,2.826-.726h1.776V9.849a1.648,1.648,0,0,0-.481-1.249,1.89,1.89,0,0,0-1.361-.461,1.975,1.975,0,0,0-1.287.4,1.2,1.2,0,0,0-.49.955l-1.552.017-.017-.05a2.15,2.15,0,0,1,.917-1.793,3.8,3.8,0,0,1,2.519-.813,3.709,3.709,0,0,1,2.457.776,2.749,2.749,0,0,1,.93,2.237V14.19a8.418,8.418,0,0,0,.05.93,4.78,4.78,0,0,0,.183.88Zm-2.714-1.2a2.91,2.91,0,0,0,1.6-.457,2.17,2.17,0,0,0,.93-1.046V11.841h-1.834a2.38,2.38,0,0,0-1.581.5,1.489,1.489,0,0,0-.594,1.17,1.232,1.232,0,0,0,.374.946A1.564,1.564,0,0,0,139.727,14.8ZM43.023,40H41.387V31.019h1.635Zm0-11.281H41.387V27.051h1.635ZM47,31.019l.116,1.336a3.261,3.261,0,0,1,1.125-1.108,3,3,0,0,1,1.54-.394,2.932,2.932,0,0,1,2.25.851,3.735,3.735,0,0,1,.8,2.627V40H51.191V34.364a2.43,2.43,0,0,0-.469-1.685,1.879,1.879,0,0,0-1.432-.5,2.535,2.535,0,0,0-1.282.3,2.2,2.2,0,0,0-.834.851V40H45.538V31.019ZM55.881,40V32.23h-1.4V31.019h1.4V29.881a3.082,3.082,0,0,1,.751-2.22,2.765,2.765,0,0,1,2.1-.784,3.607,3.607,0,0,1,.569.046q.286.046.635.129l-.2,1.245q-.149-.033-.361-.058a3.8,3.8,0,0,0-.444-.025,1.29,1.29,0,0,0-1.062.427,1.922,1.922,0,0,0-.349,1.241v1.137h1.627V32.23H57.516V40Zm4.532-4.574a4.945,4.945,0,0,1,1.079-3.283,4,4,0,0,1,5.881,0,4.929,4.929,0,0,1,1.083,3.287v.183A4.921,4.921,0,0,1,67.377,38.9a4.017,4.017,0,0,1-5.881,0,4.912,4.912,0,0,1-1.083-3.283Zm1.635.183a4.26,4.26,0,0,0,.6,2.357,2.174,2.174,0,0,0,3.565,0,4.238,4.238,0,0,0,.606-2.357v-.183a4.225,4.225,0,0,0-.61-2.349,2,2,0,0,0-1.789-.938,1.972,1.972,0,0,0-1.772.938,4.269,4.269,0,0,0-.6,2.349Zm12.659-3.146-.838-.05a1.873,1.873,0,0,0-1.092.307,1.97,1.97,0,0,0-.685.863V40H70.457V31.019h1.461l.158,1.312a3.118,3.118,0,0,1,.942-1.087,2.2,2.2,0,0,1,1.291-.39,2.021,2.021,0,0,1,.349.029,2.31,2.31,0,0,1,.274.062Zm3.163-1.444.116,1.179a3.051,3.051,0,0,1,1.116-.992,3.355,3.355,0,0,1,1.573-.353,2.779,2.779,0,0,1,1.54.415,2.511,2.511,0,0,1,.967,1.245A3.36,3.36,0,0,1,84.307,31.3a2.942,2.942,0,0,1,1.623-.444,2.689,2.689,0,0,1,2.167.942,4.3,4.3,0,0,1,.8,2.835V40H87.258V34.613a2.985,2.985,0,0,0-.457-1.88,1.665,1.665,0,0,0-1.361-.552,1.733,1.733,0,0,0-1.357.581,2.53,2.53,0,0,0-.61,1.469V40H81.829V34.613a2.945,2.945,0,0,0-.469-1.847,1.628,1.628,0,0,0-1.349-.585,2.247,2.247,0,0,0-1.229.307,1.984,1.984,0,0,0-.739.863V40H76.408V31.019ZM96.787,40q-.083-.407-.129-.718a5.27,5.27,0,0,1-.054-.627,3.813,3.813,0,0,1-1.191,1.083,3.046,3.046,0,0,1-1.581.436,2.936,2.936,0,0,1-2.137-.718,2.641,2.641,0,0,1-.735-1.98A2.32,2.32,0,0,1,92,35.464a4.865,4.865,0,0,1,2.826-.726H96.6v-.888a1.648,1.648,0,0,0-.481-1.249,1.89,1.89,0,0,0-1.361-.461,1.975,1.975,0,0,0-1.287.4,1.2,1.2,0,0,0-.49.955l-1.552.017-.017-.05a2.15,2.15,0,0,1,.917-1.793,3.8,3.8,0,0,1,2.519-.813,3.709,3.709,0,0,1,2.457.776,2.749,2.749,0,0,1,.93,2.237V38.19a8.418,8.418,0,0,0,.05.93,4.781,4.781,0,0,0,.183.88Zm-2.714-1.2a2.91,2.91,0,0,0,1.6-.457A2.17,2.17,0,0,0,96.6,37.3V35.841H94.77a2.38,2.38,0,0,0-1.581.5,1.489,1.489,0,0,0-.594,1.17,1.232,1.232,0,0,0,.374.946A1.564,1.564,0,0,0,94.073,38.8Zm10.11.091a1.923,1.923,0,0,0,1.32-.5,1.587,1.587,0,0,0,.564-1.233h1.478l.025.05a2.579,2.579,0,0,1-1,2.063,3.806,3.806,0,0,1-5.312-.386,4.966,4.966,0,0,1-1.029-3.2v-.349a4.945,4.945,0,0,1,1.033-3.192,3.524,3.524,0,0,1,2.918-1.291,3.389,3.389,0,0,1,2.461.93,2.948,2.948,0,0,1,.926,2.283l-.017.05h-1.486a1.982,1.982,0,0,0-.535-1.4,1.762,1.762,0,0,0-1.349-.577,1.888,1.888,0,0,0-1.756.934,4.371,4.371,0,0,0-.552,2.262v.349a4.454,4.454,0,0,0,.544,2.283A1.887,1.887,0,0,0,104.183,38.9Zm7.1,1.1h-1.635V31.019h1.635Zm0-11.281h-1.635V27.051h1.635Zm2.133,6.707a4.945,4.945,0,0,1,1.079-3.283,4,4,0,0,1,5.881,0,4.929,4.929,0,0,1,1.083,3.287v.183a4.921,4.921,0,0,1-1.079,3.287,4.017,4.017,0,0,1-5.881,0,4.912,4.912,0,0,1-1.083-3.283Zm1.635.183a4.26,4.26,0,0,0,.6,2.357,2.174,2.174,0,0,0,3.565,0,4.238,4.238,0,0,0,.606-2.357v-.183a4.225,4.225,0,0,0-.61-2.349,2,2,0,0,0-1.789-.938,1.972,1.972,0,0,0-1.772.938,4.269,4.269,0,0,0-.6,2.349Zm3.179-8.4h1.909l.017.05-2.233,2.158h-1.229Zm6.69,3.81.116,1.336a3.261,3.261,0,0,1,1.125-1.108,3,3,0,0,1,1.54-.394,2.932,2.932,0,0,1,2.25.851,3.735,3.735,0,0,1,.8,2.627V40H129.11V34.364a2.43,2.43,0,0,0-.469-1.685,1.879,1.879,0,0,0-1.432-.5,2.535,2.535,0,0,0-1.282.3,2.2,2.2,0,0,0-.834.851V40h-1.635V31.019Z" transform="translate(323.767 1724)" fill="#500c75"/>
    <path id="Trazado_221553" data-name="Trazado 221553" d="M19.7,12.954a1.818,1.818,0,0,0-.589-1.378,4.909,4.909,0,0,0-2.075-.946,6.911,6.911,0,0,1-2.876-1.345,2.821,2.821,0,0,1-1.033-2.233,2.98,2.98,0,0,1,1.112-2.366,4.3,4.3,0,0,1,2.889-.946,4.219,4.219,0,0,1,3.042,1.083,3.281,3.281,0,0,1,1.1,2.528l-.025.05H19.683a2.231,2.231,0,0,0-.718-1.7,2.583,2.583,0,0,0-1.839-.672,2.518,2.518,0,0,0-1.756.556,1.864,1.864,0,0,0-.61,1.444,1.613,1.613,0,0,0,.668,1.316,6.163,6.163,0,0,0,2.171.926,6.162,6.162,0,0,1,2.781,1.395,3.036,3.036,0,0,1,.955,2.274,2.823,2.823,0,0,1-1.15,2.349,4.772,4.772,0,0,1-3,.888,5.1,5.1,0,0,1-3.092-.979,2.986,2.986,0,0,1-1.3-2.623l.017-.05H14.37a2.031,2.031,0,0,0,.863,1.756,3.268,3.268,0,0,0,1.951.618,2.933,2.933,0,0,0,1.839-.523A1.7,1.7,0,0,0,19.7,12.954Zm7.446,3.221a3.8,3.8,0,0,1-3.017-1.237,4.76,4.76,0,0,1-1.083-3.254v-.365a4.66,4.66,0,0,1,1.116-3.2,3.5,3.5,0,0,1,2.727-1.266,3.259,3.259,0,0,1,2.7,1.121,4.617,4.617,0,0,1,.9,2.98v.863H24.746l-.025.042a3.712,3.712,0,0,0,.6,2.2,2.088,2.088,0,0,0,1.826.843,4.114,4.114,0,0,0,1.457-.237,3.252,3.252,0,0,0,1.075-.652l.639,1.063a3.93,3.93,0,0,1-1.27.784A5.059,5.059,0,0,1,27.145,16.174Zm-.257-8.035a1.778,1.778,0,0,0-1.415.66,3.122,3.122,0,0,0-.685,1.689l.017.042h4.051V10.4a2.615,2.615,0,0,0-.481-1.619A1.74,1.74,0,0,0,26.888,8.139Zm5.146,3.536a5.994,5.994,0,0,1,.926-3.495,2.974,2.974,0,0,1,2.586-1.328,3.152,3.152,0,0,1,1.5.344,3.023,3.023,0,0,1,1.087.992l.2-1.17h1.3V16.05a3.426,3.426,0,0,1-1,2.652,4.126,4.126,0,0,1-2.9.926,6.074,6.074,0,0,1-1.4-.178,5.469,5.469,0,0,1-1.324-.486l.249-1.27a4.729,4.729,0,0,0,1.141.4,5.861,5.861,0,0,0,1.316.154,2.382,2.382,0,0,0,1.739-.544A2.253,2.253,0,0,0,38,16.05V15.029a2.9,2.9,0,0,1-1.054.855,3.285,3.285,0,0,1-1.419.291,3.071,3.071,0,0,1-2.569-1.191,4.966,4.966,0,0,1-.926-3.134Zm1.635.174a3.817,3.817,0,0,0,.556,2.175,1.93,1.93,0,0,0,1.718.822,2.161,2.161,0,0,0,1.237-.336A2.552,2.552,0,0,0,38,13.56V9.426a2.537,2.537,0,0,0-.822-.909,2.156,2.156,0,0,0-1.22-.336,1.862,1.862,0,0,0-1.731.971,5.013,5.013,0,0,0-.56,2.523Zm14.02,2.822A3.042,3.042,0,0,1,46.6,15.784a2.975,2.975,0,0,1-1.536.39,2.885,2.885,0,0,1-2.291-.938,4.355,4.355,0,0,1-.822-2.922v-5.3h1.635v5.313a3.344,3.344,0,0,0,.423,1.976,1.574,1.574,0,0,0,1.32.54,2.69,2.69,0,0,0,1.44-.353,2.207,2.207,0,0,0,.859-1V7.019h1.635V16H47.8ZM55.9,8.463l-.838-.05a1.873,1.873,0,0,0-1.092.307,1.97,1.97,0,0,0-.685.863V16H51.649V7.019H53.11l.158,1.312a3.118,3.118,0,0,1,.942-1.087,2.2,2.2,0,0,1,1.291-.39,2.02,2.02,0,0,1,.349.029,2.311,2.311,0,0,1,.274.062ZM59.369,16H57.733V7.019h1.635Zm0-11.281H57.733V3.051h1.635Zm2.142,6.956a5.994,5.994,0,0,1,.926-3.495A2.982,2.982,0,0,1,65.03,6.853a3.216,3.216,0,0,1,1.4.291,2.867,2.867,0,0,1,1.042.847V3.051h1.635V16H67.852L67.6,14.863a2.915,2.915,0,0,1-1.087.979,3.249,3.249,0,0,1-1.5.332,3.082,3.082,0,0,1-2.573-1.191,4.95,4.95,0,0,1-.93-3.134Zm1.635.174a3.813,3.813,0,0,0,.556,2.179,1.942,1.942,0,0,0,1.727.818,2.166,2.166,0,0,0,1.229-.332,2.479,2.479,0,0,0,.813-.93V9.393a2.518,2.518,0,0,0-.818-.884,2.16,2.16,0,0,0-1.208-.328,1.869,1.869,0,0,0-1.739.971,5.013,5.013,0,0,0-.56,2.523ZM77.066,16q-.083-.407-.129-.718a5.27,5.27,0,0,1-.054-.627,3.813,3.813,0,0,1-1.191,1.083,3.046,3.046,0,0,1-1.581.436,2.936,2.936,0,0,1-2.137-.718,2.641,2.641,0,0,1-.735-1.98,2.32,2.32,0,0,1,1.042-2.013,4.865,4.865,0,0,1,2.826-.726h1.776V9.849A1.648,1.648,0,0,0,76.4,8.6a1.89,1.89,0,0,0-1.361-.461,1.975,1.975,0,0,0-1.287.4,1.2,1.2,0,0,0-.49.955l-1.552.017-.017-.05a2.15,2.15,0,0,1,.917-1.793,3.8,3.8,0,0,1,2.519-.813,3.709,3.709,0,0,1,2.457.776,2.749,2.749,0,0,1,.93,2.237V14.19a8.418,8.418,0,0,0,.05.93,4.781,4.781,0,0,0,.183.88Zm-2.714-1.2a2.91,2.91,0,0,0,1.6-.457,2.17,2.17,0,0,0,.93-1.046V11.841H75.049a2.38,2.38,0,0,0-1.581.5,1.489,1.489,0,0,0-.594,1.17,1.232,1.232,0,0,0,.374.946A1.564,1.564,0,0,0,74.352,14.8Zm6.167-3.129a5.994,5.994,0,0,1,.926-3.495,2.982,2.982,0,0,1,2.594-1.328,3.216,3.216,0,0,1,1.4.291,2.867,2.867,0,0,1,1.042.847V3.051h1.635V16H86.861l-.249-1.137a2.915,2.915,0,0,1-1.087.979,3.249,3.249,0,0,1-1.5.332,3.082,3.082,0,0,1-2.573-1.191,4.95,4.95,0,0,1-.93-3.134Zm1.635.174a3.813,3.813,0,0,0,.556,2.179,1.942,1.942,0,0,0,1.727.818,2.166,2.166,0,0,0,1.229-.332,2.479,2.479,0,0,0,.813-.93V9.393a2.518,2.518,0,0,0-.818-.884,2.16,2.16,0,0,0-1.208-.328,1.869,1.869,0,0,0-1.739.971,5.013,5.013,0,0,0-.56,2.523Zm12.252-.174a5.994,5.994,0,0,1,.926-3.495,2.982,2.982,0,0,1,2.594-1.328,3.216,3.216,0,0,1,1.4.291,2.867,2.867,0,0,1,1.042.847V3.051H102V16h-1.253l-.249-1.137a2.915,2.915,0,0,1-1.087.979,3.249,3.249,0,0,1-1.5.332,3.082,3.082,0,0,1-2.573-1.191,4.95,4.95,0,0,1-.93-3.134Zm1.635.174a3.813,3.813,0,0,0,.556,2.179,1.942,1.942,0,0,0,1.727.818,2.166,2.166,0,0,0,1.229-.332,2.479,2.479,0,0,0,.813-.93V9.393a2.518,2.518,0,0,0-.818-.884,2.16,2.16,0,0,0-1.208-.328,1.869,1.869,0,0,0-1.739.971,5.013,5.013,0,0,0-.56,2.523Zm12.119,4.325a3.8,3.8,0,0,1-3.017-1.237,4.76,4.76,0,0,1-1.083-3.254v-.365a4.66,4.66,0,0,1,1.116-3.2A3.5,3.5,0,0,1,107.9,6.853a3.259,3.259,0,0,1,2.7,1.121,4.617,4.617,0,0,1,.9,2.98v.863h-5.744l-.025.042a3.712,3.712,0,0,0,.6,2.2,2.088,2.088,0,0,0,1.826.843,4.114,4.114,0,0,0,1.457-.237,3.252,3.252,0,0,0,1.075-.652l.639,1.063a3.93,3.93,0,0,1-1.27.784A5.059,5.059,0,0,1,108.161,16.174ZM107.9,8.139a1.778,1.778,0,0,0-1.415.66,3.122,3.122,0,0,0-.685,1.689l.017.042h4.051V10.4a2.615,2.615,0,0,0-.481-1.619A1.74,1.74,0,0,0,107.9,8.139ZM16.25,40H14.615V27.051H16.25Zm2.133-4.574a4.945,4.945,0,0,1,1.079-3.283,3.619,3.619,0,0,1,2.93-1.291,3.654,3.654,0,0,1,2.951,1.287,4.929,4.929,0,0,1,1.083,3.287v.183A4.921,4.921,0,0,1,25.348,38.9a3.643,3.643,0,0,1-2.938,1.278,3.65,3.65,0,0,1-2.943-1.282,4.912,4.912,0,0,1-1.083-3.283Zm1.635.183a4.26,4.26,0,0,0,.6,2.357,2.174,2.174,0,0,0,3.565,0,4.238,4.238,0,0,0,.606-2.357v-.183a4.225,4.225,0,0,0-.61-2.349,2,2,0,0,0-1.789-.938,1.972,1.972,0,0,0-1.772.938,4.269,4.269,0,0,0-.6,2.349Zm13.63,1.976a1.09,1.09,0,0,0-.411-.88,3.966,3.966,0,0,0-1.556-.6,6.53,6.53,0,0,1-2.436-.955,1.928,1.928,0,0,1-.851-1.644,2.368,2.368,0,0,1,.934-1.876,3.647,3.647,0,0,1,2.42-.78,3.614,3.614,0,0,1,2.474.83,2.378,2.378,0,0,1,.9,1.934l-.017.05H33.549a1.414,1.414,0,0,0-.51-1.054,1.825,1.825,0,0,0-1.291-.473,1.861,1.861,0,0,0-1.291.39,1.217,1.217,0,0,0-.427.93.985.985,0,0,0,.369.822,4.089,4.089,0,0,0,1.523.531,6.437,6.437,0,0,1,2.507.988,1.989,1.989,0,0,1,.855,1.668,2.365,2.365,0,0,1-.967,1.951,3.989,3.989,0,0,1-2.528.755,3.947,3.947,0,0,1-2.706-.872,2.487,2.487,0,0,1-.938-2.034l.017-.05h1.561a1.513,1.513,0,0,0,.647,1.274,2.505,2.505,0,0,0,1.419.4,2.236,2.236,0,0,0,1.365-.369A1.13,1.13,0,0,0,33.649,37.584ZM49.2,35.85a4.95,4.95,0,0,1-.93,3.134A3.074,3.074,0,0,1,45.7,40.174a3.563,3.563,0,0,1-1.457-.278,2.786,2.786,0,0,1-1.067-.834v4.391H41.543V31.019H42.8l.257,1.162a2.966,2.966,0,0,1,1.1-.988,3.271,3.271,0,0,1,1.527-.34,2.985,2.985,0,0,1,2.594,1.324,5.99,5.99,0,0,1,.926,3.5Zm-1.635-.174a4.746,4.746,0,0,0-.6-2.511,1.95,1.95,0,0,0-1.772-.984,2.182,2.182,0,0,0-1.2.32,2.39,2.39,0,0,0-.805.876v4.341a2.322,2.322,0,0,0,.805.867,2.259,2.259,0,0,0,1.22.311,2.013,2.013,0,0,0,1.76-.851,3.736,3.736,0,0,0,.6-2.2Zm7.894-3.212-.838-.05a1.873,1.873,0,0,0-1.092.307,1.97,1.97,0,0,0-.685.863V40H51.2V31.019h1.461l.158,1.312a3.118,3.118,0,0,1,.942-1.087,2.2,2.2,0,0,1,1.291-.39,2.02,2.02,0,0,1,.349.029,2.311,2.311,0,0,1,.274.062Zm1.154,2.963a4.945,4.945,0,0,1,1.079-3.283,4,4,0,0,1,5.881,0,4.929,4.929,0,0,1,1.083,3.287v.183A4.921,4.921,0,0,1,63.573,38.9a4.017,4.017,0,0,1-5.881,0,4.912,4.912,0,0,1-1.083-3.283Zm1.635.183a4.26,4.26,0,0,0,.6,2.357,2.174,2.174,0,0,0,3.565,0,4.238,4.238,0,0,0,.606-2.357v-.183a4.225,4.225,0,0,0-.61-2.349,2,2,0,0,0-1.789-.938,1.972,1.972,0,0,0-1.772.938,4.269,4.269,0,0,0-.6,2.349ZM70.222,38.9a1.923,1.923,0,0,0,1.32-.5,1.587,1.587,0,0,0,.564-1.233h1.478l.025.05a2.579,2.579,0,0,1-1,2.063,3.806,3.806,0,0,1-5.312-.386,4.966,4.966,0,0,1-1.029-3.2v-.349A4.945,4.945,0,0,1,67.3,32.143a3.524,3.524,0,0,1,2.918-1.291,3.389,3.389,0,0,1,2.461.93,2.948,2.948,0,0,1,.926,2.283l-.017.05H72.106a1.982,1.982,0,0,0-.535-1.4,1.762,1.762,0,0,0-1.349-.577,1.888,1.888,0,0,0-1.756.934,4.371,4.371,0,0,0-.552,2.262v.349a4.454,4.454,0,0,0,.544,2.283A1.887,1.887,0,0,0,70.222,38.9Zm9.048,1.278a3.8,3.8,0,0,1-3.017-1.237,4.76,4.76,0,0,1-1.083-3.254v-.365a4.66,4.66,0,0,1,1.116-3.2,3.5,3.5,0,0,1,2.727-1.266,3.259,3.259,0,0,1,2.7,1.121,4.617,4.617,0,0,1,.9,2.98v.863H76.871l-.025.042a3.712,3.712,0,0,0,.6,2.2,2.088,2.088,0,0,0,1.826.843,4.114,4.114,0,0,0,1.457-.237,3.252,3.252,0,0,0,1.075-.652l.639,1.063a3.93,3.93,0,0,1-1.27.784A5.059,5.059,0,0,1,79.27,40.174Zm-.257-8.035a1.778,1.778,0,0,0-1.415.66,3.122,3.122,0,0,0-.685,1.689l.017.042H80.98V34.4a2.615,2.615,0,0,0-.481-1.619A1.74,1.74,0,0,0,79.012,32.139Zm10.658,5.445a1.09,1.09,0,0,0-.411-.88,3.966,3.966,0,0,0-1.556-.6,6.53,6.53,0,0,1-2.436-.955,1.928,1.928,0,0,1-.851-1.644,2.368,2.368,0,0,1,.934-1.876,4.121,4.121,0,0,1,4.893.05,2.378,2.378,0,0,1,.9,1.934l-.017.05H89.571a1.414,1.414,0,0,0-.51-1.054,1.825,1.825,0,0,0-1.291-.473,1.861,1.861,0,0,0-1.291.39,1.217,1.217,0,0,0-.427.93.985.985,0,0,0,.369.822,4.089,4.089,0,0,0,1.523.531,6.437,6.437,0,0,1,2.507.988,1.989,1.989,0,0,1,.855,1.668,2.365,2.365,0,0,1-.967,1.951,3.989,3.989,0,0,1-2.528.755,3.947,3.947,0,0,1-2.706-.872,2.487,2.487,0,0,1-.938-2.034l.017-.05h1.561a1.513,1.513,0,0,0,.647,1.274,2.505,2.505,0,0,0,1.419.4,2.236,2.236,0,0,0,1.365-.369A1.13,1.13,0,0,0,89.671,37.584Zm3.287-2.158a4.945,4.945,0,0,1,1.079-3.283,4,4,0,0,1,5.881,0A4.929,4.929,0,0,1,101,35.426v.183A4.921,4.921,0,0,1,99.922,38.9a4.017,4.017,0,0,1-5.881,0,4.912,4.912,0,0,1-1.083-3.283Zm1.635.183a4.26,4.26,0,0,0,.6,2.357,2.174,2.174,0,0,0,3.565,0,4.238,4.238,0,0,0,.606-2.357v-.183a4.225,4.225,0,0,0-.61-2.349,2,2,0,0,0-1.789-.938,1.972,1.972,0,0,0-1.772.938,4.269,4.269,0,0,0-.6,2.349Zm13.63,1.976a1.09,1.09,0,0,0-.411-.88,3.966,3.966,0,0,0-1.556-.6,6.53,6.53,0,0,1-2.436-.955,1.928,1.928,0,0,1-.851-1.644,2.368,2.368,0,0,1,.934-1.876,4.121,4.121,0,0,1,4.893.05,2.378,2.378,0,0,1,.9,1.934l-.017.05h-1.561a1.414,1.414,0,0,0-.51-1.054,1.825,1.825,0,0,0-1.291-.473,1.861,1.861,0,0,0-1.291.39,1.217,1.217,0,0,0-.427.93.985.985,0,0,0,.369.822,4.089,4.089,0,0,0,1.523.531A6.437,6.437,0,0,1,109,35.8a1.989,1.989,0,0,1,.855,1.668,2.365,2.365,0,0,1-.967,1.951,3.989,3.989,0,0,1-2.528.755,3.947,3.947,0,0,1-2.706-.872,2.487,2.487,0,0,1-.938-2.034l.017-.05H104.3a1.513,1.513,0,0,0,.647,1.274,2.505,2.505,0,0,0,1.419.4,2.236,2.236,0,0,0,1.365-.369A1.13,1.13,0,0,0,108.223,37.584Z" transform="translate(347.415 1926.783)" fill="#500c75"/>
    <path id="Trazado_221555" data-name="Trazado 221555" d="M35.264,12.954a1.818,1.818,0,0,0-.589-1.378,4.909,4.909,0,0,0-2.075-.946,6.911,6.911,0,0,1-2.876-1.345A2.821,2.821,0,0,1,28.69,7.052,2.98,2.98,0,0,1,29.8,4.686a4.3,4.3,0,0,1,2.889-.946,4.219,4.219,0,0,1,3.042,1.083,3.281,3.281,0,0,1,1.1,2.528l-.025.05H35.248a2.231,2.231,0,0,0-.718-1.7,2.583,2.583,0,0,0-1.839-.672,2.518,2.518,0,0,0-1.756.556,1.864,1.864,0,0,0-.61,1.444,1.613,1.613,0,0,0,.668,1.316,6.163,6.163,0,0,0,2.171.926,6.162,6.162,0,0,1,2.781,1.395,3.036,3.036,0,0,1,.955,2.274,2.823,2.823,0,0,1-1.15,2.349,4.772,4.772,0,0,1-3,.888,5.1,5.1,0,0,1-3.092-.979,2.986,2.986,0,0,1-1.3-2.623l.017-.05h1.561a2.031,2.031,0,0,0,.863,1.756,3.268,3.268,0,0,0,1.951.618,2.933,2.933,0,0,0,1.839-.523A1.7,1.7,0,0,0,35.264,12.954Zm7.446,3.221a3.8,3.8,0,0,1-3.017-1.237,4.76,4.76,0,0,1-1.083-3.254v-.365a4.66,4.66,0,0,1,1.116-3.2,3.5,3.5,0,0,1,2.727-1.266,3.259,3.259,0,0,1,2.7,1.121,4.617,4.617,0,0,1,.9,2.98v.863H40.311l-.025.042a3.712,3.712,0,0,0,.6,2.2,2.088,2.088,0,0,0,1.826.843,4.114,4.114,0,0,0,1.457-.237,3.252,3.252,0,0,0,1.075-.652l.639,1.063a3.93,3.93,0,0,1-1.27.784A5.059,5.059,0,0,1,42.71,16.174Zm-.257-8.035a1.778,1.778,0,0,0-1.415.66,3.122,3.122,0,0,0-.685,1.689l.017.042H44.42V10.4a2.615,2.615,0,0,0-.481-1.619A1.74,1.74,0,0,0,42.453,8.139ZM47.6,11.675a5.994,5.994,0,0,1,.926-3.495,2.974,2.974,0,0,1,2.586-1.328,3.152,3.152,0,0,1,1.5.344,3.023,3.023,0,0,1,1.087.992l.2-1.17h1.3V16.05a3.426,3.426,0,0,1-1,2.652,4.126,4.126,0,0,1-2.9.926,6.074,6.074,0,0,1-1.4-.178,5.469,5.469,0,0,1-1.324-.486l.249-1.27a4.729,4.729,0,0,0,1.141.4,5.861,5.861,0,0,0,1.316.154,2.382,2.382,0,0,0,1.739-.544,2.253,2.253,0,0,0,.544-1.656V15.029a2.9,2.9,0,0,1-1.054.855,3.285,3.285,0,0,1-1.419.291,3.071,3.071,0,0,1-2.569-1.191A4.966,4.966,0,0,1,47.6,11.85Zm1.635.174a3.817,3.817,0,0,0,.556,2.175,1.93,1.93,0,0,0,1.718.822,2.161,2.161,0,0,0,1.237-.336,2.552,2.552,0,0,0,.822-.95V9.426a2.537,2.537,0,0,0-.822-.909,2.156,2.156,0,0,0-1.22-.336,1.862,1.862,0,0,0-1.731.971,5.013,5.013,0,0,0-.56,2.523Zm14.02,2.822a3.042,3.042,0,0,1-1.087,1.112,2.975,2.975,0,0,1-1.536.39,2.885,2.885,0,0,1-2.291-.938,4.355,4.355,0,0,1-.822-2.922v-5.3h1.635v5.313a3.344,3.344,0,0,0,.423,1.976,1.574,1.574,0,0,0,1.32.54,2.69,2.69,0,0,0,1.44-.353,2.207,2.207,0,0,0,.859-1V7.019h1.635V16H63.363Zm8.209-6.209-.838-.05a1.873,1.873,0,0,0-1.092.307,1.97,1.97,0,0,0-.685.863V16H67.214V7.019h1.461l.158,1.312a3.118,3.118,0,0,1,.942-1.087,2.2,2.2,0,0,1,1.291-.39,2.021,2.021,0,0,1,.349.029,2.31,2.31,0,0,1,.274.062ZM74.934,16H73.3V7.019h1.635Zm0-11.281H73.3V3.051h1.635Zm2.142,6.956A5.994,5.994,0,0,1,78,8.181a2.982,2.982,0,0,1,2.594-1.328,3.216,3.216,0,0,1,1.4.291,2.867,2.867,0,0,1,1.042.847V3.051h1.635V16H83.417l-.249-1.137a2.915,2.915,0,0,1-1.087.979,3.249,3.249,0,0,1-1.5.332,3.082,3.082,0,0,1-2.573-1.191,4.95,4.95,0,0,1-.93-3.134Zm1.635.174a3.813,3.813,0,0,0,.556,2.179,1.942,1.942,0,0,0,1.727.818,2.166,2.166,0,0,0,1.229-.332,2.479,2.479,0,0,0,.813-.93V9.393a2.518,2.518,0,0,0-.818-.884,2.16,2.16,0,0,0-1.208-.328,1.869,1.869,0,0,0-1.739.971,5.013,5.013,0,0,0-.56,2.523ZM92.631,16q-.083-.407-.129-.718a5.27,5.27,0,0,1-.054-.627,3.813,3.813,0,0,1-1.191,1.083,3.046,3.046,0,0,1-1.581.436,2.936,2.936,0,0,1-2.137-.718,2.641,2.641,0,0,1-.735-1.98,2.32,2.32,0,0,1,1.042-2.013,4.865,4.865,0,0,1,2.826-.726h1.776V9.849A1.648,1.648,0,0,0,91.967,8.6a1.89,1.89,0,0,0-1.361-.461,1.975,1.975,0,0,0-1.287.4,1.2,1.2,0,0,0-.49.955l-1.552.017-.017-.05a2.15,2.15,0,0,1,.917-1.793A3.8,3.8,0,0,1,90.7,6.853a3.709,3.709,0,0,1,2.457.776,2.749,2.749,0,0,1,.93,2.237V14.19a8.418,8.418,0,0,0,.05.93,4.781,4.781,0,0,0,.183.88Zm-2.714-1.2a2.91,2.91,0,0,0,1.6-.457,2.17,2.17,0,0,0,.93-1.046V11.841H90.614a2.38,2.38,0,0,0-1.581.5,1.489,1.489,0,0,0-.594,1.17,1.232,1.232,0,0,0,.374.946A1.564,1.564,0,0,0,89.917,14.8Zm6.167-3.129a5.994,5.994,0,0,1,.926-3.495A2.982,2.982,0,0,1,99.6,6.853a3.216,3.216,0,0,1,1.4.291,2.867,2.867,0,0,1,1.042.847V3.051h1.635V16h-1.253l-.249-1.137a2.915,2.915,0,0,1-1.087.979,3.249,3.249,0,0,1-1.5.332,3.082,3.082,0,0,1-2.573-1.191,4.95,4.95,0,0,1-.93-3.134Zm1.635.174a3.813,3.813,0,0,0,.556,2.179,1.942,1.942,0,0,0,1.727.818,2.166,2.166,0,0,0,1.229-.332,2.479,2.479,0,0,0,.813-.93V9.393a2.518,2.518,0,0,0-.818-.884,2.16,2.16,0,0,0-1.208-.328,1.869,1.869,0,0,0-1.739.971,5.013,5.013,0,0,0-.56,2.523Zm16.344,4.325a3.8,3.8,0,0,1-3.017-1.237,4.76,4.76,0,0,1-1.083-3.254v-.365a4.66,4.66,0,0,1,1.116-3.2,3.5,3.5,0,0,1,2.727-1.266,3.259,3.259,0,0,1,2.7,1.121,4.617,4.617,0,0,1,.9,2.98v.863h-5.744l-.025.042a3.712,3.712,0,0,0,.6,2.2,2.088,2.088,0,0,0,1.826.843,4.114,4.114,0,0,0,1.457-.237,3.252,3.252,0,0,0,1.075-.652l.639,1.063a3.93,3.93,0,0,1-1.27.784A5.059,5.059,0,0,1,114.064,16.174Zm-.257-8.035a1.778,1.778,0,0,0-1.415.66,3.122,3.122,0,0,0-.685,1.689l.017.042h4.051V10.4a2.615,2.615,0,0,0-.481-1.619A1.74,1.74,0,0,0,113.806,8.139Zm6.9-1.121.116,1.336a3.261,3.261,0,0,1,1.125-1.108,3,3,0,0,1,1.54-.394,2.932,2.932,0,0,1,2.25.851,3.735,3.735,0,0,1,.8,2.627V16H124.9V10.364a2.43,2.43,0,0,0-.469-1.685,1.879,1.879,0,0,0-1.432-.5,2.535,2.535,0,0,0-1.282.3,2.2,2.2,0,0,0-.834.851V16h-1.635V7.019ZM134.9,16h-1.635V3.051H134.9Zm8.035,0q-.083-.407-.129-.718a5.27,5.27,0,0,1-.054-.627,3.813,3.813,0,0,1-1.191,1.083,3.046,3.046,0,0,1-1.581.436,2.936,2.936,0,0,1-2.137-.718,2.641,2.641,0,0,1-.735-1.98,2.32,2.32,0,0,1,1.042-2.013,4.865,4.865,0,0,1,2.826-.726h1.776V9.849A1.648,1.648,0,0,0,142.27,8.6a1.89,1.89,0,0,0-1.361-.461,1.975,1.975,0,0,0-1.287.4,1.2,1.2,0,0,0-.49.955l-1.552.017-.017-.05a2.15,2.15,0,0,1,.917-1.793A3.8,3.8,0,0,1,141,6.853a3.709,3.709,0,0,1,2.457.776,2.749,2.749,0,0,1,.93,2.237V14.19a8.418,8.418,0,0,0,.05.93,4.78,4.78,0,0,0,.183.88Zm-2.714-1.2a2.91,2.91,0,0,0,1.6-.457,2.17,2.17,0,0,0,.93-1.046V11.841h-1.834a2.38,2.38,0,0,0-1.581.5,1.489,1.489,0,0,0-.594,1.17,1.232,1.232,0,0,0,.374.946A1.564,1.564,0,0,0,140.219,14.8Zm11.762-1.22a1.09,1.09,0,0,0-.411-.88,3.966,3.966,0,0,0-1.556-.6,6.53,6.53,0,0,1-2.436-.955,1.928,1.928,0,0,1-.851-1.644,2.368,2.368,0,0,1,.934-1.876,4.121,4.121,0,0,1,4.893.05,2.378,2.378,0,0,1,.9,1.934l-.017.05h-1.561a1.414,1.414,0,0,0-.51-1.054,1.825,1.825,0,0,0-1.291-.473,1.861,1.861,0,0,0-1.291.39,1.217,1.217,0,0,0-.427.93.985.985,0,0,0,.369.822,4.089,4.089,0,0,0,1.523.531,6.437,6.437,0,0,1,2.507.988,1.989,1.989,0,0,1,.855,1.668,2.365,2.365,0,0,1-.967,1.951,3.989,3.989,0,0,1-2.528.755,3.947,3.947,0,0,1-2.706-.872,2.487,2.487,0,0,1-.938-2.034l.017-.05h1.561a1.513,1.513,0,0,0,.647,1.274,2.505,2.505,0,0,0,1.419.4,2.236,2.236,0,0,0,1.365-.369A1.13,1.13,0,0,0,151.982,13.584ZM32.911,38.9a1.923,1.923,0,0,0,1.32-.5,1.587,1.587,0,0,0,.564-1.233h1.478l.025.05a2.579,2.579,0,0,1-1,2.063,3.806,3.806,0,0,1-5.312-.386,4.966,4.966,0,0,1-1.029-3.2v-.349a4.945,4.945,0,0,1,1.033-3.192,3.524,3.524,0,0,1,2.918-1.291,3.389,3.389,0,0,1,2.461.93,2.948,2.948,0,0,1,.926,2.283l-.017.05H34.8a1.982,1.982,0,0,0-.535-1.4,1.762,1.762,0,0,0-1.349-.577,1.888,1.888,0,0,0-1.756.934,4.371,4.371,0,0,0-.552,2.262v.349a4.454,4.454,0,0,0,.544,2.283A1.887,1.887,0,0,0,32.911,38.9Zm4.947-3.47a4.945,4.945,0,0,1,1.079-3.283,4,4,0,0,1,5.881,0A4.929,4.929,0,0,1,45.9,35.426v.183A4.921,4.921,0,0,1,44.823,38.9a4.017,4.017,0,0,1-5.881,0,4.912,4.912,0,0,1-1.083-3.283Zm1.635.183a4.26,4.26,0,0,0,.6,2.357,2.174,2.174,0,0,0,3.565,0,4.238,4.238,0,0,0,.606-2.357v-.183a4.225,4.225,0,0,0-.61-2.349,2,2,0,0,0-1.789-.938,1.972,1.972,0,0,0-1.772.938,4.269,4.269,0,0,0-.6,2.349Zm9.87-4.59.116,1.179a3.051,3.051,0,0,1,1.116-.992,3.355,3.355,0,0,1,1.573-.353,2.779,2.779,0,0,1,1.54.415,2.511,2.511,0,0,1,.967,1.245A3.36,3.36,0,0,1,55.8,31.3a2.942,2.942,0,0,1,1.623-.444,2.689,2.689,0,0,1,2.167.942,4.3,4.3,0,0,1,.8,2.835V40H58.751V34.613a2.985,2.985,0,0,0-.457-1.88,1.665,1.665,0,0,0-1.361-.552,1.733,1.733,0,0,0-1.357.581,2.529,2.529,0,0,0-.61,1.469V40H53.323V34.613a2.945,2.945,0,0,0-.469-1.847,1.628,1.628,0,0,0-1.349-.585,2.247,2.247,0,0,0-1.229.307,1.984,1.984,0,0,0-.739.863V40H47.9V31.019Zm19.1,7.653a3.042,3.042,0,0,1-1.087,1.112,2.975,2.975,0,0,1-1.536.39,2.885,2.885,0,0,1-2.291-.938,4.355,4.355,0,0,1-.822-2.922v-5.3h1.635v5.313a3.344,3.344,0,0,0,.423,1.976,1.574,1.574,0,0,0,1.32.54,2.69,2.69,0,0,0,1.44-.353,2.207,2.207,0,0,0,.859-1V31.019h1.635V40H68.571Zm5.42-7.653L74,32.355a3.261,3.261,0,0,1,1.125-1.108,3,3,0,0,1,1.54-.394,2.932,2.932,0,0,1,2.25.851,3.735,3.735,0,0,1,.8,2.627V40H78.076V34.364a2.43,2.43,0,0,0-.469-1.685,1.879,1.879,0,0,0-1.432-.5,2.535,2.535,0,0,0-1.282.3,2.2,2.2,0,0,0-.834.851V40H72.423V31.019ZM83.853,40H82.218V31.019h1.635Zm0-11.281H82.218V27.051h1.635ZM89.938,38.9a1.923,1.923,0,0,0,1.32-.5,1.587,1.587,0,0,0,.564-1.233H93.3l.025.05a2.579,2.579,0,0,1-1,2.063,3.806,3.806,0,0,1-5.312-.386,4.966,4.966,0,0,1-1.029-3.2v-.349a4.945,4.945,0,0,1,1.033-3.192,3.524,3.524,0,0,1,2.918-1.291,3.389,3.389,0,0,1,2.461.93,2.948,2.948,0,0,1,.926,2.283l-.017.05H91.822a1.982,1.982,0,0,0-.535-1.4,1.762,1.762,0,0,0-1.349-.577,1.888,1.888,0,0,0-1.756.934,4.371,4.371,0,0,0-.552,2.262v.349a4.454,4.454,0,0,0,.544,2.283A1.887,1.887,0,0,0,89.938,38.9ZM100.787,40q-.083-.407-.129-.718a5.27,5.27,0,0,1-.054-.627,3.813,3.813,0,0,1-1.191,1.083,3.046,3.046,0,0,1-1.581.436,2.936,2.936,0,0,1-2.137-.718,2.641,2.641,0,0,1-.735-1.98A2.32,2.32,0,0,1,96,35.464a4.865,4.865,0,0,1,2.826-.726H100.6v-.888a1.648,1.648,0,0,0-.481-1.249,1.89,1.89,0,0,0-1.361-.461,1.975,1.975,0,0,0-1.287.4,1.2,1.2,0,0,0-.49.955l-1.552.017-.017-.05a2.15,2.15,0,0,1,.917-1.793,3.8,3.8,0,0,1,2.519-.813,3.709,3.709,0,0,1,2.457.776,2.749,2.749,0,0,1,.93,2.237V38.19a8.418,8.418,0,0,0,.05.93,4.781,4.781,0,0,0,.183.88Zm-2.714-1.2a2.91,2.91,0,0,0,1.6-.457,2.17,2.17,0,0,0,.93-1.046V35.841H98.77a2.38,2.38,0,0,0-1.581.5,1.489,1.489,0,0,0-.594,1.17,1.232,1.232,0,0,0,.374.946A1.564,1.564,0,0,0,98.072,38.8Zm10.11.091a1.923,1.923,0,0,0,1.32-.5,1.587,1.587,0,0,0,.564-1.233h1.478l.025.05a2.579,2.579,0,0,1-1,2.063,3.806,3.806,0,0,1-5.312-.386,4.966,4.966,0,0,1-1.029-3.2v-.349a4.945,4.945,0,0,1,1.033-3.192,3.524,3.524,0,0,1,2.918-1.291,3.389,3.389,0,0,1,2.461.93,2.948,2.948,0,0,1,.926,2.283l-.017.05h-1.486a1.982,1.982,0,0,0-.535-1.4,1.762,1.762,0,0,0-1.349-.577,1.888,1.888,0,0,0-1.756.934,4.371,4.371,0,0,0-.552,2.262v.349a4.454,4.454,0,0,0,.544,2.283A1.887,1.887,0,0,0,108.183,38.9Zm7.1,1.1h-1.635V31.019h1.635Zm0-11.281h-1.635V27.051h1.635Zm2.133,6.707a4.945,4.945,0,0,1,1.079-3.283,4,4,0,0,1,5.881,0,4.929,4.929,0,0,1,1.083,3.287v.183a4.921,4.921,0,0,1-1.079,3.287,4.017,4.017,0,0,1-5.881,0,4.912,4.912,0,0,1-1.083-3.283Zm1.635.183a4.26,4.26,0,0,0,.6,2.357,2.174,2.174,0,0,0,3.565,0,4.238,4.238,0,0,0,.606-2.357v-.183a4.225,4.225,0,0,0-.61-2.349,2,2,0,0,0-1.789-.938,1.972,1.972,0,0,0-1.772.938,4.269,4.269,0,0,0-.6,2.349Zm9.87-4.59.116,1.336a3.261,3.261,0,0,1,1.125-1.108,3,3,0,0,1,1.54-.394,2.932,2.932,0,0,1,2.25.851,3.735,3.735,0,0,1,.8,2.627V40H133.11V34.364a2.43,2.43,0,0,0-.469-1.685,1.879,1.879,0,0,0-1.432-.5,2.535,2.535,0,0,0-1.282.3,2.2,2.2,0,0,0-.834.851V40h-1.635V31.019Zm11.92,9.156a3.8,3.8,0,0,1-3.017-1.237,4.76,4.76,0,0,1-1.083-3.254v-.365a4.66,4.66,0,0,1,1.116-3.2,3.5,3.5,0,0,1,2.727-1.266,3.259,3.259,0,0,1,2.7,1.121,4.617,4.617,0,0,1,.9,2.98v.863h-5.744l-.025.042a3.712,3.712,0,0,0,.6,2.2,2.088,2.088,0,0,0,1.826.843,4.114,4.114,0,0,0,1.457-.237,3.252,3.252,0,0,0,1.075-.652l.639,1.063a3.931,3.931,0,0,1-1.27.784A5.059,5.059,0,0,1,140.838,40.174Zm-.257-8.035a1.778,1.778,0,0,0-1.415.66,3.122,3.122,0,0,0-.685,1.689l.017.042h4.051V34.4a2.615,2.615,0,0,0-.481-1.619A1.74,1.74,0,0,0,140.581,32.139Zm10.658,5.445a1.09,1.09,0,0,0-.411-.88,3.966,3.966,0,0,0-1.556-.6,6.53,6.53,0,0,1-2.436-.955,1.928,1.928,0,0,1-.851-1.644,2.368,2.368,0,0,1,.934-1.876,4.121,4.121,0,0,1,4.893.05,2.378,2.378,0,0,1,.9,1.934l-.017.05h-1.561a1.414,1.414,0,0,0-.51-1.054,1.825,1.825,0,0,0-1.291-.473,1.861,1.861,0,0,0-1.291.39,1.217,1.217,0,0,0-.427.93.985.985,0,0,0,.369.822,4.089,4.089,0,0,0,1.523.531,6.437,6.437,0,0,1,2.507.988,1.989,1.989,0,0,1,.855,1.668,2.365,2.365,0,0,1-.967,1.951,3.989,3.989,0,0,1-2.528.755,3.947,3.947,0,0,1-2.706-.872,2.487,2.487,0,0,1-.938-2.034l.017-.05h1.561a1.513,1.513,0,0,0,.647,1.274,2.505,2.505,0,0,0,1.419.4,2.236,2.236,0,0,0,1.365-.369A1.13,1.13,0,0,0,151.239,37.584Z" transform="translate(699.731 1726.208)" fill="#500c75"/>
    <path id="Trazado_221558" data-name="Trazado 221558" d="M49.092,12.954a1.818,1.818,0,0,0-.589-1.378,4.909,4.909,0,0,0-2.075-.946,6.911,6.911,0,0,1-2.876-1.345,2.821,2.821,0,0,1-1.033-2.233A2.98,2.98,0,0,1,43.63,4.686a4.3,4.3,0,0,1,2.889-.946,4.219,4.219,0,0,1,3.042,1.083,3.281,3.281,0,0,1,1.1,2.528l-.025.05H49.075a2.231,2.231,0,0,0-.718-1.7,2.583,2.583,0,0,0-1.839-.672,2.518,2.518,0,0,0-1.756.556,1.864,1.864,0,0,0-.61,1.444,1.613,1.613,0,0,0,.668,1.316,6.163,6.163,0,0,0,2.171.926,6.162,6.162,0,0,1,2.781,1.395,3.036,3.036,0,0,1,.955,2.274,2.823,2.823,0,0,1-1.15,2.349,4.772,4.772,0,0,1-3,.888,5.1,5.1,0,0,1-3.092-.979,2.986,2.986,0,0,1-1.3-2.623l.017-.05h1.561a2.031,2.031,0,0,0,.863,1.756,3.268,3.268,0,0,0,1.951.618,2.933,2.933,0,0,0,1.839-.523A1.7,1.7,0,0,0,49.092,12.954Zm7.446,3.221a3.8,3.8,0,0,1-3.017-1.237,4.76,4.76,0,0,1-1.083-3.254v-.365a4.66,4.66,0,0,1,1.116-3.2,3.5,3.5,0,0,1,2.727-1.266,3.259,3.259,0,0,1,2.7,1.121,4.617,4.617,0,0,1,.9,2.98v.863H54.139l-.025.042a3.712,3.712,0,0,0,.6,2.2,2.088,2.088,0,0,0,1.826.843,4.114,4.114,0,0,0,1.457-.237,3.252,3.252,0,0,0,1.075-.652l.639,1.063a3.93,3.93,0,0,1-1.27.784A5.059,5.059,0,0,1,56.538,16.174Zm-.257-8.035a1.778,1.778,0,0,0-1.415.66,3.122,3.122,0,0,0-.685,1.689l.017.042h4.051V10.4a2.615,2.615,0,0,0-.481-1.619A1.74,1.74,0,0,0,56.281,8.139Zm5.146,3.536a5.994,5.994,0,0,1,.926-3.495,2.974,2.974,0,0,1,2.586-1.328,3.152,3.152,0,0,1,1.5.344,3.023,3.023,0,0,1,1.087.992l.2-1.17h1.3V16.05a3.427,3.427,0,0,1-1,2.652,4.126,4.126,0,0,1-2.9.926,6.074,6.074,0,0,1-1.4-.178,5.469,5.469,0,0,1-1.324-.486l.249-1.27a4.729,4.729,0,0,0,1.141.4,5.861,5.861,0,0,0,1.316.154,2.382,2.382,0,0,0,1.739-.544A2.253,2.253,0,0,0,67.4,16.05V15.029a2.9,2.9,0,0,1-1.054.855,3.285,3.285,0,0,1-1.419.291,3.071,3.071,0,0,1-2.569-1.191,4.966,4.966,0,0,1-.926-3.134Zm1.635.174a3.817,3.817,0,0,0,.556,2.175,1.93,1.93,0,0,0,1.718.822,2.161,2.161,0,0,0,1.237-.336,2.552,2.552,0,0,0,.822-.95V9.426a2.537,2.537,0,0,0-.822-.909,2.156,2.156,0,0,0-1.22-.336,1.862,1.862,0,0,0-1.731.971,5.013,5.013,0,0,0-.56,2.523Zm14.02,2.822a3.042,3.042,0,0,1-1.087,1.112,2.975,2.975,0,0,1-1.536.39,2.885,2.885,0,0,1-2.291-.938,4.355,4.355,0,0,1-.822-2.922v-5.3h1.635v5.313a3.344,3.344,0,0,0,.423,1.976,1.574,1.574,0,0,0,1.32.54,2.69,2.69,0,0,0,1.44-.353,2.207,2.207,0,0,0,.859-1V7.019h1.635V16H77.19Zm8.209-6.209-.838-.05a1.873,1.873,0,0,0-1.092.307,1.97,1.97,0,0,0-.685.863V16H81.042V7.019H82.5L82.66,8.33A3.118,3.118,0,0,1,83.6,7.243a2.2,2.2,0,0,1,1.291-.39,2.021,2.021,0,0,1,.349.029,2.31,2.31,0,0,1,.274.062ZM88.761,16H87.126V7.019h1.635Zm0-11.281H87.126V3.051h1.635ZM90.9,11.675a5.994,5.994,0,0,1,.926-3.495,2.982,2.982,0,0,1,2.594-1.328,3.216,3.216,0,0,1,1.4.291,2.867,2.867,0,0,1,1.042.847V3.051H98.5V16H97.245L97,14.863a2.915,2.915,0,0,1-1.087.979,3.249,3.249,0,0,1-1.5.332,3.082,3.082,0,0,1-2.573-1.191,4.95,4.95,0,0,1-.93-3.134Zm1.635.174a3.813,3.813,0,0,0,.556,2.179,1.942,1.942,0,0,0,1.727.818,2.166,2.166,0,0,0,1.229-.332,2.479,2.479,0,0,0,.813-.93V9.393a2.518,2.518,0,0,0-.818-.884,2.16,2.16,0,0,0-1.208-.328,1.869,1.869,0,0,0-1.739.971,5.013,5.013,0,0,0-.56,2.523ZM106.459,16q-.083-.407-.129-.718a5.27,5.27,0,0,1-.054-.627,3.813,3.813,0,0,1-1.191,1.083,3.046,3.046,0,0,1-1.581.436,2.936,2.936,0,0,1-2.137-.718,2.641,2.641,0,0,1-.735-1.98,2.32,2.32,0,0,1,1.042-2.013,4.865,4.865,0,0,1,2.826-.726h1.776V9.849a1.648,1.648,0,0,0-.481-1.249,1.89,1.89,0,0,0-1.361-.461,1.975,1.975,0,0,0-1.287.4,1.2,1.2,0,0,0-.49.955l-1.552.017-.017-.05a2.15,2.15,0,0,1,.917-1.793,3.8,3.8,0,0,1,2.519-.813,3.709,3.709,0,0,1,2.457.776,2.749,2.749,0,0,1,.93,2.237V14.19a8.418,8.418,0,0,0,.05.93,4.781,4.781,0,0,0,.183.88Zm-2.714-1.2a2.91,2.91,0,0,0,1.6-.457,2.17,2.17,0,0,0,.93-1.046V11.841h-1.834a2.38,2.38,0,0,0-1.581.5,1.489,1.489,0,0,0-.594,1.17,1.232,1.232,0,0,0,.374.946A1.564,1.564,0,0,0,103.744,14.8Zm6.167-3.129a5.994,5.994,0,0,1,.926-3.495,2.982,2.982,0,0,1,2.594-1.328,3.216,3.216,0,0,1,1.4.291,2.867,2.867,0,0,1,1.042.847V3.051h1.635V16h-1.253L116,14.863a2.915,2.915,0,0,1-1.087.979,3.249,3.249,0,0,1-1.5.332,3.082,3.082,0,0,1-2.573-1.191,4.95,4.95,0,0,1-.93-3.134Zm1.635.174a3.813,3.813,0,0,0,.556,2.179,1.942,1.942,0,0,0,1.727.818,2.166,2.166,0,0,0,1.229-.332,2.479,2.479,0,0,0,.813-.93V9.393a2.518,2.518,0,0,0-.818-.884,2.16,2.16,0,0,0-1.208-.328,1.869,1.869,0,0,0-1.739.971,5.013,5.013,0,0,0-.56,2.523ZM37.994,40H36.359V31.019h1.635Zm0-11.281H36.359V27.051h1.635Zm3.976,2.3.116,1.336a3.261,3.261,0,0,1,1.125-1.108,3,3,0,0,1,1.54-.394A2.932,2.932,0,0,1,47,31.7a3.735,3.735,0,0,1,.8,2.627V40H46.162V34.364a2.43,2.43,0,0,0-.469-1.685,1.879,1.879,0,0,0-1.432-.5,2.535,2.535,0,0,0-1.282.3,2.2,2.2,0,0,0-.834.851V40H40.509V31.019ZM55.691,40q-.083-.407-.129-.718a5.27,5.27,0,0,1-.054-.627,3.813,3.813,0,0,1-1.191,1.083,3.046,3.046,0,0,1-1.581.436,2.936,2.936,0,0,1-2.137-.718,2.641,2.641,0,0,1-.735-1.98,2.32,2.32,0,0,1,1.042-2.013,4.865,4.865,0,0,1,2.826-.726h1.776v-.888a1.648,1.648,0,0,0-.481-1.249,1.89,1.89,0,0,0-1.361-.461,1.975,1.975,0,0,0-1.287.4,1.2,1.2,0,0,0-.49.955l-1.552.017-.017-.05a2.15,2.15,0,0,1,.917-1.793,3.8,3.8,0,0,1,2.519-.813,3.709,3.709,0,0,1,2.457.776,2.749,2.749,0,0,1,.93,2.237V38.19a8.418,8.418,0,0,0,.05.93,4.78,4.78,0,0,0,.183.88Zm-2.714-1.2a2.91,2.91,0,0,0,1.6-.457,2.17,2.17,0,0,0,.93-1.046V35.841H53.674a2.38,2.38,0,0,0-1.581.5,1.489,1.489,0,0,0-.594,1.17,1.232,1.232,0,0,0,.374.946A1.564,1.564,0,0,0,52.977,38.8ZM61.286,40H59.651V27.051h1.635Zm8.035,0q-.083-.407-.129-.718a5.27,5.27,0,0,1-.054-.627,3.813,3.813,0,0,1-1.191,1.083,3.046,3.046,0,0,1-1.581.436,2.936,2.936,0,0,1-2.137-.718,2.641,2.641,0,0,1-.735-1.98,2.32,2.32,0,0,1,1.042-2.013,4.865,4.865,0,0,1,2.826-.726h1.776v-.888a1.648,1.648,0,0,0-.481-1.249,1.89,1.89,0,0,0-1.361-.461,1.975,1.975,0,0,0-1.287.4,1.2,1.2,0,0,0-.49.955l-1.552.017-.017-.05a2.15,2.15,0,0,1,.917-1.793,3.8,3.8,0,0,1,2.519-.813,3.709,3.709,0,0,1,2.457.776,2.749,2.749,0,0,1,.93,2.237V38.19a8.418,8.418,0,0,0,.05.93,4.781,4.781,0,0,0,.183.88Zm-2.714-1.2a2.91,2.91,0,0,0,1.6-.457,2.17,2.17,0,0,0,.93-1.046V35.841H67.3a2.38,2.38,0,0,0-1.581.5,1.489,1.489,0,0,0-.594,1.17,1.232,1.232,0,0,0,.374.946A1.564,1.564,0,0,0,66.607,38.8Zm1.4-11.6h1.909l.017.05L67.7,29.417H66.474Zm6.6,3.81.116,1.179a3.051,3.051,0,0,1,1.116-.992,3.355,3.355,0,0,1,1.573-.353,2.779,2.779,0,0,1,1.54.415,2.511,2.511,0,0,1,.967,1.245A3.36,3.36,0,0,1,81.046,31.3a2.942,2.942,0,0,1,1.623-.444,2.689,2.689,0,0,1,2.167.942,4.3,4.3,0,0,1,.8,2.835V40H84V34.613a2.985,2.985,0,0,0-.457-1.88,1.665,1.665,0,0,0-1.361-.552,1.733,1.733,0,0,0-1.357.581,2.53,2.53,0,0,0-.61,1.469V40H78.568V34.613a2.945,2.945,0,0,0-.469-1.847,1.628,1.628,0,0,0-1.349-.585,2.247,2.247,0,0,0-1.229.307,1.984,1.984,0,0,0-.739.863V40H73.148V31.019ZM95.676,35.85a4.935,4.935,0,0,1-.934,3.134,3.085,3.085,0,0,1-2.569,1.191,3.255,3.255,0,0,1-1.556-.353,2.889,2.889,0,0,1-1.092-1.042L89.26,40H88.006V27.051h1.635v5.03a2.838,2.838,0,0,1,1.05-.913,3.219,3.219,0,0,1,1.465-.315,2.985,2.985,0,0,1,2.59,1.328,5.974,5.974,0,0,1,.93,3.495Zm-1.635-.174a4.958,4.958,0,0,0-.569-2.519,1.872,1.872,0,0,0-1.731-.975,2.14,2.14,0,0,0-1.274.369,2.605,2.605,0,0,0-.826.992v3.893a2.674,2.674,0,0,0,.826,1.038,2.129,2.129,0,0,0,1.291.374,1.943,1.943,0,0,0,1.718-.822,3.774,3.774,0,0,0,.564-2.175Zm7.877-3.212-.838-.05a1.873,1.873,0,0,0-1.092.307,1.97,1.97,0,0,0-.685.863V40H97.668V31.019h1.461l.158,1.312a3.118,3.118,0,0,1,.942-1.087,2.2,2.2,0,0,1,1.291-.39,2.021,2.021,0,0,1,.349.029,2.31,2.31,0,0,1,.274.062ZM105.388,40h-1.635V31.019h1.635Zm0-11.281h-1.635V27.051h1.635ZM111.472,38.9a1.923,1.923,0,0,0,1.32-.5,1.587,1.587,0,0,0,.564-1.233h1.478l.025.05a2.579,2.579,0,0,1-1,2.063,3.806,3.806,0,0,1-5.312-.386,4.966,4.966,0,0,1-1.029-3.2v-.349a4.945,4.945,0,0,1,1.033-3.192,3.524,3.524,0,0,1,2.918-1.291,3.389,3.389,0,0,1,2.461.93,2.948,2.948,0,0,1,.926,2.283l-.017.05h-1.486a1.982,1.982,0,0,0-.535-1.4,1.762,1.762,0,0,0-1.349-.577,1.888,1.888,0,0,0-1.756.934,4.371,4.371,0,0,0-.552,2.262v.349a4.454,4.454,0,0,0,.544,2.283A1.887,1.887,0,0,0,111.472,38.9ZM122.322,40q-.083-.407-.129-.718a5.27,5.27,0,0,1-.054-.627,3.813,3.813,0,0,1-1.191,1.083,3.046,3.046,0,0,1-1.581.436,2.936,2.936,0,0,1-2.137-.718,2.641,2.641,0,0,1-.735-1.98,2.32,2.32,0,0,1,1.042-2.013,4.865,4.865,0,0,1,2.826-.726h1.776v-.888a1.648,1.648,0,0,0-.481-1.249,1.89,1.89,0,0,0-1.361-.461,1.975,1.975,0,0,0-1.287.4,1.2,1.2,0,0,0-.49.955l-1.552.017-.017-.05a2.15,2.15,0,0,1,.917-1.793,3.8,3.8,0,0,1,2.519-.813,3.709,3.709,0,0,1,2.457.776,2.749,2.749,0,0,1,.93,2.237V38.19a8.418,8.418,0,0,0,.05.93,4.781,4.781,0,0,0,.183.88Zm-2.714-1.2a2.91,2.91,0,0,0,1.6-.457,2.17,2.17,0,0,0,.93-1.046V35.841H120.3a2.38,2.38,0,0,0-1.581.5,1.489,1.489,0,0,0-.594,1.17,1.232,1.232,0,0,0,.374.946A1.564,1.564,0,0,0,119.607,38.8Z" transform="translate(1108.768 1724)" fill="#500c75"/>
    <path id="Trazado_221557" data-name="Trazado 221557" d="M27.835,12.954a1.818,1.818,0,0,0-.589-1.378,4.909,4.909,0,0,0-2.075-.946,6.911,6.911,0,0,1-2.876-1.345,2.821,2.821,0,0,1-1.033-2.233,2.98,2.98,0,0,1,1.112-2.366,4.3,4.3,0,0,1,2.889-.946A4.219,4.219,0,0,1,28.3,4.823a3.281,3.281,0,0,1,1.1,2.528l-.025.05H27.819A2.231,2.231,0,0,0,27.1,5.7a2.583,2.583,0,0,0-1.839-.672,2.518,2.518,0,0,0-1.756.556,1.864,1.864,0,0,0-.61,1.444,1.613,1.613,0,0,0,.668,1.316,6.163,6.163,0,0,0,2.171.926,6.162,6.162,0,0,1,2.781,1.395,3.036,3.036,0,0,1,.955,2.274,2.823,2.823,0,0,1-1.15,2.349,4.772,4.772,0,0,1-3,.888,5.1,5.1,0,0,1-3.092-.979,2.986,2.986,0,0,1-1.3-2.623l.017-.05h1.561a2.031,2.031,0,0,0,.863,1.756,3.268,3.268,0,0,0,1.951.618,2.933,2.933,0,0,0,1.839-.523A1.7,1.7,0,0,0,27.835,12.954Zm7.446,3.221a3.8,3.8,0,0,1-3.017-1.237,4.76,4.76,0,0,1-1.083-3.254v-.365a4.66,4.66,0,0,1,1.116-3.2,3.5,3.5,0,0,1,2.727-1.266,3.259,3.259,0,0,1,2.7,1.121,4.617,4.617,0,0,1,.9,2.98v.863H32.882l-.025.042a3.712,3.712,0,0,0,.6,2.2,2.088,2.088,0,0,0,1.826.843,4.114,4.114,0,0,0,1.457-.237,3.252,3.252,0,0,0,1.075-.652l.639,1.063a3.93,3.93,0,0,1-1.27.784A5.059,5.059,0,0,1,35.281,16.174Zm-.257-8.035a1.778,1.778,0,0,0-1.415.66,3.122,3.122,0,0,0-.685,1.689l.017.042h4.051V10.4a2.615,2.615,0,0,0-.481-1.619A1.74,1.74,0,0,0,35.024,8.139Zm5.146,3.536A5.994,5.994,0,0,1,41.1,8.181a2.974,2.974,0,0,1,2.586-1.328,3.152,3.152,0,0,1,1.5.344,3.023,3.023,0,0,1,1.087.992l.2-1.17h1.3V16.05a3.426,3.426,0,0,1-1,2.652,4.126,4.126,0,0,1-2.9.926,6.074,6.074,0,0,1-1.4-.178,5.469,5.469,0,0,1-1.324-.486l.249-1.27a4.729,4.729,0,0,0,1.141.4,5.861,5.861,0,0,0,1.316.154,2.382,2.382,0,0,0,1.739-.544,2.253,2.253,0,0,0,.544-1.656V15.029a2.9,2.9,0,0,1-1.054.855,3.285,3.285,0,0,1-1.419.291A3.071,3.071,0,0,1,41.1,14.983a4.966,4.966,0,0,1-.926-3.134Zm1.635.174a3.817,3.817,0,0,0,.556,2.175,1.93,1.93,0,0,0,1.718.822,2.161,2.161,0,0,0,1.237-.336,2.552,2.552,0,0,0,.822-.95V9.426a2.537,2.537,0,0,0-.822-.909,2.156,2.156,0,0,0-1.22-.336,1.862,1.862,0,0,0-1.731.971,5.013,5.013,0,0,0-.56,2.523Zm14.02,2.822a3.042,3.042,0,0,1-1.087,1.112,2.975,2.975,0,0,1-1.536.39,2.885,2.885,0,0,1-2.291-.938,4.355,4.355,0,0,1-.822-2.922v-5.3h1.635v5.313a3.344,3.344,0,0,0,.423,1.976,1.574,1.574,0,0,0,1.32.54,2.69,2.69,0,0,0,1.44-.353,2.207,2.207,0,0,0,.859-1V7.019H57.4V16H55.934Zm8.209-6.209-.838-.05a1.873,1.873,0,0,0-1.092.307,1.97,1.97,0,0,0-.685.863V16H59.785V7.019h1.461L61.4,8.33a3.118,3.118,0,0,1,.942-1.087,2.2,2.2,0,0,1,1.291-.39,2.02,2.02,0,0,1,.349.029,2.31,2.31,0,0,1,.274.062ZM67.5,16H65.87V7.019H67.5Zm0-11.281H65.87V3.051H67.5Zm2.142,6.956a5.994,5.994,0,0,1,.926-3.495,2.982,2.982,0,0,1,2.594-1.328,3.216,3.216,0,0,1,1.4.291,2.867,2.867,0,0,1,1.042.847V3.051h1.635V16H75.988l-.249-1.137a2.915,2.915,0,0,1-1.087.979,3.249,3.249,0,0,1-1.5.332,3.082,3.082,0,0,1-2.573-1.191,4.95,4.95,0,0,1-.93-3.134Zm1.635.174a3.813,3.813,0,0,0,.556,2.179,1.942,1.942,0,0,0,1.727.818,2.166,2.166,0,0,0,1.229-.332,2.479,2.479,0,0,0,.813-.93V9.393a2.518,2.518,0,0,0-.818-.884,2.16,2.16,0,0,0-1.208-.328,1.869,1.869,0,0,0-1.739.971,5.013,5.013,0,0,0-.56,2.523ZM85.2,16q-.083-.407-.129-.718a5.27,5.27,0,0,1-.054-.627,3.813,3.813,0,0,1-1.191,1.083,3.046,3.046,0,0,1-1.581.436,2.936,2.936,0,0,1-2.137-.718,2.641,2.641,0,0,1-.735-1.98,2.32,2.32,0,0,1,1.042-2.013,4.865,4.865,0,0,1,2.826-.726H85.02V9.849A1.648,1.648,0,0,0,84.538,8.6a1.89,1.89,0,0,0-1.361-.461,1.975,1.975,0,0,0-1.287.4,1.2,1.2,0,0,0-.49.955l-1.552.017-.017-.05a2.15,2.15,0,0,1,.917-1.793,3.8,3.8,0,0,1,2.519-.813,3.709,3.709,0,0,1,2.457.776,2.749,2.749,0,0,1,.93,2.237V14.19a8.418,8.418,0,0,0,.05.93,4.781,4.781,0,0,0,.183.88Zm-2.714-1.2a2.91,2.91,0,0,0,1.6-.457,2.17,2.17,0,0,0,.93-1.046V11.841H83.185a2.38,2.38,0,0,0-1.581.5,1.489,1.489,0,0,0-.594,1.17,1.232,1.232,0,0,0,.374.946A1.564,1.564,0,0,0,82.488,14.8Zm6.167-3.129a5.994,5.994,0,0,1,.926-3.495,2.982,2.982,0,0,1,2.594-1.328,3.216,3.216,0,0,1,1.4.291,2.867,2.867,0,0,1,1.042.847V3.051H96.25V16H95l-.249-1.137a2.915,2.915,0,0,1-1.087.979,3.249,3.249,0,0,1-1.5.332,3.082,3.082,0,0,1-2.573-1.191,4.95,4.95,0,0,1-.93-3.134Zm1.635.174a3.813,3.813,0,0,0,.556,2.179,1.942,1.942,0,0,0,1.727.818,2.166,2.166,0,0,0,1.229-.332,2.479,2.479,0,0,0,.813-.93V9.393a2.518,2.518,0,0,0-.818-.884,2.16,2.16,0,0,0-1.208-.328,1.869,1.869,0,0,0-1.739.971,5.013,5.013,0,0,0-.56,2.523ZM103.6,16V8.23h-1.4V7.019h1.4V5.881a3.082,3.082,0,0,1,.751-2.22,2.765,2.765,0,0,1,2.1-.784,3.607,3.607,0,0,1,.569.046q.286.046.635.129l-.2,1.245q-.149-.033-.361-.058a3.8,3.8,0,0,0-.444-.025,1.29,1.29,0,0,0-1.062.427,1.922,1.922,0,0,0-.349,1.241V7.019h1.627V8.23h-1.627V16Zm6.632,0h-1.635V7.019h1.635ZM110.2,3.383h1.909l.017.05L109.9,5.591h-1.229Zm7.8,10.2a1.09,1.09,0,0,0-.411-.88,3.966,3.966,0,0,0-1.556-.6,6.53,6.53,0,0,1-2.436-.955,1.928,1.928,0,0,1-.851-1.644,2.368,2.368,0,0,1,.934-1.876,4.121,4.121,0,0,1,4.893.05,2.378,2.378,0,0,1,.9,1.934l-.017.05h-1.561a1.414,1.414,0,0,0-.51-1.054,1.825,1.825,0,0,0-1.291-.473,1.861,1.861,0,0,0-1.291.39,1.217,1.217,0,0,0-.427.93.985.985,0,0,0,.369.822,4.089,4.089,0,0,0,1.523.531,6.437,6.437,0,0,1,2.507.988,1.989,1.989,0,0,1,.855,1.668,2.365,2.365,0,0,1-.967,1.951,3.989,3.989,0,0,1-2.528.755,3.947,3.947,0,0,1-2.706-.872,2.487,2.487,0,0,1-.938-2.034l.017-.05h1.561a1.513,1.513,0,0,0,.647,1.274,2.505,2.505,0,0,0,1.419.4,2.236,2.236,0,0,0,1.365-.369A1.13,1.13,0,0,0,118.007,13.584ZM123.444,16h-1.635V7.019h1.635Zm0-11.281h-1.635V3.051h1.635ZM129.528,14.9a1.923,1.923,0,0,0,1.32-.5,1.587,1.587,0,0,0,.564-1.233h1.478l.025.05a2.579,2.579,0,0,1-1,2.063,3.806,3.806,0,0,1-5.312-.386,4.966,4.966,0,0,1-1.029-3.2v-.349a4.945,4.945,0,0,1,1.033-3.192,3.524,3.524,0,0,1,2.918-1.291,3.389,3.389,0,0,1,2.461.93,2.948,2.948,0,0,1,.926,2.283l-.017.05h-1.486a1.982,1.982,0,0,0-.535-1.4,1.762,1.762,0,0,0-1.349-.577,1.888,1.888,0,0,0-1.756.934,4.371,4.371,0,0,0-.552,2.262v.349a4.454,4.454,0,0,0,.544,2.283A1.887,1.887,0,0,0,129.528,14.9ZM140.377,16q-.083-.407-.129-.718a5.27,5.27,0,0,1-.054-.627A3.813,3.813,0,0,1,139,15.739a3.046,3.046,0,0,1-1.581.436,2.936,2.936,0,0,1-2.137-.718,2.641,2.641,0,0,1-.735-1.98,2.32,2.32,0,0,1,1.042-2.013,4.865,4.865,0,0,1,2.826-.726h1.776V9.849a1.648,1.648,0,0,0-.481-1.249,1.89,1.89,0,0,0-1.361-.461,1.975,1.975,0,0,0-1.287.4,1.2,1.2,0,0,0-.49.955l-1.552.017-.017-.05a2.15,2.15,0,0,1,.917-1.793,3.8,3.8,0,0,1,2.519-.813,3.709,3.709,0,0,1,2.457.776,2.749,2.749,0,0,1,.93,2.237V14.19a8.418,8.418,0,0,0,.05.93,4.78,4.78,0,0,0,.183.88Zm-2.714-1.2a2.91,2.91,0,0,0,1.6-.457,2.17,2.17,0,0,0,.93-1.046V11.841H138.36a2.38,2.38,0,0,0-1.581.5,1.489,1.489,0,0,0-.594,1.17,1.232,1.232,0,0,0,.374.946A1.564,1.564,0,0,0,137.663,14.8Z" transform="translate(1100.503 1932.486)" fill="#500c75"/>
    <path id="Trazado_221536" data-name="Trazado 221536" d="M8115.295-6666.034V-6803.55l-26.6-20H7836v50.2" transform="translate(-7566.232 8493)" fill="none" stroke="#500c75" stroke-width="1.5"/>
    <path id="Trazado_221547" data-name="Trazado 221547" d="M284.416,81.171V21.043l-30.293-20L0,0" transform="translate(1045.869 1866.407)" fill="none" stroke="#500c75" stroke-width="1.5"/>
    <path id="Trazado_221537" data-name="Trazado 221537" d="M0-37.077.83,60.128l27.219,20H286.633L285.9-24.71h62.192" transform="translate(265.795 1952.287)" fill="none" stroke="#500c75" stroke-width="1.5"/>
    <path id="Trazado_221538" data-name="Trazado 221538" d="M0-37.077.83,60.128l27.219,20H286.633L285.9-24.71h62.192" transform="translate(647.05 1741.802)" fill="none" stroke="#500c75" stroke-width="1.5"/>
    <path id="Trazado_221548" data-name="Trazado 221548" d="M273.718,80.128h-245L0,54.517V21.4" transform="translate(1045.145 1752.051)" fill="none" stroke="#500c75" stroke-width="1.5"/>
    <path id="Trazado_221549" data-name="Trazado 221549" d="M0,0V53.86H85" transform="translate(1045.429 1966.07)" fill="none" stroke="#79f5ed" stroke-width="8"/>
    <path id="Trazado_221539" data-name="Trazado 221539" d="M0,53.861V0H85" transform="translate(265.795 1879.57)" fill="none" stroke="#79f5ed" stroke-width="8"/>
    <path id="Trazado_221540" data-name="Trazado 221540" d="M0,53.861V0H85" transform="translate(647.05 1669.085)" fill="none" stroke="#79f5ed" stroke-width="8"/>
    <path id="Trazado_221552" data-name="Trazado 221552" d="M85,53.861V0H0" transform="translate(1246.083 1679.699)" fill="none" stroke="#79f5ed" stroke-width="8"/>
    <path id="Trazado_221541" data-name="Trazado 221541" d="M7836-6724.565v53.861h266.352" transform="translate(-7566.232 8492.635)" fill="none" stroke="#500c75" stroke-width="1.5"/>
    <path id="Trazado_221550" data-name="Trazado 221550" d="M.192,0,0,154.274H274.526" transform="translate(1045.145 1865.655)" fill="none" stroke="#500c75" stroke-width="1.5"/>
    <path id="Trazado_221542" data-name="Trazado 221542" d="M0,53.861V0H256.927" transform="translate(265.795 1879.936)" fill="none" stroke="#500c75" stroke-width="1.5"/>
    <path id="Trazado_221543" data-name="Trazado 221543" d="M0,53.861V0H256.927" transform="translate(647.05 1669.45)" fill="none" stroke="#500c75" stroke-width="1.5"/>
    <path id="Trazado_221551" data-name="Trazado 221551" d="M0,53.861V0H285.938V160.331" transform="translate(1045.145 1679.699)" fill="none" stroke="#500c75" stroke-width="1.5"/>
    <g id="Grupo_150407" data-name="Grupo 150407" transform="translate(-9328.643 661.357) rotate(90)">
      <path id="Trazado_219859" data-name="Trazado 219859" d="M201.74,51.862l8.7,9.913-8.728,9.855,13.7-9.733Zm-15.991,1.244h5.32l12.883,8.669-12.027,8.669h-6.176l12.311-8.669Z" transform="translate(984.85 -9939.45)" fill="#500c75" fill-rule="evenodd"/>
      <path id="Trazado_219865" data-name="Trazado 219865" d="M180.456,53.559l12.48,7.993-12.48,7.993Z" transform="translate(980.481 -9939.223)" fill="#e01650" fill-rule="evenodd"/>
    </g>
    <g id="Grupo_150408" data-name="Grupo 150408" transform="translate(-549.496 11755.278)">
      <path id="Trazado_219864" data-name="Trazado 219864" d="M15.991,19.767l8.7-9.913L15.964,0l13.7,9.733ZM0,18.523H5.32L18.2,9.855,6.176,1.186H0L12.311,9.855Z" transform="translate(1171.262 -9838.379)" fill="#500c75" fill-rule="evenodd"/>
      <path id="Trazado_219866" data-name="Trazado 219866" d="M0,15.986,12.48,7.993,0,0Z" transform="translate(1159.521 -9836.521)" fill="#e01650" fill-rule="evenodd"/>
    </g>
    <g id="Grupo_150413" data-name="Grupo 150413" transform="translate(-170.027 11545.009)">
      <path id="Trazado_219864-2" data-name="Trazado 219864" d="M15.991,19.767l8.7-9.913L15.964,0l13.7,9.733ZM0,18.523H5.32L18.2,9.855,6.176,1.186H0L12.311,9.855Z" transform="translate(1171.262 -9838.379)" fill="#500c75" fill-rule="evenodd"/>
      <path id="Trazado_219866-2" data-name="Trazado 219866" d="M0,15.986,12.48,7.993,0,0Z" transform="translate(1159.521 -9836.521)" fill="#e01650" fill-rule="evenodd"/>
    </g>
    <g id="Grupo_150416" data-name="Grupo 150416" transform="translate(1340.168 1828.784) rotate(90)">
      <path id="Trazado_189705" data-name="Trazado 189705" d="M15.991,19.767l8.7-9.913L15.964,0l13.7,9.733ZM0,18.523H5.32L18.2,9.855,6.176,1.186H0L12.311,9.855Z" transform="translate(6.002 0)" fill="#500c75" fill-rule="evenodd"/>
      <path id="Trazado_189706" data-name="Trazado 189706" d="M0,15.986,12.48,7.993,0,0Z" transform="translate(0 1.857)" fill="#e01650" fill-rule="evenodd"/>
    </g>
    <path id="Trazado_224771" data-name="Trazado 224771" d="M20,0A20,20,0,1,1,0,20,20,20,0,0,1,20,0Z" transform="translate(1310.284 1953)" fill="#79f5ed"/>
    <path id="Trazado_224772" data-name="Trazado 224772" d="M20,0A20,20,0,1,1,0,20,20,20,0,0,1,20,0Z" transform="translate(1025.536 1739)" fill="#79f5ed"/>
    <g id="Grupo_150415" data-name="Grupo 150415" transform="translate(1308.244 1947.402)">
      <g id="Grupo_145241" data-name="Grupo 145241" transform="translate(0 0)" clip-path="url(#clip-path)">
        <path id="Trazado_189677" data-name="Trazado 189677" d="M42.472,12.273A24.509,24.509,0,0,0,0,12.273" transform="translate(0.531 0.614)" fill="none" stroke="#500c75" stroke-miterlimit="10" stroke-width="1"/>
      </g>
    </g>
    <g id="Grupo_150414" data-name="Grupo 150414" transform="translate(1023.768 1771.402)">
      <g id="Grupo_145241-2" data-name="Grupo 145241" transform="translate(0 0)" clip-path="url(#clip-path)">
        <path id="Trazado_189677-2" data-name="Trazado 189677" d="M42.472,0A24.518,24.518,0,0,1,21.235,12.273,24.516,24.516,0,0,1,0,0" transform="translate(0.531 0.308)" fill="none" stroke="#500c75" stroke-miterlimit="10" stroke-width="1"/>
      </g>
    </g>
    <g id="Grupo_150406" data-name="Grupo 150406" transform="translate(-628.233 11702)">
      <circle id="Elipse_5859" data-name="Elipse 5859" cx="20" cy="20" r="20" transform="translate(878.705 -9977.402)" fill="#79f5ed"/>
      <g id="Grupo_150396" data-name="Grupo 150396" transform="translate(876.233 -9983)">
        <g id="Grupo_145241-3" data-name="Grupo 145241" clip-path="url(#clip-path)">
          <path id="Trazado_189677-3" data-name="Trazado 189677" d="M42.905,12.773a24.509,24.509,0,0,0-42.472,0" transform="translate(0.098 0.114)" fill="none" stroke="#500c75" stroke-miterlimit="10" stroke-width="1"/>
        </g>
      </g>
      <text id="_01" data-name="01" transform="translate(899.705 -9950.402)" fill="#500c75" font-size="20" font-family="RobotoSlab-Bold, Roboto Slab" font-weight="700"><tspan x="-10.132" y="0">01</tspan></text>
    </g>
    <g id="Grupo_150409" data-name="Grupo 150409" transform="translate(-628.233 11671.252)">
      <ellipse id="Elipse_5852" data-name="Elipse 5852" cx="20" cy="20" rx="20" ry="20" transform="translate(1159.554 -9801.2)" fill="#79f5ed"/>
      <g id="Grupo_150022" data-name="Grupo 150022" transform="translate(1157.939 -9768.798)">
        <g id="Grupo_145241-4" data-name="Grupo 145241" transform="translate(0 0)" clip-path="url(#clip-path)">
          <path id="Trazado_189677-4" data-name="Trazado 189677" d="M42.472,0A24.518,24.518,0,0,1,21.235,12.273,24.516,24.516,0,0,1,0,0" transform="translate(0.531 0.308)" fill="none" stroke="#500c75" stroke-miterlimit="10" stroke-width="1"/>
        </g>
      </g>
      <text id="_02" data-name="02" transform="translate(1179.838 -9773.829)" fill="#500c75" font-size="20" font-family="RobotoSlab-Bold, Roboto Slab" font-weight="700"><tspan x="-11.24" y="0">02</tspan></text>
    </g>
    <g id="Grupo_150410" data-name="Grupo 150410" transform="translate(-246.979 11460.768)">
      <ellipse id="Elipse_5852-2" data-name="Elipse 5852" cx="20" cy="20" rx="20" ry="20" transform="translate(1159.554 -9801.2)" fill="#79f5ed"/>
      <g id="Grupo_150022-2" data-name="Grupo 150022" transform="translate(1157.939 -9768.798)">
        <g id="Grupo_145241-5" data-name="Grupo 145241" transform="translate(0 0)" clip-path="url(#clip-path)">
          <path id="Trazado_189677-5" data-name="Trazado 189677" d="M42.472,0A24.518,24.518,0,0,1,21.235,12.273,24.516,24.516,0,0,1,0,0" transform="translate(0.531 0.308)" fill="none" stroke="#500c75" stroke-miterlimit="10" stroke-width="1"/>
        </g>
      </g>
      <text id="_04" data-name="04" transform="translate(1179.838 -9773.829)" fill="#500c75" font-size="20" font-family="RobotoSlab-Bold, Roboto Slab" font-weight="700"><tspan x="-11.348" y="0">04</tspan></text>
    </g>
    <path id="Trazado_224773" data-name="Trazado 224773" d="M-.479-5.537A6.271,6.271,0,0,1-1.772-1.255a4.442,4.442,0,0,1-3.5,1.46A4.48,4.48,0,0,1-8.8-1.255a6.255,6.255,0,0,1-1.3-4.282V-8.672A6.294,6.294,0,0,1-8.8-12.954a4.439,4.439,0,0,1,3.511-1.47,4.457,4.457,0,0,1,3.511,1.47,6.262,6.262,0,0,1,1.3,4.282ZM-3.32-8.965a4.679,4.679,0,0,0-.508-2.476,1.64,1.64,0,0,0-1.465-.786,1.628,1.628,0,0,0-1.465.781,4.751,4.751,0,0,0-.5,2.48v3.7a4.761,4.761,0,0,0,.5,2.5,1.648,1.648,0,0,0,1.479.781,1.619,1.619,0,0,0,1.455-.781,4.8,4.8,0,0,0,.5-2.5ZM8.525-10.977l-.254-.957H4.443l-.4,3.281A3.562,3.562,0,0,1,5-9.136a3.962,3.962,0,0,1,1.23-.2A3.934,3.934,0,0,1,9.4-8.1a5.154,5.154,0,0,1,1.123,3.535A4.872,4.872,0,0,1,9.292-1.152,4.569,4.569,0,0,1,5.732.205,5.348,5.348,0,0,1,2.383-.864,3.383,3.383,0,0,1,1.035-3.809l.02-.049,2.734-.137a1.989,1.989,0,0,0,.537,1.479,1.911,1.911,0,0,0,1.406.532A1.652,1.652,0,0,0,7.207-2.7a3.251,3.251,0,0,0,.479-1.846,3.435,3.435,0,0,0-.508-1.973,1.713,1.713,0,0,0-1.514-.742,2.165,2.165,0,0,0-1.245.3,1.652,1.652,0,0,0-.62.82L1.279-6.3l.82-7.92h8.184v3.242Z" transform="translate(1045.302 1766.371)" fill="#500c75"/>
    <path id="Trazado_224774" data-name="Trazado 224774" d="M-.732-5.537A6.271,6.271,0,0,1-2.026-1.255a4.442,4.442,0,0,1-3.5,1.46,4.48,4.48,0,0,1-3.525-1.46,6.255,6.255,0,0,1-1.3-4.282V-8.672a6.294,6.294,0,0,1,1.294-4.282,4.439,4.439,0,0,1,3.511-1.47,4.457,4.457,0,0,1,3.511,1.47,6.262,6.262,0,0,1,1.3,4.282ZM-3.574-8.965a4.679,4.679,0,0,0-.508-2.476,1.64,1.64,0,0,0-1.465-.786,1.628,1.628,0,0,0-1.465.781,4.751,4.751,0,0,0-.5,2.48v3.7a4.761,4.761,0,0,0,.5,2.5,1.648,1.648,0,0,0,1.479.781,1.619,1.619,0,0,0,1.455-.781,4.8,4.8,0,0,0,.5-2.5ZM6.719-14.424a6.8,6.8,0,0,1,1.479.151,7.727,7.727,0,0,1,1.362.444l-.5,2.08a9.716,9.716,0,0,0-1.133-.327,5.657,5.657,0,0,0-1.191-.112A2.509,2.509,0,0,0,4.7-11.26a4.244,4.244,0,0,0-.776,2.734l.029.049a3.293,3.293,0,0,1,1.216-.781,4.557,4.557,0,0,1,1.646-.283A3.619,3.619,0,0,1,9.8-8.188a5.347,5.347,0,0,1,1.084,3.452A4.917,4.917,0,0,1,9.551-1.191,4.574,4.574,0,0,1,6.094.205,4.765,4.765,0,0,1,2.432-1.323,5.99,5.99,0,0,1,1.016-5.557v-2.5a6.527,6.527,0,0,1,1.6-4.692A5.422,5.422,0,0,1,6.719-14.424ZM6.064-7.383a3.233,3.233,0,0,0-1.348.254,2.042,2.042,0,0,0-.859.693v.947a4.643,4.643,0,0,0,.61,2.6,1.874,1.874,0,0,0,1.626.908A1.623,1.623,0,0,0,7.5-2.788a3.455,3.455,0,0,0,.532-1.948A3.159,3.159,0,0,0,7.5-6.65,1.692,1.692,0,0,0,6.064-7.383Z" transform="translate(1330.15 1981)" fill="#500c75"/>
    <path id="Trazado_221556" data-name="Trazado 221556" d="M23.827,12.954a1.818,1.818,0,0,0-.589-1.378,4.909,4.909,0,0,0-2.075-.946,6.911,6.911,0,0,1-2.876-1.345,2.821,2.821,0,0,1-1.033-2.233,2.98,2.98,0,0,1,1.112-2.366,4.3,4.3,0,0,1,2.889-.946A4.219,4.219,0,0,1,24.3,4.823a3.281,3.281,0,0,1,1.1,2.528l-.025.05H23.81a2.231,2.231,0,0,0-.718-1.7,2.583,2.583,0,0,0-1.839-.672,2.518,2.518,0,0,0-1.756.556,1.864,1.864,0,0,0-.61,1.444,1.613,1.613,0,0,0,.668,1.316,6.163,6.163,0,0,0,2.171.926,6.162,6.162,0,0,1,2.781,1.395,3.036,3.036,0,0,1,.955,2.274,2.823,2.823,0,0,1-1.15,2.349,4.772,4.772,0,0,1-3,.888,5.1,5.1,0,0,1-3.092-.979,2.986,2.986,0,0,1-1.3-2.623l.017-.05H18.5a2.031,2.031,0,0,0,.863,1.756,3.268,3.268,0,0,0,1.951.618,2.933,2.933,0,0,0,1.839-.523A1.7,1.7,0,0,0,23.827,12.954Zm7.446,3.221a3.8,3.8,0,0,1-3.017-1.237,4.76,4.76,0,0,1-1.083-3.254v-.365a4.66,4.66,0,0,1,1.116-3.2,3.5,3.5,0,0,1,2.727-1.266,3.259,3.259,0,0,1,2.7,1.121,4.617,4.617,0,0,1,.9,2.98v.863H28.874l-.025.042a3.712,3.712,0,0,0,.6,2.2,2.088,2.088,0,0,0,1.826.843,4.114,4.114,0,0,0,1.457-.237,3.252,3.252,0,0,0,1.075-.652l.639,1.063a3.93,3.93,0,0,1-1.27.784A5.059,5.059,0,0,1,31.272,16.174Zm-.257-8.035A1.778,1.778,0,0,0,29.6,8.8a3.122,3.122,0,0,0-.685,1.689l.017.042h4.051V10.4A2.615,2.615,0,0,0,32.5,8.778,1.74,1.74,0,0,0,31.015,8.139Zm5.146,3.536a5.994,5.994,0,0,1,.926-3.495,2.974,2.974,0,0,1,2.586-1.328,3.152,3.152,0,0,1,1.5.344,3.023,3.023,0,0,1,1.087.992l.2-1.17h1.3V16.05a3.426,3.426,0,0,1-1,2.652,4.126,4.126,0,0,1-2.9.926,6.074,6.074,0,0,1-1.4-.178,5.469,5.469,0,0,1-1.324-.486l.249-1.27a4.729,4.729,0,0,0,1.141.4,5.861,5.861,0,0,0,1.316.154,2.382,2.382,0,0,0,1.739-.544,2.253,2.253,0,0,0,.544-1.656V15.029a2.9,2.9,0,0,1-1.054.855,3.285,3.285,0,0,1-1.419.291,3.071,3.071,0,0,1-2.569-1.191,4.966,4.966,0,0,1-.926-3.134Zm1.635.174a3.817,3.817,0,0,0,.556,2.175,1.93,1.93,0,0,0,1.718.822,2.161,2.161,0,0,0,1.237-.336,2.552,2.552,0,0,0,.822-.95V9.426a2.537,2.537,0,0,0-.822-.909,2.156,2.156,0,0,0-1.22-.336,1.862,1.862,0,0,0-1.731.971,5.013,5.013,0,0,0-.56,2.523Zm14.02,2.822a3.042,3.042,0,0,1-1.087,1.112,2.975,2.975,0,0,1-1.536.39,2.885,2.885,0,0,1-2.291-.938,4.355,4.355,0,0,1-.822-2.922v-5.3h1.635v5.313a3.344,3.344,0,0,0,.423,1.976,1.574,1.574,0,0,0,1.32.54,2.69,2.69,0,0,0,1.44-.353,2.207,2.207,0,0,0,.859-1V7.019h1.635V16H51.925Zm8.209-6.209-.838-.05A1.873,1.873,0,0,0,58.1,8.72a1.97,1.97,0,0,0-.685.863V16H55.776V7.019h1.461L57.4,8.33a3.118,3.118,0,0,1,.942-1.087,2.2,2.2,0,0,1,1.291-.39,2.02,2.02,0,0,1,.349.029,2.311,2.311,0,0,1,.274.062ZM63.5,16H61.861V7.019H63.5Zm0-11.281H61.861V3.051H63.5Zm2.142,6.956a5.994,5.994,0,0,1,.926-3.495,2.982,2.982,0,0,1,2.594-1.328,3.216,3.216,0,0,1,1.4.291A2.867,2.867,0,0,1,71.6,7.99V3.051h1.635V16H71.979l-.249-1.137a2.915,2.915,0,0,1-1.087.979,3.249,3.249,0,0,1-1.5.332,3.082,3.082,0,0,1-2.573-1.191,4.95,4.95,0,0,1-.93-3.134Zm1.635.174a3.813,3.813,0,0,0,.556,2.179,1.942,1.942,0,0,0,1.727.818,2.166,2.166,0,0,0,1.229-.332,2.479,2.479,0,0,0,.813-.93V9.393a2.518,2.518,0,0,0-.818-.884,2.16,2.16,0,0,0-1.208-.328,1.869,1.869,0,0,0-1.739.971,5.013,5.013,0,0,0-.56,2.523ZM81.193,16q-.083-.407-.129-.718a5.27,5.27,0,0,1-.054-.627,3.813,3.813,0,0,1-1.191,1.083,3.046,3.046,0,0,1-1.581.436,2.936,2.936,0,0,1-2.137-.718,2.641,2.641,0,0,1-.735-1.98,2.32,2.32,0,0,1,1.042-2.013,4.865,4.865,0,0,1,2.826-.726h1.776V9.849A1.648,1.648,0,0,0,80.529,8.6a1.89,1.89,0,0,0-1.361-.461,1.975,1.975,0,0,0-1.287.4,1.2,1.2,0,0,0-.49.955l-1.552.017-.017-.05a2.15,2.15,0,0,1,.917-1.793,3.8,3.8,0,0,1,2.519-.813,3.709,3.709,0,0,1,2.457.776,2.749,2.749,0,0,1,.93,2.237V14.19a8.418,8.418,0,0,0,.05.93,4.781,4.781,0,0,0,.183.88Zm-2.714-1.2a2.91,2.91,0,0,0,1.6-.457,2.17,2.17,0,0,0,.93-1.046V11.841H79.176a2.38,2.38,0,0,0-1.581.5A1.489,1.489,0,0,0,77,13.51a1.232,1.232,0,0,0,.374.946A1.564,1.564,0,0,0,78.479,14.8Zm6.167-3.129a5.994,5.994,0,0,1,.926-3.495,2.982,2.982,0,0,1,2.594-1.328,3.216,3.216,0,0,1,1.4.291,2.867,2.867,0,0,1,1.042.847V3.051h1.635V16H90.988l-.249-1.137a2.915,2.915,0,0,1-1.087.979,3.249,3.249,0,0,1-1.5.332,3.082,3.082,0,0,1-2.573-1.191,4.95,4.95,0,0,1-.93-3.134Zm1.635.174a3.813,3.813,0,0,0,.556,2.179,1.942,1.942,0,0,0,1.727.818,2.166,2.166,0,0,0,1.229-.332,2.479,2.479,0,0,0,.813-.93V9.393a2.518,2.518,0,0,0-.818-.884,2.16,2.16,0,0,0-1.208-.328,1.869,1.869,0,0,0-1.739.971,5.013,5.013,0,0,0-.56,2.523Zm16.344,4.325a3.8,3.8,0,0,1-3.017-1.237,4.76,4.76,0,0,1-1.083-3.254v-.365a4.66,4.66,0,0,1,1.116-3.2,3.5,3.5,0,0,1,2.727-1.266,3.259,3.259,0,0,1,2.7,1.121,4.617,4.617,0,0,1,.9,2.98v.863h-5.744l-.025.042a3.712,3.712,0,0,0,.6,2.2,2.088,2.088,0,0,0,1.826.843,4.114,4.114,0,0,0,1.457-.237,3.252,3.252,0,0,0,1.075-.652l.639,1.063a3.93,3.93,0,0,1-1.27.784A5.059,5.059,0,0,1,102.626,16.174Zm-.257-8.035a1.778,1.778,0,0,0-1.415.66,3.122,3.122,0,0,0-.685,1.689l.017.042h4.051V10.4a2.615,2.615,0,0,0-.481-1.619A1.74,1.74,0,0,0,102.369,8.139Zm6.9-1.121.116,1.336a3.261,3.261,0,0,1,1.125-1.108,3,3,0,0,1,1.54-.394,2.932,2.932,0,0,1,2.25.851,3.735,3.735,0,0,1,.8,2.627V16h-1.635V10.364a2.43,2.43,0,0,0-.469-1.685,1.879,1.879,0,0,0-1.432-.5,2.535,2.535,0,0,0-1.282.3,2.2,2.2,0,0,0-.834.851V16h-1.635V7.019ZM123.461,16h-1.635V3.051h1.635Zm8.035,0q-.083-.407-.129-.718a5.27,5.27,0,0,1-.054-.627,3.813,3.813,0,0,1-1.191,1.083,3.046,3.046,0,0,1-1.581.436,2.936,2.936,0,0,1-2.137-.718,2.641,2.641,0,0,1-.735-1.98,2.32,2.32,0,0,1,1.042-2.013,4.865,4.865,0,0,1,2.826-.726h1.776V9.849a1.648,1.648,0,0,0-.481-1.249,1.89,1.89,0,0,0-1.361-.461,1.975,1.975,0,0,0-1.287.4,1.2,1.2,0,0,0-.49.955l-1.552.017-.017-.05a2.15,2.15,0,0,1,.917-1.793,3.8,3.8,0,0,1,2.519-.813,3.709,3.709,0,0,1,2.457.776,2.749,2.749,0,0,1,.93,2.237V14.19a8.418,8.418,0,0,0,.05.93,4.78,4.78,0,0,0,.183.88Zm-2.714-1.2a2.91,2.91,0,0,0,1.6-.457,2.17,2.17,0,0,0,.93-1.046V11.841h-1.834a2.38,2.38,0,0,0-1.581.5,1.489,1.489,0,0,0-.594,1.17,1.232,1.232,0,0,0,.374.946A1.564,1.564,0,0,0,128.782,14.8Zm11.762-1.22a1.09,1.09,0,0,0-.411-.88,3.966,3.966,0,0,0-1.556-.6,6.53,6.53,0,0,1-2.436-.955,1.928,1.928,0,0,1-.851-1.644,2.368,2.368,0,0,1,.934-1.876,4.121,4.121,0,0,1,4.893.05,2.378,2.378,0,0,1,.9,1.934l-.017.05h-1.561a1.414,1.414,0,0,0-.51-1.054,1.825,1.825,0,0,0-1.291-.473,1.861,1.861,0,0,0-1.291.39,1.217,1.217,0,0,0-.427.93.985.985,0,0,0,.369.822,4.089,4.089,0,0,0,1.523.531,6.437,6.437,0,0,1,2.507.988,1.989,1.989,0,0,1,.855,1.668,2.365,2.365,0,0,1-.967,1.951,3.989,3.989,0,0,1-2.528.755,3.947,3.947,0,0,1-2.706-.872,2.487,2.487,0,0,1-.938-2.034l.017-.05h1.561a1.513,1.513,0,0,0,.647,1.274,2.505,2.505,0,0,0,1.419.4,2.236,2.236,0,0,0,1.365-.369A1.13,1.13,0,0,0,140.544,13.584ZM18.157,28.852v2.167h1.7V32.23h-1.7v5.454a1.221,1.221,0,0,0,.261.888.945.945,0,0,0,.693.257,1.519,1.519,0,0,0,.315-.037,2.34,2.34,0,0,0,.291-.079l.224,1.121a1.445,1.445,0,0,1-.54.245,2.722,2.722,0,0,1-.706.1,2.118,2.118,0,0,1-1.585-.6,2.614,2.614,0,0,1-.589-1.888V32.23H15.094V31.019h1.428V28.852Zm7.172,11.322a3.8,3.8,0,0,1-3.017-1.237,4.76,4.76,0,0,1-1.083-3.254v-.365a4.66,4.66,0,0,1,1.116-3.2,3.5,3.5,0,0,1,2.727-1.266,3.259,3.259,0,0,1,2.7,1.121,4.617,4.617,0,0,1,.9,2.98v.863H22.93l-.025.042a3.712,3.712,0,0,0,.6,2.2,2.088,2.088,0,0,0,1.826.843,4.114,4.114,0,0,0,1.457-.237,3.252,3.252,0,0,0,1.075-.652L28.5,39.07a3.93,3.93,0,0,1-1.27.784A5.059,5.059,0,0,1,25.329,40.174Zm-.257-8.035a1.778,1.778,0,0,0-1.415.66,3.122,3.122,0,0,0-.685,1.689l.017.042h4.051V34.4a2.615,2.615,0,0,0-.481-1.619A1.74,1.74,0,0,0,25.072,32.139ZM34.078,38.9a1.923,1.923,0,0,0,1.32-.5,1.587,1.587,0,0,0,.564-1.233H37.44l.025.05a2.579,2.579,0,0,1-1,2.063,3.806,3.806,0,0,1-5.312-.386,4.966,4.966,0,0,1-1.029-3.2v-.349a4.945,4.945,0,0,1,1.033-3.192,3.524,3.524,0,0,1,2.918-1.291,3.389,3.389,0,0,1,2.461.93,2.948,2.948,0,0,1,.926,2.283l-.017.05H35.962a1.982,1.982,0,0,0-.535-1.4,1.762,1.762,0,0,0-1.349-.577,1.888,1.888,0,0,0-1.756.934,4.371,4.371,0,0,0-.552,2.262v.349a4.454,4.454,0,0,0,.544,2.283A1.887,1.887,0,0,0,34.078,38.9Zm6.79-7.877.116,1.336a3.261,3.261,0,0,1,1.125-1.108,3,3,0,0,1,1.54-.394,2.932,2.932,0,0,1,2.25.851,3.735,3.735,0,0,1,.8,2.627V40H45.06V34.364a2.43,2.43,0,0,0-.469-1.685,1.879,1.879,0,0,0-1.432-.5,2.535,2.535,0,0,0-1.282.3,2.2,2.2,0,0,0-.834.851V40H39.407V31.019Zm7.819,4.408a4.945,4.945,0,0,1,1.079-3.283,4,4,0,0,1,5.881,0,4.929,4.929,0,0,1,1.083,3.287v.183A4.921,4.921,0,0,1,55.652,38.9a4.017,4.017,0,0,1-5.881,0,4.912,4.912,0,0,1-1.083-3.283Zm1.635.183a4.26,4.26,0,0,0,.6,2.357,2.174,2.174,0,0,0,3.565,0,4.238,4.238,0,0,0,.606-2.357v-.183a4.225,4.225,0,0,0-.61-2.349,2,2,0,0,0-1.789-.938,1.972,1.972,0,0,0-1.772.938,4.269,4.269,0,0,0-.6,2.349ZM60.5,40H58.864V27.051H60.5Zm2.133-4.574a4.945,4.945,0,0,1,1.079-3.283,4,4,0,0,1,5.881,0,4.929,4.929,0,0,1,1.083,3.287v.183A4.921,4.921,0,0,1,69.6,38.9a4.017,4.017,0,0,1-5.881,0,4.912,4.912,0,0,1-1.083-3.283Zm1.635.183a4.26,4.26,0,0,0,.6,2.357,2.174,2.174,0,0,0,3.565,0,4.238,4.238,0,0,0,.606-2.357v-.183a4.225,4.225,0,0,0-.61-2.349,2,2,0,0,0-1.789-.938,1.972,1.972,0,0,0-1.772.938,4.269,4.269,0,0,0-.6,2.349Zm8.118.066a5.994,5.994,0,0,1,.926-3.495A2.974,2.974,0,0,1,75.9,30.853a3.152,3.152,0,0,1,1.5.344,3.023,3.023,0,0,1,1.087.992l.2-1.17h1.3V40.05a3.426,3.426,0,0,1-1,2.652,4.126,4.126,0,0,1-2.9.926,6.074,6.074,0,0,1-1.4-.178,5.468,5.468,0,0,1-1.324-.486l.249-1.27a4.729,4.729,0,0,0,1.141.4,5.861,5.861,0,0,0,1.316.154,2.382,2.382,0,0,0,1.739-.544,2.253,2.253,0,0,0,.544-1.656V39.029a2.9,2.9,0,0,1-1.054.855,3.285,3.285,0,0,1-1.419.291,3.071,3.071,0,0,1-2.569-1.191,4.966,4.966,0,0,1-.926-3.134Zm1.635.174a3.817,3.817,0,0,0,.556,2.175,1.93,1.93,0,0,0,1.718.822,2.161,2.161,0,0,0,1.237-.336,2.552,2.552,0,0,0,.822-.95V33.426a2.537,2.537,0,0,0-.822-.909,2.156,2.156,0,0,0-1.22-.336,1.862,1.862,0,0,0-1.731.971,5.013,5.013,0,0,0-.56,2.523ZM84.057,40H82.422V31.019h1.635Zm-.025-12.617h1.909l.017.05-2.233,2.158H82.5ZM92.134,40q-.083-.407-.129-.718a5.27,5.27,0,0,1-.054-.627,3.813,3.813,0,0,1-1.191,1.083,3.046,3.046,0,0,1-1.581.436,2.936,2.936,0,0,1-2.137-.718,2.641,2.641,0,0,1-.735-1.98,2.32,2.32,0,0,1,1.042-2.013,4.865,4.865,0,0,1,2.826-.726h1.776v-.888A1.648,1.648,0,0,0,91.47,32.6a1.89,1.89,0,0,0-1.361-.461,1.975,1.975,0,0,0-1.287.4,1.2,1.2,0,0,0-.49.955l-1.552.017-.017-.05a2.15,2.15,0,0,1,.917-1.793,3.8,3.8,0,0,1,2.519-.813,3.709,3.709,0,0,1,2.457.776,2.749,2.749,0,0,1,.93,2.237V38.19a8.418,8.418,0,0,0,.05.93,4.781,4.781,0,0,0,.183.88Zm-2.714-1.2a2.91,2.91,0,0,0,1.6-.457,2.17,2.17,0,0,0,.93-1.046V35.841H90.117a2.38,2.38,0,0,0-1.581.5,1.489,1.489,0,0,0-.594,1.17,1.232,1.232,0,0,0,.374.946A1.564,1.564,0,0,0,89.419,38.8Zm11.762-1.22a1.09,1.09,0,0,0-.411-.88,3.966,3.966,0,0,0-1.556-.6,6.53,6.53,0,0,1-2.436-.955,1.928,1.928,0,0,1-.851-1.644,2.368,2.368,0,0,1,.934-1.876,4.121,4.121,0,0,1,4.893.05,2.378,2.378,0,0,1,.9,1.934l-.017.05h-1.561a1.414,1.414,0,0,0-.51-1.054,1.825,1.825,0,0,0-1.291-.473,1.861,1.861,0,0,0-1.291.39,1.217,1.217,0,0,0-.427.93.985.985,0,0,0,.369.822,4.089,4.089,0,0,0,1.523.531,6.437,6.437,0,0,1,2.507.988,1.989,1.989,0,0,1,.855,1.668,2.365,2.365,0,0,1-.967,1.951,3.989,3.989,0,0,1-2.528.755,3.947,3.947,0,0,1-2.706-.872,2.487,2.487,0,0,1-.938-2.034l.017-.05h1.561a1.513,1.513,0,0,0,.647,1.274,2.505,2.505,0,0,0,1.419.4,2.236,2.236,0,0,0,1.365-.369A1.13,1.13,0,0,0,101.182,37.584Zm7.521-1.909a5.994,5.994,0,0,1,.926-3.495,2.982,2.982,0,0,1,2.594-1.328,3.216,3.216,0,0,1,1.4.291,2.867,2.867,0,0,1,1.042.847V27.051H116.3V40h-1.253l-.249-1.137a2.915,2.915,0,0,1-1.087.979,3.249,3.249,0,0,1-1.5.332,3.082,3.082,0,0,1-2.573-1.191,4.95,4.95,0,0,1-.93-3.134Zm1.635.174a3.813,3.813,0,0,0,.556,2.179,1.942,1.942,0,0,0,1.727.818,2.166,2.166,0,0,0,1.229-.332,2.479,2.479,0,0,0,.813-.93V33.393a2.518,2.518,0,0,0-.818-.884,2.16,2.16,0,0,0-1.208-.328,1.869,1.869,0,0,0-1.739.971,5.013,5.013,0,0,0-.56,2.523Zm12.119,4.325a3.8,3.8,0,0,1-3.017-1.237,4.76,4.76,0,0,1-1.083-3.254v-.365a4.66,4.66,0,0,1,1.116-3.2,3.5,3.5,0,0,1,2.727-1.266,3.259,3.259,0,0,1,2.7,1.121,4.617,4.617,0,0,1,.9,2.98v.863h-5.744l-.025.042a3.712,3.712,0,0,0,.6,2.2,2.088,2.088,0,0,0,1.826.843,4.114,4.114,0,0,0,1.457-.237,3.252,3.252,0,0,0,1.075-.652l.639,1.063a3.93,3.93,0,0,1-1.27.784A5.059,5.059,0,0,1,122.457,40.174Zm-.257-8.035a1.778,1.778,0,0,0-1.415.66,3.122,3.122,0,0,0-.685,1.689l.017.042h4.051V34.4a2.615,2.615,0,0,0-.481-1.619A1.74,1.74,0,0,0,122.2,32.139ZM133.629,40h-1.635V27.051h1.635Zm8.035,0q-.083-.407-.129-.718a5.27,5.27,0,0,1-.054-.627,3.813,3.813,0,0,1-1.191,1.083,3.046,3.046,0,0,1-1.581.436,2.936,2.936,0,0,1-2.137-.718,2.641,2.641,0,0,1-.735-1.98,2.32,2.32,0,0,1,1.042-2.013,4.865,4.865,0,0,1,2.826-.726h1.776v-.888A1.648,1.648,0,0,0,141,32.6a1.89,1.89,0,0,0-1.361-.461,1.975,1.975,0,0,0-1.287.4,1.2,1.2,0,0,0-.49.955l-1.552.017-.017-.05a2.15,2.15,0,0,1,.917-1.793,3.8,3.8,0,0,1,2.519-.813,3.709,3.709,0,0,1,2.457.776,2.749,2.749,0,0,1,.93,2.237V38.19a8.418,8.418,0,0,0,.05.93,4.78,4.78,0,0,0,.183.88Zm-2.714-1.2a2.91,2.91,0,0,0,1.6-.457,2.17,2.17,0,0,0,.93-1.046V35.841h-1.834a2.38,2.38,0,0,0-1.581.5,1.489,1.489,0,0,0-.594,1.17,1.232,1.232,0,0,0,.374.946A1.564,1.564,0,0,0,138.95,38.8ZM36.523,64H34.887V55.019h1.635Zm0-11.281H34.887V51.051h1.635Zm3.976,2.3.116,1.336a3.261,3.261,0,0,1,1.125-1.108,3,3,0,0,1,1.54-.394,2.932,2.932,0,0,1,2.25.851,3.735,3.735,0,0,1,.8,2.627V64H44.691V58.364a2.43,2.43,0,0,0-.469-1.685,1.879,1.879,0,0,0-1.432-.5,2.535,2.535,0,0,0-1.282.3,2.2,2.2,0,0,0-.834.851V64H39.038V55.019ZM49.381,64V56.23h-1.4V55.019h1.4V53.881a3.082,3.082,0,0,1,.751-2.22,2.765,2.765,0,0,1,2.1-.784,3.607,3.607,0,0,1,.569.046q.286.046.635.129l-.2,1.245q-.149-.033-.361-.058a3.8,3.8,0,0,0-.444-.025,1.29,1.29,0,0,0-1.062.427,1.922,1.922,0,0,0-.349,1.241v1.137h1.627V56.23H51.016V64Zm4.532-4.574a4.945,4.945,0,0,1,1.079-3.283,4,4,0,0,1,5.881,0,4.929,4.929,0,0,1,1.083,3.287v.183A4.921,4.921,0,0,1,60.877,62.9a4.017,4.017,0,0,1-5.881,0,4.912,4.912,0,0,1-1.083-3.283Zm1.635.183a4.26,4.26,0,0,0,.6,2.357,2.174,2.174,0,0,0,3.565,0,4.238,4.238,0,0,0,.606-2.357v-.183a4.225,4.225,0,0,0-.61-2.349,2,2,0,0,0-1.789-.938,1.972,1.972,0,0,0-1.772.938,4.269,4.269,0,0,0-.6,2.349Zm12.659-3.146-.838-.05a1.873,1.873,0,0,0-1.092.307,1.97,1.97,0,0,0-.685.863V64H63.957V55.019h1.461l.158,1.312a3.118,3.118,0,0,1,.942-1.087,2.2,2.2,0,0,1,1.291-.39,2.021,2.021,0,0,1,.349.029,2.31,2.31,0,0,1,.274.062Zm3.163-1.444.116,1.179a3.051,3.051,0,0,1,1.116-.992,3.355,3.355,0,0,1,1.573-.353,2.779,2.779,0,0,1,1.54.415,2.511,2.511,0,0,1,.967,1.245A3.36,3.36,0,0,1,77.807,55.3a2.942,2.942,0,0,1,1.623-.444,2.689,2.689,0,0,1,2.167.942,4.3,4.3,0,0,1,.8,2.835V64H80.758V58.613a2.985,2.985,0,0,0-.457-1.88,1.665,1.665,0,0,0-1.361-.552,1.733,1.733,0,0,0-1.357.581,2.53,2.53,0,0,0-.61,1.469V64H75.329V58.613a2.945,2.945,0,0,0-.469-1.847,1.628,1.628,0,0,0-1.349-.585,2.247,2.247,0,0,0-1.229.307,1.984,1.984,0,0,0-.739.863V64H69.908V55.019ZM90.287,64q-.083-.407-.129-.718a5.27,5.27,0,0,1-.054-.627,3.813,3.813,0,0,1-1.191,1.083,3.046,3.046,0,0,1-1.581.436,2.936,2.936,0,0,1-2.137-.718,2.641,2.641,0,0,1-.735-1.98A2.32,2.32,0,0,1,85.5,59.464a4.865,4.865,0,0,1,2.826-.726H90.1v-.888a1.648,1.648,0,0,0-.481-1.249,1.89,1.89,0,0,0-1.361-.461,1.975,1.975,0,0,0-1.287.4,1.2,1.2,0,0,0-.49.955l-1.552.017-.017-.05a2.15,2.15,0,0,1,.917-1.793,3.8,3.8,0,0,1,2.519-.813,3.709,3.709,0,0,1,2.457.776,2.749,2.749,0,0,1,.93,2.237V62.19a8.418,8.418,0,0,0,.05.93,4.781,4.781,0,0,0,.183.88Zm-2.714-1.2a2.91,2.91,0,0,0,1.6-.457A2.17,2.17,0,0,0,90.1,61.3V59.841H88.27a2.38,2.38,0,0,0-1.581.5,1.489,1.489,0,0,0-.594,1.17,1.232,1.232,0,0,0,.374.946A1.564,1.564,0,0,0,87.573,62.8Zm10.11.091a1.923,1.923,0,0,0,1.32-.5,1.587,1.587,0,0,0,.564-1.233h1.478l.025.05a2.579,2.579,0,0,1-1,2.063,3.806,3.806,0,0,1-5.312-.386,4.966,4.966,0,0,1-1.029-3.2v-.349a4.945,4.945,0,0,1,1.033-3.192,3.524,3.524,0,0,1,2.918-1.291,3.389,3.389,0,0,1,2.461.93,2.948,2.948,0,0,1,.926,2.283l-.017.05H99.567a1.982,1.982,0,0,0-.535-1.4,1.762,1.762,0,0,0-1.349-.577,1.888,1.888,0,0,0-1.756.934,4.371,4.371,0,0,0-.552,2.262v.349a4.454,4.454,0,0,0,.544,2.283A1.887,1.887,0,0,0,97.683,62.9Zm7.1,1.1h-1.635V55.019h1.635Zm0-11.281h-1.635V51.051h1.635Zm2.133,6.707a4.945,4.945,0,0,1,1.079-3.283,4,4,0,0,1,5.881,0,4.929,4.929,0,0,1,1.083,3.287v.183a4.921,4.921,0,0,1-1.079,3.287,4.017,4.017,0,0,1-5.881,0,4.912,4.912,0,0,1-1.083-3.283Zm1.635.183a4.26,4.26,0,0,0,.6,2.357,2.174,2.174,0,0,0,3.565,0,4.238,4.238,0,0,0,.606-2.357v-.183a4.225,4.225,0,0,0-.61-2.349,2,2,0,0,0-1.789-.938,1.972,1.972,0,0,0-1.772.938,4.269,4.269,0,0,0-.6,2.349Zm3.179-8.4h1.909l.017.05-2.233,2.158h-1.229Zm6.69,3.81.116,1.336a3.261,3.261,0,0,1,1.125-1.108,3,3,0,0,1,1.54-.394,2.932,2.932,0,0,1,2.25.851,3.735,3.735,0,0,1,.8,2.627V64H122.61V58.364a2.43,2.43,0,0,0-.469-1.685,1.879,1.879,0,0,0-1.432-.5,2.535,2.535,0,0,0-1.282.3,2.2,2.2,0,0,0-.834.851V64h-1.635V55.019Z" transform="translate(709.767 1920.486)" fill="#500c75"/>
    <path id="Trazado_221544" data-name="Trazado 221544" d="M271.269-20.264V60.128l-25.835,20H0l1.036-153.5" transform="translate(656.199 1952.287)" fill="none" stroke="#500c75" stroke-width="1.5"/>
    <path id="Trazado_221545" data-name="Trazado 221545" d="M0,92.319V53.861H115.767l154.471.237" transform="translate(927.468 1933.798) rotate(180)" fill="none" stroke="#500c75" stroke-width="1.5"/>
    <g id="Grupo_150411" data-name="Grupo 150411" transform="translate(-357.012 11692.508)">
      <circle id="Elipse_5854" data-name="Elipse 5854" cx="20" cy="20" r="20" transform="translate(1304.644 -9765.619) rotate(180)" fill="#79f5ed"/>
      <g id="Grupo_150024" data-name="Grupo 150024" transform="translate(1306.247 -9760.021) rotate(180)">
        <g id="Grupo_145241-6" data-name="Grupo 145241" transform="translate(0)" clip-path="url(#clip-path)">
          <path id="Trazado_189677-6" data-name="Trazado 189677" d="M42.472,12.273A24.509,24.509,0,0,0,0,12.273" transform="translate(0.531 0.614)" fill="none" stroke="#500c75" stroke-miterlimit="10" stroke-width="1"/>
        </g>
      </g>
      <text id="_03" data-name="03" transform="translate(1284.432 -9778.435)" fill="#500c75" font-size="20" font-family="RobotoSlab-Bold, Roboto Slab" font-weight="700"><tspan x="-11.143" y="0">03</tspan></text>
    </g>
    <g id="Grupo_150412" data-name="Grupo 150412" transform="translate(10755.963 3028.792) rotate(-90)">
      <path id="Trazado_219864-3" data-name="Trazado 219864" d="M15.991,19.767l8.7-9.913L15.964,0l13.7,9.733ZM0,18.523H5.32L18.2,9.855,6.176,1.186H0L12.311,9.855Z" transform="translate(1171.262 -9838.379)" fill="#500c75" fill-rule="evenodd"/>
      <path id="Trazado_219866-3" data-name="Trazado 219866" d="M0,15.986,12.48,7.993,0,0Z" transform="translate(1159.521 -9836.521)" fill="#e01650" fill-rule="evenodd"/>
    </g>
  </g>
</svg>
