<svg xmlns="http://www.w3.org/2000/svg" xmlns:xlink="http://www.w3.org/1999/xlink" width="372.019" height="316.736" viewBox="0 0 372.019 316.736">
  <defs>
    <clipPath id="clip-path">
      <rect id="Rectángulo_46039" data-name="Rectángulo 46039" width="372.019" height="316.736" fill="none"/>
    </clipPath>
    <clipPath id="clip-path-3">
      <rect id="Rectángulo_46001" data-name="Rectángulo 46001" width="105.893" height="72.203" fill="none"/>
    </clipPath>
    <clipPath id="clip-path-4">
      <rect id="Rectángulo_46030" data-name="Rectángulo 46030" width="37.148" height="26.709" fill="none"/>
    </clipPath>
    <clipPath id="clip-path-5">
      <rect id="Rectángulo_46031" data-name="Rectángulo 46031" width="4.988" height="26.709" fill="none"/>
    </clipPath>
    <clipPath id="clip-path-6">
      <rect id="Rectángulo_46032" data-name="Rectángulo 46032" width="65.051" height="65.087" fill="none"/>
    </clipPath>
    <clipPath id="clip-path-7">
      <rect id="Rectángulo_46033" data-name="Rectángulo 46033" width="50.93" height="45.726" fill="none"/>
    </clipPath>
    <clipPath id="clip-path-8">
      <rect id="Rectángulo_46034" data-name="Rectángulo 46034" width="44.316" height="39.089" fill="none"/>
    </clipPath>
    <clipPath id="clip-path-9">
      <rect id="Rectángulo_46035" data-name="Rectángulo 46035" width="61.242" height="61.242" fill="none"/>
    </clipPath>
    <clipPath id="clip-path-10">
      <rect id="Rectángulo_46036" data-name="Rectángulo 46036" width="56.622" height="45.312" fill="none"/>
    </clipPath>
    <clipPath id="clip-path-11">
      <rect id="Rectángulo_46037" data-name="Rectángulo 46037" width="61.19" height="54.789" fill="none"/>
    </clipPath>
  </defs>
  <g id="Grupo_150870" data-name="Grupo 150870" transform="translate(-207.981 -22822.264)">
    <g id="Grupo_148968" data-name="Grupo 148968" transform="translate(207.981 22822.264)">
      <g id="Grupo_148967" data-name="Grupo 148967" clip-path="url(#clip-path)">
        <g id="Grupo_148966" data-name="Grupo 148966">
          <g id="Grupo_148965" data-name="Grupo 148965" clip-path="url(#clip-path)">
            <path id="Trazado_215397" data-name="Trazado 215397" d="M17.511,96.1a15.03,15.03,0,0,1,3.682-1.6l.758-3.645,6.158-.108L29,94.363a15.053,15.053,0,0,1,3.736,1.471l3.113-2.04,4.43,4.278-1.928,3.182a15.14,15.14,0,0,1,1.6,3.682l3.644.759.109,6.158-3.616.886a15.1,15.1,0,0,1-1.469,3.736l2.039,3.113-4.278,4.431-3.182-1.93a15.139,15.139,0,0,1-3.682,1.6l-.759,3.645-6.157.108-.887-3.616a15.106,15.106,0,0,1-3.736-1.469L14.86,124.4l-4.43-4.279,1.928-3.181a15.125,15.125,0,0,1-1.6-3.684L7.114,112.5,7,106.337l3.616-.887a15.127,15.127,0,0,1,1.469-3.736L10.052,98.6l4.278-4.43Zm3.283,8.2a6.607,6.607,0,1,0,9.342-.164,6.607,6.607,0,0,0-9.342.164" transform="translate(3.067 39.734)" fill="#d2b7ff"/>
            <path id="Trazado_215398" data-name="Trazado 215398" d="M23.818,34.117a15.029,15.029,0,0,1,3.682-1.6l.758-3.645,6.158-.108.887,3.615a15.054,15.054,0,0,1,3.736,1.471l3.113-2.04,4.43,4.278-1.928,3.182a15.14,15.14,0,0,1,1.6,3.682l3.644.759.109,6.157-3.616.887a15.1,15.1,0,0,1-1.469,3.736L46.961,57.6l-4.278,4.431L39.5,60.1a15.14,15.14,0,0,1-3.682,1.6l-.759,3.645-6.157.108-.887-3.616a15.105,15.105,0,0,1-3.736-1.469l-3.113,2.04-4.43-4.279,1.928-3.181a15.126,15.126,0,0,1-1.6-3.684l-3.644-.758-.109-6.158,3.616-.887A15.127,15.127,0,0,1,18.4,39.73l-2.039-3.113,4.278-4.43Zm3.283,8.2a6.607,6.607,0,1,0,9.342-.164,6.607,6.607,0,0,0-9.342.164" transform="translate(5.829 12.594)" fill="#d2b7ff"/>
            <path id="Trazado_215399" data-name="Trazado 215399" d="M117.937,58.493a18.2,18.2,0,0,1,4.444-1.932l.916-4.4,7.435-.129L131.8,56.4a18.219,18.219,0,0,1,4.512,1.774l3.757-2.463,5.35,5.165-2.329,3.842a18.229,18.229,0,0,1,1.932,4.446l4.4.916.131,7.435-4.365,1.07a18.213,18.213,0,0,1-1.776,4.511l2.463,3.759-5.165,5.35-3.84-2.329a18.267,18.267,0,0,1-4.447,1.931l-.916,4.4-7.435.129L123,91.966a18.232,18.232,0,0,1-4.511-1.774l-3.757,2.463-5.35-5.165,2.329-3.842a18.206,18.206,0,0,1-1.932-4.446l-4.4-.916-.131-7.435,4.365-1.07a18.244,18.244,0,0,1,1.774-4.511l-2.462-3.759,5.163-5.349Zm3.963,9.9a7.977,7.977,0,1,0,11.278-.2,7.977,7.977,0,0,0-11.278.2" transform="translate(46.084 22.781)" fill="#d2b7ff"/>
            <path id="Trazado_215400" data-name="Trazado 215400" d="M45.27,23.73a7.664,7.664,0,0,1,1.861-.81l.384-1.842,3.113-.055.449,1.828a7.644,7.644,0,0,1,1.888.743l1.573-1.031,2.24,2.163L55.8,26.334A7.638,7.638,0,0,1,56.61,28.2l1.843.384.055,3.113-1.828.447a7.632,7.632,0,0,1-.743,1.889L56.968,35.6l-2.163,2.24L53.2,36.866a7.642,7.642,0,0,1-1.862.81l-.384,1.842-3.113.055-.447-1.828A7.632,7.632,0,0,1,45.5,37L43.93,38.034l-2.24-2.163.975-1.609a7.59,7.59,0,0,1-.808-1.862l-1.842-.382L39.96,28.9l1.828-.449a7.6,7.6,0,0,1,.742-1.888L41.5,24.994l2.163-2.239Zm1.659,4.147a3.34,3.34,0,1,0,4.722-.083,3.339,3.339,0,0,0-4.722.083" transform="translate(17.496 9.205)" fill="#d2b7ff"/>
            <path id="Trazado_215401" data-name="Trazado 215401" d="M230.884,38.713a1.164,1.164,0,1,1-1.165-1.165,1.165,1.165,0,0,1,1.165,1.165" transform="translate(100.073 16.44)" fill="#5c379b" fill-rule="evenodd"/>
            <path id="Trazado_215402" data-name="Trazado 215402" d="M251.837,25.308a1.164,1.164,0,1,1-1.165-1.165,1.165,1.165,0,0,1,1.165,1.165" transform="translate(109.247 10.571)" fill="#5c379b" fill-rule="evenodd"/>
            <path id="Trazado_215403" data-name="Trazado 215403" d="M271.246,254.415s-.013-.319-.019-.94-.009-1.553-.016-2.765c-.009-2.436-.019-6.022-.033-10.644-.013-9.26-.029-22.669-.053-39.3-.013-33.267-.032-79.4-.053-130.915v-.04l.019-.037c1.507-3,3.127-6.213,4.759-9.45l-.019.078V38.411l.174.174L123.241,38.49l.079-.079c-.017,7.07-.029,12.5-.037,16.161-.01,1.826-.016,3.212-.02,4.148s-.022,1.4-.022,1.4-.014-.473-.02-1.4-.012-2.322-.02-4.148c-.009-3.665-.022-9.092-.039-16.161v-.078h.079l152.764-.095h.174V60.447l-.019.037-4.761,9.45.019-.079c-.022,51.511-.04,97.647-.055,130.915-.023,16.627-.04,30.037-.053,39.3-.013,4.623-.024,8.209-.032,10.644-.006,1.212-.012,2.137-.017,2.765s-.016.94-.016.94" transform="translate(53.926 16.742)" fill="#5c379b"/>
            <path id="Trazado_215404" data-name="Trazado 215404" d="M301.647,130.661s-.019-.339-.035-1-.036-1.649-.062-2.929c-.046-2.579-.114-6.362-.2-11.209-.155-9.714-.377-23.687-.648-40.767v-.026l.009-.024q2.554-6.79,5.362-14.265l-.01.052c-.006-9.989-.011-21.052-.017-32.741l.167.167-42.845.007L192.46,27.9h-.1l-.04-.088q-2.17-4.585-4.213-8.907l.132.083-47.918-.062-13.358-.04-3.511-.022c-.794-.007-1.2-.022-1.2-.022s.41-.016,1.2-.023l3.511-.022,13.358-.04,47.918-.06h.092l.039.083,4.226,8.9-.138-.088,70.909-.022,42.845.007h.167v.167c-.007,11.69-.013,22.753-.019,32.741v.027l-.009.026Q303.536,68,300.968,74.8l.009-.049c.221,17.08.4,31.055.529,40.767.053,4.848.1,8.631.125,11.211.009,1.281.017,2.262.022,2.93s-.006,1-.006,1" transform="translate(53.527 8.188)" fill="#5c379b"/>
            <path id="Trazado_215405" data-name="Trazado 215405" d="M315.167,133.18s-.022-.375-.043-1.109-.05-1.828-.089-3.25c-.069-2.861-.171-7.063-.3-12.459-.246-10.807-.6-26.389-1.035-45.516v-.029l.01-.026c1.991-4.661,4.1-9.6,6.295-14.741l-.012.053c.2-8.055.408-16.767.631-25.9l.158.162-74.112.016-120.336-.046.091-.037-9.783,9.764-.035.033h-.047l-32.544-.282-8.7-.092L73.068,39.7c-.5-.009-.762-.022-.762-.022s.257-.009.762-.01h2.246l8.7.032c7.595.04,18.656.1,32.544.177l-.082.033q4.57-4.577,9.764-9.783l.037-.037h.053l120.336-.046,74.112.016h.163l0,.162c-.233,9.127-.454,17.839-.66,25.894v.027l-.012.026c-2.2,5.142-4.319,10.072-6.316,14.731l.011-.055c.385,19.129.7,34.711.917,45.518.1,5.4.18,9.6.233,12.462.022,1.423.039,2.51.05,3.25s0,1.11,0,1.11" transform="translate(31.659 13.152)" fill="#5c379b"/>
            <path id="Trazado_215406" data-name="Trazado 215406" d="M74.4,37.016a1.165,1.165,0,1,1-1.165-1.165A1.165,1.165,0,0,1,74.4,37.016" transform="translate(31.557 15.697)" fill="#5c379b" fill-rule="evenodd"/>
            <path id="Trazado_215407" data-name="Trazado 215407" d="M122.96,19.156a1.165,1.165,0,1,1-1.165-1.165,1.165,1.165,0,0,1,1.165,1.165" transform="translate(52.818 7.877)" fill="#5c379b" fill-rule="evenodd"/>
            <path id="Trazado_215408" data-name="Trazado 215408" d="M259.291,214.749H239.236a14.191,14.191,0,0,1-14.19-14.192V180.5a14.192,14.192,0,0,1,14.192-14.192h20.054A14.192,14.192,0,0,1,273.483,180.5v20.054a14.192,14.192,0,0,1-14.192,14.192" transform="translate(98.536 72.819)" fill="#263238"/>
            <path id="Trazado_215409" data-name="Trazado 215409" d="M254.35,214.749H234.3a14.191,14.191,0,0,1-14.19-14.192V180.5a14.191,14.191,0,0,1,14.19-14.192H254.35A14.192,14.192,0,0,1,268.542,180.5v20.054a14.192,14.192,0,0,1-14.192,14.192" transform="translate(96.372 72.819)" fill="#455a64"/>
            <path id="Trazado_215410" data-name="Trazado 215410" d="M226.643,186.491l4.607-4.607,8.887,7.9,14.839-14.9,4.278,4.608-19.775,19.174Z" transform="translate(99.235 76.573)" fill="#fff"/>
            <rect id="Rectángulo_45888" data-name="Rectángulo 45888" width="58.815" height="141.04" transform="translate(19.342 175.586)" fill="#e0e0e0"/>
            <rect id="Rectángulo_45889" data-name="Rectángulo 45889" width="46.496" height="141.04" transform="translate(2.253 175.586)" fill="#f5f5f5"/>
            <path id="Trazado_215411" data-name="Trazado 215411" d="M34,263.1c-.081,0-.147-31.587-.147-70.542s.066-70.549.147-70.549.147,31.581.147,70.549S34.078,263.1,34,263.1" transform="translate(14.822 53.421)" fill="#263238"/>
            <rect id="Rectángulo_45890" data-name="Rectángulo 45890" width="14.087" height="1.451" transform="translate(57.231 191.787)" fill="#263238"/>
            <rect id="Rectángulo_45891" data-name="Rectángulo 45891" width="14.087" height="1.451" transform="translate(57.231 195.941)" fill="#263238"/>
            <rect id="Rectángulo_45892" data-name="Rectángulo 45892" width="14.087" height="1.451" transform="translate(57.231 200.097)" fill="#263238"/>
            <rect id="Rectángulo_45893" data-name="Rectángulo 45893" width="37.199" height="130.562" transform="translate(7.058 181.584)" fill="#e0e0e0"/>
            <rect id="Rectángulo_45894" data-name="Rectángulo 45894" width="30.817" height="4.667" transform="translate(9.73 186.391)" fill="#ebebeb"/>
            <rect id="Rectángulo_45895" data-name="Rectángulo 45895" width="4.667" height="4.667" transform="translate(9.73 186.391)" fill="#79f5ed"/>
            <rect id="Rectángulo_45896" data-name="Rectángulo 45896" width="10.147" height="4.667" transform="translate(31.357 186.391)" fill="#f5f5f5"/>
            <rect id="Rectángulo_45897" data-name="Rectángulo 45897" width="30.817" height="4.667" transform="translate(9.73 194.703)" fill="#ebebeb"/>
            <rect id="Rectángulo_45898" data-name="Rectángulo 45898" width="4.667" height="4.667" transform="translate(9.73 194.703)" fill="#fff"/>
            <rect id="Rectángulo_45899" data-name="Rectángulo 45899" width="10.147" height="4.667" transform="translate(31.357 194.703)" fill="#f5f5f5"/>
            <rect id="Rectángulo_45900" data-name="Rectángulo 45900" width="30.817" height="4.667" transform="translate(9.73 203.017)" fill="#ebebeb"/>
            <rect id="Rectángulo_45901" data-name="Rectángulo 45901" width="4.667" height="4.667" transform="translate(9.73 203.017)" fill="#79f5ed"/>
            <rect id="Rectángulo_45902" data-name="Rectángulo 45902" width="10.147" height="4.667" transform="translate(31.357 203.017)" fill="#f5f5f5"/>
            <rect id="Rectángulo_45903" data-name="Rectángulo 45903" width="30.817" height="4.667" transform="translate(9.73 211.33)" fill="#ebebeb"/>
            <rect id="Rectángulo_45904" data-name="Rectángulo 45904" width="4.667" height="4.667" transform="translate(9.73 211.33)" fill="#fff"/>
            <rect id="Rectángulo_45905" data-name="Rectángulo 45905" width="10.147" height="4.667" transform="translate(31.357 211.33)" fill="#f5f5f5"/>
            <rect id="Rectángulo_45906" data-name="Rectángulo 45906" width="30.817" height="4.667" transform="translate(9.73 219.644)" fill="#ebebeb"/>
            <rect id="Rectángulo_45907" data-name="Rectángulo 45907" width="4.667" height="4.667" transform="translate(9.73 219.644)" fill="#79f5ed"/>
            <rect id="Rectángulo_45908" data-name="Rectángulo 45908" width="10.147" height="4.667" transform="translate(31.357 219.644)" fill="#f5f5f5"/>
            <rect id="Rectángulo_45909" data-name="Rectángulo 45909" width="30.817" height="4.667" transform="translate(9.73 227.958)" fill="#ebebeb"/>
            <rect id="Rectángulo_45910" data-name="Rectángulo 45910" width="4.667" height="4.667" transform="translate(9.73 227.958)" fill="#79f5ed"/>
            <rect id="Rectángulo_45911" data-name="Rectángulo 45911" width="10.147" height="4.667" transform="translate(31.357 227.958)" fill="#f5f5f5"/>
            <rect id="Rectángulo_45912" data-name="Rectángulo 45912" width="30.817" height="4.667" transform="translate(9.73 236.27)" fill="#ebebeb"/>
            <rect id="Rectángulo_45913" data-name="Rectángulo 45913" width="4.667" height="4.667" transform="translate(9.73 236.27)" fill="#fff"/>
            <rect id="Rectángulo_45914" data-name="Rectángulo 45914" width="10.147" height="4.667" transform="translate(31.357 236.27)" fill="#f5f5f5"/>
            <rect id="Rectángulo_45915" data-name="Rectángulo 45915" width="30.817" height="4.667" transform="translate(9.73 244.584)" fill="#ebebeb"/>
            <rect id="Rectángulo_45916" data-name="Rectángulo 45916" width="4.667" height="4.667" transform="translate(9.73 244.584)" fill="#fff"/>
            <rect id="Rectángulo_45917" data-name="Rectángulo 45917" width="10.147" height="4.667" transform="translate(31.357 244.584)" fill="#f5f5f5"/>
            <rect id="Rectángulo_45918" data-name="Rectángulo 45918" width="30.817" height="4.667" transform="translate(9.73 252.897)" fill="#ebebeb"/>
            <rect id="Rectángulo_45919" data-name="Rectángulo 45919" width="4.667" height="4.667" transform="translate(9.73 252.897)" fill="#fff"/>
            <rect id="Rectángulo_45920" data-name="Rectángulo 45920" width="10.147" height="4.667" transform="translate(31.357 252.897)" fill="#f5f5f5"/>
            <rect id="Rectángulo_45921" data-name="Rectángulo 45921" width="30.817" height="4.667" transform="translate(9.73 261.211)" fill="#ebebeb"/>
            <rect id="Rectángulo_45922" data-name="Rectángulo 45922" width="4.667" height="4.667" transform="translate(9.73 261.211)" fill="#79f5ed"/>
            <rect id="Rectángulo_45923" data-name="Rectángulo 45923" width="10.147" height="4.667" transform="translate(31.357 261.211)" fill="#f5f5f5"/>
            <rect id="Rectángulo_45924" data-name="Rectángulo 45924" width="30.817" height="4.667" transform="translate(9.73 269.523)" fill="#ebebeb"/>
            <rect id="Rectángulo_45925" data-name="Rectángulo 45925" width="4.667" height="4.667" transform="translate(9.73 269.523)" fill="#fff"/>
            <rect id="Rectángulo_45926" data-name="Rectángulo 45926" width="10.147" height="4.667" transform="translate(31.357 269.523)" fill="#f5f5f5"/>
            <rect id="Rectángulo_45927" data-name="Rectángulo 45927" width="30.817" height="4.667" transform="translate(9.73 277.837)" fill="#ebebeb"/>
            <rect id="Rectángulo_45928" data-name="Rectángulo 45928" width="4.667" height="4.667" transform="translate(9.73 277.837)" fill="#79f5ed"/>
            <rect id="Rectángulo_45929" data-name="Rectángulo 45929" width="10.147" height="4.667" transform="translate(31.357 277.837)" fill="#f5f5f5"/>
            <rect id="Rectángulo_45930" data-name="Rectángulo 45930" width="30.817" height="4.667" transform="translate(9.73 286.15)" fill="#ebebeb"/>
            <rect id="Rectángulo_45931" data-name="Rectángulo 45931" width="4.667" height="4.667" transform="translate(9.73 286.15)" fill="#fff"/>
            <rect id="Rectángulo_45932" data-name="Rectángulo 45932" width="10.147" height="4.667" transform="translate(31.357 286.15)" fill="#f5f5f5"/>
            <rect id="Rectángulo_45933" data-name="Rectángulo 45933" width="30.817" height="4.667" transform="translate(9.73 294.464)" fill="#ebebeb"/>
            <rect id="Rectángulo_45934" data-name="Rectángulo 45934" width="4.667" height="4.667" transform="translate(9.73 294.464)" fill="#79f5ed"/>
            <rect id="Rectángulo_45935" data-name="Rectángulo 45935" width="10.147" height="4.667" transform="translate(31.357 294.464)" fill="#f5f5f5"/>
            <rect id="Rectángulo_45936" data-name="Rectángulo 45936" width="30.817" height="4.667" transform="translate(9.73 302.778)" fill="#ebebeb"/>
            <rect id="Rectángulo_45937" data-name="Rectángulo 45937" width="4.667" height="4.667" transform="translate(9.73 302.778)" fill="#fff"/>
            <rect id="Rectángulo_45938" data-name="Rectángulo 45938" width="10.147" height="4.667" transform="translate(31.357 302.778)" fill="#f5f5f5"/>
            <path id="Trazado_215412" data-name="Trazado 215412" d="M77.516,263.2c0-1.255-.058-58.566-.137-141.04l.137.137-75.894.01h-.01l.147-.147c-.014,54.145-.026,103.65-.036,141.04l-.111-.111,75.9.111-75.9.111H1.5V263.2c-.01-37.39-.022-86.895-.036-141.04v-.147h.157l75.894.01h.137v.137c-.026,41.273-.049,76.548-.066,101.508-.045,24.875-.069,38.907-.07,39.532" transform="translate(0.641 53.424)" fill="#263238"/>
            <path id="Trazado_215413" data-name="Trazado 215413" d="M280.759,70.62H39.94a7.517,7.517,0,0,0-7.517,7.517v170.1a7.517,7.517,0,0,0,7.517,7.518h92.426l-4.482,29.716H194.9l-3.743-29.716h89.605a7.516,7.516,0,0,0,7.516-7.517V78.137a7.517,7.517,0,0,0-7.517-7.517" transform="translate(14.196 30.921)" fill="#455a64"/>
            <path id="Trazado_215414" data-name="Trazado 215414" d="M126.057,187.371c3.275,4.682-1.851,9.809-6.534,6.534a1.648,1.648,0,0,1-.4-.4c-3.267-4.682,1.853-9.8,6.534-6.534a1.647,1.647,0,0,1,.4.4" transform="translate(51.705 81.411)" fill="#263238"/>
            <path id="Trazado_215415" data-name="Trazado 215415" d="M279.521,222.655H37.107V89.079A13.942,13.942,0,0,1,51.05,75.136H265.578a13.943,13.943,0,0,1,13.943,13.943Z" transform="translate(16.247 32.898)" fill="#263238"/>
            <path id="Trazado_215416" data-name="Trazado 215416" d="M187.56,199.423c0,.082-20.187.15-45.085.15s-45.089-.068-45.089-.15,20.184-.15,45.089-.15,45.085.068,45.085.15" transform="translate(42.64 87.251)" fill="#263238"/>
            <rect id="Rectángulo_45939" data-name="Rectángulo 45939" width="17.67" height="3.728" transform="translate(77.701 119.686)" fill="#455a64"/>
            <rect id="Rectángulo_45940" data-name="Rectángulo 45940" width="8.834" height="3.728" transform="translate(77.703 136.387)" fill="#79f5ed"/>
            <rect id="Rectángulo_45941" data-name="Rectángulo 45941" width="12.44" height="3.728" transform="translate(84.35 144.785)" fill="#455a64"/>
            <rect id="Rectángulo_45942" data-name="Rectángulo 45942" width="7.248" height="3.728" transform="translate(98.77 144.785)" fill="#455a64"/>
            <rect id="Rectángulo_45943" data-name="Rectángulo 45943" width="14.908" height="3.728" transform="translate(156.101 144.785)" fill="#455a64"/>
            <rect id="Rectángulo_45944" data-name="Rectángulo 45944" width="25.185" height="3.728" transform="translate(189.393 152.973)" fill="#455a64"/>
            <rect id="Rectángulo_45945" data-name="Rectángulo 45945" width="12.094" height="3.728" transform="translate(241.335 144.785)" fill="#455a64"/>
            <rect id="Rectángulo_45946" data-name="Rectángulo 45946" width="24.317" height="3.728" transform="translate(257.139 144.785)" fill="#455a64"/>
            <rect id="Rectángulo_45947" data-name="Rectángulo 45947" width="12.44" height="3.728" transform="translate(84.35 152.973)" fill="#455a64"/>
            <rect id="Rectángulo_45948" data-name="Rectángulo 45948" width="12.44" height="3.728" transform="translate(76.706 161.138)" fill="#79f5ed"/>
            <rect id="Rectángulo_45949" data-name="Rectángulo 45949" width="5.812" height="3.728" transform="translate(83.335 169.305)" fill="#455a64"/>
            <rect id="Rectángulo_45950" data-name="Rectángulo 45950" width="5.812" height="3.728" transform="translate(104.672 186.508)" fill="#455a64"/>
            <rect id="Rectángulo_45951" data-name="Rectángulo 45951" width="11.356" height="3.728" transform="translate(184.624 217.589)" fill="#455a64"/>
            <rect id="Rectángulo_45952" data-name="Rectángulo 45952" width="27.821" height="3.728" transform="translate(231.604 217.589)" fill="#455a64"/>
            <rect id="Rectángulo_45953" data-name="Rectángulo 45953" width="11.356" height="3.728" transform="translate(141.868 209.431)" fill="#e0e0e0"/>
            <rect id="Rectángulo_45954" data-name="Rectángulo 45954" width="11.356" height="3.728" transform="translate(100.718 202.429)" fill="#455a64"/>
            <rect id="Rectángulo_45955" data-name="Rectángulo 45955" width="17.906" height="3.728" transform="translate(164.363 217.589)" fill="#455a64"/>
            <rect id="Rectángulo_45956" data-name="Rectángulo 45956" width="9.432" height="3.728" transform="translate(83.335 177.623)" fill="#455a64"/>
            <rect id="Rectángulo_45957" data-name="Rectángulo 45957" width="17.496" height="3.728" transform="translate(83.335 186.647)" fill="#455a64"/>
            <rect id="Rectángulo_45958" data-name="Rectángulo 45958" width="25.598" height="3.728" transform="translate(83.336 193.557)" fill="#455a64"/>
            <rect id="Rectángulo_45959" data-name="Rectángulo 45959" width="25.598" height="3.728" transform="translate(129.714 193.557)" fill="#455a64"/>
            <rect id="Rectángulo_45960" data-name="Rectángulo 45960" width="35.943" height="3.728" transform="translate(100.494 209.431)" fill="#455a64"/>
            <rect id="Rectángulo_45961" data-name="Rectángulo 45961" width="60.794" height="3.728" transform="translate(100.494 217.589)" fill="#455a64"/>
            <rect id="Rectángulo_45962" data-name="Rectángulo 45962" width="60.794" height="3.728" transform="translate(82.103 225.748)" fill="#455a64"/>
            <rect id="Rectángulo_45963" data-name="Rectángulo 45963" width="15.358" height="3.728" transform="translate(111.636 193.557)" fill="#455a64"/>
            <rect id="Rectángulo_45964" data-name="Rectángulo 45964" width="15.847" height="3.728" transform="translate(91.441 169.305)" fill="#455a64"/>
            <rect id="Rectángulo_45965" data-name="Rectángulo 45965" width="15.847" height="3.728" transform="translate(94.932 177.624)" fill="#455a64"/>
            <rect id="Rectángulo_45966" data-name="Rectángulo 45966" width="41.958" height="3.728" transform="translate(130.216 177.624)" fill="#455a64"/>
            <rect id="Rectángulo_45967" data-name="Rectángulo 45967" width="48.461" height="3.728" transform="translate(173.315 177.624)" fill="#455a64"/>
            <rect id="Rectángulo_45968" data-name="Rectángulo 45968" width="13.115" height="3.728" transform="translate(113.384 177.624)" fill="#455a64"/>
            <rect id="Rectángulo_45969" data-name="Rectángulo 45969" width="20.773" height="3.728" transform="translate(109.459 169.305)" fill="#455a64"/>
            <rect id="Rectángulo_45970" data-name="Rectángulo 45970" width="11.563" height="3.728" transform="translate(132.524 169.305)" fill="#e0e0e0"/>
            <rect id="Rectángulo_45971" data-name="Rectángulo 45971" width="12.969" height="3.728" transform="translate(98.77 152.973)" fill="#455a64"/>
            <rect id="Rectángulo_45972" data-name="Rectángulo 45972" width="64.037" height="3.728" transform="translate(120.549 152.973)" fill="#455a64"/>
            <rect id="Rectángulo_45973" data-name="Rectángulo 45973" width="30.28" height="3.728" transform="translate(226.195 177.624)" fill="#455a64"/>
            <rect id="Rectángulo_45974" data-name="Rectángulo 45974" width="30.28" height="3.728" transform="translate(198.929 217.589)" fill="#455a64"/>
            <rect id="Rectángulo_45975" data-name="Rectángulo 45975" width="63.081" height="3.728" transform="translate(173.544 144.785)" fill="#455a64"/>
            <rect id="Rectángulo_45976" data-name="Rectángulo 45976" width="43.897" height="3.728" transform="translate(108.283 144.785)" fill="#455a64"/>
            <rect id="Rectángulo_45977" data-name="Rectángulo 45977" width="29.555" height="3.728" transform="translate(77.703 127.592)" fill="#455a64"/>
            <rect id="Rectángulo_45978" data-name="Rectángulo 45978" width="40.47" height="3.728" transform="translate(110.208 127.592)" fill="#455a64"/>
            <rect id="Rectángulo_45979" data-name="Rectángulo 45979" width="13.011" height="3.728" transform="translate(98.132 119.686)" fill="#e0e0e0"/>
            <rect id="Rectángulo_45980" data-name="Rectángulo 45980" width="3.61" height="3.728" transform="translate(67.636 119.686)" fill="#455a64"/>
            <rect id="Rectángulo_45981" data-name="Rectángulo 45981" width="3.61" height="3.728" transform="translate(67.636 127.846)" fill="#455a64"/>
            <rect id="Rectángulo_45982" data-name="Rectángulo 45982" width="3.61" height="3.728" transform="translate(67.636 136.005)" fill="#455a64"/>
            <rect id="Rectángulo_45983" data-name="Rectángulo 45983" width="3.61" height="3.728" transform="translate(67.636 144.163)" fill="#455a64"/>
            <rect id="Rectángulo_45984" data-name="Rectángulo 45984" width="3.61" height="3.728" transform="translate(67.636 152.321)" fill="#455a64"/>
            <rect id="Rectángulo_45985" data-name="Rectángulo 45985" width="3.61" height="3.728" transform="translate(67.636 160.48)" fill="#455a64"/>
            <rect id="Rectángulo_45986" data-name="Rectángulo 45986" width="3.61" height="3.728" transform="translate(67.636 168.638)" fill="#455a64"/>
            <rect id="Rectángulo_45987" data-name="Rectángulo 45987" width="3.61" height="3.728" transform="translate(67.636 176.796)" fill="#455a64"/>
            <rect id="Rectángulo_45988" data-name="Rectángulo 45988" width="3.61" height="3.728" transform="translate(67.636 184.955)" fill="#455a64"/>
            <rect id="Rectángulo_45989" data-name="Rectángulo 45989" width="5.812" height="3.728" transform="translate(103.246 243.371)" fill="#e0e0e0"/>
            <rect id="Rectángulo_45990" data-name="Rectángulo 45990" width="17.496" height="3.728" transform="translate(82.216 243.371)" fill="#79f5ed"/>
            <rect id="Rectángulo_45991" data-name="Rectángulo 45991" width="3.61" height="3.728" transform="translate(67.636 242.959)" fill="#455a64"/>
            <rect id="Rectángulo_45992" data-name="Rectángulo 45992" width="3.61" height="3.728" transform="translate(67.636 193.114)" fill="#455a64"/>
            <rect id="Rectángulo_45993" data-name="Rectángulo 45993" width="3.61" height="3.728" transform="translate(67.636 201.273)" fill="#455a64"/>
            <rect id="Rectángulo_45994" data-name="Rectángulo 45994" width="3.61" height="3.728" transform="translate(67.636 209.431)" fill="#455a64"/>
            <rect id="Rectángulo_45995" data-name="Rectángulo 45995" width="3.61" height="3.728" transform="translate(67.636 217.589)" fill="#455a64"/>
            <rect id="Rectángulo_45996" data-name="Rectángulo 45996" width="3.61" height="3.728" transform="translate(67.636 225.748)" fill="#455a64"/>
            <rect id="Rectángulo_45997" data-name="Rectángulo 45997" width="17.723" height="3.728" transform="translate(82.103 234.333)" fill="#455a64"/>
            <rect id="Rectángulo_45998" data-name="Rectángulo 45998" width="40.091" height="3.728" transform="translate(103.245 234.333)" fill="#455a64"/>
            <rect id="Rectángulo_45999" data-name="Rectángulo 45999" width="3.61" height="3.728" transform="translate(67.636 234.333)" fill="#455a64"/>
            <rect id="Rectángulo_46000" data-name="Rectángulo 46000" width="13.011" height="3.728" transform="translate(155.614 127.567)" fill="#e0e0e0"/>
            <g id="Grupo_148940" data-name="Grupo 148940" transform="translate(175.215 192.848)" opacity="0.3">
              <g id="Grupo_148939" data-name="Grupo 148939">
                <g id="Grupo_148938" data-name="Grupo 148938" clip-path="url(#clip-path-3)">
                  <path id="Trazado_215417" data-name="Trazado 215417" d="M130.749,134.123h-8.89v72.2H227.752l-2.759-70.447Z" transform="translate(-121.859 -134.123)"/>
                </g>
              </g>
            </g>
            <rect id="Rectángulo_46002" data-name="Rectángulo 46002" width="105.958" height="76.049" transform="translate(182.037 182.178)" fill="#e0e0e0"/>
            <path id="Trazado_215418" data-name="Trazado 215418" d="M233,203.188H126.371V126.469H233Zm-105.956-.669H232.33V127.139H127.041Z" transform="translate(55.331 55.374)" fill="#263238"/>
            <rect id="Rectángulo_46003" data-name="Rectángulo 46003" width="17.135" height="3.616" transform="translate(202.151 190.302)" fill="#455a64"/>
            <rect id="Rectángulo_46004" data-name="Rectángulo 46004" width="8.568" height="3.616" transform="translate(202.151 206.496)" fill="#79f5ed"/>
            <rect id="Rectángulo_46005" data-name="Rectángulo 46005" width="12.065" height="3.616" transform="translate(208.599 214.642)" fill="#455a64"/>
            <rect id="Rectángulo_46006" data-name="Rectángulo 46006" width="7.028" height="3.616" transform="translate(222.583 214.642)" fill="#455a64"/>
            <rect id="Rectángulo_46007" data-name="Rectángulo 46007" width="12.065" height="3.616" transform="translate(208.599 222.582)" fill="#455a64"/>
            <rect id="Rectángulo_46008" data-name="Rectángulo 46008" width="12.065" height="3.616" transform="translate(201.185 230.5)" fill="#79f5ed"/>
            <rect id="Rectángulo_46009" data-name="Rectángulo 46009" width="5.636" height="3.616" transform="translate(207.614 238.42)" fill="#455a64"/>
            <rect id="Rectángulo_46010" data-name="Rectángulo 46010" width="9.146" height="3.616" transform="translate(207.615 246.486)" fill="#455a64"/>
            <rect id="Rectángulo_46011" data-name="Rectángulo 46011" width="15.366" height="3.616" transform="translate(215.476 238.42)" fill="#455a64"/>
            <rect id="Rectángulo_46012" data-name="Rectángulo 46012" width="15.366" height="3.616" transform="translate(218.862 246.487)" fill="#455a64"/>
            <rect id="Rectángulo_46013" data-name="Rectángulo 46013" width="18.177" height="3.616" transform="translate(253.078 246.487)" fill="#455a64"/>
            <rect id="Rectángulo_46014" data-name="Rectángulo 46014" width="12.719" height="3.616" transform="translate(236.755 246.487)" fill="#455a64"/>
            <rect id="Rectángulo_46015" data-name="Rectángulo 46015" width="20.144" height="3.616" transform="translate(232.949 238.42)" fill="#455a64"/>
            <rect id="Rectángulo_46016" data-name="Rectángulo 46016" width="11.214" height="3.616" transform="translate(255.316 238.42)" fill="#fff"/>
            <rect id="Rectángulo_46017" data-name="Rectángulo 46017" width="12.577" height="3.616" transform="translate(222.583 222.582)" fill="#455a64"/>
            <rect id="Rectángulo_46018" data-name="Rectángulo 46018" width="42.57" height="3.616" transform="translate(231.808 214.642)" fill="#455a64"/>
            <rect id="Rectángulo_46019" data-name="Rectángulo 46019" width="28.662" height="3.616" transform="translate(202.151 197.969)" fill="#455a64"/>
            <rect id="Rectángulo_46020" data-name="Rectángulo 46020" width="39.246" height="3.616" transform="translate(233.675 197.969)" fill="#455a64"/>
            <rect id="Rectángulo_46021" data-name="Rectángulo 46021" width="12.617" height="3.616" transform="translate(221.963 190.302)" fill="#fff"/>
            <rect id="Rectángulo_46022" data-name="Rectángulo 46022" width="3.501" height="3.616" transform="translate(192.39 190.302)" fill="#455a64"/>
            <rect id="Rectángulo_46023" data-name="Rectángulo 46023" width="3.501" height="3.616" transform="translate(192.39 198.214)" fill="#455a64"/>
            <rect id="Rectángulo_46024" data-name="Rectángulo 46024" width="3.501" height="3.616" transform="translate(192.39 206.125)" fill="#455a64"/>
            <rect id="Rectángulo_46025" data-name="Rectángulo 46025" width="3.501" height="3.616" transform="translate(192.39 214.038)" fill="#455a64"/>
            <rect id="Rectángulo_46026" data-name="Rectángulo 46026" width="3.501" height="3.616" transform="translate(192.39 221.949)" fill="#455a64"/>
            <rect id="Rectángulo_46027" data-name="Rectángulo 46027" width="3.501" height="3.616" transform="translate(192.39 229.861)" fill="#455a64"/>
            <rect id="Rectángulo_46028" data-name="Rectángulo 46028" width="3.501" height="3.616" transform="translate(192.39 237.774)" fill="#455a64"/>
            <rect id="Rectángulo_46029" data-name="Rectángulo 46029" width="3.501" height="3.616" transform="translate(192.39 245.685)" fill="#455a64"/>
            <g id="Grupo_148943" data-name="Grupo 148943" transform="translate(88.038 259.553)" opacity="0.3">
              <g id="Grupo_148942" data-name="Grupo 148942">
                <g id="Grupo_148941" data-name="Grupo 148941" clip-path="url(#clip-path-4)">
                  <path id="Trazado_215419" data-name="Trazado 215419" d="M98.12,207.224c1.343-6.69-3.012-26.709-3.012-26.709l-32.536,4.134-1.343,22.426Z" transform="translate(-61.229 -180.515)"/>
                </g>
              </g>
            </g>
            <path id="Trazado_215420" data-name="Trazado 215420" d="M59.459,180.515s1.428,26.617-4.538,35.768l40.517,1a175,175,0,0,0,2.431-36.766Z" transform="translate(24.047 79.038)" fill="#79f5ed"/>
            <path id="Trazado_215421" data-name="Trazado 215421" d="M96.187,184.152c0,.1-8.434.174-18.836.174s-18.839-.078-18.839-.174,8.433-.174,18.839-.174,18.836.078,18.836.174" transform="translate(25.62 80.554)" fill="#263238"/>
            <path id="Trazado_215422" data-name="Trazado 215422" d="M90.751,190.487c0,.1-6.741.174-15.056.174s-15.056-.078-15.056-.174,6.739-.174,15.056-.174,15.056.078,15.056.174" transform="translate(26.551 83.328)" fill="#263238"/>
            <path id="Trazado_215423" data-name="Trazado 215423" d="M90.983,193.945c0,.1-6.742.174-15.057.174s-15.056-.078-15.056-.174,6.739-.174,15.056-.174,15.057.078,15.057.174" transform="translate(26.652 84.842)" fill="#263238"/>
            <path id="Trazado_215424" data-name="Trazado 215424" d="M90.324,197.4c0,.1-6.741.174-15.056.174s-15.056-.078-15.056-.174,6.739-.174,15.056-.174,15.056.078,15.056.174" transform="translate(26.364 86.357)" fill="#263238"/>
            <g id="Grupo_148946" data-name="Grupo 148946" transform="translate(73.554 260.052)" opacity="0.3">
              <g id="Grupo_148945" data-name="Grupo 148945">
                <g id="Grupo_148944" data-name="Grupo 148944" clip-path="url(#clip-path-5)">
                  <path id="Trazado_215425" data-name="Trazado 215425" d="M54.41,180.862s1.733,19.7,1.733,26.709H51.155Z" transform="translate(-51.155 -180.862)"/>
                </g>
              </g>
            </g>
            <path id="Trazado_215426" data-name="Trazado 215426" d="M46.5,180.862s1.428,26.617-4.538,35.768l13.339,0s3.856-14.545,3.14-35.765Z" transform="translate(18.371 79.19)" fill="#e0e0e0"/>
            <path id="Trazado_215427" data-name="Trazado 215427" d="M176.779,99.287l22.433-25.792-22.59-16.412L194.351,46.65s27.807,16.9,27.449,27.04c-.325,9.237-35.377,32.6-35.377,32.6Z" transform="translate(77.333 20.426)" fill="#ffc09d"/>
            <path id="Trazado_215428" data-name="Trazado 215428" d="M182.848,139.069a32.511,32.511,0,1,1,2.167-29.654,32.349,32.349,0,0,1-2.167,29.654M129.18,106.358a30.323,30.323,0,1,0,14.025-12.137,30.331,30.331,0,0,0-14.025,12.137" transform="translate(53.662 39.233)" fill="#5bb8b2"/>
            <g id="Grupo_148949" data-name="Grupo 148949" transform="translate(176.221 128.835)" opacity="0.3">
              <g id="Grupo_148948" data-name="Grupo 148948">
                <g id="Grupo_148947" data-name="Grupo 148947" clip-path="url(#clip-path-6)">
                  <path id="Trazado_215429" data-name="Trazado 215429" d="M182.848,139.069a32.511,32.511,0,1,1,2.167-29.654,32.349,32.349,0,0,1-2.167,29.654M129.18,106.358a30.323,30.323,0,1,0,14.025-12.137,30.331,30.331,0,0,0-14.025,12.137" transform="translate(-122.559 -89.603)" fill="#5bb8b2"/>
                </g>
              </g>
            </g>
            <path id="Trazado_215430" data-name="Trazado 215430" d="M181.93,138.075a32.511,32.511,0,1,1,2.167-29.654,32.349,32.349,0,0,1-2.167,29.654m-53.668-32.711a30.323,30.323,0,1,0,14.025-12.137,30.331,30.331,0,0,0-14.025,12.137" transform="translate(53.26 38.797)" fill="#79f5ed"/>
            <path id="Trazado_215431" data-name="Trazado 215431" d="M211.05,82.1l1.277,1.984c1.14,1.77-.257,4.621-2.758,5.777l-42.452,25.991-3.96-5.792,41.381-28.977c2.672-2.026,5.045-1.262,6.512,1.017" transform="translate(71.438 34.988)" fill="#79f5ed"/>
            <path id="Trazado_215432" data-name="Trazado 215432" d="M153.929,92.483a3.142,3.142,0,0,1-.535.016c-.351.014-.866-.043-1.527.013a23.28,23.28,0,0,0-5.521.9,28.968,28.968,0,0,0-3.639,1.308,31.277,31.277,0,0,0-3.908,2.1,29.838,29.838,0,0,0-3.928,2.93,28.54,28.54,0,0,0-3.645,3.789,26.68,26.68,0,0,0-2.847,4.413,28.912,28.912,0,0,0-1.8,4.554,27.608,27.608,0,0,0-1.1,8.2,26.4,26.4,0,0,0,.68,5.559c.125.651.3,1.137.378,1.48a3.012,3.012,0,0,1,.121.522,2.979,2.979,0,0,1-.187-.5c-.1-.335-.3-.817-.444-1.468a24.662,24.662,0,0,1-.794-5.585,27.166,27.166,0,0,1,1.038-8.3,28.8,28.8,0,0,1,1.8-4.618,26.636,26.636,0,0,1,2.88-4.477,28.571,28.571,0,0,1,3.692-3.828,29.671,29.671,0,0,1,3.981-2.945,31.008,31.008,0,0,1,3.964-2.094,28.535,28.535,0,0,1,3.688-1.28,21.968,21.968,0,0,1,5.583-.8,14.248,14.248,0,0,1,1.534.052,3.157,3.157,0,0,1,.532.055" transform="translate(54.826 40.443)" fill="#fff"/>
            <path id="Trazado_215433" data-name="Trazado 215433" d="M164.681,124.5c-.079-.026.52-1.492.943-3.984q.073-.472.151-.981c.049-.341.06-.7.1-1.068.083-.739.07-1.533.081-2.367a25.235,25.235,0,0,0-2.466-10.482c-.381-.74-.722-1.458-1.126-2.081-.2-.316-.367-.633-.564-.914l-.571-.811c-1.49-2.042-2.68-3.087-2.621-3.146a6.571,6.571,0,0,1,.825.736,9.785,9.785,0,0,1,.9.936,15.835,15.835,0,0,1,1.1,1.327c.19.259.39.528.6.807s.384.6.587.914a23.082,23.082,0,0,1,1.17,2.092,24.461,24.461,0,0,1,2.5,10.618,22.9,22.9,0,0,1-.114,2.394c-.042.374-.06.736-.118,1.08s-.118.671-.174.986a15.623,15.623,0,0,1-.39,1.677,9.548,9.548,0,0,1-.387,1.239,6.619,6.619,0,0,1-.41,1.027" transform="translate(69.444 43.201)" fill="#fff"/>
            <path id="Trazado_215434" data-name="Trazado 215434" d="M154.878,100.612c.065.07-4.314,4.171-9.777,9.158s-9.948,8.974-10.015,8.9,4.314-4.171,9.779-9.159,9.948-8.971,10.013-8.9" transform="translate(59.147 44.052)" fill="#fff"/>
            <path id="Trazado_215435" data-name="Trazado 215435" d="M164.412,104.282a1.958,1.958,0,0,1-.311.3l-.936.8c-.853.719-2.029,1.71-3.47,2.922-2.932,2.463-6.972,5.878-11.394,9.7s-8.387,7.324-11.25,9.868l-3.393,3.008-.932.808a1.968,1.968,0,0,1-.341.265,1.99,1.99,0,0,1,.293-.316l.887-.857c.775-.739,1.909-1.8,3.321-3.091,2.821-2.591,6.762-6.124,11.186-9.947s8.49-7.208,11.464-9.623c1.487-1.208,2.7-2.177,3.54-2.837l.978-.753a2.062,2.062,0,0,1,.355-.244" transform="translate(57.965 45.659)" fill="#fff"/>
            <g id="Grupo_148952" data-name="Grupo 148952" transform="translate(181.709 136.647)" opacity="0.3">
              <g id="Grupo_148951" data-name="Grupo 148951">
                <g id="Grupo_148950" data-name="Grupo 148950" clip-path="url(#clip-path-7)">
                  <path id="Trazado_215436" data-name="Trazado 215436" d="M126.376,133.553l44.645-38.517s4.414,3.376,6.285,6.4L131.62,140.761a23.3,23.3,0,0,1-5.244-7.208" transform="translate(-126.376 -95.036)" fill="#fff"/>
                </g>
              </g>
            </g>
            <g id="Grupo_148955" data-name="Grupo 148955" transform="translate(191.843 148.055)" opacity="0.3">
              <g id="Grupo_148954" data-name="Grupo 148954">
                <g id="Grupo_148953" data-name="Grupo 148953" clip-path="url(#clip-path-8)">
                  <path id="Trazado_215437" data-name="Trazado 215437" d="M133.424,140.881l43.509-37.9s.211-.358.807,2.37l-42.207,36.7a5.4,5.4,0,0,1-2.109-1.178" transform="translate(-133.424 -102.97)" fill="#fff"/>
                </g>
              </g>
            </g>
            <path id="Trazado_215438" data-name="Trazado 215438" d="M181.748,83.258s-13.094,14.42-13.388,14.959-3.823,8.867-2.95,10.554,7.429,7.611,7.429,7.611,2.339-1.014.125-4.971l-2.211-3.957,1.188-3.994s1.769,5.064,2.791,6.174,5.078,3.012,6.1,2.037A4.01,4.01,0,0,0,182,109.506s2.774,2.213,4.739-1.3a5.576,5.576,0,0,0,3.529-2.111c1.061-1.728.922-5.073.922-5.073a1.568,1.568,0,0,0-2.4-.542,7.2,7.2,0,0,0-2.337,3.093l-1.146-1.527a21.882,21.882,0,0,1,1.746-5.958c.8-1.528,5.938-4.858,6.547-7.5.515-2.242-3.973-3.727-6.269-3.6a3.476,3.476,0,0,0-1.012.207Z" transform="translate(72.364 36.454)" fill="#ffc09d"/>
            <path id="Trazado_215439" data-name="Trazado 215439" d="M175.938,96.066a1.361,1.361,0,0,0,0,.39,5.808,5.808,0,0,0,.178,1.05,6.841,6.841,0,0,0,4.689,4.86,6.026,6.026,0,0,0,1.042.216,1.35,1.35,0,0,0,.39.013c0-.036-.551-.078-1.39-.359a7.117,7.117,0,0,1-4.6-4.766c-.252-.848-.273-1.406-.309-1.4" transform="translate(77.029 42.062)" fill="#ff9b6c"/>
            <path id="Trazado_215440" data-name="Trazado 215440" d="M172.88,95.761a1.727,1.727,0,0,0,0,.417,3.925,3.925,0,0,0,.05.487c.03.188.053.405.112.638a9.45,9.45,0,0,0,.5,1.616,10.037,10.037,0,0,0,2.315,3.409,9.628,9.628,0,0,0,1.317,1.061,6.306,6.306,0,0,0,.554.339,3.669,3.669,0,0,0,.434.226,1.654,1.654,0,0,0,.385.158c.017-.034-.522-.283-1.294-.837a10.453,10.453,0,0,1-1.271-1.076,11.758,11.758,0,0,1-1.3-1.566,13.68,13.68,0,0,1-1.107-1.865,8.279,8.279,0,0,1-.4-1.5c-.229-.922-.262-1.515-.3-1.513" transform="translate(75.691 41.929)" fill="#ff9b6c"/>
            <path id="Trazado_215441" data-name="Trazado 215441" d="M169.44,95.036a1.125,1.125,0,0,0-.157.544,3.036,3.036,0,0,0,.16,1.356,2.552,2.552,0,0,0,.733,1.153c.256.243.453.339.464.321a3.858,3.858,0,0,1-1.2-3.373" transform="translate(74.111 41.611)" fill="#ff9b6c"/>
            <path id="Trazado_215442" data-name="Trazado 215442" d="M204.746,64.806c-.033.055-.716-.427-1.96-.876a10.146,10.146,0,0,0-5.055-.477,8.652,8.652,0,0,0-4.488,2.3c-.965.9-1.444,1.586-1.492,1.549a1.728,1.728,0,0,1,.3-.5,9.848,9.848,0,0,1,1.024-1.222,8.36,8.36,0,0,1,4.6-2.472,9.636,9.636,0,0,1,5.2.591,8.215,8.215,0,0,1,1.413.741,1.729,1.729,0,0,1,.457.365" transform="translate(83.957 27.577)" fill="#ff9b6c"/>
            <path id="Trazado_215443" data-name="Trazado 215443" d="M156.628,31.546a76.16,76.16,0,0,0-.762-13.12A26.6,26.6,0,0,0,150.878,6.4c-.413-.522-3.579-3.892-4.188-3.628-.436.191,1.924,3.527,1.822,3.991a22.569,22.569,0,0,0,1.635,13.3,59.406,59.406,0,0,0,6.482,11.488" transform="translate(64.204 1.205)" fill="#263238"/>
            <path id="Trazado_215444" data-name="Trazado 215444" d="M161.19,16.213C158.146,5.64,149.456-1.4,138.972,1.938l-.952.364a19.667,19.667,0,0,0-11.826,23.907c2.69,9.149,5.78,19.223,7.665,23.96,3.9,9.809,14.35,7.559,14.35,7.559.022-.007,6.522,15,6.522,15l20.741-10.634Z" transform="translate(54.903 0.482)" fill="#ffc09d"/>
            <path id="Trazado_215445" data-name="Trazado 215445" d="M141.275,43.193a25.506,25.506,0,0,0,11.376-8.718s.295,9.214-9.881,12.1Z" transform="translate(61.857 15.095)" fill="#ff9b6c"/>
            <path id="Trazado_215446" data-name="Trazado 215446" d="M130.839,25.325a1.507,1.507,0,0,0,1.9.9A1.441,1.441,0,0,0,133.7,24.4a1.508,1.508,0,0,0-1.9-.9,1.444,1.444,0,0,0-.965,1.828" transform="translate(57.255 10.255)" fill="#263238"/>
            <path id="Trazado_215447" data-name="Trazado 215447" d="M128.527,21.7c.243.116,1.006-1.081,2.523-1.659,1.505-.6,2.916-.246,3.009-.495.049-.112-.256-.375-.876-.542a4.128,4.128,0,0,0-2.5.168,3.979,3.979,0,0,0-1.921,1.55c-.329.536-.359.929-.24.978" transform="translate(56.247 8.27)" fill="#263238"/>
            <path id="Trazado_215448" data-name="Trazado 215448" d="M139.846,22.166a1.507,1.507,0,0,0,1.9.9,1.442,1.442,0,0,0,.963-1.826,1.509,1.509,0,0,0-1.9-.9,1.443,1.443,0,0,0-.965,1.828" transform="translate(61.198 8.872)" fill="#263238"/>
            <path id="Trazado_215449" data-name="Trazado 215449" d="M139.007,18.17c.246.116,1.009-1.083,2.525-1.659,1.505-.6,2.917-.246,3.009-.495.049-.112-.253-.377-.874-.542a4.139,4.139,0,0,0-2.5.168,3.983,3.983,0,0,0-1.922,1.55c-.326.535-.358.929-.242.978" transform="translate(60.837 6.723)" fill="#263238"/>
            <path id="Trazado_215450" data-name="Trazado 215450" d="M139.675,30.78a10.68,10.68,0,0,0-2.63.5c-.4.108-.8.173-.965-.068a2.111,2.111,0,0,1-.181-1.245q.007-1.613.013-3.383c-.02-4.8-.194-8.692-.387-8.689s-.334,3.9-.313,8.7c.014,1.18.027,2.306.042,3.383a2.4,2.4,0,0,0,.382,1.595,1.034,1.034,0,0,0,.853.322,2.851,2.851,0,0,0,.692-.161,10.558,10.558,0,0,0,2.495-.953" transform="translate(59.201 7.835)" fill="#263238"/>
            <path id="Trazado_215451" data-name="Trazado 215451" d="M142.7,26.4c-.252.081.375,1.725-.584,3.432s-2.778,2.2-2.7,2.433c.017.112.513.17,1.261-.095a4.387,4.387,0,0,0,2.292-1.937,3.821,3.821,0,0,0,.384-2.838c-.2-.71-.541-1.048-.65-.995" transform="translate(61.039 11.555)" fill="#263238"/>
            <path id="Trazado_215452" data-name="Trazado 215452" d="M137.418,13.839c.308.355,1.744-.421,3.6-.889,1.851-.5,3.482-.535,3.577-.995.037-.217-.362-.508-1.094-.684a6.452,6.452,0,0,0-5.47,1.435c-.552.513-.756.962-.617,1.133" transform="translate(60.15 4.876)" fill="#263238"/>
            <path id="Trazado_215453" data-name="Trazado 215453" d="M127.634,18.046c.4.242,1.3-.516,2.552-1.014,1.231-.542,2.407-.659,2.513-1.111.039-.216-.26-.5-.848-.644a3.976,3.976,0,0,0-4.082,1.712c-.308.523-.316.935-.135,1.057" transform="translate(55.832 6.652)" fill="#263238"/>
            <path id="Trazado_215454" data-name="Trazado 215454" d="M151.677,17.376c.141-.137,6-4.6,8.374,2.219s-4.966,7.793-5.045,7.6-3.329-9.82-3.329-9.82" transform="translate(66.411 6.925)" fill="#ffc09d"/>
            <path id="Trazado_215455" data-name="Trazado 215455" d="M155.183,23.23c.023-.032.148.042.381.065a1.258,1.258,0,0,0,.894-.292,3.112,3.112,0,0,0,.443-3.11,4.15,4.15,0,0,0-.923-1.585,1.453,1.453,0,0,0-1.211-.6.639.639,0,0,0-.588.569c-.026.223.065.344.033.368-.013.024-.186-.063-.229-.364a.8.8,0,0,1,.119-.521.953.953,0,0,1,.6-.4,1.766,1.766,0,0,1,1.609.627,4.27,4.27,0,0,1,1.073,1.757c.434,1.39.177,2.92-.71,3.549a1.346,1.346,0,0,1-1.149.2c-.27-.095-.359-.236-.339-.256" transform="translate(67.419 7.583)" fill="#ff9b6c"/>
            <path id="Trazado_215456" data-name="Trazado 215456" d="M126.489,13.863c-1.313-.237.8-4.945,3.1-7.1,3.481-3.255,9.373-6.525,13.527-6.729,5-.247,9.562.743,13.257,4.124a28.392,28.392,0,0,1,7.659,12.718,8.612,8.612,0,0,1,.447,4.506c-.444,1.835-1.955,3.406-1.17,5.465a3.028,3.028,0,0,1-.006,2.329c-.8,1.754-2.755,1.019-3.884,0-2.408-2.171-3.656-5.314-4.825-8.34a21.082,21.082,0,0,1-1.764-6.651c-.05-1.254.124-2.512,0-3.761A4.338,4.338,0,0,0,151.2,7.179a4.407,4.407,0,0,0-.745-.375,7.529,7.529,0,0,0-7.533,1.044c-3.392,2.663-9.284,6.92-11.444,6.194a11.128,11.128,0,0,1-4.112-2.073Z" transform="translate(55.206 0)" fill="#263238"/>
            <path id="Trazado_215457" data-name="Trazado 215457" d="M116.968,86.442s1.2-27.516,5.53-31.591c3.62-3.408,29.568-10.968,29.568-10.968s9.546,10.808,17.8,3.429c6.012-5.372,6.227-10.738,6.227-10.738h23.753l2.968,24.407v24.61Z" transform="translate(51.214 16.014)" fill="#79f5ed"/>
            <path id="Trazado_215458" data-name="Trazado 215458" d="M171.608,36.669a21.718,21.718,0,0,1,11.858,1.316C192.98,42.3,209.5,56.015,209.5,56.015l-20.1,16.5L175.483,61.095Z" transform="translate(75.138 15.922)" fill="#79f5ed"/>
            <path id="Trazado_215459" data-name="Trazado 215459" d="M180.289,63.579a.9.9,0,0,1-.257-.134c-.161-.1-.4-.242-.693-.45a20.971,20.971,0,0,1-2.362-1.92,21.672,21.672,0,0,1-2.978-3.4,12.457,12.457,0,0,1-2.214-5.07,15.717,15.717,0,0,1,1.172-9.867A7.455,7.455,0,0,1,174.91,40.4a6.555,6.555,0,0,1,.7-.443c.164-.093.253-.138.259-.127.016.027-.321.242-.877.676a7.87,7.87,0,0,0-1.82,2.351,15.989,15.989,0,0,0-1.048,9.685,12.421,12.421,0,0,0,2.135,4.952,23,23,0,0,0,2.884,3.4,26.437,26.437,0,0,0,2.273,1.989,9.334,9.334,0,0,1,.87.693" transform="translate(75.088 17.438)" fill="#263238"/>
            <path id="Trazado_215460" data-name="Trazado 215460" d="M196.555,70.431c0,.1-16.358.24-36.533.321s-36.539.068-36.539-.029,16.354-.239,36.537-.319,36.534-.069,36.534.027" transform="translate(54.067 30.802)" fill="#263238"/>
            <path id="Trazado_215461" data-name="Trazado 215461" d="M112.3,70.868c.046.1.086.2.125.306a5.461,5.461,0,0,1,.3,1.471,4.83,4.83,0,0,0,.032.707,2.7,2.7,0,0,0,.2.418,7.1,7.1,0,0,1,.259,2.926,5.61,5.61,0,0,0,.542,3.137,2.069,2.069,0,0,0,2.755.85,1.407,1.407,0,0,0,1.054,1.537,2.036,2.036,0,0,0,1.876-.582,3.782,3.782,0,0,0,.942-1.8,1.556,1.556,0,0,0,1.549,1.505,2.4,2.4,0,0,0,1.968-1.208,5.5,5.5,0,0,0,.679-2.3,27.022,27.022,0,0,1,.486-3.074s1.011.162,1.471.207l.135.013a6.529,6.529,0,0,0,.966-1.678c.644-1.324,1.134-2.165,1.628-3.367.37-.9.608-1.8.05-2.387-1.342-1.412-3.964,1.458-3.964,1.458-.37-1-3.418-1.162-4.01.17-.242-.733-.15-1.159-.743-1.651a2.456,2.456,0,0,0-2.161-.544,1.759,1.759,0,0,0-1.311,1.692,2.857,2.857,0,0,0-4.807-.1,3,3,0,0,0-.44.966,1.188,1.188,0,0,0-.072.4.476.476,0,0,0,.063.175c.137.256.313.482.434.749" transform="translate(48.951 29.3)" fill="#ffc09d"/>
            <path id="Trazado_215462" data-name="Trazado 215462" d="M110.644,68.312a2.315,2.315,0,0,0-1.83.608,3.789,3.789,0,0,0-.571,2.536c.919.173,1.395.207,2.315.381.194.037.357-.012.516.1.424.3.357,1.316.526,1.807a1.771,1.771,0,0,0,2.236.956,2.375,2.375,0,0,0,1.434-2.115,3.668,3.668,0,0,0-.935-2.475,5.127,5.127,0,0,0-3.691-1.8" transform="translate(47.387 29.909)" fill="#ffc09d"/>
            <path id="Trazado_215463" data-name="Trazado 215463" d="M115.738,67.958c.173.01.171,2.764,0,6.148s-.453,6.127-.625,6.119-.171-2.764,0-6.15.453-6.127.625-6.118" transform="translate(50.345 29.755)" fill="#ff9b6c"/>
            <path id="Trazado_215464" data-name="Trazado 215464" d="M118.752,68.364c.165-.007.39,2.5.119,5.58s-.91,5.514-1.071,5.478c-.177-.035.193-2.49.449-5.531s.324-5.523.5-5.527" transform="translate(51.558 29.933)" fill="#ff9b6c"/>
            <path id="Trazado_215465" data-name="Trazado 215465" d="M121.636,68.758c.175,0,.249,2.085-.075,4.61a18.148,18.148,0,0,1-.873,4.518c-.181-.017-.068-2.083.253-4.592a25.427,25.427,0,0,1,.694-4.535" transform="translate(52.805 30.106)" fill="#ff9b6c"/>
            <path id="Trazado_215466" data-name="Trazado 215466" d="M110.83,68.634c-.006-.075.441-.173,1.077.118A3.454,3.454,0,0,1,113.6,70.73a6.94,6.94,0,0,1,.42,2.532c-.076.762-.628.983-.641.886-.049-.069.25-.334.2-.9a12.471,12.471,0,0,0-.562-2.3,3.744,3.744,0,0,0-1.327-1.816c-.479-.338-.867-.407-.858-.5" transform="translate(48.527 30.017)" fill="#ff9b6c"/>
            <path id="Trazado_215467" data-name="Trazado 215467" d="M53.3,103.7H20.439a14.19,14.19,0,0,1-14.19-14.19V56.646a14.19,14.19,0,0,1,14.19-14.192H53.3A14.192,14.192,0,0,1,67.491,56.646V89.5A14.192,14.192,0,0,1,53.3,103.7" transform="translate(2.736 18.588)" fill="#5bb8b2"/>
            <g id="Grupo_148958" data-name="Grupo 148958" transform="translate(8.984 61.042)" opacity="0.3">
              <g id="Grupo_148957" data-name="Grupo 148957">
                <g id="Grupo_148956" data-name="Grupo 148956" clip-path="url(#clip-path-9)">
                  <path id="Trazado_215468" data-name="Trazado 215468" d="M53.3,103.7H20.439a14.19,14.19,0,0,1-14.19-14.19V56.646a14.19,14.19,0,0,1,14.19-14.192H53.3A14.192,14.192,0,0,1,67.491,56.646V89.5A14.192,14.192,0,0,1,53.3,103.7" transform="translate(-6.248 -42.454)" fill="#5bb8b2"/>
                </g>
              </g>
            </g>
            <path id="Trazado_215469" data-name="Trazado 215469" d="M47.051,103.7H14.19A14.19,14.19,0,0,1,0,89.5V56.646A14.19,14.19,0,0,1,14.19,42.454H47.051A14.192,14.192,0,0,1,61.242,56.646V89.5A14.192,14.192,0,0,1,47.051,103.7" transform="translate(0 18.588)" fill="#79f5ed"/>
            <path id="Trazado_215470" data-name="Trazado 215470" d="M18.817,56.05a16.627,16.627,0,0,1,4.05-1.76l.834-4.007,6.772-.119.975,3.976a16.618,16.618,0,0,1,4.109,1.618l3.422-2.244,4.873,4.706-2.121,3.5a16.627,16.627,0,0,1,1.76,4.05L47.5,66.6l.119,6.772-3.977.975a16.557,16.557,0,0,1-1.616,4.109l2.243,3.424-4.7,4.873-3.5-2.122a16.627,16.627,0,0,1-4.05,1.76L31.181,90.4l-6.772.118-.975-3.976a16.617,16.617,0,0,1-4.109-1.618L15.9,87.169l-4.874-4.7,2.122-3.5a16.572,16.572,0,0,1-1.76-4.05L7.382,74.08l-.118-6.772,3.976-.975a16.613,16.613,0,0,1,1.616-4.109L10.613,58.8l4.7-4.873Zm3.61,9.022A7.266,7.266,0,1,0,32.7,64.891a7.266,7.266,0,0,0-10.275.181" transform="translate(3.181 21.964)" fill="#fff"/>
            <g id="Grupo_148961" data-name="Grupo 148961" transform="translate(0 61.042)" opacity="0.3">
              <g id="Grupo_148960" data-name="Grupo 148960">
                <g id="Grupo_148959" data-name="Grupo 148959" clip-path="url(#clip-path-10)">
                  <path id="Trazado_215471" data-name="Trazado 215471" d="M47.485,42.454,0,80.382v7.385L56.622,42.454Z" transform="translate(0 -42.454)" fill="#fff"/>
                </g>
              </g>
            </g>
            <g id="Grupo_148964" data-name="Grupo 148964" transform="translate(0.053 67.495)" opacity="0.3">
              <g id="Grupo_148963" data-name="Grupo 148963">
                <g id="Grupo_148962" data-name="Grupo 148962" clip-path="url(#clip-path-11)">
                  <path id="Trazado_215472" data-name="Trazado 215472" d="M.044,94.408,61.226,46.942V60.268L6.438,101.731a6.4,6.4,0,0,1-6.4-6.453Z" transform="translate(-0.036 -46.942)" fill="#fff"/>
                </g>
              </g>
            </g>
          </g>
        </g>
      </g>
    </g>
  </g>
</svg>
