<svg xmlns="http://www.w3.org/2000/svg" xmlns:xlink="http://www.w3.org/1999/xlink" width="274.713" height="268.16" viewBox="0 0 274.713 268.16">
  <defs>
    <clipPath id="clip-path">
      <rect id="Rectángulo_38033" data-name="Rectángulo 38033" width="274.713" height="268.16" fill="none"/>
    </clipPath>
    <clipPath id="clip-path-3">
      <rect id="Rectángulo_38025" data-name="Rectángulo 38025" width="28.378" height="34.575" fill="none"/>
    </clipPath>
    <clipPath id="clip-path-4">
      <rect id="Rectángulo_38027" data-name="Rectángulo 38027" width="58.675" height="11.736" fill="none"/>
    </clipPath>
    <clipPath id="clip-path-5">
      <rect id="Rectángulo_38028" data-name="Rectángulo 38028" width="4.165" height="29.175" fill="none"/>
    </clipPath>
    <clipPath id="clip-path-6">
      <rect id="Rectángulo_38029" data-name="Rectángulo 38029" width="18.791" height="12.411" fill="none"/>
    </clipPath>
    <clipPath id="clip-path-7">
      <rect id="Rectángulo_38030" data-name="Rectángulo 38030" width="23.717" height="12.037" fill="none"/>
    </clipPath>
    <clipPath id="clip-path-8">
      <rect id="Rectángulo_38031" data-name="Rectángulo 38031" width="8.734" height="35.769" fill="none"/>
    </clipPath>
  </defs>
  <g id="Grupo_150871" data-name="Grupo 150871" transform="translate(-1145.287 -24780.098)">
    <g id="Grupo_112571" data-name="Grupo 112571" transform="translate(1145.287 24780.098)">
      <g id="Grupo_112570" data-name="Grupo 112570" clip-path="url(#clip-path)">
        <rect id="Rectángulo_38013" data-name="Rectángulo 38013" width="234.429" height="183.371" transform="translate(6.674 0.161)" fill="#e1f8fa"/>
        <g id="Grupo_112569" data-name="Grupo 112569">
          <g id="Grupo_112568" data-name="Grupo 112568" clip-path="url(#clip-path)">
            <path id="Trazado_180146" data-name="Trazado 180146" d="M245.081,183.533c0-1.113-.053-72.707-.134-183.371l.134.134L10.671.323h-.02l.162-.162c-.006,66.121-.012,128.65-.017,183.371l-.145-.145,234.429.145-234.429.145h-.145v-.145c0-54.721-.011-117.25-.016-183.371V0h.181L245.081.028h.134V.161c-.081,110.665-.133,182.259-.133,183.371" transform="translate(-3.977)" fill="#cadee0"/>
            <path id="Trazado_180147" data-name="Trazado 180147" d="M56.3,58.773H42.478a1.729,1.729,0,0,1-1.729-1.729V37.913a1.729,1.729,0,0,1,1.729-1.729h8.766l6.785,6.993V57.044a1.73,1.73,0,0,1-1.73,1.729" transform="translate(-15.45 -13.719)" fill="#d4e9eb"/>
            <path id="Trazado_180148" data-name="Trazado 180148" d="M57.652,36.184v5.384a1.608,1.608,0,0,0,1.608,1.609h5.177Z" transform="translate(-21.858 -13.719)" fill="#ddf3f5"/>
            <path id="Trazado_180149" data-name="Trazado 180149" d="M57.766,45.617a1.788,1.788,0,0,0,1.419,1.735,1.6,1.6,0,0,0,.17.038c.676.121,5.126.913,5.126.81V46.754H59.3s-1.293-.044-1.538-1.137" transform="translate(-21.901 -17.295)" fill="#cadee0"/>
            <path id="Trazado_180150" data-name="Trazado 180150" d="M56.262,58.736c0-.008.1,0,.3-.035a1.737,1.737,0,0,0,.784-.366,1.709,1.709,0,0,0,.618-1.219c.009-.558,0-1.205,0-1.928,0-2.9-.012-7.041-.021-12.048l.014.035-6.791-6.988.042.018-5.058,0H42.831a4.416,4.416,0,0,0-.664.024,1.669,1.669,0,0,0-1.083.676,1.64,1.64,0,0,0-.305.849c-.012.306,0,.627-.006.938q0,.939,0,1.866,0,1.853,0,3.649c0,2.392,0,4.7,0,6.9q0,1.648,0,3.212,0,.78,0,1.538,0,.379,0,.751a4,4,0,0,0,.032.728,1.684,1.684,0,0,0,.782,1.111,1.662,1.662,0,0,0,.638.225,6.331,6.331,0,0,0,.68.018l2.609,0,7.872.019,2.141.011.557.006c.125,0,.189.006.189.006s-.065,0-.189.006l-.557.006-2.141.011-7.872.019-2.609,0a6.373,6.373,0,0,1-.693-.017,1.765,1.765,0,0,1-.675-.236,1.785,1.785,0,0,1-.831-1.175,4.031,4.031,0,0,1-.035-.747q0-.373,0-.751,0-.757,0-1.538,0-1.562,0-3.212c0-2.2,0-4.5,0-6.9q0-1.795,0-3.649V38.7c0-.315-.007-.623.006-.947a1.765,1.765,0,0,1,.328-.911,1.79,1.79,0,0,1,1.163-.725,4.469,4.469,0,0,1,.684-.026h3.317l5.058,0h.024l.017.017,6.78,7,.014.015v.02c-.009,5.007-.016,9.151-.021,12.048,0,.724,0,1.367-.012,1.93a1.737,1.737,0,0,1-.644,1.24,1.714,1.714,0,0,1-.8.358,1.265,1.265,0,0,1-.225.02c-.051,0-.076,0-.076,0" transform="translate(-15.412 -13.681)" fill="#cadee0"/>
            <path id="Trazado_180151" data-name="Trazado 180151" d="M64.4,43.177a.562.562,0,0,1-.133.012l-.381.011-1.4.019-2.08.012h-1.23a1.672,1.672,0,0,1-1.543-1.165,1.929,1.929,0,0,1-.076-.661c0-.425,0-.836,0-1.228,0-.779.009-1.483.013-2.08.008-.58.014-1.055.019-1.4,0-.155.009-.281.011-.381a.562.562,0,0,1,.012-.133.524.524,0,0,1,.012.133c0,.1.007.227.011.381,0,.348.012.823.02,1.4,0,.6.008,1.3.012,2.08,0,.392,0,.8,0,1.228a1.6,1.6,0,0,0,.388,1.18,1.548,1.548,0,0,0,1.115.526l1.226.006,2.08.013,1.4.02.381.011a.563.563,0,0,1,.133.012" transform="translate(-21.821 -13.719)" fill="#cadee0"/>
            <path id="Trazado_180152" data-name="Trazado 180152" d="M52.779,43.885c0,.034-1.633.061-3.646.061s-3.646-.027-3.646-.061,1.632-.061,3.646-.061,3.646.027,3.646.061" transform="translate(-17.246 -16.616)" fill="#cadee0"/>
            <path id="Trazado_180153" data-name="Trazado 180153" d="M56.238,48.211c0,.034-2.407.061-5.375.061s-5.377-.027-5.377-.061,2.406-.061,5.377-.061,5.375.027,5.375.061" transform="translate(-17.246 -18.256)" fill="#cadee0"/>
            <path id="Trazado_180154" data-name="Trazado 180154" d="M56.238,52.538c0,.034-2.407.061-5.376.061s-5.376-.027-5.376-.061,2.406-.061,5.376-.061,5.376.027,5.376.061" transform="translate(-17.246 -19.896)" fill="#cadee0"/>
            <path id="Trazado_180155" data-name="Trazado 180155" d="M56.238,56.864c0,.034-2.407.061-5.376.061s-5.376-.027-5.376-.061,2.406-.061,5.376-.061,5.376.027,5.376.061" transform="translate(-17.246 -21.536)" fill="#cadee0"/>
            <path id="Trazado_180156" data-name="Trazado 180156" d="M56.238,61.19c0,.034-2.407.061-5.376.061s-5.376-.027-5.376-.061,2.406-.061,5.376-.061,5.376.027,5.376.061" transform="translate(-17.246 -23.177)" fill="#cadee0"/>
            <path id="Trazado_180157" data-name="Trazado 180157" d="M56.238,66.525c0,.034-2.407.061-5.376.061s-5.376-.027-5.376-.061,2.406-.061,5.376-.061,5.376.027,5.376.061" transform="translate(-17.246 -25.199)" fill="#cadee0"/>
            <path id="Trazado_180158" data-name="Trazado 180158" d="M57.99,81.7c0,.089-3.834.161-8.562.161s-8.563-.072-8.563-.161,3.833-.161,8.563-.161,8.562.072,8.562.161" transform="translate(-15.494 -30.916)" fill="#cadee0"/>
            <path id="Trazado_180159" data-name="Trazado 180159" d="M56.8,85.314a47.138,47.138,0,0,1-5.512.161,47.136,47.136,0,0,1-5.513-.161,47.129,47.129,0,0,1,5.513-.161,47.131,47.131,0,0,1,5.512.161" transform="translate(-17.356 -32.285)" fill="#cadee0"/>
            <path id="Trazado_180160" data-name="Trazado 180160" d="M56.3,137.543H42.478a1.729,1.729,0,0,1-1.729-1.729V116.683a1.729,1.729,0,0,1,1.729-1.729h8.766l6.785,6.993v13.867a1.73,1.73,0,0,1-1.73,1.729" transform="translate(-15.45 -43.584)" fill="#d4e9eb"/>
            <path id="Trazado_180161" data-name="Trazado 180161" d="M57.652,114.954v5.384a1.608,1.608,0,0,0,1.608,1.609h5.177Z" transform="translate(-21.858 -43.584)" fill="#ddf3f5"/>
            <path id="Trazado_180162" data-name="Trazado 180162" d="M57.766,124.387a1.788,1.788,0,0,0,1.419,1.735,1.6,1.6,0,0,0,.17.038c.676.121,5.126.913,5.126.81v-1.447H59.3s-1.293-.044-1.538-1.137" transform="translate(-21.901 -47.161)" fill="#cadee0"/>
            <path id="Trazado_180163" data-name="Trazado 180163" d="M56.262,137.506c0-.008.1,0,.3-.035a1.738,1.738,0,0,0,.784-.366,1.708,1.708,0,0,0,.618-1.219c.009-.558,0-1.205,0-1.928,0-2.9-.012-7.041-.021-12.048l.014.035-6.791-6.988.042.018-5.058,0H42.831a4.415,4.415,0,0,0-.664.024,1.668,1.668,0,0,0-1.083.676,1.64,1.64,0,0,0-.305.849c-.012.306,0,.627-.006.938q0,.939,0,1.866,0,1.853,0,3.648c0,2.392,0,4.7,0,6.9q0,1.648,0,3.212,0,.78,0,1.538,0,.379,0,.751a4,4,0,0,0,.032.728,1.684,1.684,0,0,0,.782,1.111,1.663,1.663,0,0,0,.638.225,6.339,6.339,0,0,0,.68.018l2.609,0,7.872.019,2.141.011.557.006c.125,0,.189.006.189.006s-.065,0-.189.006l-.557.006-2.141.011-7.872.019-2.609,0a6.375,6.375,0,0,1-.693-.017,1.765,1.765,0,0,1-.675-.236,1.785,1.785,0,0,1-.831-1.175,4.032,4.032,0,0,1-.035-.747q0-.373,0-.751,0-.758,0-1.538,0-1.562,0-3.212c0-2.2,0-4.5,0-6.9q0-1.794,0-3.648v-1.866c0-.315-.007-.623.006-.947a1.763,1.763,0,0,1,.328-.911,1.79,1.79,0,0,1,1.163-.725,4.471,4.471,0,0,1,.684-.026h3.317l5.058,0h.024l.017.017,6.78,7,.014.015v.02c-.009,5.007-.016,9.151-.021,12.048,0,.724,0,1.367-.012,1.93a1.738,1.738,0,0,1-.644,1.24,1.714,1.714,0,0,1-.8.358,1.263,1.263,0,0,1-.225.02c-.051,0-.076,0-.076,0" transform="translate(-15.412 -43.547)" fill="#cadee0"/>
            <path id="Trazado_180164" data-name="Trazado 180164" d="M64.4,121.947a.56.56,0,0,1-.133.012l-.381.011-1.4.019L60.4,122h-1.23a1.672,1.672,0,0,1-1.543-1.165,1.929,1.929,0,0,1-.076-.661c0-.425,0-.836,0-1.228,0-.779.009-1.483.013-2.08.008-.58.014-1.055.019-1.4,0-.155.009-.281.011-.381a.562.562,0,0,1,.012-.133.524.524,0,0,1,.012.133c0,.1.007.227.011.381,0,.348.012.823.02,1.4,0,.6.008,1.3.012,2.08,0,.392,0,.8,0,1.228a1.6,1.6,0,0,0,.388,1.18,1.548,1.548,0,0,0,1.115.526l1.226.006,2.08.013,1.4.02.381.011a.565.565,0,0,1,.133.012" transform="translate(-21.821 -43.584)" fill="#cadee0"/>
            <path id="Trazado_180165" data-name="Trazado 180165" d="M52.779,122.655c0,.034-1.633.061-3.646.061s-3.646-.027-3.646-.061,1.632-.061,3.646-.061,3.646.027,3.646.061" transform="translate(-17.246 -46.481)" fill="#cadee0"/>
            <path id="Trazado_180166" data-name="Trazado 180166" d="M56.238,126.981c0,.034-2.407.061-5.375.061s-5.377-.027-5.377-.061,2.406-.061,5.377-.061,5.375.027,5.375.061" transform="translate(-17.246 -48.121)" fill="#cadee0"/>
            <path id="Trazado_180167" data-name="Trazado 180167" d="M56.238,131.307c0,.034-2.407.061-5.376.061s-5.376-.027-5.376-.061,2.406-.061,5.376-.061,5.376.027,5.376.061" transform="translate(-17.246 -49.761)" fill="#cadee0"/>
            <path id="Trazado_180168" data-name="Trazado 180168" d="M56.238,135.633c0,.034-2.407.061-5.376.061s-5.376-.027-5.376-.061,2.406-.061,5.376-.061,5.376.027,5.376.061" transform="translate(-17.246 -51.401)" fill="#cadee0"/>
            <path id="Trazado_180169" data-name="Trazado 180169" d="M56.238,139.959c0,.034-2.407.061-5.376.061s-5.376-.027-5.376-.061,2.406-.061,5.376-.061,5.376.027,5.376.061" transform="translate(-17.246 -53.041)" fill="#cadee0"/>
            <path id="Trazado_180170" data-name="Trazado 180170" d="M56.238,145.295c0,.034-2.407.061-5.376.061s-5.376-.027-5.376-.061,2.406-.061,5.376-.061,5.376.027,5.376.061" transform="translate(-17.246 -55.065)" fill="#cadee0"/>
            <path id="Trazado_180171" data-name="Trazado 180171" d="M57.99,160.473c0,.089-3.834.161-8.562.161s-8.563-.072-8.563-.161,3.833-.161,8.563-.161,8.562.072,8.562.161" transform="translate(-15.494 -60.781)" fill="#cadee0"/>
            <path id="Trazado_180172" data-name="Trazado 180172" d="M56.8,164.084a47.128,47.128,0,0,1-5.512.161,47.125,47.125,0,0,1-5.513-.161,47.128,47.128,0,0,1,5.513-.161,47.13,47.13,0,0,1,5.512.161" transform="translate(-17.356 -62.15)" fill="#cadee0"/>
            <path id="Trazado_180173" data-name="Trazado 180173" d="M54.77,234.172H40.948a1.729,1.729,0,0,1-1.729-1.73v-19.13a1.729,1.729,0,0,1,1.729-1.729h8.766l6.785,6.993v13.866a1.729,1.729,0,0,1-1.729,1.73" transform="translate(-14.87 -80.22)" fill="#d4e9eb"/>
            <path id="Trazado_180174" data-name="Trazado 180174" d="M56.123,211.582v5.384a1.608,1.608,0,0,0,1.608,1.609h5.177Z" transform="translate(-21.279 -80.22)" fill="#ddf3f5"/>
            <path id="Trazado_180175" data-name="Trazado 180175" d="M56.237,221.016a1.788,1.788,0,0,0,1.419,1.735c.056.016.113.028.17.038.676.12,5.126.912,5.126.81v-1.447H57.775s-1.293-.044-1.538-1.137" transform="translate(-21.322 -83.797)" fill="#cadee0"/>
            <path id="Trazado_180176" data-name="Trazado 180176" d="M54.732,234.135c0-.008.1,0,.3-.035a1.738,1.738,0,0,0,.784-.366,1.711,1.711,0,0,0,.618-1.219c.009-.558,0-1.205,0-1.928,0-2.9-.012-7.041-.022-12.048l.015.035-6.791-6.988.042.018-5.057,0H41.3a4.421,4.421,0,0,0-.664.024,1.669,1.669,0,0,0-1.083.676,1.64,1.64,0,0,0-.305.849c-.012.306,0,.626-.006.938q0,.939,0,1.866,0,1.853,0,3.648c0,2.392,0,4.7,0,6.9q0,1.648,0,3.212,0,.78,0,1.538,0,.379,0,.751a4,4,0,0,0,.032.728,1.684,1.684,0,0,0,.782,1.111,1.663,1.663,0,0,0,.637.225,6.362,6.362,0,0,0,.68.018l2.609,0,7.872.019,2.141.011.557.006c.125,0,.189.006.189.006s-.064,0-.189.006l-.557.006-2.141.011-7.872.019-2.609,0a6.525,6.525,0,0,1-.693-.017,1.753,1.753,0,0,1-.675-.237,1.782,1.782,0,0,1-.831-1.175,4.03,4.03,0,0,1-.035-.747q0-.372,0-.751,0-.758,0-1.538,0-1.562,0-3.212c0-2.2,0-4.5,0-6.9q0-1.794,0-3.648v-1.866c0-.315-.007-.623.006-.947a1.767,1.767,0,0,1,.328-.912,1.792,1.792,0,0,1,1.163-.725,4.463,4.463,0,0,1,.684-.026h3.317l5.057,0H49.7l.017.017,6.78,7,.014.015v.02c-.009,5.007-.016,9.151-.021,12.048,0,.724,0,1.367-.012,1.93a1.738,1.738,0,0,1-.644,1.24,1.713,1.713,0,0,1-.8.358,1.263,1.263,0,0,1-.225.02c-.051,0-.076,0-.076,0" transform="translate(-14.832 -80.183)" fill="#cadee0"/>
            <path id="Trazado_180177" data-name="Trazado 180177" d="M62.871,218.576a.56.56,0,0,1-.133.012l-.381.011-1.4.019-2.08.012h-1.23a1.672,1.672,0,0,1-1.543-1.165,1.93,1.93,0,0,1-.076-.661c0-.425,0-.836,0-1.228,0-.779.009-1.483.013-2.08.008-.58.014-1.055.019-1.4,0-.155.009-.281.011-.381a.556.556,0,0,1,.012-.133.517.517,0,0,1,.012.133c0,.1.007.227.011.381,0,.348.012.823.019,1.4,0,.6.009,1.3.013,2.08,0,.392,0,.8,0,1.228a1.6,1.6,0,0,0,.388,1.18,1.549,1.549,0,0,0,1.115.526l1.226.006,2.08.013,1.4.02.381.011a.563.563,0,0,1,.133.012" transform="translate(-21.241 -80.22)" fill="#cadee0"/>
            <path id="Trazado_180178" data-name="Trazado 180178" d="M51.249,219.284c0,.034-1.633.061-3.646.061s-3.646-.027-3.646-.061,1.632-.061,3.646-.061,3.646.027,3.646.061" transform="translate(-16.666 -83.117)" fill="#cadee0"/>
            <path id="Trazado_180179" data-name="Trazado 180179" d="M54.709,223.61c0,.033-2.407.061-5.376.061s-5.376-.027-5.376-.061,2.406-.061,5.376-.061,5.376.027,5.376.061" transform="translate(-16.666 -84.757)" fill="#cadee0"/>
            <path id="Trazado_180180" data-name="Trazado 180180" d="M54.709,227.936c0,.033-2.407.061-5.376.061s-5.376-.027-5.376-.061,2.406-.061,5.376-.061,5.376.027,5.376.061" transform="translate(-16.666 -86.397)" fill="#cadee0"/>
            <path id="Trazado_180181" data-name="Trazado 180181" d="M54.709,232.262c0,.033-2.407.061-5.376.061s-5.376-.027-5.376-.061,2.406-.061,5.376-.061,5.376.027,5.376.061" transform="translate(-16.666 -88.037)" fill="#cadee0"/>
            <path id="Trazado_180182" data-name="Trazado 180182" d="M54.709,236.588c0,.033-2.407.061-5.376.061s-5.376-.027-5.376-.061,2.406-.061,5.376-.061,5.376.027,5.376.061" transform="translate(-16.666 -89.678)" fill="#cadee0"/>
            <path id="Trazado_180183" data-name="Trazado 180183" d="M54.709,241.924c0,.034-2.407.061-5.375.061s-5.377-.027-5.377-.061,2.406-.061,5.377-.061,5.375.027,5.375.061" transform="translate(-16.666 -91.701)" fill="#cadee0"/>
            <path id="Trazado_180184" data-name="Trazado 180184" d="M56.46,257.1c0,.089-3.834.161-8.562.161s-8.563-.072-8.563-.161,3.833-.161,8.563-.161,8.562.072,8.562.161" transform="translate(-14.914 -97.417)" fill="#cadee0"/>
            <path id="Trazado_180185" data-name="Trazado 180185" d="M55.273,260.712a47.1,47.1,0,0,1-5.512.161,47.1,47.1,0,0,1-5.513-.161,47.138,47.138,0,0,1,5.513-.161,47.141,47.141,0,0,1,5.512.161" transform="translate(-16.776 -98.786)" fill="#cadee0"/>
            <path id="Trazado_180186" data-name="Trazado 180186" d="M201.188,231.97H187.366a1.729,1.729,0,0,1-1.729-1.73V211.11a1.729,1.729,0,0,1,1.729-1.729h8.766l6.785,6.993v13.866a1.729,1.729,0,0,1-1.729,1.73" transform="translate(-70.383 -79.385)" fill="#d4e9eb"/>
            <path id="Trazado_180187" data-name="Trazado 180187" d="M202.541,209.381v5.384a1.608,1.608,0,0,0,1.608,1.609h5.177Z" transform="translate(-76.792 -79.385)" fill="#ddf3f5"/>
            <path id="Trazado_180188" data-name="Trazado 180188" d="M202.654,218.814a1.788,1.788,0,0,0,1.419,1.735,1.6,1.6,0,0,0,.17.038c.676.121,5.126.913,5.126.81v-1.447h-5.177s-1.293-.044-1.538-1.137" transform="translate(-76.835 -82.962)" fill="#cadee0"/>
            <path id="Trazado_180189" data-name="Trazado 180189" d="M201.15,231.933c0-.008.1,0,.3-.035a1.738,1.738,0,0,0,.784-.366,1.711,1.711,0,0,0,.618-1.219c.009-.558,0-1.205,0-1.928,0-2.9-.012-7.041-.022-12.048l.015.035-6.791-6.988.042.018-5.057,0h-3.317a4.417,4.417,0,0,0-.664.024,1.669,1.669,0,0,0-1.083.676,1.64,1.64,0,0,0-.305.849c-.012.306,0,.626-.006.938q0,.939,0,1.866,0,1.853,0,3.648c0,2.392,0,4.7,0,6.9q0,1.648,0,3.212,0,.78,0,1.538c0,.253,0,.5,0,.751a4,4,0,0,0,.032.728,1.684,1.684,0,0,0,.782,1.111,1.662,1.662,0,0,0,.637.225,6.335,6.335,0,0,0,.68.018l2.609,0,7.872.019,2.141.011.557.006c.125,0,.189.006.189.006s-.064,0-.189.006l-.557.006-2.141.011-7.872.019-2.609,0a6.517,6.517,0,0,1-.693-.017,1.757,1.757,0,0,1-.675-.237,1.782,1.782,0,0,1-.831-1.175,4.035,4.035,0,0,1-.035-.747q0-.372,0-.751,0-.758,0-1.538,0-1.562,0-3.212c0-2.2,0-4.5,0-6.9q0-1.794,0-3.648v-1.866c0-.315-.007-.623.006-.947a1.767,1.767,0,0,1,.328-.912,1.792,1.792,0,0,1,1.163-.725,4.461,4.461,0,0,1,.684-.026h3.317l5.057,0h.025l.017.017,6.78,7,.014.015v.02c-.009,5.007-.016,9.151-.021,12.048,0,.724,0,1.367-.012,1.93a1.738,1.738,0,0,1-.644,1.24,1.713,1.713,0,0,1-.8.358,1.264,1.264,0,0,1-.225.02c-.051,0-.076,0-.076,0" transform="translate(-70.345 -79.348)" fill="#cadee0"/>
            <path id="Trazado_180190" data-name="Trazado 180190" d="M209.288,216.374a.566.566,0,0,1-.133.012l-.381.011-1.4.019-2.08.012h-1.23a1.672,1.672,0,0,1-1.543-1.165,1.927,1.927,0,0,1-.076-.661c0-.425,0-.836,0-1.228,0-.779.009-1.483.013-2.08.008-.58.014-1.055.019-1.4,0-.155.009-.281.011-.381a.563.563,0,0,1,.012-.133.522.522,0,0,1,.012.133c0,.1.007.227.011.381,0,.348.012.823.02,1.4,0,.6.008,1.3.012,2.08,0,.392,0,.8,0,1.228a1.6,1.6,0,0,0,.388,1.18,1.548,1.548,0,0,0,1.115.526l1.226.006,2.08.013,1.4.02.381.011a.56.56,0,0,1,.133.012" transform="translate(-76.754 -79.385)" fill="#cadee0"/>
            <path id="Trazado_180191" data-name="Trazado 180191" d="M197.667,217.083c0,.034-1.632.061-3.646.061s-3.646-.027-3.646-.061,1.632-.061,3.646-.061,3.646.027,3.646.061" transform="translate(-72.179 -82.282)" fill="#cadee0"/>
            <path id="Trazado_180192" data-name="Trazado 180192" d="M201.127,221.409c0,.034-2.407.061-5.376.061s-5.376-.027-5.376-.061,2.406-.061,5.376-.061,5.376.027,5.376.061" transform="translate(-72.179 -83.923)" fill="#cadee0"/>
            <path id="Trazado_180193" data-name="Trazado 180193" d="M201.127,225.735c0,.033-2.407.061-5.376.061s-5.376-.027-5.376-.061,2.406-.061,5.376-.061,5.376.027,5.376.061" transform="translate(-72.179 -85.563)" fill="#cadee0"/>
            <path id="Trazado_180194" data-name="Trazado 180194" d="M201.127,230.061c0,.034-2.407.061-5.376.061s-5.376-.027-5.376-.061,2.406-.061,5.376-.061,5.376.027,5.376.061" transform="translate(-72.179 -87.203)" fill="#cadee0"/>
            <path id="Trazado_180195" data-name="Trazado 180195" d="M201.127,234.387c0,.034-2.407.061-5.376.061s-5.376-.027-5.376-.061,2.406-.061,5.376-.061,5.376.027,5.376.061" transform="translate(-72.179 -88.843)" fill="#cadee0"/>
            <path id="Trazado_180196" data-name="Trazado 180196" d="M201.127,239.722c0,.034-2.407.061-5.376.061s-5.376-.027-5.376-.061,2.406-.061,5.376-.061,5.376.027,5.376.061" transform="translate(-72.179 -90.866)" fill="#cadee0"/>
            <path id="Trazado_180197" data-name="Trazado 180197" d="M202.878,254.9c0,.089-3.834.161-8.562.161s-8.563-.072-8.563-.161,3.833-.161,8.563-.161,8.562.072,8.562.161" transform="translate(-70.427 -96.583)" fill="#cadee0"/>
            <path id="Trazado_180198" data-name="Trazado 180198" d="M201.691,258.511a47.149,47.149,0,0,1-5.512.161,47.147,47.147,0,0,1-5.513-.161,47.131,47.131,0,0,1,5.513-.161,47.133,47.133,0,0,1,5.512.161" transform="translate(-72.29 -97.952)" fill="#cadee0"/>
            <path id="Trazado_180199" data-name="Trazado 180199" d="M122.351,22.044,123,34.412a.774.774,0,0,0,.715.784H142.8a.782.782,0,0,0,.715-.835V24.729a.781.781,0,0,0-.72-.836l-11.732.088a.668.668,0,0,1-.507-.24L128.514,21.4a.667.667,0,0,0-.5-.24h-4.946a.791.791,0,0,0-.715.887" transform="translate(-46.388 -8.022)" fill="#d4e9eb"/>
            <rect id="Rectángulo_38014" data-name="Rectángulo 38014" width="20.843" height="14.537" transform="translate(76.28 14.41)" fill="#ddf3f5"/>
            <path id="Trazado_180200" data-name="Trazado 180200" d="M120.19,24.943,121.781,40.1a.492.492,0,0,0,.457.472h20.314a.5.5,0,0,0,.459-.495l1.023-15.159a.51.51,0,0,0-.459-.579H120.647a.514.514,0,0,0-.457.6" transform="translate(-45.568 -9.229)" fill="#d4e9eb"/>
            <path id="Trazado_180201" data-name="Trazado 180201" d="M142.726,62.783c0,.089-3.834.161-8.562.161s-8.563-.072-8.563-.161,3.833-.161,8.563-.161,8.562.072,8.562.161" transform="translate(-47.621 -23.743)" fill="#cadee0"/>
            <path id="Trazado_180202" data-name="Trazado 180202" d="M141.539,66.393a47.123,47.123,0,0,1-5.512.161,47.121,47.121,0,0,1-5.513-.161,47.131,47.131,0,0,1,5.513-.161,47.133,47.133,0,0,1,5.512.161" transform="translate(-49.484 -25.111)" fill="#cadee0"/>
            <path id="Trazado_180203" data-name="Trazado 180203" d="M123.431,115.69l.654,12.368a.775.775,0,0,0,.715.784h19.077a.783.783,0,0,0,.715-.836v-9.631a.781.781,0,0,0-.72-.836l-11.732.088a.666.666,0,0,1-.507-.24l-2.039-2.344a.669.669,0,0,0-.5-.24h-4.946a.791.791,0,0,0-.715.887" transform="translate(-46.798 -43.527)" fill="#d4e9eb"/>
            <rect id="Rectángulo_38015" data-name="Rectángulo 38015" width="20.844" height="14.537" transform="translate(76.95 72.55)" fill="#ddf3f5"/>
            <path id="Trazado_180204" data-name="Trazado 180204" d="M121.27,118.589l1.591,15.159a.492.492,0,0,0,.457.472h20.314a.5.5,0,0,0,.459-.495l1.023-15.159a.51.51,0,0,0-.459-.579H121.727a.514.514,0,0,0-.457.6" transform="translate(-45.977 -44.734)" fill="#d4e9eb"/>
            <path id="Trazado_180205" data-name="Trazado 180205" d="M143.806,156.429c0,.089-3.834.161-8.562.161s-8.563-.072-8.563-.161,3.833-.161,8.563-.161,8.562.072,8.562.161" transform="translate(-48.03 -59.248)" fill="#cadee0"/>
            <path id="Trazado_180206" data-name="Trazado 180206" d="M142.619,160.039a47.126,47.126,0,0,1-5.512.161,47.124,47.124,0,0,1-5.513-.161,47.137,47.137,0,0,1,5.513-.161,47.138,47.138,0,0,1,5.512.161" transform="translate(-49.893 -60.617)" fill="#cadee0"/>
            <path id="Trazado_180207" data-name="Trazado 180207" d="M107.192,231.148l.654,12.368a.774.774,0,0,0,.715.783h19.077a.782.782,0,0,0,.715-.835v-9.631a.781.781,0,0,0-.72-.836l-11.732.088a.666.666,0,0,1-.507-.24l-2.039-2.344a.667.667,0,0,0-.5-.24h-4.946a.791.791,0,0,0-.715.887" transform="translate(-40.641 -87.302)" fill="#d4e9eb"/>
            <rect id="Rectángulo_38016" data-name="Rectángulo 38016" width="20.844" height="14.537" transform="translate(66.868 144.234)" fill="#ddf3f5"/>
            <path id="Trazado_180208" data-name="Trazado 180208" d="M105.031,234.047l1.591,15.16a.492.492,0,0,0,.457.472h20.314a.5.5,0,0,0,.459-.495l1.023-15.159a.511.511,0,0,0-.459-.58H105.488a.514.514,0,0,0-.457.6" transform="translate(-39.82 -88.509)" fill="#d4e9eb"/>
            <path id="Trazado_180209" data-name="Trazado 180209" d="M127.567,271.887c0,.089-3.834.161-8.562.161s-8.563-.072-8.563-.161,3.833-.161,8.563-.161,8.562.072,8.562.161" transform="translate(-41.873 -103.023)" fill="#cadee0"/>
            <path id="Trazado_180210" data-name="Trazado 180210" d="M126.38,275.5a47.112,47.112,0,0,1-5.512.161,47.11,47.11,0,0,1-5.513-.161,47.126,47.126,0,0,1,5.513-.161,47.128,47.128,0,0,1,5.512.161" transform="translate(-43.736 -104.392)" fill="#cadee0"/>
            <rect id="Rectángulo_38017" data-name="Rectángulo 38017" width="137.952" height="121.32" transform="translate(136.361 10.613)" fill="#fff"/>
            <path id="Trazado_180211" data-name="Trazado 180211" d="M357.487,138.316c0-1.151-.055-48.322-.137-121.32l.137.137-137.94.025h-.012L219.7,17c-.007,44.092-.013,85.609-.019,121.32l-.143-.143,137.952.143-137.952.143h-.143v-.143c-.006-35.712-.012-77.228-.019-121.32v-.161h.174l137.94.025h.137V17c-.082,73-.135,120.17-.137,121.32" transform="translate(-83.174 -6.383)" fill="#cadee0"/>
            <path id="Trazado_180212" data-name="Trazado 180212" d="M358.925,37.07c0,.06-30.629.108-68.4.108s-68.41-.048-68.41-.108,30.623-.108,68.41-.108,68.4.048,68.4.108" transform="translate(-84.212 -14.014)" fill="#cadee0"/>
            <path id="Trazado_180213" data-name="Trazado 180213" d="M233.026,27.124a1.416,1.416,0,1,1-1.415-1.416,1.416,1.416,0,0,1,1.415,1.416" transform="translate(-87.277 -9.747)" fill="#d4e9eb"/>
            <path id="Trazado_180214" data-name="Trazado 180214" d="M240.512,27.124a1.416,1.416,0,1,1-1.416-1.416,1.416,1.416,0,0,1,1.416,1.416" transform="translate(-90.115 -9.747)" fill="#d4e9eb"/>
            <path id="Trazado_180215" data-name="Trazado 180215" d="M248,27.124a1.416,1.416,0,1,1-1.416-1.416A1.416,1.416,0,0,1,248,27.124" transform="translate(-92.953 -9.747)" fill="#d4e9eb"/>
            <path id="Trazado_180216" data-name="Trazado 180216" d="M407.217,50.421a1.532,1.532,0,0,0,.232-.046.794.794,0,0,0,.483-.454,1.184,1.184,0,0,0,.054-.5q0-.285-.005-.621c0-.451-.007-.969-.01-1.552s-.006-1.234-.01-1.943c0-.176,0-.364-.006-.54a.748.748,0,0,0-.224-.465.73.73,0,0,0-.493-.2h-.61L401,44.113l-32.621.032a.691.691,0,0,0-.687.635q0,.589,0,1.175,0,1.18,0,2.344v1.159a.888.888,0,0,0,.089.505.683.683,0,0,0,.373.311.747.747,0,0,0,.246.039h1.986l8.661.006,14.666.024,9.887.034,2.688.02.7.011c.158,0,.239.011.239.011s-.081.007-.239.011l-.7.011-2.688.021L393.7,50.5l-14.666.024-8.661.006h-1.986a.945.945,0,0,1-.316-.05.9.9,0,0,1-.49-.408,1.106,1.106,0,0,1-.117-.611V48.3q0-1.164,0-2.344,0-.593,0-1.191a.908.908,0,0,1,.9-.835L401,43.961l5.634.016.613,0a.845.845,0,0,1,.567.241.855.855,0,0,1,.254.536c.007.194,0,.369,0,.549,0,.709-.007,1.358-.01,1.943s-.007,1.1-.01,1.552q0,.336,0,.621a1.216,1.216,0,0,1-.068.516.808.808,0,0,1-.517.458.62.62,0,0,1-.238.025" transform="translate(-139.323 -16.655)" fill="#cadee0"/>
            <path id="Trazado_180217" data-name="Trazado 180217" d="M371.7,49.448l.107-.227a1.047,1.047,0,0,0,.672.235c.351,0,.5-.137.5-.314,0-.5-1.232-.183-1.232-.939,0-.314.244-.581.778-.581a1.2,1.2,0,0,1,.654.18l-.1.233a1.046,1.046,0,0,0-.558-.166c-.346,0-.494.145-.494.322,0,.5,1.232.186,1.232.933,0,.311-.25.579-.787.579a1.205,1.205,0,0,1-.779-.256" transform="translate(-140.926 -18.056)" fill="#cadee0"/>
            <path id="Trazado_180218" data-name="Trazado 180218" d="M376.136,49.31h-1.249a.521.521,0,0,0,.557.45.576.576,0,0,0,.445-.186l.153.18a.839.839,0,0,1-1.435-.538.753.753,0,0,1,.772-.784.742.742,0,0,1,.761.793.831.831,0,0,1-.006.084m-1.249-.2h.988a.5.5,0,0,0-.988,0" transform="translate(-142.03 -18.363)" fill="#cadee0"/>
            <path id="Trazado_180219" data-name="Trazado 180219" d="M378.778,49.058v.929h-.264v-.2a.573.573,0,0,1-.505.22c-.349,0-.569-.186-.569-.453,0-.246.16-.45.619-.45h.441v-.055c0-.235-.137-.372-.413-.372a.779.779,0,0,0-.488.166l-.116-.209a1.026,1.026,0,0,1,.636-.2c.421,0,.659.2.659.625m-.279.459V49.3h-.43c-.276,0-.354.107-.354.238,0,.153.128.25.34.25a.447.447,0,0,0,.445-.273" transform="translate(-143.103 -18.363)" fill="#cadee0"/>
            <path id="Trazado_180220" data-name="Trazado 180220" d="M381.257,48.433v.27a.576.576,0,0,0-.064,0,.459.459,0,0,0-.485.52v.767h-.279v-1.54h.267v.259a.59.59,0,0,1,.561-.273" transform="translate(-144.237 -18.363)" fill="#cadee0"/>
            <path id="Trazado_180221" data-name="Trazado 180221" d="M382.062,49.217a.769.769,0,0,1,.814-.784.686.686,0,0,1,.627.328l-.212.137a.48.48,0,0,0-.418-.22.542.542,0,0,0,0,1.083.48.48,0,0,0,.418-.22l.212.133a.688.688,0,0,1-.627.331.772.772,0,0,1-.814-.787" transform="translate(-144.856 -18.363)" fill="#cadee0"/>
            <path id="Trazado_180222" data-name="Trazado 180222" d="M386.393,48.734v.886h-.279v-.854c0-.3-.152-.45-.416-.45a.458.458,0,0,0-.488.512v.793h-.279V47.464h.279V48.3a.667.667,0,0,1,.543-.232.6.6,0,0,1,.639.668" transform="translate(-145.944 -17.996)" fill="#cadee0"/>
            <path id="Trazado_180223" data-name="Trazado 180223" d="M387.908,50.52a.194.194,0,0,1,.2-.2.191.191,0,0,1,.191.2.194.194,0,0,1-.191.2.2.2,0,0,1-.2-.2" transform="translate(-147.073 -19.08)" fill="#cadee0"/>
            <path id="Trazado_180224" data-name="Trazado 180224" d="M388.97,50.52a.194.194,0,0,1,.2-.2.191.191,0,0,1,.192.2.194.194,0,0,1-.192.2.2.2,0,0,1-.2-.2" transform="translate(-147.475 -19.08)" fill="#cadee0"/>
            <path id="Trazado_180225" data-name="Trazado 180225" d="M390.033,50.52a.194.194,0,0,1,.2-.2.191.191,0,0,1,.192.2.194.194,0,0,1-.192.2.2.2,0,0,1-.2-.2" transform="translate(-147.878 -19.08)" fill="#cadee0"/>
            <path id="Trazado_180226" data-name="Trazado 180226" d="M357.285,69.911V91.669h26.447V69.911a1.876,1.876,0,0,0-1.876-1.876h-22.7a1.876,1.876,0,0,0-1.876,1.876" transform="translate(-135.462 -25.795)" fill="#cadee0"/>
            <path id="Trazado_180227" data-name="Trazado 180227" d="M359.285,82.19l.176-7.988H382.6V78.76" transform="translate(-136.221 -28.133)" fill="#ddf3f5"/>
            <rect id="Rectángulo_38018" data-name="Rectángulo 38018" width="20.22" height="2.159" transform="translate(224.746 43.909)" fill="#ddf3f5"/>
            <path id="Trazado_180228" data-name="Trazado 180228" d="M361.966,70.659a.41.41,0,0,1,.095-.007l.294-.007,1.146-.015,4.275-.032,14.41-.046h.107v.108c0,.688,0,1.419,0,2.158-.217.219-.064.06-.114.109h-3.294l-3.15,0-5.707-.013-8.064-.045h-.047v-.045q.017-1.044.026-1.62c0-.169.008-.3.011-.407a.677.677,0,0,1,.009-.132,1.087,1.087,0,0,1,.009.148c0,.107.007.245.011.418q.009.566.026,1.594l-.046-.046,8.064-.045,5.707-.012,3.15,0h3.294c-.047.048.114-.107-.1.107,0-.739,0-1.47,0-2.158l.108.107-14.332-.046-4.3-.032-1.171-.015-.307-.007a.7.7,0,0,1-.11-.007" transform="translate(-137.219 -26.749)" fill="#cadee0"/>
            <path id="Trazado_180229" data-name="Trazado 180229" d="M384.566,114.806c0,.06-5.053.108-11.286.108s-11.287-.048-11.287-.108,5.053-.108,11.287-.108,11.286.048,11.286.108" transform="translate(-137.248 -43.487)" fill="#cadee0"/>
            <path id="Trazado_180230" data-name="Trazado 180230" d="M354,79.8l2.034,15.744h26.448V80.292H370.473l-2.33-2.049H355.366A1.376,1.376,0,0,0,354,79.8" transform="translate(-134.213 -29.665)" fill="#d4e9eb"/>
            <path id="Trazado_180231" data-name="Trazado 180231" d="M380.26,91.409c0,.06-2.9.108-6.468.108s-6.469-.048-6.469-.108,2.9-.108,6.469-.108,6.468.048,6.468.108" transform="translate(-139.268 -34.616)" fill="#cadee0"/>
            <path id="Trazado_180232" data-name="Trazado 180232" d="M380.26,93.9c0,.06-2.9.108-6.468.108s-6.469-.048-6.469-.108,2.9-.108,6.469-.108,6.468.048,6.468.108" transform="translate(-139.268 -35.562)" fill="#cadee0"/>
            <path id="Trazado_180233" data-name="Trazado 180233" d="M380.778,119.546c0,.06-3.169.108-7.078.108s-7.078-.048-7.078-.108,3.168-.108,7.078-.108,7.078.048,7.078.108" transform="translate(-139.002 -45.284)" fill="#cadee0"/>
            <path id="Trazado_180234" data-name="Trazado 180234" d="M264.635,69.911V91.669h26.447V69.911a1.876,1.876,0,0,0-1.876-1.876h-22.7a1.876,1.876,0,0,0-1.876,1.876" transform="translate(-100.335 -25.795)" fill="#cadee0"/>
            <path id="Trazado_180235" data-name="Trazado 180235" d="M266.635,82.19l.176-7.988h23.143V78.76" transform="translate(-101.093 -28.133)" fill="#ddf3f5"/>
            <rect id="Rectángulo_38019" data-name="Rectángulo 38019" width="20.22" height="2.159" transform="translate(167.224 43.909)" fill="#ddf3f5"/>
            <path id="Trazado_180236" data-name="Trazado 180236" d="M269.316,70.659a.411.411,0,0,1,.1-.007l.294-.007,1.146-.015,4.275-.032,14.409-.046h.108v.108c0,.688,0,1.419,0,2.158-.217.219-.064.06-.114.109h-3.294l-3.15,0-5.707-.013-8.064-.045h-.047v-.045q.017-1.044.026-1.62c0-.169.008-.3.011-.407a.687.687,0,0,1,.009-.132,1.072,1.072,0,0,1,.009.148c0,.107.007.245.011.418l.026,1.594-.046-.046,8.064-.045,5.707-.012,3.15,0h3.294c-.047.048.114-.107-.1.107,0-.739,0-1.47,0-2.158l.107.107L275.2,70.72l-4.3-.032-1.171-.015-.307-.007a.7.7,0,0,1-.11-.007" transform="translate(-102.092 -26.749)" fill="#cadee0"/>
            <path id="Trazado_180237" data-name="Trazado 180237" d="M291.916,114.806c0,.06-5.053.108-11.286.108s-11.287-.048-11.287-.108,5.053-.108,11.287-.108,11.286.048,11.286.108" transform="translate(-102.12 -43.487)" fill="#cadee0"/>
            <path id="Trazado_180238" data-name="Trazado 180238" d="M261.352,79.8l2.034,15.744h26.448V80.292H277.823l-2.33-2.049H262.716a1.376,1.376,0,0,0-1.364,1.552" transform="translate(-99.085 -29.665)" fill="#d4e9eb"/>
            <path id="Trazado_180239" data-name="Trazado 180239" d="M287.61,91.409c0,.06-2.9.108-6.468.108s-6.469-.048-6.469-.108,2.9-.108,6.469-.108,6.468.048,6.468.108" transform="translate(-104.14 -34.616)" fill="#cadee0"/>
            <path id="Trazado_180240" data-name="Trazado 180240" d="M287.61,93.9c0,.06-2.9.108-6.468.108s-6.469-.048-6.469-.108,2.9-.108,6.469-.108,6.468.048,6.468.108" transform="translate(-104.14 -35.562)" fill="#cadee0"/>
            <path id="Trazado_180241" data-name="Trazado 180241" d="M288.127,119.546c0,.06-3.169.108-7.077.108s-7.078-.048-7.078-.108,3.168-.108,7.078-.108,7.077.048,7.077.108" transform="translate(-103.875 -45.284)" fill="#cadee0"/>
            <path id="Trazado_180242" data-name="Trazado 180242" d="M263.3,144.352V166.11h26.447V144.352a1.875,1.875,0,0,0-1.875-1.876h-22.7a1.876,1.876,0,0,0-1.876,1.876" transform="translate(-99.827 -54.019)" fill="#cadee0"/>
            <path id="Trazado_180243" data-name="Trazado 180243" d="M265.3,156.632l.175-7.988h23.144V153.2" transform="translate(-100.585 -56.357)" fill="#ddf3f5"/>
            <rect id="Rectángulo_38020" data-name="Rectángulo 38020" width="20.22" height="2.159" transform="translate(166.393 90.127)" fill="#ddf3f5"/>
            <path id="Trazado_180244" data-name="Trazado 180244" d="M267.977,145.1a.415.415,0,0,1,.1-.007l.294-.007,1.146-.015,4.275-.032,14.409-.047h.108v.108c0,.688,0,1.419,0,2.158-.217.219-.064.06-.114.109H284.9l-3.15,0-5.707-.013-8.064-.045h-.047v-.045q.017-1.044.026-1.62c0-.169.008-.3.011-.407a.689.689,0,0,1,.009-.132,1.06,1.06,0,0,1,.009.148c0,.107.007.245.011.418q.009.566.026,1.594l-.046-.046,8.064-.045,5.707-.012,3.15,0h3.294c-.047.048.114-.107-.1.107,0-.739,0-1.47,0-2.158l.107.107-14.331-.046-4.3-.032-1.171-.015-.307-.007a.69.69,0,0,1-.11-.007" transform="translate(-101.584 -54.973)" fill="#cadee0"/>
            <path id="Trazado_180245" data-name="Trazado 180245" d="M290.577,189.247c0,.06-5.053.108-11.286.108S268,189.307,268,189.247s5.053-.108,11.287-.108,11.286.048,11.286.108" transform="translate(-101.612 -71.711)" fill="#cadee0"/>
            <path id="Trazado_180246" data-name="Trazado 180246" d="M260.013,154.236l2.034,15.744h26.448V154.733H276.484l-2.33-2.049H261.377a1.376,1.376,0,0,0-1.364,1.552" transform="translate(-98.578 -57.889)" fill="#d4e9eb"/>
            <path id="Trazado_180247" data-name="Trazado 180247" d="M286.271,165.851c0,.06-2.9.108-6.468.108s-6.469-.048-6.469-.108,2.9-.108,6.469-.108,6.468.048,6.468.108" transform="translate(-103.633 -62.84)" fill="#cadee0"/>
            <path id="Trazado_180248" data-name="Trazado 180248" d="M286.271,168.345c0,.06-2.9.108-6.468.108s-6.469-.048-6.469-.108,2.9-.108,6.469-.108,6.468.048,6.468.108" transform="translate(-103.633 -63.786)" fill="#cadee0"/>
            <path id="Trazado_180249" data-name="Trazado 180249" d="M286.788,193.988c0,.06-3.169.108-7.077.108s-7.078-.048-7.078-.108,3.168-.108,7.078-.108,7.077.048,7.077.108" transform="translate(-103.367 -73.508)" fill="#cadee0"/>
            <path id="Trazado_180250" data-name="Trazado 180250" d="M356.96,144.352V166.11h26.447V144.352a1.875,1.875,0,0,0-1.875-1.876h-22.7a1.876,1.876,0,0,0-1.876,1.876" transform="translate(-135.339 -54.019)" fill="#cadee0"/>
            <path id="Trazado_180251" data-name="Trazado 180251" d="M358.959,156.632l.175-7.988h23.144V153.2" transform="translate(-136.097 -56.357)" fill="#ddf3f5"/>
            <rect id="Rectángulo_38021" data-name="Rectángulo 38021" width="20.22" height="2.159" transform="translate(224.545 90.127)" fill="#ddf3f5"/>
            <path id="Trazado_180252" data-name="Trazado 180252" d="M361.641,145.1a.413.413,0,0,1,.095-.007l.294-.007,1.146-.015,4.275-.032,14.409-.047h.108v.108c0,.688,0,1.419,0,2.158-.217.219-.064.06-.114.109h-3.294l-3.15,0-5.707-.013-8.064-.045h-.047v-.045q.017-1.044.026-1.62c0-.169.008-.3.011-.407a.672.672,0,0,1,.009-.132,1.079,1.079,0,0,1,.009.148c0,.107.007.245.011.418q.009.566.026,1.594l-.046-.046,8.064-.045,5.707-.012,3.15,0h3.294c-.047.048.114-.107-.1.107,0-.739,0-1.47,0-2.158l.107.107-14.331-.046-4.3-.032-1.171-.015-.307-.007a.688.688,0,0,1-.11-.007" transform="translate(-137.096 -54.973)" fill="#cadee0"/>
            <path id="Trazado_180253" data-name="Trazado 180253" d="M384.241,189.247c0,.06-5.053.108-11.286.108s-11.287-.048-11.287-.108,5.053-.108,11.287-.108,11.286.048,11.286.108" transform="translate(-137.124 -71.711)" fill="#cadee0"/>
            <path id="Trazado_180254" data-name="Trazado 180254" d="M353.677,154.236l2.033,15.744h26.449V154.733H370.147l-2.33-2.049H355.04a1.375,1.375,0,0,0-1.363,1.552" transform="translate(-134.09 -57.889)" fill="#d4e9eb"/>
            <path id="Trazado_180255" data-name="Trazado 180255" d="M379.935,165.851c0,.06-2.9.108-6.468.108s-6.469-.048-6.469-.108,2.9-.108,6.469-.108,6.468.048,6.468.108" transform="translate(-139.145 -62.84)" fill="#cadee0"/>
            <path id="Trazado_180256" data-name="Trazado 180256" d="M379.935,168.345c0,.06-2.9.108-6.468.108S367,168.4,367,168.345s2.9-.108,6.469-.108,6.468.048,6.468.108" transform="translate(-139.145 -63.786)" fill="#cadee0"/>
            <path id="Trazado_180257" data-name="Trazado 180257" d="M380.452,193.988c0,.06-3.169.108-7.077.108s-7.078-.048-7.078-.108,3.168-.108,7.078-.108,7.077.048,7.077.108" transform="translate(-138.879 -73.508)" fill="#cadee0"/>
            <path id="Trazado_180258" data-name="Trazado 180258" d="M272.432,431.345c0,.089-60.991.161-136.21.161C60.978,431.507,0,431.435,0,431.345s60.978-.161,136.223-.161c75.219,0,136.21.072,136.21.161" transform="translate(0 -163.481)" fill="#263238"/>
            <path id="Trazado_180259" data-name="Trazado 180259" d="M199.877,162.666H151.613l-9.218,13.682L133.4,162.666H85.99a5.49,5.49,0,0,1-5.49-5.49V63.144a5.49,5.49,0,0,1,5.49-5.49H199.877a5.49,5.49,0,0,1,5.49,5.49v94.032a5.49,5.49,0,0,1-5.49,5.49" transform="translate(-30.521 -21.859)" fill="#fafafa"/>
            <path id="Trazado_180260" data-name="Trazado 180260" d="M199.779,162.567s.1-.011.3-.024a5.449,5.449,0,0,0,3.833-1.911,5.368,5.368,0,0,0,1.157-2.276,6.078,6.078,0,0,0,.127-.716c.009-.248.034-.5.027-.762q0-.783,0-1.633c0-2.265-.009-4.877-.014-7.818-.012-11.769-.03-28.792-.051-49.826-.006-10.519-.013-22.039-.02-34.407a5.382,5.382,0,0,0-3.7-5.239,6.505,6.505,0,0,0-2.316-.263l-9.736,0L169.06,57.7l-43.637.009-23.082,0H86.068c-.252,0-.485.019-.729.029a5.889,5.889,0,0,0-.713.129,5.3,5.3,0,0,0-3.908,3.918,11.307,11.307,0,0,0-.154,2.663v2.706q0,2.7,0,5.39V83.234q0,10.616,0,20.938c0,13.753,0,27.076-.007,39.85q0,4.79,0,9.475,0,1.172,0,2.336a12.462,12.462,0,0,0,.1,2.287,5.358,5.358,0,0,0,4.594,4.261c.725.075,1.5.03,2.246.043l4.485,0,8.789,0,32.535.017h.066l.036.055,8.986,13.687H142.2l9.23-13.674.03-.043h.052l35.584.045,9.433.026,2.426.013c.544,0,.821.014.821.014s-.277.009-.821.014l-2.426.014-9.433.025-35.584.045.081-.043q-4.289,6.377-9.207,13.689l-.093.139-.093-.14-9-13.675.1.055-32.535.017-8.789,0-4.485,0c-.756-.013-1.5.035-2.28-.044a5.649,5.649,0,0,1-4.848-4.492,12.685,12.685,0,0,1-.109-2.343q0-1.164,0-2.336,0-4.683,0-9.475c0-12.774-.006-26.1-.008-39.85q0-10.315,0-20.938,0-5.307,0-10.682V63.1a5.94,5.94,0,0,1,.163-1.383,5.617,5.617,0,0,1,4.145-4.156,6.254,6.254,0,0,1,.757-.137c.253-.011.517-.035.762-.03h16.273l23.082,0,43.637.009,20.322.007,9.736,0a6.778,6.778,0,0,1,2.4.279,5.683,5.683,0,0,1,3.449,3.174,5.867,5.867,0,0,1,.436,2.325c-.007,12.368-.014,23.889-.02,34.407-.022,21.033-.039,38.057-.052,49.826-.006,2.94-.011,5.553-.015,7.818q0,.849,0,1.633c.006.26-.021.52-.032.77a6.175,6.175,0,0,1-.132.726,5.5,5.5,0,0,1-4.177,4.075,5.094,5.094,0,0,1-.892.11c-.2.007-.3.007-.3.007" transform="translate(-30.422 -21.76)" fill="#263238"/>
            <path id="Trazado_180261" data-name="Trazado 180261" d="M155.743,149.579c0,1.218-.914,1.976-2.374,1.976h-1.1v1.507H151V147.6h2.366c1.46,0,2.374.757,2.374,1.984m-1.281,0c0-.6-.39-.952-1.163-.952h-1.031v1.9H153.3c.773,0,1.163-.351,1.163-.945" transform="translate(-57.252 -55.96)" fill="#263238"/>
            <path id="Trazado_180262" data-name="Trazado 180262" d="M163.433,151.4v2.4h-1.14v-.523a1.378,1.378,0,0,1-1.281.586c-.984,0-1.57-.547-1.57-1.273,0-.742.523-1.257,1.8-1.257h.969c0-.523-.312-.828-.969-.828a2.019,2.019,0,0,0-1.21.39l-.438-.851a3.228,3.228,0,0,1,1.812-.508c1.281,0,2.023.594,2.023,1.866m-1.218,1.07v-.43h-.836c-.57,0-.749.211-.749.492,0,.3.258.507.687.507a.9.9,0,0,0,.9-.57" transform="translate(-60.452 -56.694)" fill="#263238"/>
            <path id="Trazado_180263" data-name="Trazado 180263" d="M166.99,153.4l.406-.875a2.874,2.874,0,0,0,1.46.406c.562,0,.773-.148.773-.382,0-.687-2.537.016-2.537-1.663,0-.8.718-1.358,1.944-1.358a3.459,3.459,0,0,1,1.617.367l-.406.867a2.417,2.417,0,0,0-1.211-.312c-.546,0-.78.171-.78.39,0,.718,2.537.023,2.537,1.679,0,.78-.726,1.335-1.983,1.335a3.607,3.607,0,0,1-1.82-.453" transform="translate(-63.313 -56.694)" fill="#263238"/>
            <path id="Trazado_180264" data-name="Trazado 180264" d="M173.669,153.4l.406-.875a2.874,2.874,0,0,0,1.46.406c.562,0,.773-.148.773-.382,0-.687-2.537.016-2.537-1.663,0-.8.718-1.358,1.944-1.358a3.457,3.457,0,0,1,1.617.367l-.406.867a2.417,2.417,0,0,0-1.211-.312c-.546,0-.78.171-.78.39,0,.718,2.537.023,2.537,1.679,0,.78-.726,1.335-1.983,1.335a3.607,3.607,0,0,1-1.82-.453" transform="translate(-65.845 -56.694)" fill="#263238"/>
            <path id="Trazado_180265" data-name="Trazado 180265" d="M187.284,149.632l-1.522,4.2H184.59l-.945-2.608-.976,2.608H181.5l-1.515-4.2h1.148l.992,2.842,1.031-2.842h1.031l1,2.842,1.023-2.842Z" transform="translate(-68.239 -56.732)" fill="#263238"/>
            <path id="Trazado_180266" data-name="Trazado 180266" d="M191.97,151.7a2.312,2.312,0,1,1,2.311,2.163,2.163,2.163,0,0,1-2.311-2.163m3.381,0a1.077,1.077,0,1,0-1.07,1.164,1.06,1.06,0,0,0,1.07-1.164" transform="translate(-72.784 -56.694)" fill="#263238"/>
            <path id="Trazado_180267" data-name="Trazado 180267" d="M203.32,149.532v1.124c-.1-.008-.179-.016-.273-.016a1.032,1.032,0,0,0-1.116,1.172V153.8h-1.219v-4.2h1.164v.554a1.693,1.693,0,0,1,1.444-.617" transform="translate(-76.099 -56.694)" fill="#263238"/>
            <path id="Trazado_180268" data-name="Trazado 180268" d="M210.118,147.067v5.794h-1.164v-.484a1.616,1.616,0,0,1-1.312.547,2.164,2.164,0,0,1,0-4.326,1.612,1.612,0,0,1,1.257.508v-2.038Zm-1.195,3.693a1.077,1.077,0,1,0-1.07,1.164,1.064,1.064,0,0,0,1.07-1.164" transform="translate(-77.93 -55.759)" fill="#263238"/>
            <path id="Trazado_180269" data-name="Trazado 180269" d="M124.847,191.953h-7.916a3.4,3.4,0,0,1-3.4-3.4V174.992a3.4,3.4,0,0,1,3.4-3.4h7.916a3.4,3.4,0,0,1,3.4,3.4v13.562a3.4,3.4,0,0,1-3.4,3.4" transform="translate(-43.045 -65.058)" fill="#ebebeb"/>
            <path id="Trazado_180270" data-name="Trazado 180270" d="M181.018,191.953H173.5a3.4,3.4,0,0,1-3.4-3.4V174.992a3.4,3.4,0,0,1,3.4-3.4h7.519a3.4,3.4,0,0,1,3.4,3.4v13.562a3.4,3.4,0,0,1-3.4,3.4" transform="translate(-64.492 -65.058)" fill="#ebebeb"/>
            <path id="Trazado_180271" data-name="Trazado 180271" d="M153.3,191.953h-7.519a3.4,3.4,0,0,1-3.4-3.4V174.992a3.4,3.4,0,0,1,3.4-3.4H153.3a3.4,3.4,0,0,1,3.4,3.4v13.562a3.4,3.4,0,0,1-3.4,3.4" transform="translate(-53.983 -65.058)" fill="#ebebeb"/>
            <path id="Trazado_180272" data-name="Trazado 180272" d="M209.009,191.953h-7.923a3.4,3.4,0,0,1-3.4-3.4V174.992a3.4,3.4,0,0,1,3.4-3.4h7.923a3.4,3.4,0,0,1,3.4,3.4v13.562a3.4,3.4,0,0,1-3.4,3.4" transform="translate(-74.951 -65.058)" fill="#ebebeb"/>
            <path id="Trazado_180273" data-name="Trazado 180273" d="M236.2,191.953h-7.923a3.4,3.4,0,0,1-3.4-3.4V174.992a3.4,3.4,0,0,1,3.4-3.4H236.2a3.4,3.4,0,0,1,3.4,3.4v13.562a3.4,3.4,0,0,1-3.4,3.4" transform="translate(-85.263 -65.058)" fill="#ebebeb"/>
            <path id="Trazado_180274" data-name="Trazado 180274" d="M125.8,185.372l1.574.852-.708,1.185-1.588-.939.029,1.747h-1.358l.015-1.761-1.589.953-.693-1.185,1.574-.852-1.574-.866.693-1.185,1.589.953-.015-1.762h1.358l-.029,1.762,1.588-.953.708,1.185Z" transform="translate(-46.06 -69.198)" fill="#79f5ed"/>
            <path id="Trazado_180275" data-name="Trazado 180275" d="M153.426,185.221l1.574.852-.708,1.185-1.588-.939.029,1.747h-1.357l.015-1.761-1.589.953-.693-1.185,1.575-.852-1.575-.866.693-1.185,1.589.953-.015-1.762h1.357l-.029,1.762,1.588-.953.708,1.185Z" transform="translate(-56.533 -69.141)" fill="#79f5ed"/>
            <path id="Trazado_180276" data-name="Trazado 180276" d="M181.716,185.221l1.574.852-.708,1.185-1.588-.939.029,1.747h-1.358l.015-1.761-1.588.953-.694-1.185,1.574-.852-1.574-.866.694-1.185,1.588.953-.015-1.762h1.358l-.029,1.762,1.588-.953.708,1.185Z" transform="translate(-67.259 -69.141)" fill="#79f5ed"/>
            <path id="Trazado_180277" data-name="Trazado 180277" d="M209.12,185.221l1.574.852-.708,1.185-1.588-.939.029,1.747h-1.358l.015-1.761-1.588.953-.694-1.185,1.574-.852-1.574-.866.694-1.185,1.588.953-.015-1.762h1.358l-.029,1.762,1.588-.953.708,1.185Z" transform="translate(-77.649 -69.141)" fill="#79f5ed"/>
            <path id="Trazado_180278" data-name="Trazado 180278" d="M124.7,192h-7.615a3.553,3.553,0,0,1-3.549-3.549V174.94a3.554,3.554,0,0,1,3.549-3.55H124.7a3.554,3.554,0,0,1,3.549,3.55v13.512A3.554,3.554,0,0,1,124.7,192m-7.615-20.36a3.3,3.3,0,0,0-3.3,3.3v13.512a3.3,3.3,0,0,0,3.3,3.3H124.7a3.3,3.3,0,0,0,3.3-3.3V174.94a3.3,3.3,0,0,0-3.3-3.3Z" transform="translate(-43.045 -64.981)" fill="#263238"/>
            <path id="Trazado_180279" data-name="Trazado 180279" d="M153.169,192h-7.615a3.554,3.554,0,0,1-3.55-3.549V174.94a3.554,3.554,0,0,1,3.55-3.55h7.615a3.554,3.554,0,0,1,3.549,3.55v13.512A3.554,3.554,0,0,1,153.169,192m-7.615-20.36a3.3,3.3,0,0,0-3.3,3.3v13.512a3.3,3.3,0,0,0,3.3,3.3h7.615a3.3,3.3,0,0,0,3.3-3.3V174.94a3.3,3.3,0,0,0-3.3-3.3Z" transform="translate(-53.84 -64.981)" fill="#263238"/>
            <path id="Trazado_180280" data-name="Trazado 180280" d="M180.859,192h-7.615a3.554,3.554,0,0,1-3.55-3.549V174.94a3.554,3.554,0,0,1,3.55-3.55h7.615a3.554,3.554,0,0,1,3.549,3.55v13.512A3.554,3.554,0,0,1,180.859,192m-7.615-20.36a3.3,3.3,0,0,0-3.3,3.3v13.512a3.3,3.3,0,0,0,3.3,3.3h7.615a3.3,3.3,0,0,0,3.3-3.3V174.94a3.3,3.3,0,0,0-3.3-3.3Z" transform="translate(-64.338 -64.981)" fill="#263238"/>
            <path id="Trazado_180281" data-name="Trazado 180281" d="M208.863,192h-7.615a3.553,3.553,0,0,1-3.549-3.549V174.94a3.554,3.554,0,0,1,3.549-3.55h7.615a3.554,3.554,0,0,1,3.549,3.55v13.512A3.554,3.554,0,0,1,208.863,192m-7.615-20.36a3.3,3.3,0,0,0-3.3,3.3v13.512a3.3,3.3,0,0,0,3.3,3.3h7.615a3.3,3.3,0,0,0,3.3-3.3V174.94a3.3,3.3,0,0,0-3.3-3.3Z" transform="translate(-74.956 -64.981)" fill="#263238"/>
            <path id="Trazado_180282" data-name="Trazado 180282" d="M236.054,192h-7.615a3.554,3.554,0,0,1-3.55-3.549V174.94a3.554,3.554,0,0,1,3.55-3.55h7.615a3.554,3.554,0,0,1,3.549,3.55v13.512A3.554,3.554,0,0,1,236.054,192m-7.615-20.36a3.3,3.3,0,0,0-3.3,3.3v13.512a3.3,3.3,0,0,0,3.3,3.3h7.615a3.3,3.3,0,0,0,3.3-3.3V174.94a3.3,3.3,0,0,0-3.3-3.3Z" transform="translate(-85.265 -64.981)" fill="#263238"/>
            <path id="Trazado_180283" data-name="Trazado 180283" d="M238.326,195.786a51.392,51.392,0,0,1-8.156,0,51.6,51.6,0,0,1,8.156,0" transform="translate(-87.267 -74.17)" fill="#79f5ed"/>
            <path id="Trazado_180284" data-name="Trazado 180284" d="M188.545,101.056A16.444,16.444,0,1,1,172.1,84.612a16.444,16.444,0,0,1,16.444,16.444" transform="translate(-59.016 -32.08)" fill="#79f5ed"/>
            <path id="Trazado_180285" data-name="Trazado 180285" d="M177.314,103.387h-.274v-1.535a3.208,3.208,0,0,1,6.415,0V103.1h-.274v-1.251a2.934,2.934,0,1,0-5.868,0Z" transform="translate(-67.124 -37.4)" fill="#5bb8b2"/>
            <path id="Trazado_180286" data-name="Trazado 180286" d="M182.905,116.922H174.75a1.354,1.354,0,0,1-1.352-1.353v-8.155a1.354,1.354,0,0,1,1.352-1.352h8.155a1.354,1.354,0,0,1,1.352,1.352v8.155a1.354,1.354,0,0,1-1.352,1.353m-8.155-10.586a1.08,1.08,0,0,0-1.079,1.078v8.155a1.081,1.081,0,0,0,1.079,1.08h8.155a1.081,1.081,0,0,0,1.079-1.08v-8.155a1.08,1.08,0,0,0-1.079-1.078Z" transform="translate(-65.743 -40.213)" fill="#5bb8b2"/>
            <path id="Trazado_180287" data-name="Trazado 180287" d="M181.425,113.676a1.28,1.28,0,1,1,1.28-1.28,1.282,1.282,0,0,1-1.28,1.28m0-2.286a1.006,1.006,0,1,0,1.006,1.006,1.007,1.007,0,0,0-1.006-1.006" transform="translate(-68.301 -42.129)" fill="#5bb8b2"/>
            <rect id="Rectángulo_38022" data-name="Rectángulo 38022" width="0.274" height="2.31" transform="translate(112.948 71.351)" fill="#5bb8b2"/>
            <path id="Trazado_180288" data-name="Trazado 180288" d="M265.833,69.576a5.079,5.079,0,1,1-5.079-5.079,5.079,5.079,0,0,1,5.079,5.079" transform="translate(-96.937 -24.454)" fill="#e0e0e0"/>
            <path id="Trazado_180289" data-name="Trazado 180289" d="M261.112,73.378a.153.153,0,0,1-.11-.045.156.156,0,0,1,0-.22l3.289-3.289a.155.155,0,0,1,.22.22l-3.289,3.289a.154.154,0,0,1-.11.045" transform="translate(-98.94 -26.456)" fill="#fff"/>
            <path id="Trazado_180290" data-name="Trazado 180290" d="M264.4,73.378a.153.153,0,0,1-.11-.045L261,70.044a.155.155,0,1,1,.22-.22l3.289,3.289a.156.156,0,0,1,0,.22.152.152,0,0,1-.109.045" transform="translate(-98.94 -26.456)" fill="#fff"/>
            <path id="Trazado_180291" data-name="Trazado 180291" d="M37.249,347.986s-16.4-18.88-22.594-37.76-3.25-16.713-3.25-16.713,8.357,18.339,14.7,27.2,17.642,21.858,17.642,21.858Z" transform="translate(-4.059 -111.255)" fill="#455a64"/>
            <path id="Trazado_180292" data-name="Trazado 180292" d="M57.629,298a.956.956,0,0,0-1.779.608c1,6.632,3.162,22.2,3.077,32.288-.11,13.112,0,18.181,0,18.181h6.828S64.546,321.968,63,313.7A56.728,56.728,0,0,0,57.629,298" transform="translate(-21.17 -112.798)" fill="#455a64"/>
            <path id="Trazado_180293" data-name="Trazado 180293" d="M64.718,345.442a72.287,72.287,0,0,0,5.619-20.385C70.9,320.23,69.9,313.708,68.4,305a54.01,54.01,0,0,1-.863-9.65,1.629,1.629,0,0,1,3.058-.764,43.343,43.343,0,0,1,3.815,9.642c1.653,8.6,3.526,12.892,2.094,21.046s-6.721,20.715-6.721,20.715Z" transform="translate(-24.537 -111.37)" fill="#455a64"/>
            <path id="Trazado_180294" data-name="Trazado 180294" d="M74.623,339.61s18.01-38.705,19.259-44.448,5.493-18.974,5.992-18.225,1.249,7.74-2,15.729-17.1,48.123-17.1,48.123h-6.15" transform="translate(-28.293 -104.987)" fill="#455a64"/>
            <path id="Trazado_180295" data-name="Trazado 180295" d="M42.4,344.457a3.668,3.668,0,0,1-.5-.347c-.32-.243-.805-.583-1.4-1.065a63.814,63.814,0,0,1-4.841-4.273A81.268,81.268,0,0,1,22.6,322a109.905,109.905,0,0,1-8.919-19.32c-.906-2.57-1.566-4.675-2-6.137-.22-.729-.371-1.3-.478-1.687a3.73,3.73,0,0,1-.14-.6,3.6,3.6,0,0,1,.214.574l.547,1.666c.472,1.447,1.171,3.535,2.108,6.089a116.842,116.842,0,0,0,8.994,19.217,84.8,84.8,0,0,0,12.927,16.774c1.927,1.915,3.577,3.375,4.744,4.35.574.5,1.044.858,1.348,1.12a3.622,3.622,0,0,1,.458.408" transform="translate(-4.194 -111.567)" fill="#263238"/>
            <path id="Trazado_180296" data-name="Trazado 180296" d="M61.891,327.662a6.538,6.538,0,0,1-.161-1.135c-.086-.8-.2-1.846-.332-3.1-.285-2.618-.73-6.23-1.367-10.2s-1.348-7.537-1.9-10.113c-.266-1.236-.487-2.262-.657-3.05a6.6,6.6,0,0,1-.2-1.129,6.5,6.5,0,0,1,.348,1.093c.2.71.468,1.743.777,3.026.618,2.565,1.372,6.134,2.013,10.112s1.041,7.6,1.257,10.231c.109,1.315.179,2.38.21,3.117a6.542,6.542,0,0,1,.012,1.147" transform="translate(-21.713 -113.339)" fill="#263238"/>
            <path id="Trazado_180297" data-name="Trazado 180297" d="M70.388,294.619a2.777,2.777,0,0,1,.212.492c.137.364.317.842.54,1.438.238.623.512,1.393.773,2.3s.615,1.933.875,3.1q.213.872.446,1.82c.151.634.258,1.3.4,1.992.294,1.374.476,2.864.694,4.428a72.033,72.033,0,0,1,.43,10.258,72.013,72.013,0,0,1-1.163,10.2c-.33,1.545-.618,3.018-1.01,4.368-.187.677-.341,1.337-.538,1.959l-.575,1.784c-.343,1.144-.763,2.141-1.1,3.028s-.654,1.638-.936,2.243c-.266.578-.479,1.042-.641,1.4a2.872,2.872,0,0,1-.247.475,2.786,2.786,0,0,1,.176-.507c.145-.36.336-.833.574-1.422.26-.612.567-1.366.872-2.261s.712-1.891,1.037-3.035l.549-1.783c.188-.621.335-1.281.515-1.956.376-1.347.651-2.815.97-4.353a74.9,74.9,0,0,0,1.127-10.151,74.829,74.829,0,0,0-.4-10.2c-.207-1.557-.376-3.041-.656-4.411-.131-.686-.23-1.355-.373-1.987l-.42-1.818c-.243-1.165-.571-2.19-.818-3.1s-.492-1.688-.708-2.318c-.2-.6-.352-1.09-.471-1.46a2.818,2.818,0,0,1-.14-.518" transform="translate(-25.99 -111.703)" fill="#263238"/>
            <path id="Trazado_180298" data-name="Trazado 180298" d="M101.466,278.209a.6.6,0,0,1-.014.174c-.022.136-.048.3-.079.5-.079.44-.179,1.094-.355,1.927-.348,1.665-.928,4.061-1.828,6.968S97.061,294.1,95.6,297.842s-3.142,7.83-4.741,12.176c-1.624,4.338-2.874,8.573-4.049,12.416s-2.27,7.3-3.338,10.148A64.827,64.827,0,0,1,80.63,339.2c-.369.767-.7,1.339-.915,1.731l-.252.443a.588.588,0,0,1-.1.145.586.586,0,0,1,.063-.163l.218-.46c.192-.4.5-.986.849-1.761.725-1.534,1.7-3.79,2.723-6.648s2.108-6.305,3.253-10.157,2.4-8.1,4.028-12.446c1.6-4.356,3.3-8.436,4.772-12.172S98,290.588,98.929,287.7s1.55-5.267,1.941-6.918c.2-.826.322-1.473.425-1.909l.117-.5a.612.612,0,0,1,.053-.166" transform="translate(-30.091 -105.481)" fill="#263238"/>
            <path id="Trazado_180299" data-name="Trazado 180299" d="M23.905,264.165a1.55,1.55,0,0,0-2.553,1.581,44.426,44.426,0,0,0,2.263,5.82c2.476,5.261,9.75,24.141,13.154,34.51s8.2,29.712,8.2,29.712l7.27-1.179s-6.651-31.784-13.151-43.235c-5.222-9.2-10.445-22.5-15.186-27.209" transform="translate(-8.068 -99.987)" fill="#455a64"/>
            <path id="Trazado_180300" data-name="Trazado 180300" d="M49.431,342.389a4.519,4.519,0,0,1,.375.871c.215.571.508,1.4.838,2.441.669,2.074,1.489,4.971,2.314,8.189s1.509,6.148,1.987,8.271l.548,2.519a4.526,4.526,0,0,1,.15.936,4.427,4.427,0,0,1-.3-.9c-.178-.663-.4-1.5-.666-2.491-.556-2.187-1.288-5.061-2.1-8.24-.824-3.214-1.6-6.116-2.2-8.205l-.72-2.472a4.494,4.494,0,0,1-.233-.919" transform="translate(-18.74 -129.814)" fill="#263238"/>
            <path id="Trazado_180301" data-name="Trazado 180301" d="M49.135,335.4a.781.781,0,0,1-.041-.194l-.083-.572c-.076-.5-.144-1.249-.3-2.2-.266-1.91-.743-4.663-1.524-8.02a114.8,114.8,0,0,0-3.4-11.615c-1.491-4.308-3.362-8.961-5.482-13.778-4.277-9.621-8.549-18.156-11.357-24.467-1.419-3.148-2.518-5.718-3.241-7.508-.369-.893-.633-1.594-.818-2.068l-.2-.542a.753.753,0,0,1-.056-.19.755.755,0,0,1,.093.175c.063.139.14.313.237.527l.883,2.039c.766,1.771,1.9,4.322,3.351,7.453,2.869,6.277,7.179,14.788,11.462,24.424,2.123,4.824,3.988,9.493,5.465,13.818a109.374,109.374,0,0,1,3.333,11.67,81.234,81.234,0,0,1,1.407,8.061c.131.957.175,1.707.227,2.213.018.235.033.424.045.577a.759.759,0,0,1,0,.2" transform="translate(-8.58 -100.186)" fill="#263238"/>
            <path id="Trazado_180302" data-name="Trazado 180302" d="M66.287,359.247a7.773,7.773,0,0,1-.245-1.222c-.145-.854-.335-1.98-.566-3.342-.5-2.817-1.267-6.7-2.366-10.919s-2.316-7.987-3.26-10.688l-1.137-3.193a7.884,7.884,0,0,1-.387-1.184,7.581,7.581,0,0,1,.526,1.129c.313.738.751,1.812,1.253,3.155a105.679,105.679,0,0,1,3.376,10.684,111.129,111.129,0,0,1,2.262,10.972c.207,1.419.365,2.568.446,3.366a7.723,7.723,0,0,1,.1,1.242" transform="translate(-22.113 -124.624)" fill="#263238"/>
            <rect id="Rectángulo_38023" data-name="Rectángulo 38023" width="28.378" height="34.576" transform="translate(30.717 233.578)" fill="#7cc6c1"/>
            <g id="Grupo_112552" data-name="Grupo 112552" transform="translate(30.718 233.578)" opacity="0.3">
              <g id="Grupo_112551" data-name="Grupo 112551">
                <g id="Grupo_112550" data-name="Grupo 112550" clip-path="url(#clip-path-3)">
                  <rect id="Rectángulo_38024" data-name="Rectángulo 38024" width="28.378" height="34.576" transform="translate(0 0)" fill="#7cc6c1"/>
                </g>
              </g>
            </g>
            <rect id="Rectángulo_38026" data-name="Rectángulo 38026" width="25.177" height="34.576" transform="translate(24.867 233.578)" fill="#79f5ed"/>
            <path id="Trazado_180303" data-name="Trazado 180303" d="M329.858,251l-14.92-2.164-29.845,4.416-8.377,2.961L278.2,274.53l28.694,5.285,19.363-5.737,7.32-10.771Z" transform="translate(-104.915 -94.345)" fill="#ffc09d"/>
            <path id="Trazado_180304" data-name="Trazado 180304" d="M331.115,253.347,318.628,250.4s-8.827,27.29-30.613,26.115c-17.757-.957-17.959-20.777-17.959-20.777l-12.8,4.1s-4.895,32.824.524,56.078c1.266,5.433,2.961,12.758,2.961,12.758l-1.73,33.976,94.641.151Z" transform="translate(-96.769 -94.939)" fill="#79f5ed"/>
            <g id="Grupo_112555" data-name="Grupo 112555" transform="translate(197.246 253.179)" opacity="0.3">
              <g id="Grupo_112554" data-name="Grupo 112554">
                <g id="Grupo_112553" data-name="Grupo 112553" clip-path="url(#clip-path-4)">
                  <path id="Trazado_180305" data-name="Trazado 180305" d="M317.7,415.728c4.6-.114,8.856.276,13.461.162,5.528-.136,11.095-.27,16.551.63,4.088.674,8.067,1.921,12.16,2.567,5.578.88,11.537.566,16.5-2.122l-.8-4.635-18.859-4.54Z" transform="translate(-317.7 -407.79)"/>
                </g>
              </g>
            </g>
            <path id="Trazado_180306" data-name="Trazado 180306" d="M227.34,273.085c4.328-5.591,11.526-7.917,11.526-7.917l4.84,42.154-9.17,61.375-30.035-.143s16.566-87.366,22.838-95.469" transform="translate(-77.536 -100.537)" fill="#79f5ed"/>
            <path id="Trazado_180307" data-name="Trazado 180307" d="M371.881,254.642s20.216,1.62,27.469,34.74c3.281,14.981,7.426,32.537,8.621,44.337.867,8.558-3.785,21.957-12.317,23.053l-10.727,1.442a17.7,17.7,0,0,1-6.319-.234c-6.775-1.556-7.465-6.2-8.658-11.145l-3.132-9.885c-1.712-9.4,7.045-11.152,11.882-11.048L375.093,283Z" transform="translate(-138.994 -96.546)" fill="#79f5ed"/>
            <path id="Trazado_180308" data-name="Trazado 180308" d="M255.269,302.917a2.52,2.52,0,0,0-.092.462c-.052.336-.119.78-.2,1.335q-.063.441-.139.966-.055.536-.117,1.155c-.084.829-.185,1.773-.228,2.821a69.539,69.539,0,0,0-.05,7.367,88.711,88.711,0,0,0,.895,8.977c.464,3.168,1.049,6.162,1.642,8.87s1.178,5.133,1.682,7.167.941,3.672,1.25,4.8c.15.541.271.973.361,1.3a2.606,2.606,0,0,0,.147.448,2.526,2.526,0,0,0-.084-.464c-.076-.331-.177-.768-.3-1.315l-1.15-4.825c-.474-2.04-1.047-4.466-1.612-7.176s-1.15-5.7-1.613-8.854-.784-6.182-.917-8.944c-.117-2.76-.143-5.253-.019-7.341.029-1.045.114-1.988.18-2.816l.091-1.155q.06-.526.111-.967l.143-1.341a2.546,2.546,0,0,0,.028-.471" transform="translate(-96.442 -114.849)" fill="#263238"/>
            <path id="Trazado_180309" data-name="Trazado 180309" d="M401.887,380.948a3.64,3.64,0,0,0-.16-.833,13.34,13.34,0,0,0-.781-2.179A14.859,14.859,0,0,0,389.08,369.3a13.33,13.33,0,0,0-2.313-.073,3.652,3.652,0,0,0-.842.1,30.482,30.482,0,0,1,3.126.2,15.294,15.294,0,0,1,11.688,8.507,30.276,30.276,0,0,1,1.148,2.914" transform="translate(-146.321 -139.982)" fill="#263238"/>
            <path id="Trazado_180310" data-name="Trazado 180310" d="M397.28,361.514a1.434,1.434,0,0,0-.489-.046,10.588,10.588,0,0,0-1.332.059,15.38,15.38,0,0,0-8.053,3.312,10.462,10.462,0,0,0-.988.9c-.218.227-.33.36-.315.376.037.039.546-.433,1.443-1.09a17.771,17.771,0,0,1,7.942-3.266c1.1-.163,1.793-.186,1.792-.24" transform="translate(-146.388 -137.047)" fill="#263238"/>
            <path id="Trazado_180311" data-name="Trazado 180311" d="M370.338,279.433a4.8,4.8,0,0,0,.048-.885c0-.569.037-1.392.107-2.4a38.534,38.534,0,0,1,4.257-15.164c.468-.9.868-1.621,1.16-2.109a4.641,4.641,0,0,0,.419-.782,4.676,4.676,0,0,0-.526.715c-.327.469-.759,1.175-1.255,2.068a34.825,34.825,0,0,0-4.283,15.259c-.042,1.021-.039,1.848,0,2.419a4.683,4.683,0,0,0,.078.884" transform="translate(-140.372 -97.853)" fill="#263238"/>
            <path id="Trazado_180312" data-name="Trazado 180312" d="M308.035,340.9a1.5,1.5,0,0,0,.091.349c.076.223.165.562.335.977a20.3,20.3,0,0,0,1.684,3.407,21.883,21.883,0,0,0,21.46,10.3,20.3,20.3,0,0,0,3.712-.816c.43-.127.75-.269.972-.349a1.508,1.508,0,0,0,.329-.147c-.01-.027-.479.134-1.337.376a22.92,22.92,0,0,1-3.7.71,22.02,22.02,0,0,1-21.239-10.2,22.916,22.916,0,0,1-1.761-3.333c-.348-.822-.516-1.288-.543-1.279" transform="translate(-116.789 -129.25)" fill="#263238"/>
            <path id="Trazado_180313" data-name="Trazado 180313" d="M376.659,411c.033-.029.351.422,1.105,1.044a10.111,10.111,0,0,0,3.7,1.766,19.693,19.693,0,0,0,6.088.535c2.31-.166,4.856-.437,7.5-.83a38.3,38.3,0,0,0,7.323-1.688,9.357,9.357,0,0,0,2.692-1.8,14.388,14.388,0,0,0,1.882-2.138,20.142,20.142,0,0,0,2.066-3.586c.193-.45.344-.8.433-1.043a1.855,1.855,0,0,1,.161-.362,1.824,1.824,0,0,1-.1.384c-.07.25-.2.61-.379,1.071a18.46,18.46,0,0,1-2,3.67,14.278,14.278,0,0,1-1.884,2.2,9.516,9.516,0,0,1-2.757,1.875,37.17,37.17,0,0,1-7.393,1.733c-2.662.395-5.205.656-7.536.808a19.384,19.384,0,0,1-6.165-.612,9.806,9.806,0,0,1-3.72-1.889,6.562,6.562,0,0,1-.789-.822,1.816,1.816,0,0,1-.235-.319" transform="translate(-142.807 -152.759)" fill="#263238"/>
            <path id="Trazado_180314" data-name="Trazado 180314" d="M371.283,309.47c.087-.022,2.218,8.254,4.76,18.482s4.533,18.541,4.447,18.562-2.218-8.252-4.761-18.484-4.533-18.539-4.447-18.56" transform="translate(-140.769 -117.334)" fill="#263238"/>
            <path id="Trazado_180315" data-name="Trazado 180315" d="M367.036,378.8a2.662,2.662,0,0,1-.1-.68,11.485,11.485,0,0,1-.043-1.879,5.458,5.458,0,0,1,.908-2.651,7.945,7.945,0,0,1,1.037-1.3,7.178,7.178,0,0,1,1.437-1.069,17.991,17.991,0,0,1,5.884-1.9,16.483,16.483,0,0,1,1.868-.166,2.536,2.536,0,0,1,.688.025c0,.055-.974.091-2.519.367a19.735,19.735,0,0,0-5.76,1.954,7.068,7.068,0,0,0-1.378,1.016,8.006,8.006,0,0,0-1.009,1.239,5.4,5.4,0,0,0-.93,2.51,15.914,15.914,0,0,0-.059,1.851,2.942,2.942,0,0,1-.023.687" transform="translate(-139.096 -139.961)" fill="#263238"/>
            <g id="Grupo_112558" data-name="Grupo 112558" transform="translate(155.746 186.702)" opacity="0.3">
              <g id="Grupo_112557" data-name="Grupo 112557">
                <g id="Grupo_112556" data-name="Grupo 112556" clip-path="url(#clip-path-5)">
                  <path id="Trazado_180316" data-name="Trazado 180316" d="M254.868,329.891c-5.157-8.734-5.268-20.085-.769-29.176a81.617,81.617,0,0,0,.921,29.137" transform="translate(-250.856 -300.716)"/>
                </g>
              </g>
            </g>
            <path id="Trazado_180317" data-name="Trazado 180317" d="M301.29,382.829l.037.017-.037-.017" transform="translate(-114.232 -145.147)" fill="#ffc09d"/>
            <path id="Trazado_180318" data-name="Trazado 180318" d="M301.646,383l.082.039-.082-.039" transform="translate(-114.367 -145.212)" fill="#ffc09d"/>
            <path id="Trazado_180319" data-name="Trazado 180319" d="M301.349,382.857l.184.088-.184-.088" transform="translate(-114.255 -145.158)" fill="#ffc09d"/>
            <path id="Trazado_180320" data-name="Trazado 180320" d="M301.158,382.766l.081.039-.081-.039" transform="translate(-114.182 -145.123)" fill="#ffc09d"/>
            <path id="Trazado_180321" data-name="Trazado 180321" d="M270.058,399.22c1.623-3.07,14.306-11.165,14.306-11.165l-3.433-.793-3.79,1.6a9.33,9.33,0,0,1-1.631,3.551c-1.394,1.988-3.761-.068-3.761-.068l1.6-7.677,7.5-4.514s7.057,1.078,8.2,1.622l3.009,2.753c1.32,1.034,5.131,5.115,6.174,5.239s33.78-7.241,33.78-7.241c4.488,3.554,6.853,10.616,7.566,15.71,0,0,.8,2.5-.07,3.86l-40.189,3.153L290.8,407.6a59.9,59.9,0,0,1-7,2.4c-2.833.6-4.743-.318-4.818-1.886s2.121-1.738,2.121-1.738a43.246,43.246,0,0,0,5.476-2.408,9.614,9.614,0,0,0,3.091-3.392l-3.037.363s-6.454,4.48-8.881,5.794-2.906-1.1-3.1-1.832,7.25-8.018,7.25-8.018-7.08,4.365-8.353,5.465-3.16,1.431-3.565.692-1.553-.759.07-3.829" transform="translate(-102.071 -144.133)" fill="#ffc09d"/>
            <path id="Trazado_180322" data-name="Trazado 180322" d="M301.778,383.062l.071.034-.071-.034" transform="translate(-114.417 -145.235)" fill="#ffc09d"/>
            <path id="Trazado_180323" data-name="Trazado 180323" d="M301.956,383.146h0" transform="translate(-114.485 -145.267)" fill="#ffc09d"/>
            <path id="Trazado_180324" data-name="Trazado 180324" d="M301.893,383.116l.039.019-.039-.019" transform="translate(-114.461 -145.256)" fill="#ffc09d"/>
            <path id="Trazado_180325" data-name="Trazado 180325" d="M322.7,405.8a1.6,1.6,0,0,0,.038-.5,2.958,2.958,0,0,0-.039-.585,4.362,4.362,0,0,0-.14-.765,10.794,10.794,0,0,0-2.057-3.966,23.087,23.087,0,0,0-3.1-3.218,9.146,9.146,0,0,0-1.46-1.131,14.69,14.69,0,0,0,1.319,1.286,29.684,29.684,0,0,1,3,3.245,11.807,11.807,0,0,1,2.09,3.837c.315,1.08.282,1.795.344,1.793" transform="translate(-119.789 -150.003)" fill="#ff9b6c"/>
            <path id="Trazado_180326" data-name="Trazado 180326" d="M294.088,391.667a4.679,4.679,0,0,0,4.008-1.345c-.055-.071-.829.5-1.938.869s-2.069.387-2.069.477" transform="translate(-111.501 -147.985)" fill="#ff9b6c"/>
            <path id="Trazado_180327" data-name="Trazado 180327" d="M290.694,404.433a39.559,39.559,0,0,0,6.345-2.61,39.537,39.537,0,0,0-6.345,2.61" transform="translate(-110.214 -152.346)" fill="#ff9b6c"/>
            <path id="Trazado_180328" data-name="Trazado 180328" d="M301.647,412.155a26.963,26.963,0,0,0,3.27-1.278,6.534,6.534,0,0,0-3.27,1.278" transform="translate(-114.367 -155.773)" fill="#ff9b6c"/>
            <path id="Trazado_180329" data-name="Trazado 180329" d="M292.374,406.923a4.134,4.134,0,0,1,1.972,2.592c.037,0,.074-.2.025-.523a2.7,2.7,0,0,0-1.486-1.953c-.3-.134-.5-.15-.511-.116" transform="translate(-110.851 -154.276)" fill="#ff9b6c"/>
            <path id="Trazado_180330" data-name="Trazado 180330" d="M287.577,399.367c-.039.078.516.378.882,1.021a8.149,8.149,0,0,1,.456,1.27,1.51,1.51,0,0,0-.2-1.42c-.424-.736-1.126-.951-1.139-.872" transform="translate(-109.032 -151.412)" fill="#ff9b6c"/>
            <path id="Trazado_180331" data-name="Trazado 180331" d="M288.8,384.2c.033.016.149-.124.237-.4a2.18,2.18,0,0,0-.508-2.1c-.2-.2-.372-.276-.394-.247a3.342,3.342,0,0,1,.664,2.748" transform="translate(-109.242 -144.622)" fill="#ff9b6c"/>
            <path id="Trazado_180332" data-name="Trazado 180332" d="M377.96,404.405a5.091,5.091,0,0,1-.054-.923c0-.3-.011-.659-.042-1.08s-.038-.9-.1-1.426a32.167,32.167,0,0,0-1.754-8.053,29.1,29.1,0,0,0-1.9-4.121c-.369-.593-.692-1.174-1.063-1.674l-.516-.736-.516-.649c-1.334-1.642-2.358-2.482-2.31-2.534a5.067,5.067,0,0,1,.721.581,8.429,8.429,0,0,1,.789.747,13.855,13.855,0,0,1,.975,1.061l.538.644c.179.231.351.481.538.734.384.5.721,1.082,1.1,1.678a27.382,27.382,0,0,1,1.951,4.16,29.493,29.493,0,0,1,1.678,8.147c.048.531.042,1.014.052,1.438s0,.788-.013,1.085a5.081,5.081,0,0,1-.072.923" transform="translate(-140.169 -145.29)" fill="#263238"/>
            <g id="Grupo_112561" data-name="Grupo 112561" transform="translate(239.671 228.869)" opacity="0.3">
              <g id="Grupo_112560" data-name="Grupo 112560">
                <g id="Grupo_112559" data-name="Grupo 112559" clip-path="url(#clip-path-6)">
                  <path id="Trazado_180333" data-name="Trazado 180333" d="M397.942,370.163a20.2,20.2,0,0,0-11.91-1.083,16.458,16.458,0,0,1,16.07,10.392c.291.772.862,1.683,1.679,1.561.76-.112,1.043-1.064,1.044-1.831,0-4.016-3.177-7.491-6.882-9.039" transform="translate(-386.033 -368.634)"/>
                </g>
              </g>
            </g>
            <path id="Trazado_180334" data-name="Trazado 180334" d="M248.448,293.182a1.909,1.909,0,0,1-.537-.181c-.339-.133-.818-.351-1.4-.64a29.868,29.868,0,0,1-8.142-6.016c-.448-.472-.8-.866-1.023-1.15a1.913,1.913,0,0,1-.33-.461,20.967,20.967,0,0,1,1.515,1.45,37.877,37.877,0,0,0,8.087,5.976,20.72,20.72,0,0,1,1.83,1.023" transform="translate(-89.862 -107.955)" fill="#fff"/>
            <path id="Trazado_180335" data-name="Trazado 180335" d="M327.234,302.11a.817.817,0,0,1-.156.107l-.476.285c-.417.255-1.048.6-1.869,1.032a52.191,52.191,0,0,1-7.235,3.043,68.847,68.847,0,0,1-11.318,2.721,109.165,109.165,0,0,1-14.206,1.18c-5.058.121-9.875.025-14.254-.073a95.47,95.47,0,0,1-11.609-.876,45.3,45.3,0,0,1-7.645-1.776c-.878-.3-1.554-.548-2-.741l-.512-.214a.861.861,0,0,1-.17-.083.784.784,0,0,1,.182.052l.523.184c.455.174,1.136.4,2.017.682a48.253,48.253,0,0,0,7.639,1.67,99.524,99.524,0,0,0,11.583.8c4.376.082,9.191.168,14.239.047A111.939,111.939,0,0,0,306.133,309a70.7,70.7,0,0,0,11.292-2.644,56.173,56.173,0,0,0,7.251-2.939c.827-.414,1.467-.741,1.893-.977l.492-.257a.819.819,0,0,1,.173-.078" transform="translate(-96.978 -114.543)" fill="#fff"/>
            <path id="Trazado_180336" data-name="Trazado 180336" d="M244.091,334.213a3.669,3.669,0,0,1-.77-.165l-2.066-.564c-1.74-.491-4.139-1.189-6.782-1.979s-5.031-1.524-6.755-2.07l-2.036-.663a3.7,3.7,0,0,1-.734-.285,3.727,3.727,0,0,1,.77.164l2.066.564c1.74.49,4.139,1.189,6.782,1.979s5.03,1.523,6.754,2.07l2.036.662a3.687,3.687,0,0,1,.734.286" transform="translate(-85.287 -124.542)" fill="#fff"/>
            <path id="Trazado_180337" data-name="Trazado 180337" d="M241.837,387.973c-.026.086-6.225-1.693-13.845-3.973s-13.78-4.2-13.754-4.283,6.224,1.693,13.847,3.973,13.778,4.2,13.753,4.283" transform="translate(-81.227 -143.966)" fill="#fff"/>
            <path id="Trazado_180338" data-name="Trazado 180338" d="M391.156,273.439a4.448,4.448,0,0,1-.684.54c-.451.332-1.119.79-1.959,1.337a66.642,66.642,0,0,1-14.021,6.886c-.946.33-1.717.579-2.256.733a4.541,4.541,0,0,1-.844.211,4.539,4.539,0,0,1,.805-.331l2.216-.828c1.865-.712,4.416-1.766,7.15-3.106s5.126-2.718,6.829-3.759l2.01-1.247a4.554,4.554,0,0,1,.754-.435" transform="translate(-140.811 -103.672)" fill="#fff"/>
            <path id="Trazado_180339" data-name="Trazado 180339" d="M406.294,330.256a7.475,7.475,0,0,1-1.008.478c-.655.293-1.62.679-2.824,1.122a65.659,65.659,0,0,1-19.61,3.9c-1.282.052-2.321.065-3.038.045a7.292,7.292,0,0,1-1.113-.055,7.282,7.282,0,0,1,1.111-.07c.716-.019,1.751-.066,3.028-.148a74.573,74.573,0,0,0,19.545-3.887c1.211-.413,2.185-.766,2.853-1.022a7.338,7.338,0,0,1,1.055-.361" transform="translate(-143.582 -125.214)" fill="#fff"/>
            <path id="Trazado_180340" data-name="Trazado 180340" d="M389.631,401.618a1.458,1.458,0,0,1,.032-.346c.04-.259.091-.582.153-.978.076-.423.16-.941.217-1.549s.17-1.293.2-2.061q.035-.576.073-1.2c.024-.418.01-.854.017-1.3.028-.9-.038-1.863-.085-2.875a39.05,39.05,0,0,0-3.081-12.756c-.42-.922-.8-1.808-1.237-2.6-.212-.4-.4-.792-.61-1.152l-.613-1.036c-.375-.67-.783-1.232-1.116-1.743s-.64-.937-.9-1.279l-.583-.8a1.42,1.42,0,0,1-.186-.293,1.367,1.367,0,0,1,.237.252l.632.765a15.386,15.386,0,0,1,.949,1.251c.349.5.773,1.06,1.162,1.727l.635,1.032c.219.36.413.754.632,1.152.449.79.842,1.678,1.273,2.6a37.648,37.648,0,0,1,3.105,12.854c.039,1.021.1,1.99.056,2.9-.013.454-.006.893-.036,1.313s-.064.822-.094,1.208c-.042.771-.166,1.46-.246,2.067a15.513,15.513,0,0,1-.273,1.547c-.087.392-.157.712-.214.969a1.392,1.392,0,0,1-.1.333" transform="translate(-144.798 -140.149)" fill="#fff"/>
            <path id="Trazado_180341" data-name="Trazado 180341" d="M415.475,381.668c-.035,0-.051-.505-.192-1.4a12.139,12.139,0,0,0-1.219-3.617,15.2,15.2,0,0,0-3.508-4.422,18.4,18.4,0,0,0-5.965-3.489,23.347,23.347,0,0,0-6.836-1.205,44.171,44.171,0,0,0-5.7.214c-1.621.153-2.93.315-3.836.418l-1.044.112a1.578,1.578,0,0,1-.367.018,1.559,1.559,0,0,1,.358-.083l1.036-.173c.9-.142,2.207-.338,3.83-.521a41.217,41.217,0,0,1,5.735-.284,23.1,23.1,0,0,1,6.932,1.2,18.358,18.358,0,0,1,6.055,3.572,15.071,15.071,0,0,1,3.515,4.542,11.52,11.52,0,0,1,1.139,3.7,7.78,7.78,0,0,1,.073,1.052,1.547,1.547,0,0,1-.006.367" transform="translate(-146.655 -139.231)" fill="#fff"/>
            <path id="Trazado_180342" data-name="Trazado 180342" d="M304.132,361.537a1.477,1.477,0,0,1-.351.059l-1.011.1-3.725.312c-3.146.243-7.5.539-12.3.791s-9.169.4-12.326.437c-1.578.011-2.856.017-3.739-.011l-1.016-.032a.179.179,0,1,1,0-.065l1.016-.029,3.733-.091c3.153-.092,7.506-.279,12.314-.532l12.307-.7,3.731-.21,1.015-.044a1.507,1.507,0,0,1,.356.006" transform="translate(-102.106 -137.071)" fill="#fff"/>
            <g id="Grupo_112564" data-name="Grupo 112564" transform="translate(195.062 218.582)" opacity="0.3">
              <g id="Grupo_112563" data-name="Grupo 112563">
                <g id="Grupo_112562" data-name="Grupo 112562" clip-path="url(#clip-path-7)">
                  <path id="Trazado_180343" data-name="Trazado 180343" d="M324.754,359.239c3.913,1.151,9.333,1.432,13.145-.021-2.983,4.235-8.739,5.771-13.732,4.391s-9.6-6.378-9.984-11.544a21.373,21.373,0,0,0,10.571,7.174" transform="translate(-314.182 -352.065)"/>
                </g>
              </g>
            </g>
            <path id="Trazado_180344" data-name="Trazado 180344" d="M363.1,357.025a1.222,1.222,0,0,1-.311.089l-.9.191c-.786.161-1.926.375-3.339.622-2.824.5-6.741,1.1-11.084,1.637s-8.294.883-11.154,1.081c-1.43.1-2.589.168-3.39.2l-.923.032a.163.163,0,1,1,0-.065l.919-.092,3.38-.3c2.854-.257,6.793-.645,11.133-1.175s8.256-1.1,11.087-1.541l3.354-.52.914-.132a1.212,1.212,0,0,1,.323-.024" transform="translate(-125.752 -135.362)" fill="#fff"/>
            <g id="Grupo_112567" data-name="Grupo 112567" transform="translate(230.658 194.021)" opacity="0.3">
              <g id="Grupo_112566" data-name="Grupo 112566">
                <g id="Grupo_112565" data-name="Grupo 112565" clip-path="url(#clip-path-8)">
                  <path id="Trazado_180345" data-name="Trazado 180345" d="M371.7,312.506c-.98,11.237,2.083,22.391,5.116,33.256a4.712,4.712,0,0,0,.835,1.874,1.611,1.611,0,0,0,1.85.513c.947-.479.821-1.851.553-2.878l-8.437-32.307" transform="translate(-371.516 -312.506)"/>
                </g>
              </g>
            </g>
            <path id="Trazado_180346" data-name="Trazado 180346" d="M118.587,328.771l12.761,62.645H242.106a2.212,2.212,0,0,0,0-4.424h-22.3l-11.83-58.261a2.419,2.419,0,0,0-2.344-1.937l-84.651-.924a2.419,2.419,0,0,0-2.4,2.9" transform="translate(-44.943 -123.551)" fill="#e0e0e0"/>
            <path id="Trazado_180347" data-name="Trazado 180347" d="M118.581,328.751s-.014-.063-.035-.188a2.163,2.163,0,0,1-.011-.569,2.433,2.433,0,0,1,1.172-1.831,2.511,2.511,0,0,1,.731-.29,3.886,3.886,0,0,1,.872-.054l1.993.016,4.984.041,32.008.3,22.313.225,12.5.129,6.557.068,3.351.035c.286.007.553,0,.857.021a2.536,2.536,0,0,1,.856.247,2.562,2.562,0,0,1,1.216,1.275,3.968,3.968,0,0,1,.232.852l.171.842q.172.844.345,1.694.346,1.7.7,3.42.7,3.442,1.418,6.968,1.434,7.053,2.934,14.424c2,9.821,4.073,20.038,6.213,30.564l-.148-.121,12.841,0h9.086a4.077,4.077,0,0,1,.862.052,2.367,2.367,0,0,1,.635,4.393,2.4,2.4,0,0,1-1.042.281l-1.022,0H229.078l-15.748,0-29.985-.007-52-.026h-.1l-.019-.094c-3.9-19.255-7.073-34.918-9.272-45.773l-2.517-12.515c-.284-1.43-.5-2.524-.648-3.264s-.209-1.116-.209-1.116.088.375.243,1.109l.681,3.258,2.579,12.5c2.223,10.849,5.429,26.506,9.372,45.752l-.115-.094,52-.026,29.985-.008,15.748,0h12.086l1.011,0a2.047,2.047,0,0,0,1.959-1.744,2.057,2.057,0,0,0-1.6-2.325,3.794,3.794,0,0,0-.8-.045H219.68l-.025-.121-6.2-30.567-2.925-14.426-1.412-6.97q-.349-1.721-.693-3.42-.172-.85-.343-1.694l-.171-.842a3.75,3.75,0,0,0-.214-.8,2.3,2.3,0,0,0-1.088-1.142,2.269,2.269,0,0,0-.766-.222c-.258-.023-.556-.014-.832-.02l-3.351-.038-6.556-.076-12.5-.144-22.312-.262-32.007-.4-4.983-.068-1.993-.028a3.771,3.771,0,0,0-.857.046,2.463,2.463,0,0,0-.716.277A2.416,2.416,0,0,0,118.564,328a3.2,3.2,0,0,0,.017.754" transform="translate(-44.937 -123.531)" fill="#263238"/>
            <path id="Trazado_180348" data-name="Trazado 180348" d="M196.355,374.486a3.658,3.658,0,1,1-3.658-3.658,3.658,3.658,0,0,1,3.658,3.658" transform="translate(-71.673 -140.597)" fill="#fff"/>
            <path id="Trazado_180349" data-name="Trazado 180349" d="M118.784,331.349s.129-.009.381-.012l1.12-.006,4.306.005,15.837.077,52.248.368,7.556.061,1.856.015a4.836,4.836,0,0,1,.949.057,2.646,2.646,0,0,1,2.022,1.889c.138.612.241,1.192.363,1.786l2.7,13.607c1.714,8.672,3.258,16.482,4.555,23.044S215,384.1,215.721,387.78c.351,1.828.625,3.251.813,4.228l.2,1.1c.044.249.059.378.059.378s-.035-.125-.089-.371-.133-.621-.234-1.1c-.2-.975-.494-2.393-.869-4.217l-3.14-15.521-4.619-23.031-2.717-13.6c-.12-.584-.231-1.195-.36-1.765a2.341,2.341,0,0,0-1.791-1.671,4.589,4.589,0,0,0-.891-.051l-1.856-.014-7.556-.059-52.247-.458-15.836-.174-4.306-.063-1.12-.024c-.252-.007-.381-.019-.381-.019" transform="translate(-45.036 -125.622)" fill="#263238"/>
            <path id="Trazado_180350" data-name="Trazado 180350" d="M345.462,178.117a41.007,41.007,0,0,1-13.089,30.962l-5.849-16.947" transform="translate(-123.799 -67.532)" fill="#263238"/>
            <path id="Trazado_180351" data-name="Trazado 180351" d="M280.233,122.23c5.022-2.744,11.088-3.139,16.7-2.015s10.841,3.664,15.795,6.53a25.81,25.81,0,0,1,7.548,5.889c3.646,4.588,7.25,12.122,7.6,17.973.284,4.73-1.527,16.572-3.526,20.868-1.835,3.942-10.421,6.944-14.66,7.917L270.8,134.163a19.688,19.688,0,0,1,9.43-11.933" transform="translate(-102.673 -45.356)" fill="#263238"/>
            <path id="Trazado_180352" data-name="Trazado 180352" d="M268.428,132.627l9.323-1.667c-5.1,12.136-6.478,39.891-9.394,52.727-3.436-4.987-11.417-20.174-10.99-26.214s-.017-25.876,11.061-24.846" transform="translate(-97.573 -49.653)" fill="#263238"/>
            <path id="Trazado_180353" data-name="Trazado 180353" d="M315.74,153.847a15.924,15.924,0,0,0-11.979-14.663l-21.469-5.477c-9.279-1-15.475,10.412-16.082,19.725-.675,10.346-1.091,21.264.118,28.987,2.431,15.531,14.326,17.533,14.326,17.533,0-.023,0,7.386.01,11.92l7.185,29.742L311,209.632l4.792-55.6c.006-.265-.03.165-.055-.188" transform="translate(-100.684 -50.671)" fill="#ffc09d"/>
            <path id="Trazado_180354" data-name="Trazado 180354" d="M274.12,183.311a1.991,1.991,0,0,0,1.915,2.013,1.9,1.9,0,0,0,2.056-1.791,1.991,1.991,0,0,0-1.913-2.014,1.906,1.906,0,0,0-2.059,1.791" transform="translate(-103.93 -68.821)" fill="#263238"/>
            <path id="Trazado_180355" data-name="Trazado 180355" d="M270.343,174.038c.246.26,1.757-.852,3.9-.842,2.141-.02,3.71,1.086,3.944.824.114-.116-.137-.585-.82-1.085a5.47,5.47,0,0,0-3.156-.98,5.245,5.245,0,0,0-3.1.995c-.66.5-.885.973-.763,1.09" transform="translate(-102.487 -65.195)" fill="#263238"/>
            <path id="Trazado_180356" data-name="Trazado 180356" d="M304.2,183.311a1.991,1.991,0,0,0,1.915,2.013,1.905,1.905,0,0,0,2.056-1.791,1.992,1.992,0,0,0-1.914-2.014,1.905,1.905,0,0,0-2.058,1.792" transform="translate(-115.335 -68.821)" fill="#263238"/>
            <path id="Trazado_180357" data-name="Trazado 180357" d="M303.116,174.038c.247.26,1.76-.852,3.9-.842,2.14-.02,3.71,1.085,3.943.824.114-.116-.133-.585-.82-1.085a5.461,5.461,0,0,0-3.155-.982,5.253,5.253,0,0,0-3.106,1c-.658.5-.883.973-.763,1.09" transform="translate(-114.913 -65.195)" fill="#263238"/>
            <path id="Trazado_180358" data-name="Trazado 180358" d="M289.014,191.514a14.2,14.2,0,0,0-3.479-.635c-.547-.058-1.064-.168-1.156-.541a2.786,2.786,0,0,1,.369-1.62q.777-1.985,1.627-4.163c2.26-5.926,3.9-10.8,3.658-10.889s-2.266,4.642-4.526,10.569q-.815,2.191-1.559,4.187a3.167,3.167,0,0,0-.289,2.147,1.375,1.375,0,0,0,.9.8,3.693,3.693,0,0,0,.929.131,13.9,13.9,0,0,0,3.527.012" transform="translate(-107.509 -65.844)" fill="#263238"/>
            <path id="Trazado_180359" data-name="Trazado 180359" d="M310.464,231.545s-5.053,10.664-20.588,9.176l0-3.652a39.109,39.109,0,0,0,20.592-5.524" transform="translate(-109.903 -87.789)" fill="#ff9b6c"/>
            <path id="Trazado_180360" data-name="Trazado 180360" d="M304.211,161.866c.21.583,2.35.312,4.863.62,2.519.258,4.545,1,4.879.477.15-.25-.2-.8-1.021-1.365a8.52,8.52,0,0,0-7.422-.836c-.924.37-1.389.826-1.3,1.1" transform="translate(-115.335 -60.765)" fill="#263238"/>
            <path id="Trazado_180361" data-name="Trazado 180361" d="M271.454,163.4c.376.487,1.853-.014,3.628-.034,1.774-.083,3.277.334,3.625-.174.152-.247-.084-.735-.739-1.2a5.25,5.25,0,0,0-5.843.168c-.629.5-.836,1-.67,1.237" transform="translate(-102.899 -61.115)" fill="#263238"/>
            <path id="Trazado_180362" data-name="Trazado 180362" d="M273.229,135.579a6.83,6.83,0,0,1,6.032-3.867,13.265,13.265,0,0,1,7.162,2.088c9.246,5.344,14,18.253,23.134,23.783,2.247,1.36,5.171.114,7.083,1.915s3.151,4.681,2.094,7.085a21.735,21.735,0,0,0,3.17-5.361,7.335,7.335,0,0,0-.256-6.052c-.791-1.369-2.187-2.415-2.57-3.949-.337-1.349.2-2.761.137-4.151a9.042,9.042,0,0,0-1.422-3.96c-3.578-6.329-8.5-12.054-14.841-15.613a26.269,26.269,0,0,0-13.625-3.524,20.1,20.1,0,0,0-12.964,5.145c-2.043,1.905-4.191,3.877-3.132,6.462" transform="translate(-103.487 -46.998)" fill="#263238"/>
            <path id="Trazado_180363" data-name="Trazado 180363" d="M342.96,183.792c.163-.446,8.262-3.368,8.37,5.239.1,8.363-8.334,6.717-8.351,6.477s-.019-11.716-.019-11.716" transform="translate(-130.031 -69.367)" fill="#ffc09d"/>
            <path id="Trazado_180364" data-name="Trazado 180364" d="M347.093,193.982c.037-.027.147.1.394.211a1.452,1.452,0,0,0,1.089.012c.88-.332,1.611-1.742,1.638-3.25a4.811,4.811,0,0,0-.428-2.082,1.681,1.681,0,0,0-1.106-1.108.741.741,0,0,0-.856.407c-.11.235-.055.4-.1.416-.024.021-.181-.138-.117-.484a.925.925,0,0,1,.324-.527,1.1,1.1,0,0,1,.8-.22,2.047,2.047,0,0,1,1.534,1.282,4.948,4.948,0,0,1,.526,2.326c-.038,1.686-.885,3.271-2.091,3.631a1.56,1.56,0,0,1-1.334-.209c-.261-.2-.307-.391-.278-.407" transform="translate(-131.595 -71.033)" fill="#ff9b6c"/>
            <path id="Trazado_180365" data-name="Trazado 180365" d="M320.84,160.17a3.281,3.281,0,0,1-.5-.282c-.32-.2-.813-.474-1.4-.891a28.748,28.748,0,0,1-4.514-4.109,80.551,80.551,0,0,1-5.521-7.172,65.82,65.82,0,0,0-6.9-8.593,26.258,26.258,0,0,0-4.453-3.519,21.687,21.687,0,0,0-4.811-2.183,23.805,23.805,0,0,0-8.858-1.088,22.836,22.836,0,0,0-5.934,1.163c-.687.209-1.2.44-1.549.574a3.194,3.194,0,0,1-.546.193,3.36,3.36,0,0,1,.515-.264,14.2,14.2,0,0,1,1.531-.644,21.678,21.678,0,0,1,5.964-1.292,23.64,23.64,0,0,1,8.984,1.022,21.8,21.8,0,0,1,4.9,2.2,26.342,26.342,0,0,1,4.527,3.567,64.005,64.005,0,0,1,6.92,8.662,86.055,86.055,0,0,0,5.436,7.2,31.038,31.038,0,0,0,4.4,4.169c.571.432,1.049.722,1.355.946a3.276,3.276,0,0,1,.464.347" transform="translate(-104.584 -50.042)" fill="#455a64"/>
            <path id="Trazado_180366" data-name="Trazado 180366" d="M347.813,200.4a1.647,1.647,0,1,1-.391.124" transform="translate(-131.365 -75.97)" fill="#fff"/>
            <path id="Trazado_180367" data-name="Trazado 180367" d="M347.331,200.48a2.255,2.255,0,0,0-.752,1.123,1.417,1.417,0,0,0,.327,1.313,1.462,1.462,0,0,0,2.572-.82,1.418,1.418,0,0,0-.492-1.26,2.249,2.249,0,0,0-1.264-.481c0-.02.129-.086.392-.092a1.707,1.707,0,0,1,1.043.364,1.67,1.67,0,0,1,.671,1.508,1.8,1.8,0,0,1-3.184,1.014,1.675,1.675,0,0,1-.325-1.619,1.709,1.709,0,0,1,.641-.9c.218-.148.365-.171.373-.152" transform="translate(-131.273 -75.929)" fill="#263238"/>
            <path id="Trazado_180368" data-name="Trazado 180368" d="M338.277,173.939c.131,2.283.237,4.7-.819,6.725s-3.717,3.41-5.7,2.275c-1.62-.926-2.1-3-2.379-4.846-.793-5.326-1.156-10.71-2-16.03Z" transform="translate(-124.124 -61.445)" fill="#263238"/>
            <path id="Trazado_180369" data-name="Trazado 180369" d="M276.716,136.03c.009.048.739-.14,2.079-.182a14.307,14.307,0,0,1,5.534,1.011,18.2,18.2,0,0,1,3.467,1.785,37.647,37.647,0,0,1,3.577,2.731,43,43,0,0,1,7,7.549c1.062,1.492,2,3.025,3.022,4.445a21.261,21.261,0,0,0,3.353,3.77,37.252,37.252,0,0,0,7.067,4.728c2.139,1.131,3.927,1.923,5.162,2.471l1.43.609a2.458,2.458,0,0,0,.512.183,2.348,2.348,0,0,0-.473-.269l-1.393-.689c-1.209-.6-2.973-1.435-5.08-2.6a38.561,38.561,0,0,1-6.939-4.76,21.147,21.147,0,0,1-3.264-3.713c-1-1.4-1.94-2.941-3.014-4.45a42.159,42.159,0,0,0-7.106-7.607,36.408,36.408,0,0,0-3.645-2.728,18.1,18.1,0,0,0-3.563-1.769,13.812,13.812,0,0,0-5.659-.883,9.771,9.771,0,0,0-1.547.215,2.381,2.381,0,0,0-.524.149" transform="translate(-104.915 -51.427)" fill="#455a64"/>
            <path id="Trazado_180370" data-name="Trazado 180370" d="M345.3,166.318a3.71,3.71,0,0,0,.739.5l2.118,1.243.713.409a2.253,2.253,0,0,0,.915.3.875.875,0,0,0,.566-.133.728.728,0,0,0,.313-.551,1.869,1.869,0,0,0-.395-1.057l-2.459-3.936-.331.308a8.759,8.759,0,0,0,5.68,1.692,2.526,2.526,0,0,0,.759-.13,1.026,1.026,0,0,0,.649-.566.911.911,0,0,0-.14-.845,3.539,3.539,0,0,0-.477-.523,17.639,17.639,0,0,1-2.848-3.592,29.986,29.986,0,0,1-1.811-3.851,4.355,4.355,0,0,0,.263,1.126,15.717,15.717,0,0,0,1.26,2.892,16.878,16.878,0,0,0,2.832,3.734c.312.3.621.636.5.9-.1.263-.576.393-1.014.4a8.456,8.456,0,0,1-5.381-1.6l-1-.731.667,1.039,2.508,3.9a1.59,1.59,0,0,1,.356.816.4.4,0,0,1-.482.356,4.276,4.276,0,0,1-1.5-.619l-2.184-1.122a3.709,3.709,0,0,0-.818-.358" transform="translate(-130.919 -58.99)" fill="#455a64"/>
            <path id="Trazado_180371" data-name="Trazado 180371" d="M302.122,207.475a2.8,2.8,0,0,0-2.889-2.123,2.923,2.923,0,0,0-2.247,1.6,3.591,3.591,0,0,0-.127,2.8l.045.2a3.183,3.183,0,0,0,3.583.762,2.976,2.976,0,0,0,1.635-3.235" transform="translate(-112.467 -77.853)" fill="#ff9b6c"/>
            <path id="Trazado_180372" data-name="Trazado 180372" d="M294.565,209.109c0-.325,2.164-.222,3.794-2s1.507-4.1,1.81-4.1c.137-.024.395.535.373,1.512a5.406,5.406,0,0,1-1.388,3.426,4.709,4.709,0,0,1-3.175,1.538c-.91.037-1.435-.231-1.414-.379" transform="translate(-111.682 -76.97)" fill="#263238"/>
            <path id="Trazado_180373" data-name="Trazado 180373" d="M377.262,424.775a.514.514,0,0,1-.146.026l-.431.044-1.659.137c-1.441.115-3.528.256-6.108.407-5.16.305-12.3.618-20.183.751s-15.032.056-20.2-.076c-2.584-.066-4.674-.137-6.118-.2l-1.663-.082-.432-.029a.075.075,0,1,1,0-.033l.433,0,1.664.022,6.119.1c5.166.074,12.305.112,20.19-.018s15.015-.409,20.176-.656l6.112-.3,1.663-.077.433-.012a.493.493,0,0,1,.148.007" transform="translate(-121.393 -161.048)" fill="#fff"/>
          </g>
        </g>
      </g>
    </g>
  </g>
</svg>
